<svg width="19" height="19" viewBox="0 0 19 19" fill="none" xmlns="http://www.w3.org/2000/svg">
<path d="M17.9045 6.57631C17.8813 8.31334 17.8581 10.0492 17.8388 11.7862C17.9262 11.8346 17.9676 11.8803 17.7525 11.9148C17.6376 11.9062 17.5498 11.8878 17.4851 11.8576C17.2257 11.5339 17.434 11.1972 17.3702 10.8671C17.3553 10.3463 17.4477 9.82274 17.3447 9.30331C17.3145 9.27019 17.3036 9.23563 17.3118 9.20077C17.4018 9.0813 17.4113 8.96075 17.4017 8.84049C17.4114 8.21861 17.4172 7.5968 17.4345 6.97596C17.4364 6.85321 17.3771 6.72676 17.5936 6.60768C17.6746 6.57055 17.7783 6.55971 17.9045 6.57631Z" fill="#C5C5C5"/>
<path d="M17.7863 13.6925C17.7011 14.7393 18.2407 15.7777 17.7299 16.8309C17.6147 16.8431 17.5228 16.8364 17.4504 16.8086C17.1252 16.5264 17.3291 16.2315 17.4179 15.9419C17.4663 15.7895 17.5299 15.6415 17.3673 15.4969C17.2363 15.2986 17.4005 15.09 17.2349 14.8922C17.205 14.8475 17.2018 14.8024 17.2217 14.757C17.3622 14.5985 17.3723 14.4421 17.2405 14.2866C17.2182 14.243 17.2227 14.1978 17.2464 14.1534C17.425 14.0094 17.2243 13.8504 17.5216 13.7104C17.5948 13.685 17.6869 13.6778 17.7863 13.6925Z" fill="#D4D4D4"/>
<path d="M17.8066 11.9069C17.8187 11.8662 17.827 11.8255 17.8392 11.7848C18.3257 12.009 17.6861 12.2688 17.9619 12.5066C18.045 12.5806 17.829 12.6857 18.1879 12.7474C18.375 12.7793 18.3739 12.8499 18.2047 12.8954C17.7088 13.0268 17.8325 13.1963 17.7917 13.3555C17.4625 13.3513 17.3834 13.2737 17.3731 13.1975C17.325 12.8439 17.3037 12.49 17.4087 12.1341C17.4369 12.0491 17.5798 11.9694 17.8066 11.9069Z" fill="#E5E5E5"/>
<path d="M17.8065 11.9069C17.6533 12.3921 17.4464 12.8792 17.7916 13.3567C18.0007 13.4647 17.6884 13.5817 17.7902 13.6913C17.7288 13.6957 17.6675 13.6978 17.6062 13.6976C17.3006 13.6305 17.3752 13.5124 17.2348 13.4231C17.1972 13.3808 17.1748 13.3372 17.1679 13.2933C17.1543 13.1777 17.1792 13.0592 17.0429 12.949C17.0017 12.8906 16.9987 12.8316 17.0227 12.7722C17.2054 12.6015 17.166 12.4284 17.1648 12.2559C17.1736 12.1863 17.121 12.1188 17.1451 12.049C17.1843 11.9928 17.2923 11.9483 17.4423 11.9125C17.5192 11.8986 17.6074 11.8903 17.6956 11.8889C17.73 11.8965 17.7682 11.9017 17.8065 11.9069Z" fill="#909090"/>
<path d="M17.0891 10.0182C17.127 10.0477 17.1456 10.0787 17.1566 10.111C17.1837 10.3421 17.1686 10.5739 17.1573 10.8056C17.1518 10.9122 17.1387 11.0201 16.8499 11.1044C16.7114 11.1412 16.554 11.154 16.3778 11.1463" fill="#B2B2B2"/>
<path d="M16.6053 7.35555C16.7157 7.40597 16.7875 7.46739 17.0211 7.48004C17.1015 7.48808 17.1664 7.5033 17.2198 7.52217C17.2577 7.5459 17.2803 7.56987 17.2876 7.59639C17.2826 7.66825 17.1744 7.72547 16.9897 7.77228" fill="#BABABA"/>
<path d="M16.6887 8.72039C16.768 8.7956 16.7439 8.86659 16.5513 8.92973L16.6887 8.72039Z" fill="#A7A7A7"/>
<path d="M16.5591 8.42484C16.6159 8.47145 16.6036 8.52258 16.5033 8.56115L16.5591 8.42484Z" fill="#A7A7A7"/>
<path d="M16.6394 8.41443C16.6086 8.42544 16.5739 8.4365 16.5431 8.44634L16.6394 8.41443Z" fill="#BBBBBB"/>
<path d="M17.0142 12.8731C17.1033 13.0628 17.1616 13.253 16.8943 13.4411L17.0142 12.8731Z" fill="#AEAEAE"/>
<path d="M16.7925 12.3484C16.9377 12.3787 16.9179 12.4172 16.8368 12.4589L16.7925 12.3484Z" fill="#AEAEAE"/>
<path d="M16.5932 13.799C16.7658 13.7941 16.8996 13.8105 16.9909 13.8555C17.1852 14.1813 17.1916 14.5089 16.9718 14.8399" fill="#A1A1A1"/>
<path d="M16.8027 13.4263C17.0091 13.4568 17.0197 13.5145 17.0111 13.5748C16.9447 13.6592 16.8744 13.7425 16.5939 13.7907" fill="#C5C5C5"/>
<path d="M16.8141 14.87C16.9175 14.873 17.0093 14.8855 17.0818 14.9064C17.1466 14.9297 17.1922 14.9568 17.2224 14.9876C17.3084 15.1253 17.264 15.2672 17.2772 15.4071C17.2563 15.5174 17.3273 15.6332 17.0537 15.7323C16.3486 15.7234 16.6389 15.5418 16.5256 15.4324" fill="#B4B4B4"/>
<path d="M16.3512 11.8885C16.5462 11.9203 16.7954 11.9188 16.9555 11.9708C17.0012 11.9921 17.0315 12.0148 17.0464 12.04C17.0989 12.118 17.1206 12.1963 17.0159 12.2755C16.9772 12.3004 16.9156 12.3199 16.8387 12.3361C16.6393 12.3403 16.5403 12.3013 16.449 12.2587" fill="#D6D6D6"/>
<path d="M16.6723 12.2067C16.7254 12.2441 16.7784 12.2803 16.8315 12.3177C16.9003 12.334 16.9038 12.3537 16.8459 12.3765" fill="#C5C5C5"/>
<path d="M16.3756 15.2573C16.6559 15.2241 16.7859 15.2429 16.7883 15.332C16.6878 15.3868 16.6408 15.4547 16.3952 15.4723" fill="#CBCBCB"/>
<path d="M17.5219 5.83181C17.5871 5.83081 17.6522 5.83098 17.7212 5.82993C17.7327 6.07636 17.7442 6.32395 17.7519 6.57044C17.7206 7.34779 17.6932 8.12508 17.662 8.90127C17.6159 8.90428 17.566 8.90852 17.52 8.91153C17.4321 8.89782 17.3672 8.87681 17.3255 8.84966C17.2459 8.79414 17.2353 8.7341 17.2286 8.67284C17.2236 8.50388 17.23 8.3359 17.2288 8.16689C17.23 8.09161 17.2311 8.01634 17.2361 7.94101C17.237 7.8831 17.238 7.82404 17.2504 7.76597C17.2821 7.69486 17.3407 7.62334 17.2537 7.55404C17.2703 7.46695 17.2334 7.38068 17.2462 7.29365C17.2488 7.12805 17.2475 6.96251 17.2501 6.79691C17.2467 6.76685 17.251 6.73669 17.2515 6.70774C17.2572 6.5884 17.2859 6.46987 17.1535 6.35611C17.1161 6.29647 17.1209 6.23619 17.1563 6.17545C17.3075 6.06316 17.187 5.92837 17.5219 5.83181Z" fill="#A2A2A2"/>
<path d="M17.5077 9.1907C17.5151 9.20564 17.5149 9.22185 17.507 9.23702C17.656 9.75691 17.5175 10.2823 17.5516 10.804C17.5549 10.8375 17.5467 10.8724 17.527 10.9062C17.0012 10.9536 17.099 10.8282 17.0887 10.7474C17.0611 10.5498 17.0949 10.3513 17.0788 10.1536C17.0716 10.1236 17.0491 10.0938 17.0189 10.0642C16.9965 10.0205 16.9589 9.97709 16.9558 9.93199C17.0652 9.79717 16.9867 9.66986 16.8621 9.54324C16.8144 9.41082 16.8011 9.27672 16.8607 9.14267C16.9123 9.02958 16.9755 8.90821 17.4893 8.89459C17.6449 8.99179 17.6089 9.09075 17.5077 9.1907Z" fill="#121212"/>
<path d="M17.4739 10.8681C17.375 10.3266 17.4372 9.78148 17.507 9.23742C17.8572 9.39185 17.6282 9.57364 17.6448 9.74127C17.6812 10.1124 17.6447 10.4869 17.635 10.8587C17.6079 10.8799 17.5733 10.8886 17.535 10.8845C17.4967 10.8793 17.4738 10.875 17.4739 10.8681Z" fill="#595959"/>
<path d="M17.4739 10.8679C17.5276 10.8647 17.5813 10.8616 17.635 10.8585C17.6526 11.2021 17.6741 11.5456 17.6956 11.888C17.661 11.8966 17.6226 11.9041 17.5879 11.9128C17.293 11.9011 17.2443 11.83 17.1956 11.759C17.2536 11.4791 16.9437 11.1943 17.4463 10.9181C17.458 10.9017 17.4659 10.8854 17.4739 10.8679Z" fill="#909090"/>
<path d="M17.5078 9.19089C17.4019 9.09525 17.4418 8.99507 17.4894 8.89594C17.5468 8.89622 17.6043 8.89766 17.6618 8.90026C17.6257 8.99806 17.6817 9.09909 17.5078 9.19089Z" fill="#595959"/>
<path d="M17.4055 13.3001C17.4203 13.3346 17.4313 13.368 17.4461 13.4025C17.5571 13.6602 17.5454 13.9197 17.4378 14.1807C17.4374 14.2084 17.437 14.2362 17.4327 14.2653C17.5374 14.4292 17.5234 14.595 17.4288 14.762C17.4245 14.7899 17.4202 14.8189 17.4198 14.8467C17.5659 15.0656 17.4435 15.292 17.4784 15.5138C17.4472 15.5513 17.3702 15.571 17.2437 15.5718C17.026 15.5265 17.1306 15.4531 17.1047 15.391C17.0496 15.2378 17.2361 15.0741 16.9893 14.9273L16.9969 14.9295C16.7963 14.5192 17.0635 14.0972 16.8591 13.6882C16.9721 13.566 16.9242 13.4429 16.9683 13.3206C17.0994 13.2688 17.2451 13.262 17.4055 13.3001Z" fill="#232323"/>
<path d="M17.5883 16.8065C17.4753 16.9287 17.6763 17.0611 17.3871 17.1766C16.9632 17.0777 17.138 16.9268 17.0903 16.7944C17.0913 16.7273 17.0924 16.6601 17.0934 16.5929C17.0998 16.4284 17.0947 16.2641 17.1087 16.1006C17.1227 15.9383 17.3168 15.7826 17.3691 15.6231C17.435 15.5781 17.4817 15.5311 17.5819 15.4914C17.9071 15.7793 17.5728 16.0797 17.5951 16.3734C17.6043 16.518 17.5906 16.6629 17.5883 16.8065Z" fill="#4A4A4A"/>
<path d="M17.4377 14.1807C17.4417 13.9213 17.4419 13.662 17.4459 13.4026C17.686 13.4892 17.5041 13.6031 17.6061 13.6988C17.5998 13.8599 17.7275 14.0235 17.4377 14.1807Z" fill="#424242"/>
<path d="M17.5824 15.4914C17.5664 15.5356 17.5504 15.5787 17.5382 15.6229C17.4041 15.618 17.3162 15.6031 17.3898 15.5545C17.4011 15.3182 17.4124 15.083 17.4276 14.8466C17.7847 15.0495 17.5589 15.2753 17.5824 15.4914Z" fill="#424242"/>
<path d="M17.4325 14.7621C17.435 14.5965 17.4338 14.431 17.4364 14.2654C17.7328 14.4264 17.7034 14.5924 17.4325 14.7621Z" fill="#424242"/>
<path d="M16.6226 15.6217C16.854 15.7768 16.9703 15.9371 16.8219 16.1119C16.7708 16.1925 16.4099 16.2328 16.4812 16.3301C16.4843 16.3798 16.4185 16.4225 16.3106 16.46" fill="#B7B7B7"/>
<path d="M17.046 13.3046C17.0327 13.4159 17.0195 13.5273 17.0063 13.6386C16.9714 13.6658 16.9099 13.676 16.8219 13.6657C16.7686 13.6446 16.7651 13.6215 16.8153 13.5975C16.8085 13.5409 16.8055 13.4842 16.8026 13.4264C16.8095 13.2318 16.8125 13.0372 16.8194 12.8414C16.7371 12.7084 16.1831 12.5999 16.657 12.4364C16.7225 12.4157 16.7842 12.3951 16.8496 12.3744C16.8461 12.3548 16.8387 12.3352 16.8352 12.3156L16.9117 12.3237C17.184 12.3137 17.2061 12.3748 17.2397 12.4321C17.2839 12.5438 17.194 12.6586 17.2382 12.7702C17.2412 12.8257 17.248 12.8824 17.251 12.9379C17.1915 13.0627 17.3428 13.1912 17.046 13.3046Z" fill="#7E7E7E"/>
<path d="M17.0705 12.4381C17.0174 12.4007 16.9605 12.3634 16.9075 12.326C16.9051 12.2311 16.9066 12.1349 16.9042 12.04C16.9828 11.9196 16.6475 11.7927 17.0364 11.678C17.3816 11.6553 17.3306 11.7325 17.3488 11.7936C17.3285 11.8715 17.446 11.9519 17.2532 12.0255C17.306 12.086 17.3625 12.1465 17.4152 12.2059C17.1805 12.2685 17.5998 12.4115 17.0705 12.4381Z" fill="#606060"/>
<path d="M17.0703 12.438C17.1827 12.361 17.2989 12.284 17.4112 12.2059C17.4083 12.3958 17.5586 12.5869 17.2299 12.7725C16.8634 12.6808 17.0992 12.551 17.0703 12.438Z" fill="#333333"/>
<path d="M17.0454 13.3046C17.0741 13.1826 16.919 13.053 17.2465 12.9415C17.5476 13.0469 17.3884 13.179 17.4057 13.3014C17.2869 13.3021 17.168 13.3027 17.0454 13.3046Z" fill="#545454"/>
<path d="M17.2492 12.0255C17.2542 11.9501 17.2631 11.8736 17.2681 11.7983C17.2991 11.7758 17.3337 11.7671 17.3681 11.7736C17.4025 11.78 17.4216 11.7867 17.4214 11.7948C17.4745 11.8345 17.5314 11.8741 17.5844 11.9138C17.5185 11.9623 17.4678 12.0163 17.2492 12.0255Z" fill="#272727"/>
<path d="M16.4301 15.457C16.6018 15.5088 16.5971 15.5656 16.4505 15.6268C16.3958 15.6937 16.5286 15.775 16.2557 15.8289" fill="#9D9D9D"/>
<path d="M16.9834 11.673C16.9013 11.7738 17.0836 11.881 16.8484 11.9772L16.9834 11.673Z" fill="#C5C5C5"/>
<path d="M17.0059 9.45808C16.9685 9.64158 17.3182 9.82729 16.8747 10.0077L17.0059 9.45808Z" fill="#A6A6A6"/>
<path d="M16.8708 10.0076C16.8741 9.79912 16.8773 9.58951 16.8806 9.38106C16.7317 9.3405 16.6789 9.28688 16.6607 9.22696C16.6498 9.18428 16.6505 9.14144 16.6512 9.09859C16.6518 9.0569 16.6601 9.01393 16.6838 8.97189C16.7347 8.90397 16.7626 8.83292 16.8939 8.77071C16.9441 8.74679 17.0096 8.72611 17.0827 8.70763C17.2209 8.68932 17.3474 8.6897 17.4619 8.71806C17.4687 8.777 17.4754 8.83711 17.4822 8.89605C16.8158 9.11229 17.1874 9.36365 17.111 9.59869C17.228 9.71037 17.2224 9.82507 17.1057 9.94032C17.0935 9.98102 17.0775 10.0229 17.0654 10.0637C17.0192 10.0783 16.977 10.0824 16.9464 10.0747C16.9197 10.0682 16.9045 10.0626 16.9046 10.0557C16.9086 10.0394 16.8936 10.0223 16.8708 10.0076Z" fill="#595959"/>
<path d="M16.9124 10.0566C16.9622 10.0628 17.0158 10.0655 17.0733 10.0646L17.0887 10.0597C17.3252 10.3803 17.0401 10.7181 17.2498 11.0402C17.2098 11.1427 17.1661 11.2453 16.9424 11.3321C16.8386 11.3545 16.7389 11.356 16.6357 11.3367C16.4492 11.2585 16.4963 11.1826 16.6853 11.1056C17.1008 10.7577 16.7729 10.4061 16.9124 10.0566Z" fill="#9C9C9C"/>
<path d="M16.693 11.3393C16.7582 11.3383 16.8233 11.3373 16.8885 11.3363C17.1405 11.4008 17.1277 11.4844 17.0381 11.5749C16.9993 11.6033 16.93 11.624 16.8378 11.6381" fill="#ACACAC"/>
<path d="M16.8817 9.08111C16.885 9.11811 16.8883 9.15395 16.8916 9.19095L16.8817 9.08111Z" fill="#9E9E9E"/>
<path d="M16.6895 11.1056C16.692 11.1831 16.6908 11.2607 16.6934 11.3382L16.6895 11.1056Z" fill="#A4A4A4"/>
<path d="M16.528 8.91287C16.6082 8.9339 16.6537 8.96131 16.6647 8.9951L16.528 8.91287Z" fill="#9E9E9E"/>
<path d="M16.5347 8.96932C16.5771 8.95131 16.6309 8.93891 16.7 8.93322C16.7728 8.93443 16.8302 8.94282 16.8759 8.95949C16.8791 8.99996 16.8785 9.04049 16.8817 9.08097" fill="#A4A4A4"/>
<path d="M16.9371 7.74748C17.1815 7.79932 17.1956 7.88363 17.2326 7.96411C17.2317 8.02433 17.1466 8.07193 16.9851 8.10913C16.9006 8.122 16.8124 8.12681 16.7204 8.12706" fill="#A3A3A3"/>
<path d="M17.1131 7.98003C16.8419 7.92048 16.9622 7.82718 16.9366 7.74653C17.0027 7.68647 17.0726 7.62752 17.1387 7.56747C17.2197 7.53266 17.3002 7.53143 17.3763 7.565C17.5749 7.61524 17.501 7.68351 17.4731 7.74877C17.3573 7.80264 17.3219 7.86338 17.2788 7.92424C17.2401 7.94915 17.1861 7.96734 17.1131 7.98003Z" fill="#7B7B7B"/>
<path d="M16.5425 8.44695C16.5425 8.44695 16.5386 8.44701 16.5425 8.44695C16.7806 8.41554 16.4311 8.21825 17.0317 8.28783C17.2444 8.4131 17.2501 8.54037 16.9951 8.6693C16.8489 8.70742 16.6955 8.71439 16.5427 8.67967" fill="#9E9E9E"/>
<path d="M16.5472 8.67982C16.6698 8.67796 16.7887 8.6773 16.9113 8.67543C16.9877 8.69164 17.0027 8.71456 16.9755 8.74161C16.8632 8.81394 16.8811 8.89703 16.7305 8.96532C16.6653 8.96631 16.604 8.96724 16.5388 8.96824C16.5391 8.94971 16.5356 8.93008 16.5321 8.91161C16.5332 8.83518 16.5383 8.75753 16.5472 8.67982Z" fill="#B5B5B5"/>
<path d="M16.7398 8.09814C16.7973 8.09726 16.8586 8.09633 16.92 8.09539C17.0954 8.15061 17.0945 8.20851 16.9135 8.268C16.7899 8.32777 16.6663 8.38754 16.5427 8.44732" fill="#A7A7A7"/>
<path d="M16.6534 12.4376C16.5822 12.5787 17.0365 12.6922 16.8157 12.8426L16.6534 12.4376Z" fill="#A4A4A4"/>
<path d="M16.8719 13.6592C16.9179 13.6538 16.964 13.6474 17.0063 13.6386C17.0035 14.0693 17.0006 14.5001 16.9977 14.9297C16.9367 14.9097 16.8757 14.8898 16.8147 14.8699C16.8163 14.5214 16.8217 14.174 16.8233 13.8255C16.7245 13.7691 16.6871 13.7129 16.8719 13.6592Z" fill="#3B3B3B"/>
<path d="M16.445 13.7791C16.5483 13.788 16.5634 13.8042 16.4787 13.8289L16.445 13.7791Z" fill="#838383"/>
<path d="M16.4783 13.8282C16.4709 13.811 16.4596 13.7949 16.4445 13.7789C16.5681 13.718 16.6917 13.6582 16.8153 13.5973C16.8341 13.6179 16.853 13.6384 16.8718 13.659C16.8556 13.7148 16.8394 13.7706 16.8233 13.8253C16.7083 13.8259 16.5933 13.8265 16.4783 13.8282Z" fill="#BBBBBB"/>
<path d="M16.4501 15.6269C16.4433 15.5702 16.4365 15.5136 16.4297 15.457C16.5492 15.4158 16.6686 15.3746 16.7881 15.3323C16.8895 15.4639 16.6572 15.6156 16.9734 15.7358C17.1033 15.7616 17.1372 15.8016 17.1403 15.8467C17.0197 15.9678 17.1707 16.1114 16.7553 16.2069C16.7093 16.2053 16.6634 16.2037 16.6174 16.2021C16.5361 16.0111 16.7922 15.8057 16.4501 15.6269Z" fill="#C5C5C5"/>
<path d="M16.994 15.85C16.9869 15.8119 16.9799 15.7738 16.9728 15.7357C16.9822 15.6198 16.9956 15.5027 17.005 15.3867C17.0475 15.3653 17.086 15.3589 17.1242 15.3652C17.1624 15.3716 17.1815 15.3783 17.1814 15.3852C17.192 15.4429 17.1987 15.5007 17.2093 15.5585C17.5366 15.7086 17.281 15.8757 17.2785 16.0367C17.2819 16.0691 17.266 16.1017 17.231 16.1335C17.131 16.1559 17.0352 16.1562 16.9397 16.1345C16.9029 16.039 16.8354 15.9451 16.994 15.85Z" fill="#4A4A4A"/>
<path d="M17.1858 15.385C17.1283 15.3848 17.0669 15.3857 17.0094 15.3866C17.0041 15.2338 16.995 15.08 16.9897 14.9272C17.4054 15.0598 17.1115 15.2333 17.1858 15.385Z" fill="#424242"/>
<path d="M16.8517 11.9772C16.8458 11.8638 16.8437 11.7504 16.8378 11.637L16.9071 11.6174C16.9802 11.6047 17.0453 11.606 17.1102 11.6201C17.1444 11.6427 17.1326 11.6626 17.071 11.6809C17.0231 11.8009 17.1361 11.9254 16.9044 12.04C16.8855 12.0195 16.8667 11.9978 16.8517 11.9772Z" fill="#ACACAC"/>
<path d="M16.9131 8.26776C16.914 8.20986 16.9188 8.15306 16.9197 8.09515C16.9854 8.0571 17.0473 8.01911 17.1131 7.98106C17.1172 7.96016 17.1214 7.93925 17.1255 7.91835C17.2411 7.88301 17.3638 7.87999 17.486 7.90939C17.4886 7.98807 17.4911 8.06792 17.4938 8.14661C17.0694 8.32327 17.5299 8.53507 17.1553 8.71329C17.1319 8.74143 17.1085 8.76842 17.085 8.79656C16.9356 8.79653 16.8246 8.7878 16.9251 8.73069L16.9294 8.70284L16.9145 8.67528C16.9089 8.53991 16.911 8.40326 16.9131 8.26776Z" fill="#6B6B6B"/>
<path d="M17.1552 8.71451C17.2502 8.52434 16.7361 8.3122 17.4937 8.14783C17.4869 8.33781 17.4801 8.52894 17.4694 8.71898C17.3622 8.71714 17.2587 8.71525 17.1552 8.71451Z" fill="#2C2C2C"/>
<path d="M17.4819 7.90951C17.363 7.91248 17.2442 7.91545 17.1215 7.91847C17.1151 7.83984 17.2194 7.78152 17.469 7.75109C17.4759 7.80308 17.4789 7.8563 17.4819 7.90951Z" fill="#545454"/>
<path d="M17.0706 11.6809C17.044 11.6686 17.0366 11.6548 17.0406 11.6397C16.94 11.4583 16.9351 11.2766 17.0568 11.093C17.0698 10.7489 17.079 10.4049 17.092 10.0608C17.4956 10.2341 17.2049 10.44 17.2901 10.6286C17.3346 10.7263 17.1604 10.8378 17.4504 10.9191C17.4421 11.211 17.4375 11.5028 17.4292 11.7935C17.3755 11.7932 17.3257 11.794 17.2758 11.797C17.2036 11.7588 17.1352 11.7193 17.0706 11.6809Z" fill="#414141"/>
<path d="M17.1133 9.94112C17.1151 9.82763 17.1169 9.71298 17.1186 9.59949C17.3737 9.70907 17.372 9.82256 17.1133 9.94112Z" fill="#101010"/>
<path d="M17.2054 16.0761C17.2081 15.9035 17.2069 15.731 17.2096 15.5597C17.2671 15.5576 17.3246 15.5567 17.3821 15.5559C17.4316 15.5783 17.4811 15.6007 17.5305 15.6242C17.6354 15.7778 17.3419 15.9235 17.3549 16.075C17.32 16.0975 17.2854 16.105 17.251 16.0985C17.2243 16.0897 17.2053 16.083 17.2054 16.0761Z" fill="#191919"/>
<path d="M17.3315 16.6C17.2779 16.5997 17.2281 16.5993 17.1744 16.6001C16.9851 16.4513 16.7574 16.3031 17.1585 16.1419C17.1742 16.1196 17.1899 16.0974 17.2055 16.0763C17.2592 16.0767 17.309 16.0759 17.3589 16.074C17.3523 16.2489 17.3419 16.425 17.3315 16.6Z" fill="#2A2A2A"/>
<path d="M16.8239 16.4836C16.8044 16.5024 16.7926 16.5211 16.7847 16.5409C16.5974 16.5102 16.5143 16.4281 16.2382 16.4381C16.3001 16.4001 16.3621 16.361 16.424 16.323C16.4586 16.3144 16.4971 16.3057 16.5317 16.297C16.827 16.2821 16.9297 16.3315 16.94 16.4101C16.9243 16.4381 16.8856 16.4618 16.8239 16.4836Z" fill="#CCCCCC"/>
<path d="M16.6176 16.2018C16.7316 16.2661 16.5281 16.2877 16.4241 16.3229L16.6176 16.2018Z" fill="#A7A7A7"/>
<path d="M16.8236 16.4834L16.8163 16.4627L16.8204 16.4406C17.0097 16.3451 16.6743 16.2275 17.0091 16.1379C17.0589 16.1383 17.1088 16.1387 17.1585 16.1414C17.1638 16.2941 17.1691 16.4469 17.1744 16.5996C17.1128 16.6203 17.055 16.6408 16.9933 16.6614C16.9368 16.6021 17.0376 16.5265 16.8236 16.4834Z" fill="#626262"/>
<path d="M16.4491 11.7656C16.5143 11.7658 16.6173 11.7959 16.6247 11.8156L16.4491 11.7656Z" fill="#AAAAAA"/>
<path d="M16.8916 9.19104C16.8906 9.25473 16.8861 9.31732 16.8851 9.38101L16.8916 9.19104Z" fill="#7B7B7B"/>
<path d="M16.9215 8.73085C16.9748 8.75319 17.0281 8.77438 17.0815 8.79672C17.0116 8.85104 16.9456 8.9053 16.8758 8.95847C16.8259 8.96154 16.7761 8.96462 16.7262 8.96538C16.7505 8.88512 16.6522 8.79747 16.9215 8.73085Z" fill="#C4C4C4"/>
<path d="M17.0535 11.0918C17.0468 11.2737 17.044 11.4566 17.0373 11.6385C16.9914 11.6311 16.9455 11.6249 16.9035 11.6174C16.8973 11.5237 16.8911 11.4289 16.8849 11.3352C16.9206 11.2536 16.8339 11.1658 17.0535 11.0918Z" fill="#515151"/>
<path d="M17.0094 16.138C16.8891 16.236 17.1326 16.3503 16.8208 16.4408C16.7989 16.3682 16.6885 16.3212 16.424 16.3229C16.4898 16.2826 16.5517 16.2423 16.6175 16.2019C16.9985 16.1058 16.6024 15.9451 16.9947 15.8511C17.0009 15.946 17.0071 16.042 17.0094 16.138Z" fill="#B7B7B7"/>
<path d="M6.79645 4.93658C8.8256 7.06777 10.8534 9.19753 12.8868 11.3239C13.0433 11.2751 13.1444 11.2794 12.9412 11.5859C12.8006 11.7166 12.6792 11.8025 12.57 11.8454C11.8927 11.7726 11.7307 11.1088 11.2676 10.7877C10.6345 10.1756 10.1198 9.42814 9.38825 8.92613C9.31487 8.92312 9.26153 8.89476 9.22959 8.84247C9.19034 8.58715 9.05851 8.42949 8.90528 8.29575C8.18037 7.53107 7.45119 6.77118 6.73619 5.99835C6.5931 5.84741 6.37613 5.76734 6.48082 5.35695C6.52885 5.21232 6.63361 5.07171 6.79645 4.93658Z" fill="#C5C5C5"/>
<path d="M15.083 13.6966C16.2249 15.0686 18.0659 15.662 18.7327 17.5652C18.6165 17.7216 18.5043 17.8264 18.3892 17.8818C17.6864 17.9402 17.5688 17.3325 17.3268 16.8726C17.2013 16.6287 17.0984 16.3712 16.7429 16.3962C16.3595 16.3173 16.299 15.8629 15.8772 15.8271C15.7903 15.8098 15.7333 15.7591 15.7021 15.6796C15.6739 15.3151 15.5003 15.1133 15.1669 15.0871C15.0899 15.0617 15.0415 15.0014 15.0159 14.9186C15.0481 14.5247 14.6323 14.579 14.8039 14.0439C14.8569 13.9231 14.9528 13.8011 15.083 13.6966Z" fill="#D4D4D4"/>
<path d="M12.993 11.5104C12.9586 11.4462 12.9199 11.3868 12.8855 11.3226C13.7033 10.9948 13.2844 12.0968 13.879 12.0451C14.0609 12.0323 13.94 12.4256 14.4206 12.0584C14.6708 11.8666 14.7532 11.9535 14.6148 12.2167C14.2071 12.9864 14.5481 13.0393 14.6903 13.2822C14.3114 13.6824 14.1297 13.686 14.0278 13.6064C13.5548 13.2377 13.1118 12.8354 12.81 12.2753C12.7414 12.1378 12.8093 11.8653 12.993 11.5104Z" fill="#E5E5E5"/>
<path d="M12.9927 11.5102C13.393 12.2859 13.7347 13.1299 14.6914 13.2835C15.0563 13.157 14.8406 13.6827 15.0858 13.6902C15.0213 13.7711 14.9542 13.849 14.8844 13.9242C14.4583 14.2187 14.4033 13.984 14.1383 14.0486C14.0455 14.0437 13.9685 14.0183 13.9087 13.9738C13.7566 13.8505 13.6445 13.6766 13.3595 13.7107C13.2436 13.6907 13.1705 13.6229 13.1273 13.5216C13.1327 13.0902 12.8832 12.9292 12.6777 12.7218C12.6053 12.6268 12.4657 12.6098 12.4104 12.4956C12.3884 12.3794 12.4583 12.1928 12.5861 11.9648C12.6568 11.8535 12.7472 11.7348 12.8456 11.6248C12.8936 11.5917 12.9431 11.5509 12.9927 11.5102Z" fill="#909090"/>
<path d="M9.94292 10.1069C10.0209 10.0961 10.0787 10.1106 10.1294 10.1361C10.4338 10.3828 10.691 10.6821 10.9526 10.9766C11.0726 11.1124 11.1853 11.2593 10.9574 11.7167C10.8437 11.9318 10.6803 12.1409 10.4712 12.3483" fill="#B2B2B2"/>
<path d="M6.2433 7.47907C6.42825 7.40433 6.58254 7.3903 6.86264 7.1182C6.96337 7.02905 7.05507 6.96761 7.13798 6.9248C7.20916 6.90684 7.26321 6.90803 7.30284 6.93123C7.3823 7.02434 7.32723 7.22678 7.17302 7.51073" fill="#BABABA"/>
<path d="M7.95245 9.02963C8.13137 9.02312 8.18802 9.13867 8.04426 9.4519L7.95245 9.02963Z" fill="#A7A7A7"/>
<path d="M7.4557 8.83122C7.57521 8.81783 7.62176 8.89482 7.55369 9.06476L7.4557 8.83122Z" fill="#A7A7A7"/>
<path d="M7.53467 8.71936C7.51258 8.77044 7.48622 8.82631 7.46279 8.87597L7.53467 8.71936Z" fill="#BBBBBB"/>
<path d="M13.2367 13.6553C13.5623 13.7754 13.8537 13.9339 13.773 14.4908L13.2367 13.6553Z" fill="#AEAEAE"/>
<path d="M12.3639 13.293C12.5643 13.1511 12.5875 13.222 12.5448 13.3723L12.3639 13.293Z" fill="#AEAEAE"/>
<path d="M13.8543 15.2933C14.0443 15.075 14.2158 14.9302 14.3726 14.8723C14.9788 15.028 15.3739 15.4168 15.5163 16.0881" fill="#A1A1A1"/>
<path d="M13.6506 14.5852C13.921 14.368 14.0014 14.4248 14.063 14.5085C14.0875 14.6925 14.1063 14.8798 13.845 15.2834" fill="#C5C5C5"/>
<path d="M15.3722 16.3183C15.4933 16.1947 15.6122 16.0969 15.7193 16.033C15.8204 15.9815 15.9042 15.9582 15.9749 15.9584C16.2355 16.0193 16.3532 16.2457 16.5337 16.399C16.6406 16.5583 16.8584 16.6112 16.6651 17.0679C15.8542 17.9246 15.9688 17.3476 15.7106 17.3545" fill="#B4B4B4"/>
<path d="M11.3188 13.2794C11.5776 13.078 11.8587 12.7696 12.102 12.6355C12.179 12.6051 12.2403 12.5953 12.2871 12.6075C12.4389 12.6374 12.5565 12.7055 12.5313 12.9302C12.5169 13.008 12.47 13.1074 12.4019 13.2217C12.1806 13.4721 12.022 13.5467 11.8679 13.6075" fill="#D6D6D6"/>
<path d="M12.0598 13.2692C12.1642 13.2492 12.2673 13.2278 12.3717 13.2078C12.469 13.143 12.4962 13.1624 12.4577 13.2612" fill="#C5C5C5"/>
<path d="M15.3328 17.3271C15.6116 16.942 15.7815 16.8049 15.8898 16.9098C15.8406 17.0998 15.8675 17.2399 15.6097 17.5634" fill="#CBCBCB"/>
<path d="M5.48109 4.50656C5.55385 4.42521 5.62796 4.34528 5.705 4.25914C6.00965 4.54331 6.31566 4.8289 6.61603 5.11785C7.50043 6.09727 8.3891 7.07191 9.27215 8.0499C9.22349 8.11017 9.1719 8.17666 9.12324 8.23693C9.00725 8.32849 8.90884 8.38278 8.82936 8.40125C8.67333 8.43197 8.5903 8.37228 8.51019 8.30638C8.30454 8.10805 8.11309 7.89678 7.91172 7.69367C7.82397 7.60111 7.73623 7.50855 7.65276 7.41121C7.58527 7.34001 7.51642 7.26738 7.46177 7.18183C7.41366 7.05668 7.39552 6.89804 7.21473 6.92124C7.13061 6.7953 6.98656 6.73636 6.89816 6.6152C6.70512 6.41157 6.5078 6.21273 6.31477 6.0091C6.27539 5.97686 6.24457 5.93505 6.21082 5.89945C6.07606 5.74799 5.96833 5.56925 5.68354 5.59434C5.57054 5.56815 5.50463 5.48932 5.47295 5.3722C5.51163 5.05029 5.21538 5.0354 5.48109 4.50656Z" fill="#A2A2A2"/>
<path d="M9.43931 8.59023C9.46542 8.59917 9.48431 8.61911 9.4933 8.64719C10.2776 9.0932 10.7422 9.89955 11.3981 10.4891C11.4416 10.5256 11.4735 10.5779 11.4912 10.6431C10.9508 11.3472 10.9133 11.0752 10.806 10.9898C10.5409 10.7846 10.3443 10.5028 10.0921 10.2833C10.0484 10.2558 9.98766 10.2475 9.91833 10.2488C9.84135 10.2234 9.74725 10.2171 9.69033 10.1664C9.65493 9.86861 9.4152 9.81105 9.12412 9.8109C8.91324 9.70936 8.73953 9.56332 8.64849 9.32778C8.57319 9.12744 8.50128 8.90278 9.06805 8.2544C9.35962 8.18066 9.43584 8.34477 9.43931 8.59023Z" fill="#121212"/>
<path d="M11.3859 10.6614C10.6329 10.1275 10.0584 9.39126 9.49373 8.64684C10.0738 8.40309 10.0291 8.90473 10.2463 9.08728C10.7267 9.49173 11.1285 9.98996 11.5575 10.4518C11.5519 10.511 11.5228 10.564 11.4746 10.6062C11.425 10.6469 11.394 10.6699 11.3859 10.6614Z" fill="#595959"/>
<path d="M11.3857 10.6616C11.4429 10.5917 11.5002 10.5218 11.5574 10.452C11.9842 10.8464 12.4153 11.236 12.8451 11.6242C12.816 11.6772 12.7813 11.7337 12.7522 11.7867C12.4036 12.1354 12.2642 12.1093 12.1248 12.0832C11.8592 11.6729 11.1705 11.7093 11.4138 10.7564C11.4077 10.7221 11.3974 10.6925 11.3857 10.6616Z" fill="#909090"/>
<path d="M9.43985 8.5903C9.20651 8.60468 9.13318 8.43428 9.06976 8.25573C9.13534 8.18534 9.20227 8.11637 9.27055 8.04883C9.34547 8.21159 9.52855 8.26515 9.43985 8.5903Z" fill="#595959"/>
<path d="M14.1863 13.69C14.2439 13.7136 14.2959 13.7405 14.3535 13.7641C14.7843 13.9395 15.0781 14.2681 15.2649 14.7162C15.2973 14.7504 15.3297 14.7846 15.3592 14.825C15.672 14.8946 15.8522 15.1126 15.9426 15.4311C15.9707 15.4701 16.0001 15.5104 16.0325 15.5446C16.4573 15.63 16.5865 16.0546 16.8885 16.2801C16.8974 16.364 16.8334 16.4825 16.6909 16.639C16.3902 16.8519 16.4221 16.6344 16.3192 16.591C16.0755 16.4734 16.0933 16.0458 15.6396 16.1717L15.6508 16.165C14.9378 15.9151 14.7415 15.0756 14.0255 14.8318C14.0093 14.545 13.8092 14.4548 13.7145 14.2527C13.802 14.0287 13.9592 13.8412 14.1863 13.69Z" fill="#232323"/>
<path d="M18.5433 17.7092C18.5595 17.9961 18.9443 17.9091 18.7529 18.4047C18.155 18.8063 18.1748 18.4087 17.9639 18.3071C17.8856 18.2246 17.8073 18.142 17.729 18.0594C17.5416 17.8524 17.3414 17.6598 17.1639 17.4446C16.9877 17.2309 17.0235 16.8037 16.8942 16.5464C16.9157 16.4109 16.9131 16.2965 16.9798 16.1251C17.6894 16.0738 17.6656 16.8485 18.0384 17.1767C18.22 17.3403 18.3759 17.5327 18.5433 17.7092Z" fill="#4A4A4A"/>
<path d="M15.2654 14.7168C14.9628 14.3977 14.656 14.0834 14.3535 13.7642C14.7286 13.5737 14.657 13.9355 14.8861 13.9259C15.0695 14.1287 15.4082 14.1697 15.2654 14.7168Z" fill="#424242"/>
<path d="M16.9803 16.1258C17.0145 16.1991 17.0473 16.2709 17.0858 16.3394C16.9278 16.4984 16.8104 16.5886 16.8364 16.4392C16.5695 16.139 16.3039 15.8402 16.0412 15.5352C16.6868 15.3416 16.6978 15.8929 16.9803 16.1258Z" fill="#424242"/>
<path d="M15.9473 15.4266C15.7542 15.2229 15.5568 15.0239 15.3636 14.8202C15.8908 14.6505 16.0539 14.8878 15.9473 15.4266Z" fill="#424242"/>
<path d="M16.0448 17.4642C16.491 17.3674 16.8128 17.4184 16.8513 17.8126C16.8889 17.9731 16.5269 18.4659 16.723 18.4961C16.7854 18.5525 16.7612 18.6852 16.6832 18.8634" fill="#B7B7B7"/>
<path d="M13.7832 14.1384C13.8999 14.2894 14.0167 14.4405 14.1335 14.5916C14.126 14.6674 14.0683 14.7553 13.9564 14.8512C13.8708 14.8911 13.8395 14.8674 13.8682 14.7767C13.7934 14.7165 13.723 14.6515 13.6512 14.5851C13.4287 14.3411 13.202 14.1019 12.9781 13.8564C12.7274 13.7965 11.9704 14.3466 12.3146 13.5658C12.3644 13.4602 12.41 13.3594 12.4598 13.2539C12.4325 13.2344 12.401 13.2198 12.3738 13.2004L12.4702 13.1161C12.7673 12.7692 12.8646 12.8159 12.9706 12.8441C13.1529 12.9248 13.1867 13.1744 13.369 13.2551C13.4381 13.3186 13.5128 13.3788 13.5819 13.4424C13.6621 13.6666 13.9859 13.6361 13.7832 14.1384Z" fill="#7E7E7E"/>
<path d="M12.7863 13.0598C12.6817 13.0798 12.5729 13.1046 12.4684 13.1246C12.3534 13.0126 12.2413 12.8943 12.1263 12.7823C12.0728 12.5398 11.542 12.7987 11.8475 12.1812C12.2127 11.729 12.2461 11.8852 12.3391 11.9368C12.4082 12.0562 12.6368 12.0089 12.5051 12.3352C12.6367 12.3437 12.7725 12.3474 12.9026 12.3544C12.7103 12.7192 13.3556 12.3763 12.7863 13.0598Z" fill="#606060"/>
<path d="M12.7856 13.0593C12.822 12.8278 12.8627 12.5916 12.8977 12.3587C13.1192 12.5924 13.516 12.6388 13.3628 13.268C12.8383 13.6079 12.9522 13.1606 12.7856 13.0593Z" fill="#333333"/>
<path d="M13.7827 14.1386C13.6709 13.9555 13.3414 13.9894 13.5811 13.4514C14.0477 13.2085 14.0234 13.5644 14.1879 13.6914C14.0538 13.8384 13.9198 13.9854 13.7827 14.1386Z" fill="#545454"/>
<path d="M12.5006 12.3397C12.4171 12.2423 12.3366 12.1387 12.253 12.0413C12.2616 11.9759 12.2907 11.9228 12.3374 11.8883C12.384 11.8538 12.4135 11.8384 12.423 11.8483C12.5302 11.8312 12.6417 11.8092 12.7489 11.7921C12.7315 11.9319 12.7379 12.0596 12.5006 12.3397Z" fill="#272727"/>
<path d="M15.6304 17.5017C15.8865 17.3532 15.9484 17.4278 15.8546 17.6824C15.8716 17.8306 16.1187 17.7656 15.8728 18.1668" fill="#9D9D9D"/>
<path d="M11.781 12.2407C11.8072 12.4638 12.1411 12.3693 11.9879 12.7753L11.781 12.2407Z" fill="#C5C5C5"/>
<path d="M9.18592 9.5309C9.36078 9.79909 9.97756 9.5937 9.68773 10.358L9.18592 9.5309Z" fill="#A6A6A6"/>
<path d="M9.68313 10.3624C9.44014 10.1061 9.19581 9.84836 8.95282 9.59205C8.73596 9.72599 8.61259 9.72606 8.52099 9.67594C8.45821 9.63761 8.40826 9.58492 8.35831 9.53224C8.30972 9.48097 8.26833 9.41871 8.24541 9.33874C8.22276 9.19394 8.17037 9.07357 8.2457 8.83682C8.27434 8.74613 8.32415 8.64057 8.38522 8.52828C8.5204 8.33607 8.66434 8.181 8.82784 8.07446C8.90524 8.13751 8.984 8.20198 9.0614 8.26504C8.56125 9.3464 9.28037 9.19354 9.47174 9.57211C9.73671 9.56331 9.86607 9.70907 9.86996 9.99219C9.90437 10.0564 9.93585 10.1268 9.97025 10.191C9.93509 10.2655 9.89206 10.3224 9.84837 10.3507C9.81031 10.3757 9.78644 10.3877 9.77834 10.3792C9.76373 10.3544 9.72636 10.3522 9.68313 10.3624Z" fill="#595959"/>
<path d="M9.78837 10.3709C9.85211 10.3173 9.91608 10.2545 9.98028 10.1828L9.992 10.1579C10.6396 10.2551 10.716 11.0146 11.335 11.1467C11.411 11.3199 11.4827 11.4979 11.3316 11.8779C11.2404 12.0328 11.1291 12.1572 10.9892 12.2608C10.685 12.3956 10.6486 12.2456 10.7719 11.92C10.8317 10.9879 10.0435 10.9656 9.78837 10.3709Z" fill="#9C9C9C"/>
<path d="M11.0569 12.1934C11.1297 12.112 11.2025 12.0306 11.2753 11.9493C11.6376 11.7173 11.722 11.8343 11.7275 12.0541C11.7171 12.1362 11.6629 12.2466 11.575 12.3771" fill="#ACACAC"/>
<path d="M8.59857 9.22816C8.64609 9.26887 8.69226 9.30816 8.73978 9.34887L8.59857 9.22816Z" fill="#9E9E9E"/>
<path d="M10.7757 11.9154C10.8704 12.0061 10.9608 12.1015 11.0554 12.1921L10.7757 11.9154Z" fill="#A4A4A4"/>
<path d="M7.99807 9.45921C8.11356 9.3858 8.19729 9.36255 8.24927 9.38949L7.99807 9.45921Z" fill="#9E9E9E"/>
<path d="M8.07261 9.51984C8.09945 9.44581 8.14589 9.36453 8.21756 9.27266C8.30162 9.18454 8.37665 9.12412 8.4483 9.08804C8.49985 9.13311 8.54712 9.18298 8.59867 9.22805" fill="#A4A4A4"/>
<path d="M7.08349 7.54605C7.42236 7.30802 7.53808 7.39287 7.67544 7.44472C7.74567 7.5188 7.70549 7.68112 7.56617 7.92494C7.48547 8.04452 7.39104 8.15891 7.28692 8.27239" fill="#A3A3A3"/>
<path d="M7.55895 7.61057C7.18065 7.87214 7.20669 7.61117 7.08218 7.54496C7.08609 7.39091 7.09564 7.2335 7.09955 7.07945C7.15031 6.93759 7.24023 6.83705 7.36638 6.78404C7.65117 6.60061 7.64815 6.77421 7.69381 6.88751C7.62613 7.09525 7.65782 7.21242 7.68095 7.33917C7.66649 7.41696 7.6268 7.50536 7.55895 7.61057Z" fill="#7B7B7B"/>
<path d="M7.46357 8.87786C7.46357 8.87786 7.45928 8.88265 7.46357 8.87786C7.69663 8.54683 7.06634 8.73798 7.83045 8.08319C8.22015 7.97322 8.37728 8.12036 8.24053 8.59021C8.11969 8.81631 7.95381 9.01352 7.73931 9.15943" fill="#9E9E9E"/>
<path d="M7.74404 9.1543C7.88107 9.0011 8.01516 8.8541 8.15218 8.7009C8.25808 8.62651 8.30222 8.63586 8.30331 8.70214C8.26152 8.92789 8.38017 9.00652 8.29015 9.27445C8.21736 9.35584 8.14885 9.43244 8.07606 9.51384C8.05445 9.49104 8.0272 9.47161 8.00131 9.4536C7.91218 9.35957 7.82597 9.25933 7.74404 9.1543Z" fill="#B5B5B5"/>
<path d="M7.2746 8.21248C7.33883 8.14066 7.40734 8.06406 7.47585 7.98746C7.74035 7.83846 7.80788 7.90969 7.6728 8.20452C7.60331 8.42896 7.53382 8.6534 7.46432 8.87784" fill="#A7A7A7"/>
<path d="M12.3112 13.5722C12.3976 13.8307 13.0476 13.4092 12.9751 13.863L12.3112 13.5722Z" fill="#A4A4A4"/>
<path d="M14.005 14.7819C14.0509 14.7188 14.0955 14.6542 14.1332 14.5916C14.6396 15.1166 15.1461 15.6415 15.6512 16.165C15.5584 16.2159 15.4656 16.2669 15.3728 16.3178C14.9622 15.894 14.5572 15.4668 14.1466 15.043C13.9679 15.0962 13.8589 15.0743 14.005 14.7819Z" fill="#3B3B3B"/>
<path d="M13.6613 15.4532C13.7898 15.3361 13.8261 15.3369 13.7585 15.4715L13.6613 15.4532Z" fill="#838383"/>
<path d="M13.7585 15.471C13.7297 15.4592 13.6979 15.4536 13.6619 15.4528C13.73 15.227 13.7995 15.0025 13.8677 14.7766C13.9134 14.7784 13.9591 14.7801 14.0048 14.7818C14.0525 14.8693 14.1002 14.9568 14.1466 15.0429C14.0168 15.1852 13.8869 15.3274 13.7585 15.471Z" fill="#BBBBBB"/>
<path d="M15.8551 17.6828C15.7803 17.6226 15.7056 17.5624 15.6309 17.5021C15.7177 17.3053 15.8045 17.1084 15.89 16.9101C16.1609 16.9447 16.0769 17.4143 16.5781 17.1708C16.7561 17.0422 16.8419 17.049 16.8989 17.0998C16.9053 17.3949 17.2467 17.3829 16.8883 18.0097C16.8342 18.0643 16.7801 18.1189 16.726 18.1735C16.4076 18.0423 16.4552 17.4785 15.8551 17.6828Z" fill="#C5C5C5"/>
<path d="M16.7367 17.2833C16.6835 17.2458 16.6304 17.2084 16.5773 17.171C16.4508 17.0189 16.3272 16.8607 16.2007 16.7086C16.2235 16.6303 16.2596 16.5753 16.3105 16.536C16.3614 16.4967 16.3909 16.4813 16.399 16.4898C16.4794 16.5467 16.5555 16.6083 16.6359 16.6652C17.1851 16.4444 17.0929 16.9612 17.2807 17.1593C17.3228 17.1944 17.3434 17.2534 17.3414 17.335C17.2543 17.4851 17.1459 17.6034 17.0119 17.6946C16.857 17.6242 16.6691 17.5935 16.7367 17.2833Z" fill="#4A4A4A"/>
<path d="M16.4042 16.485C16.3386 16.5554 16.2701 16.632 16.2058 16.7038C16.019 16.5253 15.8265 16.3502 15.6397 16.1717C16.2685 15.8208 16.1402 16.3927 16.4042 16.485Z" fill="#424242"/>
<path d="M11.9921 12.7706C11.8511 12.6406 11.7145 12.5057 11.5736 12.3757L11.629 12.2667C11.6969 12.1615 11.7724 12.083 11.8627 12.0201C11.9283 12.0055 11.9384 12.0441 11.8901 12.1421C11.9779 12.3463 12.2535 12.3579 12.1263 12.7819C12.0806 12.7802 12.0335 12.7771 11.9921 12.7706Z" fill="#ACACAC"/>
<path d="M7.67244 8.20531C7.60491 8.13407 7.54301 8.05947 7.47548 7.98824C7.50506 7.86126 7.53035 7.73907 7.55993 7.61209C7.5399 7.58165 7.51987 7.55122 7.49984 7.52079C7.58913 7.33584 7.7248 7.18121 7.89829 7.06647C7.99441 7.15857 8.09189 7.25208 8.18801 7.34417C7.91553 8.08024 8.6889 7.7702 8.47479 8.44688C8.48151 8.5098 8.48688 8.57129 8.4936 8.63421C8.32391 8.81808 8.18757 8.9441 8.23408 8.75124L8.20595 8.71226L8.1564 8.69722C7.98982 8.5401 7.83045 8.37199 7.67244 8.20531Z" fill="#6B6B6B"/>
<path d="M8.47575 8.44805C8.35837 8.10092 7.5237 8.47657 8.18896 7.34534C8.40618 7.58377 8.62474 7.82363 8.83767 8.06686C8.71373 8.19664 8.59406 8.32163 8.47575 8.44805Z" fill="#2C2C2C"/>
<path d="M7.89401 7.07104C7.76262 7.22088 7.63123 7.37072 7.49556 7.52535C7.39516 7.43805 7.44459 7.23897 7.69186 6.89501C7.7612 6.94954 7.82761 7.01029 7.89401 7.07104Z" fill="#545454"/>
<path d="M11.8903 12.142C11.8454 12.1598 11.8207 12.1523 11.8074 12.129C11.4786 12.0332 11.2581 11.8192 11.1788 11.4473C10.7864 11.0148 10.3898 10.5871 9.99744 10.1546C10.6604 9.86808 10.5742 10.4748 10.8941 10.5982C11.0602 10.6618 10.9945 11.011 11.4196 10.7527C11.7555 11.1163 12.0957 11.4752 12.4303 11.8374C12.369 11.903 12.3134 11.9652 12.2604 12.0302C12.1332 12.0728 12.0089 12.109 11.8903 12.142Z" fill="#414141"/>
<path d="M9.87979 9.98435C9.74743 9.84473 9.61372 9.70369 9.48136 9.56407C9.90061 9.38291 10.033 9.52253 9.87979 9.98435Z" fill="#101010"/>
<path d="M17.2444 17.297C17.0432 17.0847 16.8377 16.8772 16.6378 16.6664C16.7007 16.5931 16.7649 16.5213 16.8291 16.4495C16.9118 16.4157 16.9945 16.382 17.0785 16.3497C17.3794 16.4065 17.2187 16.9442 17.4128 17.1117C17.3999 17.1818 17.3695 17.2335 17.3228 17.268C17.282 17.2901 17.2525 17.3055 17.2444 17.297Z" fill="#191919"/>
<path d="M18.007 17.776C17.9457 17.8416 17.8887 17.9024 17.8288 17.9694C17.4378 18.0222 17.0039 18.1228 17.2683 17.434C17.2597 17.3877 17.2512 17.3415 17.244 17.2967C17.3053 17.2311 17.361 17.1689 17.4153 17.1052C17.6149 17.3251 17.8117 17.5513 18.007 17.776Z" fill="#2A2A2A"/>
<path d="M17.2927 18.2598C17.2929 18.3065 17.3017 18.3436 17.3161 18.3774C17.0671 18.5707 16.8757 18.5735 16.5741 18.9253C16.5994 18.8031 16.6234 18.6795 16.6486 18.5573C16.6777 18.5042 16.7111 18.4464 16.7402 18.3933C17.0577 18.0119 17.2328 17.9453 17.3375 18.0278C17.3527 18.0811 17.3369 18.1575 17.2927 18.2598Z" fill="#CCCCCC"/>
<path d="M16.7255 18.1726C16.9308 18.1102 16.7256 18.3866 16.6492 18.557L16.7255 18.1726Z" fill="#A7A7A7"/>
<path d="M17.2927 18.2602L17.2598 18.2442L17.2384 18.2123C17.3402 17.8637 16.8202 18.134 17.0942 17.6135C17.1512 17.5527 17.2082 17.4919 17.2679 17.4339C17.4548 17.6124 17.6416 17.7909 17.8284 17.9694C17.7829 18.0702 17.7416 18.1662 17.6961 18.267C17.5616 18.2648 17.5865 18.0491 17.2927 18.2602Z" fill="#626262"/>
<path d="M11.2846 13.0096C11.3587 12.9297 11.5107 12.839 11.5422 12.8536L11.2846 13.0096Z" fill="#AAAAAA"/>
<path d="M8.74023 9.34875C8.81446 9.42705 8.88339 9.50833 8.95762 9.58663L8.74023 9.34875Z" fill="#7B7B7B"/>
<path d="M8.22958 8.75528C8.31654 8.71675 8.40215 8.67679 8.48911 8.63826C8.47416 8.78997 8.46349 8.93689 8.44719 9.08718C8.39423 9.15227 8.34126 9.21736 8.2856 9.2796C8.2181 9.15257 8.00278 9.16735 8.22958 8.75528Z" fill="#C4C4C4"/>
<path d="M11.1733 11.4506C11.3811 11.679 11.5945 11.9041 11.8023 12.1326C11.7414 12.1801 11.6819 12.229 11.6254 12.2717C11.5074 12.1658 11.3881 12.0586 11.2701 11.9528C11.2141 11.8099 11.0117 11.8104 11.1733 11.4506Z" fill="#515151"/>
<path d="M17.0945 17.6137C17.0738 17.8804 17.4856 17.7193 17.2387 18.2125C17.128 18.1515 16.9471 18.2305 16.6489 18.558C16.6758 18.4281 16.6984 18.3031 16.7252 18.1733C17.0438 17.5882 16.404 17.8809 16.7381 17.2843C16.8574 17.3916 16.9781 17.5002 17.0945 17.6137Z" fill="#B7B7B7"/>
<path d="M6.80365 17.9093C8.57204 17.8864 10.3393 17.8636 12.1076 17.8448C12.1568 17.938 12.2033 17.9822 12.2387 17.753C12.23 17.6306 12.2114 17.5369 12.1806 17.468C11.8514 17.1912 11.5085 17.4129 11.1724 17.3445C10.6423 17.3281 10.1091 17.426 9.58045 17.3157C9.54677 17.2835 9.51159 17.2718 9.47609 17.2805C9.35438 17.3763 9.23164 17.3863 9.10922 17.3759C8.47611 17.3856 7.84306 17.3912 7.21101 17.409C7.08604 17.4109 6.95737 17.3475 6.83591 17.578C6.79803 17.6644 6.78688 17.7748 6.80365 17.9093Z" fill="#C5C5C5"/>
<path d="M14.0487 17.7909C15.1145 17.7011 16.1711 18.2772 17.2439 17.734C17.2564 17.6113 17.2497 17.5134 17.2214 17.4363C16.9345 17.0894 16.6341 17.3064 16.3391 17.4007C16.1839 17.4521 16.0332 17.5197 15.8862 17.3463C15.6844 17.2065 15.4719 17.3812 15.2707 17.2046C15.2253 17.1726 15.1793 17.1693 15.1331 17.1904C14.9716 17.3399 14.8123 17.3505 14.6542 17.2099C14.6098 17.1861 14.5637 17.1909 14.5186 17.2161C14.3718 17.4062 14.2101 17.1922 14.0673 17.5088C14.0413 17.5868 14.0339 17.6849 14.0487 17.7909Z" fill="#D4D4D4"/>
<path d="M12.2306 17.8103C12.1892 17.8231 12.1478 17.8319 12.1063 17.8448C12.334 18.3641 12.5992 17.6821 12.8409 17.9765C12.9162 18.0652 13.0235 17.8349 13.0859 18.2178C13.1182 18.4174 13.1901 18.4163 13.2365 18.236C13.3708 17.7071 13.5432 17.8393 13.7054 17.7959C13.7014 17.4448 13.6226 17.3603 13.545 17.3492C13.1851 17.2975 12.8248 17.2744 12.4623 17.3861C12.3758 17.416 12.2945 17.5683 12.2306 17.8103Z" fill="#E5E5E5"/>
<path d="M12.2309 17.81C12.7249 17.6473 13.221 17.4274 13.7068 17.7956C13.8165 18.0186 13.936 17.686 14.0475 17.7945C14.052 17.7291 14.0542 17.6638 14.0541 17.5984C13.9861 17.2728 13.8658 17.3522 13.775 17.2025C13.732 17.1623 13.6876 17.1385 13.6429 17.131C13.5253 17.1164 13.4046 17.1428 13.2926 16.9975C13.2331 16.9535 13.1731 16.9503 13.1126 16.9757C12.9386 17.1703 12.7625 17.1281 12.5869 17.1267C12.516 17.1359 12.4473 17.0798 12.3762 17.1054C12.319 17.1471 12.2736 17.2621 12.2369 17.4219C12.2227 17.5038 12.2141 17.5979 12.2127 17.6918C12.2204 17.7285 12.2256 17.7692 12.2309 17.81Z" fill="#909090"/>
<path d="M10.3084 17.0432C10.3384 17.0836 10.3699 17.1035 10.4027 17.1153C10.638 17.1444 10.874 17.1285 11.1099 17.1168C11.2184 17.111 11.3283 17.0971 11.4144 16.7895C11.452 16.6419 11.4653 16.4743 11.4576 16.2866" fill="#B2B2B2"/>
<path d="M7.59829 16.5251C7.64955 16.6427 7.71208 16.7194 7.72472 16.9683C7.73283 17.0539 7.74827 17.1231 7.76745 17.18C7.7916 17.2204 7.816 17.2446 7.84302 17.2523C7.91625 17.2471 7.97468 17.1319 8.02258 16.9351" fill="#BABABA"/>
<path d="M8.98778 16.6143C9.06434 16.6989 9.13672 16.6733 9.20126 16.4681L8.98778 16.6143Z" fill="#A7A7A7"/>
<path d="M8.6871 16.476C8.73461 16.5366 8.78681 16.5235 8.82629 16.4166L8.6871 16.476Z" fill="#A7A7A7"/>
<path d="M8.67627 16.5618C8.68742 16.5289 8.69863 16.4919 8.7086 16.459L8.67627 16.5618Z" fill="#BBBBBB"/>
<path d="M13.2157 16.9662C13.4089 17.0613 13.6026 17.1237 13.7946 16.839L13.2157 16.9662Z" fill="#AEAEAE"/>
<path d="M12.6812 16.729C12.7119 16.8839 12.7512 16.8629 12.794 16.7763L12.6812 16.729Z" fill="#AEAEAE"/>
<path d="M14.158 16.5189C14.1528 16.7027 14.1694 16.8454 14.2151 16.9427C14.5466 17.15 14.8801 17.1572 15.2173 16.9233" fill="#A1A1A1"/>
<path d="M13.7784 16.7413C13.8092 16.9613 13.868 16.9727 13.9295 16.9636C14.0156 16.8928 14.1005 16.818 14.15 16.5192" fill="#C5C5C5"/>
<path d="M15.2483 16.7555C15.2513 16.8657 15.2639 16.9636 15.2852 17.0408C15.3089 17.1099 15.3364 17.1585 15.3678 17.1907C15.5079 17.2824 15.6526 17.2353 15.7952 17.2495C15.9076 17.2274 16.0256 17.3031 16.1269 17.0117C16.1185 16.2604 15.9332 16.5695 15.8218 16.4487" fill="#B4B4B4"/>
<path d="M12.2135 16.2586C12.2457 16.4664 12.2439 16.7319 12.2967 16.9026C12.3183 16.9512 12.3414 16.9836 12.3672 16.9995C12.4465 17.0555 12.5264 17.0788 12.6072 16.9673C12.6326 16.926 12.6525 16.8604 12.6691 16.7785C12.6736 16.566 12.6339 16.4605 12.5906 16.3631" fill="#D6D6D6"/>
<path d="M12.5373 16.6007C12.5753 16.6573 12.6122 16.7139 12.6503 16.7705C12.6668 16.8438 12.6868 16.8476 12.7102 16.786" fill="#C5C5C5"/>
<path d="M15.6431 16.2882C15.6089 16.5868 15.628 16.7253 15.7188 16.728C15.7748 16.621 15.844 16.571 15.8622 16.3093" fill="#CBCBCB"/>
<path d="M6.04648 17.5001C6.0454 17.5696 6.0455 17.639 6.04436 17.7125C6.29523 17.725 6.54727 17.7375 6.7982 17.7459C7.58961 17.7135 8.38096 17.6851 9.17118 17.6526C9.1743 17.6035 9.17867 17.5504 9.18179 17.5013C9.16792 17.4076 9.1466 17.3385 9.11901 17.294C9.06257 17.2091 9.00145 17.1978 8.9391 17.1906C8.76709 17.1851 8.59608 17.1917 8.42401 17.1903C8.34738 17.1914 8.27075 17.1926 8.19405 17.1979C8.1351 17.1988 8.07497 17.1997 8.01583 17.2128C7.94341 17.2466 7.87054 17.309 7.80008 17.2161C7.7114 17.2338 7.62362 17.1943 7.535 17.2079C7.36641 17.2105 7.19788 17.209 7.02929 17.2115C6.9987 17.2079 6.96798 17.2125 6.93851 17.2129C6.81701 17.2189 6.69631 17.2493 6.58064 17.1081C6.51996 17.0682 6.45859 17.0732 6.39672 17.1109C6.28224 17.2719 6.14515 17.1433 6.04648 17.5001Z" fill="#A2A2A2"/>
<path d="M9.46558 17.4887C9.48078 17.4967 9.49728 17.4964 9.51274 17.488C10.0418 17.6474 10.5769 17.5004 11.1079 17.5372C11.142 17.5408 11.1775 17.5321 11.2121 17.5111C11.2608 16.9509 11.1331 17.0549 11.0508 17.0439C10.8497 17.0143 10.6476 17.0501 10.4463 17.0327C10.4157 17.025 10.3855 17.001 10.3553 16.9688C10.3109 16.945 10.2667 16.9048 10.2208 16.9014C10.0835 17.0178 9.95393 16.9341 9.82516 16.8013C9.69041 16.7502 9.5539 16.736 9.41737 16.7993C9.30218 16.8542 9.17855 16.9214 9.16414 17.4688C9.26293 17.6347 9.36371 17.5964 9.46558 17.4887Z" fill="#121212"/>
<path d="M11.1734 17.4547C10.6223 17.3487 10.0673 17.4144 9.51332 17.4882C9.67017 17.8615 9.85548 17.6177 10.0261 17.6355C10.4039 17.6747 10.7852 17.6362 11.1637 17.6264C11.1854 17.5974 11.1942 17.5606 11.1901 17.5198C11.1848 17.479 11.1805 17.4546 11.1734 17.4547Z" fill="#595959"/>
<path d="M11.1731 17.4548C11.1699 17.512 11.1666 17.5692 11.1634 17.6264C11.5132 17.6456 11.8629 17.6689 12.2114 17.6921C12.2202 17.6553 12.2279 17.6143 12.2368 17.5774C12.2251 17.2631 12.1529 17.2112 12.0806 17.1592C11.7956 17.2207 11.506 16.8902 11.2243 17.4254C11.2076 17.4379 11.1909 17.4463 11.1731 17.4548Z" fill="#909090"/>
<path d="M9.46627 17.4889C9.36892 17.3761 9.26678 17.4185 9.1657 17.469C9.16593 17.5303 9.16734 17.5915 9.16992 17.6527C9.26963 17.6145 9.37254 17.6741 9.46627 17.4889Z" fill="#595959"/>
<path d="M13.6492 17.3843C13.6844 17.4001 13.7184 17.4119 13.7535 17.4277C14.0157 17.5462 14.2799 17.534 14.5457 17.4197C14.574 17.4192 14.6023 17.4188 14.6318 17.4143C14.7986 17.5261 14.9674 17.5113 15.1375 17.4107C15.1659 17.4061 15.1954 17.4016 15.2237 17.4012C15.4464 17.557 15.6771 17.4269 15.9028 17.4643C15.9411 17.4311 15.9612 17.3491 15.9621 17.2143C15.9162 16.9823 15.8414 17.0937 15.7782 17.066C15.6224 17.0072 15.4554 17.2057 15.3063 16.9425L15.3085 16.9507C14.8911 16.7365 14.4611 17.0208 14.0449 16.8025C13.9205 16.9228 13.7951 16.8717 13.6706 16.9185C13.6178 17.0581 13.6107 17.2134 13.6492 17.3843Z" fill="#232323"/>
<path d="M17.219 17.5829C17.3435 17.4626 17.478 17.677 17.596 17.3689C17.4957 16.9171 17.342 17.1033 17.2072 17.0522C17.1388 17.0533 17.0705 17.0543 17.0021 17.0553C16.8346 17.062 16.6673 17.0564 16.5009 17.0712C16.3356 17.0859 16.1768 17.2925 16.0145 17.3481C15.9686 17.4182 15.9207 17.4679 15.8801 17.5747C16.1729 17.9215 16.479 17.5656 16.7781 17.5896C16.9252 17.5996 17.0728 17.5851 17.219 17.5829Z" fill="#4A4A4A"/>
<path d="M14.5467 17.4195C14.2823 17.4236 14.018 17.4235 13.7537 17.4275C13.8417 17.6835 13.958 17.4898 14.0554 17.5985C14.2195 17.592 14.3861 17.7283 14.5467 17.4195Z" fill="#424242"/>
<path d="M15.8809 17.5749C15.926 17.5579 15.9699 17.5409 16.015 17.528C16.0101 17.3851 15.9951 17.2914 15.9455 17.3698C15.7046 17.3816 15.4649 17.3934 15.2239 17.4093C15.4304 17.7901 15.6607 17.5497 15.8809 17.5749Z" fill="#424242"/>
<path d="M15.1385 17.4145C14.9697 17.4171 14.801 17.4156 14.6322 17.4181C14.796 17.7342 14.9652 17.703 15.1385 17.4145Z" fill="#424242"/>
<path d="M16.0138 16.5519C16.1716 16.7986 16.3348 16.9227 16.5131 16.7648C16.5954 16.7104 16.6367 16.3259 16.7359 16.402C16.7865 16.4053 16.8301 16.3352 16.8685 16.2203" fill="#B7B7B7"/>
<path d="M13.6546 17.0005C13.7679 16.9865 13.8813 16.9725 13.9947 16.9585C14.0224 16.9214 14.0328 16.8559 14.0225 16.7621C14.001 16.7053 13.9774 16.7015 13.953 16.755C13.8954 16.7477 13.8377 16.7445 13.7788 16.7413C13.5807 16.7484 13.3826 16.7514 13.1833 16.7586C13.0479 16.6708 12.9381 16.0803 12.7711 16.5852C12.75 16.6549 12.7289 16.7206 12.7078 16.7903C12.6878 16.7865 12.6679 16.7787 12.6479 16.7749L12.6561 16.8564C12.6457 17.1465 12.7078 17.1701 12.7662 17.2059C12.8798 17.2532 12.9968 17.1575 13.1104 17.2048C13.1669 17.208 13.2245 17.2153 13.2811 17.2185C13.4082 17.1553 13.5388 17.3167 13.6546 17.0005Z" fill="#7E7E7E"/>
<path d="M12.7731 17.0259C12.7351 16.9693 12.6971 16.9086 12.659 16.852C12.5623 16.8494 12.4643 16.8509 12.3676 16.8483C12.2448 16.9318 12.1158 16.5744 11.9985 16.9887C11.9751 17.3565 12.0538 17.3023 12.116 17.3217C12.1954 17.3001 12.2772 17.4254 12.3524 17.2201C12.4141 17.2764 12.4757 17.3367 12.5361 17.3929C12.6002 17.1428 12.7455 17.5898 12.7731 17.0259Z" fill="#606060"/>
<path d="M12.7724 17.0261C12.6939 17.1457 12.6152 17.2694 12.5355 17.3891C12.7291 17.3861 12.9236 17.5465 13.1131 17.1965C13.0201 16.8059 12.8876 17.057 12.7724 17.0261Z" fill="#333333"/>
<path d="M13.6547 17.0002C13.5303 17.0307 13.3984 16.8652 13.2844 17.2141C13.3915 17.5351 13.5263 17.3656 13.6511 17.3841C13.6518 17.2575 13.6526 17.1309 13.6547 17.0002Z" fill="#545454"/>
<path d="M12.3523 17.2162C12.2755 17.2214 12.1975 17.2308 12.1207 17.236C12.0978 17.269 12.0889 17.3059 12.0954 17.3426C12.102 17.3792 12.1087 17.3995 12.117 17.3994C12.1574 17.456 12.1977 17.5166 12.2382 17.5732C12.2876 17.503 12.3428 17.4491 12.3523 17.2162Z" fill="#272727"/>
<path d="M15.8462 16.3461C15.8988 16.5291 15.9567 16.5241 16.0193 16.368C16.0874 16.3097 16.1702 16.4514 16.2254 16.1606" fill="#9D9D9D"/>
<path d="M11.9934 16.932C12.0962 16.8447 12.2053 17.039 12.3036 16.7884L11.9934 16.932Z" fill="#C5C5C5"/>
<path d="M9.73825 16.9541C9.92529 16.9145 10.1142 17.2873 10.2985 16.8149L9.73825 16.9541Z" fill="#A6A6A6"/>
<path d="M10.2982 16.8106C10.086 16.8138 9.8726 16.8171 9.66039 16.8203C9.61924 16.6617 9.56472 16.6053 9.50373 16.5859C9.4603 16.5743 9.41668 16.5749 9.37306 16.5756C9.33061 16.5762 9.28686 16.5851 9.24404 16.6102C9.17483 16.6644 9.10247 16.6941 9.039 16.8339C9.0146 16.8873 8.99348 16.9571 8.97458 17.0349C8.95579 17.1822 8.95605 17.317 8.9848 17.4391C9.0448 17.4463 9.10598 17.4536 9.16598 17.4608C9.38683 16.751 9.64233 17.1473 9.88169 17.066C9.99526 17.1909 10.112 17.185 10.2295 17.0607C10.2709 17.0479 10.3136 17.0309 10.3551 17.018C10.37 16.9688 10.3742 16.9238 10.3665 16.8912C10.3599 16.8627 10.3542 16.8465 10.3472 16.8466C10.3306 16.8509 10.3132 16.8349 10.2982 16.8106Z" fill="#595959"/>
<path d="M10.3479 16.8549C10.3541 16.9079 10.3568 16.9651 10.3558 17.0263L10.3509 17.0427C10.677 17.295 11.0212 16.9917 11.3489 17.2154C11.4533 17.1729 11.5577 17.1264 11.6463 16.8882C11.6692 16.7776 11.6709 16.6714 11.6514 16.5615C11.572 16.3626 11.4946 16.4128 11.416 16.6141C11.0614 17.0564 10.7038 16.7066 10.3479 16.8549Z" fill="#9C9C9C"/>
<path d="M11.6539 16.6225C11.6529 16.6919 11.6518 16.7613 11.6507 16.8308C11.7161 17.0993 11.8013 17.0858 11.8936 16.9904C11.9226 16.9491 11.9438 16.8753 11.9583 16.7771" fill="#ACACAC"/>
<path d="M9.35493 16.8203C9.39269 16.8239 9.42927 16.8276 9.46703 16.8312L9.35493 16.8203Z" fill="#9E9E9E"/>
<path d="M11.4159 16.6181C11.4949 16.6209 11.574 16.6197 11.653 16.6226L11.4159 16.6181Z" fill="#A4A4A4"/>
<path d="M9.18369 16.4434C9.20481 16.529 9.23242 16.5777 9.26651 16.5894L9.18369 16.4434Z" fill="#9E9E9E"/>
<path d="M9.24167 16.4509C9.22327 16.4961 9.21057 16.5535 9.20471 16.6271C9.20586 16.7046 9.21435 16.7658 9.23129 16.8145C9.27254 16.818 9.31384 16.8173 9.35509 16.8208" fill="#A4A4A4"/>
<path d="M7.99739 16.8784C8.04997 17.139 8.13587 17.154 8.21785 17.1936C8.27922 17.1927 8.32783 17.1021 8.3659 16.93C8.3791 16.8399 8.3841 16.7459 8.38445 16.6479" fill="#A3A3A3"/>
<path d="M8.23415 17.0667C8.17375 16.7777 8.07855 16.9057 7.99638 16.8784C7.93511 16.9488 7.87495 17.0232 7.81368 17.0935C7.77812 17.1798 7.77679 17.2656 7.81092 17.3468C7.86191 17.5583 7.93157 17.4797 7.9981 17.4501C8.05312 17.3267 8.11506 17.289 8.17713 17.2432C8.20255 17.2019 8.22114 17.1445 8.23415 17.0667Z" fill="#7B7B7B"/>
<path d="M8.7101 16.4588C8.7101 16.4588 8.71016 16.4548 8.7101 16.4588C8.67783 16.7125 8.47714 16.3399 8.54742 16.98C8.67487 17.2067 8.80456 17.2129 8.93622 16.9414C8.97522 16.7856 8.98248 16.6221 8.94726 16.4593" fill="#9E9E9E"/>
<path d="M8.94653 16.4638C8.9445 16.5945 8.94371 16.7211 8.94167 16.8518C8.9581 16.9332 8.98145 16.9492 9.00904 16.9202C9.08288 16.8007 9.16754 16.8198 9.23729 16.6595C9.23837 16.59 9.23938 16.5247 9.24046 16.4552C9.22158 16.4555 9.20158 16.4517 9.18276 16.4479C9.10487 16.4491 9.02573 16.4544 8.94653 16.4638Z" fill="#B5B5B5"/>
<path d="M8.35429 16.6688C8.35334 16.7301 8.35232 16.7955 8.35131 16.8608C8.40739 17.0478 8.4664 17.0469 8.52722 16.854C8.58826 16.7224 8.64931 16.5908 8.71035 16.4592" fill="#A7A7A7"/>
<path d="M12.7723 16.5809C12.9163 16.5052 13.0315 16.9894 13.185 16.7543L12.7723 16.5809Z" fill="#A4A4A4"/>
<path d="M14.0157 16.8152C14.0102 16.8643 14.0035 16.9134 13.9946 16.9584C14.4331 16.9559 14.8716 16.9533 15.3089 16.9507C15.2887 16.8856 15.2685 16.8206 15.2483 16.7556C14.8935 16.7569 14.5398 16.7623 14.185 16.7636C14.1277 16.6583 14.0706 16.6183 14.0157 16.8152Z" fill="#3B3B3B"/>
<path d="M14.1382 16.3599C14.1471 16.4702 14.1634 16.4863 14.1885 16.396L14.1382 16.3599Z" fill="#838383"/>
<path d="M14.1883 16.3959C14.1707 16.388 14.1544 16.376 14.1381 16.3599C14.0759 16.4915 14.0148 16.6231 13.9526 16.7548C13.9735 16.7749 13.9945 16.795 14.0154 16.8151C14.0723 16.7979 14.1292 16.7807 14.1849 16.7635C14.1856 16.641 14.1864 16.5184 14.1883 16.3959Z" fill="#BBBBBB"/>
<path d="M16.0194 16.3684C15.9617 16.3611 15.904 16.3538 15.8463 16.3465C15.8042 16.4737 15.7621 16.601 15.7189 16.7282C15.8529 16.8364 16.0078 16.5891 16.1299 16.9261C16.1561 17.0646 16.1968 17.1007 16.2428 17.1041C16.3663 16.9756 16.5125 17.1368 16.6102 16.6942C16.6086 16.6452 16.607 16.5963 16.6054 16.5473C16.4109 16.4604 16.2014 16.7331 16.0194 16.3684Z" fill="#C5C5C5"/>
<path d="M16.2462 16.9484C16.2074 16.9408 16.1685 16.9332 16.1297 16.9256C16.0116 16.9356 15.8922 16.9497 15.774 16.9596C15.7521 17.0049 15.7455 17.0458 15.752 17.0866C15.7584 17.1273 15.7652 17.1476 15.7723 17.1475C15.8311 17.1589 15.89 17.1661 15.9488 17.1775C16.1015 17.5264 16.2721 17.2542 16.4361 17.2517C16.4691 17.2553 16.5024 17.2385 16.5349 17.2012C16.5578 17.0947 16.5582 16.9926 16.5362 16.8908C16.4388 16.8515 16.3432 16.7794 16.2462 16.9484Z" fill="#4A4A4A"/>
<path d="M15.7729 17.1517C15.7727 17.0904 15.7737 17.0251 15.7747 16.9638C15.619 16.958 15.4622 16.9482 15.3066 16.9424C15.4413 17.3854 15.6184 17.0724 15.7729 17.1517Z" fill="#424242"/>
<path d="M12.3036 16.7923C12.1881 16.7859 12.0725 16.7835 11.957 16.7771L11.9369 16.8509C11.9239 16.9287 11.9252 16.9981 11.9395 17.0673C11.9625 17.1037 11.9828 17.0912 12.0015 17.0256C12.1238 16.9747 12.2505 17.0953 12.3676 16.8485C12.3467 16.8284 12.3246 16.8083 12.3036 16.7923Z" fill="#ACACAC"/>
<path d="M8.52749 16.8539C8.46848 16.8548 8.41059 16.8597 8.35158 16.8606C8.31273 16.9307 8.27395 16.9966 8.2351 17.0666C8.21379 17.071 8.19248 17.0754 8.17118 17.0798C8.13505 17.2029 8.13183 17.3336 8.16166 17.4638C8.24185 17.4667 8.32322 17.4695 8.40342 17.4724C8.58389 17.0205 8.79927 17.5113 8.98128 17.1124C9.00999 17.0875 9.03751 17.0625 9.06622 17.0376C9.06633 16.8783 9.05756 16.76 8.99925 16.8671L8.97087 16.8716L8.94279 16.8557C8.80484 16.8497 8.66557 16.8518 8.52749 16.8539Z" fill="#6B6B6B"/>
<path d="M8.98192 17.1123C8.78802 17.2133 8.57236 16.6652 8.40405 17.4723C8.59767 17.4653 8.79247 17.4582 8.98615 17.4471C8.98439 17.3328 8.98256 17.2225 8.98192 17.1123Z" fill="#2C2C2C"/>
<path d="M8.16169 17.4599C8.16484 17.3333 8.16799 17.2067 8.1712 17.0759C8.09107 17.069 8.03153 17.1801 8.00025 17.4461C8.05324 17.4534 8.10746 17.4567 8.16169 17.4599Z" fill="#545454"/>
<path d="M12.0017 17.0252C11.9891 16.9969 11.9751 16.9889 11.9597 16.9932C11.7752 16.8858 11.5902 16.8804 11.4031 17.0099C11.0529 17.0234 10.7026 17.0328 10.3524 17.0463C10.5284 17.4765 10.7383 17.167 10.9302 17.258C11.0296 17.3055 11.1433 17.12 11.2257 17.4291C11.5229 17.4205 11.82 17.416 12.116 17.4074C12.1157 17.3502 12.1165 17.2971 12.1197 17.244C12.0808 17.167 12.0407 17.0941 12.0017 17.0252Z" fill="#414141"/>
<path d="M10.2307 17.0686C10.1151 17.0704 9.99825 17.0722 9.88259 17.0739C9.99399 17.3458 10.1097 17.3441 10.2307 17.0686Z" fill="#101010"/>
<path d="M16.4763 17.174C16.3005 17.1766 16.1247 17.1752 15.95 17.1779C15.9479 17.2392 15.9469 17.3005 15.946 17.3617C15.9688 17.4145 15.9915 17.4672 16.0155 17.5199C16.1719 17.6319 16.3207 17.3193 16.475 17.3332C16.498 17.2961 16.5057 17.2593 16.4992 17.2226C16.4902 17.1942 16.4834 17.1739 16.4763 17.174Z" fill="#191919"/>
<path d="M17.0095 17.3087C17.0092 17.2515 17.0089 17.1984 17.0098 17.1413C16.8583 16.9394 16.7075 16.6967 16.5428 17.1239C16.5201 17.1406 16.4974 17.1572 16.4759 17.1739C16.4762 17.2311 16.4754 17.2842 16.4734 17.3373C16.6517 17.3305 16.8312 17.3196 17.0095 17.3087Z" fill="#2A2A2A"/>
<path d="M16.8911 16.7672C16.9103 16.7465 16.9294 16.7339 16.9496 16.7254C16.9185 16.5258 16.8349 16.4373 16.8454 16.1431C16.8066 16.209 16.7666 16.2749 16.7279 16.3409C16.719 16.3778 16.7101 16.4187 16.7013 16.4556C16.6858 16.7703 16.736 16.8798 16.8161 16.8908C16.8446 16.8741 16.8689 16.8329 16.8911 16.7672Z" fill="#CCCCCC"/>
<path d="M16.6046 16.5468C16.6699 16.6683 16.6922 16.4515 16.7281 16.3407L16.6046 16.5468Z" fill="#A7A7A7"/>
<path d="M16.8913 16.7671L16.8702 16.7592L16.8477 16.7637C16.7502 16.9652 16.6307 16.6077 16.539 16.9644C16.5393 17.0175 16.5397 17.0705 16.5424 17.1236C16.6981 17.1294 16.8537 17.1352 17.0094 17.141C17.0305 17.0753 17.0515 17.0137 17.0726 16.9481C17.0122 16.8878 16.935 16.9951 16.8913 16.7671Z" fill="#626262"/>
<path d="M12.0881 16.3624C12.0882 16.4319 12.1184 16.5419 12.1384 16.5497L12.0881 16.3624Z" fill="#AAAAAA"/>
<path d="M9.4668 16.8315C9.53181 16.8306 9.5957 16.8256 9.66072 16.8246L9.4668 16.8315Z" fill="#7B7B7B"/>
<path d="M8.99827 16.8627C9.02099 16.9196 9.04252 16.9764 9.06524 17.0332C9.12067 16.9589 9.17604 16.8886 9.23029 16.8143C9.23348 16.7612 9.23667 16.708 9.23749 16.6549C9.15568 16.6807 9.06645 16.5758 8.99827 16.8627Z" fill="#C4C4C4"/>
<path d="M11.4019 17.006C11.5872 16.9991 11.7737 16.9962 11.959 16.9893C11.9515 16.9404 11.9452 16.8915 11.9377 16.8467C11.8422 16.84 11.7455 16.8333 11.6501 16.8266C11.5669 16.8646 11.4775 16.7721 11.4019 17.006Z" fill="#515151"/>
<path d="M16.5395 16.9643C16.6394 16.8362 16.7558 17.0958 16.8482 16.7636C16.7743 16.7402 16.7265 16.6225 16.7286 16.3407C16.6874 16.4107 16.6462 16.4767 16.605 16.5468C16.5067 16.9525 16.3433 16.5303 16.2471 16.9483C16.3438 16.955 16.4416 16.9617 16.5395 16.9643Z" fill="#B7B7B7"/>
</svg>
