<svg width="19" height="19" fill="none" xmlns="http://www.w3.org/2000/svg"><path d="M17.904 6.576c-.023 1.737-.046 3.473-.065 5.21.087.049.129.094-.086.129a.783.783 0 01-.268-.057c-.26-.324-.051-.66-.115-.99-.015-.522.078-1.045-.025-1.565-.03-.033-.041-.067-.033-.102.09-.12.1-.24.09-.36.01-.622.015-1.244.032-1.865.002-.123-.057-.25.16-.368a.567.567 0 01.31-.032z" fill="#C5C5C5"/><path d="M17.786 13.693c-.085 1.046.455 2.085-.056 3.138a.607.607 0 01-.28-.022c-.325-.283-.12-.578-.032-.867.048-.152.112-.3-.05-.445-.132-.198.033-.407-.133-.605a.133.133 0 01-.013-.135c.14-.159.15-.315.018-.47a.142.142 0 01.006-.134c.179-.144-.022-.303.276-.443a.567.567 0 01.264-.018z" fill="#D4D4D4"/><path d="M17.807 11.907c.012-.04.02-.082.032-.122.487.224-.153.484.123.722.083.074-.133.179.226.24.187.032.186.103.017.148-.496.132-.372.301-.413.46-.33-.004-.409-.081-.419-.158-.048-.353-.07-.707.036-1.063.028-.085.17-.165.398-.227z" fill="#E5E5E5"/><path d="M17.806 11.907c-.153.485-.36.972-.014 1.45.209.108-.104.225-.002.334a2.46 2.46 0 01-.184.007c-.305-.068-.23-.186-.371-.275a.258.258 0 01-.067-.13c-.014-.115.011-.234-.125-.344a.175.175 0 01-.02-.177c.182-.17.143-.344.142-.516.009-.07-.044-.137-.02-.207.04-.056.147-.1.297-.136a1.6 1.6 0 01.254-.024c.034.008.072.013.11.018z" fill="#909090"/><path d="M17.09 10.018a.19.19 0 01.067.093c.027.231.012.463 0 .695-.005.106-.018.214-.307.298a1.56 1.56 0 01-.472.042" fill="#B2B2B2"/><path d="M16.605 7.356c.11.05.183.111.416.124.08.008.145.023.199.042.038.024.06.048.068.074-.005.072-.114.13-.298.176" fill="#BABABA"/><path d="M16.689 8.72c.079.076.055.147-.138.21l.138-.21zm-.129-.295c.056.046.044.098-.057.136l.056-.136z" fill="#A7A7A7"/><path d="M16.64 8.414a1.831 1.831 0 01-.097.032l.096-.032z" fill="#BBB"/><path d="M17.014 12.873c.09.19.148.38-.12.568l.12-.568zm-.221-.525c.145.03.125.07.044.11l-.044-.11z" fill="#AEAEAE"/><path d="M16.593 13.799c.173-.005.307.011.398.056.194.326.2.654-.02.985" fill="#A1A1A1"/><path d="M16.803 13.426c.206.03.217.088.208.149-.066.084-.137.168-.417.216" fill="#C5C5C5"/><path d="M16.814 14.87c.104.003.195.016.268.036.065.024.11.05.14.082.086.137.042.28.055.42-.02.11.05.225-.223.324-.705-.009-.415-.19-.528-.3" fill="#B4B4B4"/><path d="M16.351 11.889c.195.031.444.03.605.082a.2.2 0 01.09.069c.053.078.075.156-.03.236a.562.562 0 01-.177.06.773.773 0 01-.39-.077" fill="#D6D6D6"/><path d="M16.672 12.207l.16.11c.068.017.072.037.014.06" fill="#C5C5C5"/><path d="M16.376 15.257c.28-.033.41-.014.412.075-.1.055-.147.123-.393.14" fill="#CBCBCB"/><path d="M17.522 5.832l.2-.002c.01.246.022.494.03.74-.031.778-.059 1.555-.09 2.331-.046.003-.096.008-.142.01a.512.512 0 01-.194-.061c-.08-.056-.09-.116-.097-.177-.005-.17.001-.337 0-.506.001-.075.002-.15.007-.226a.9.9 0 01.014-.175c.032-.071.09-.143.004-.212.016-.087-.02-.173-.008-.26.003-.166.002-.331.004-.497-.003-.03.001-.06.002-.09.005-.119.034-.237-.098-.35-.038-.06-.033-.12.002-.182.152-.112.031-.247.366-.343z" fill="#A2A2A2"/><path d="M17.508 9.19a.05.05 0 01-.001.047c.149.52.01 1.045.045 1.567a.17.17 0 01-.025.102c-.526.048-.428-.078-.438-.159-.028-.197.006-.396-.01-.593a.202.202 0 00-.06-.09c-.022-.043-.06-.087-.063-.132.11-.135.03-.262-.094-.389a.519.519 0 01-.001-.4c.051-.113.114-.235.628-.248.156.097.12.196.019.296z" fill="#121212"/><path d="M17.474 10.868c-.099-.541-.037-1.087.033-1.63.35.154.121.336.138.503.036.371 0 .746-.01 1.118a.135.135 0 01-.1.025c-.038-.005-.061-.009-.061-.016z" fill="#595959"/><path d="M17.474 10.868l.161-.01c.018.344.04.688.06 1.03-.034.009-.072.016-.107.025-.295-.012-.344-.083-.392-.154.058-.28-.252-.565.25-.84a.29.29 0 00.028-.051z" fill="#909090"/><path d="M17.508 9.19c-.106-.095-.066-.195-.019-.294.058 0 .115.002.173.004-.036.098.02.2-.154.29z" fill="#595959"/><path d="M17.405 13.3c.015.035.026.068.041.102.111.258.1.518-.008.779a.61.61 0 01-.005.084c.104.164.09.33-.004.497a.626.626 0 00-.01.085c.147.219.024.445.06.667-.032.037-.109.057-.235.058-.218-.045-.113-.119-.14-.181-.054-.153.132-.317-.115-.464l.008.003c-.2-.41.067-.833-.138-1.242.113-.122.065-.245.11-.367a.716.716 0 01.436-.02z" fill="#232323"/><path d="M17.588 16.806c-.113.123.088.255-.2.37-.425-.098-.25-.25-.298-.382l.003-.201c.007-.165.002-.329.016-.492.014-.163.208-.318.26-.478.066-.045.113-.092.213-.132.325.288-.01.589.013.882.01.145-.004.29-.007.433z" fill="#4A4A4A"/><path d="M17.438 14.18c.004-.259.004-.518.008-.777.24.086.058.2.16.296-.006.16.121.325-.168.482zm.144 1.311c-.016.045-.032.088-.044.132-.134-.005-.222-.02-.148-.068.011-.237.022-.472.038-.708.357.203.13.428.154.644zm-.149-.729c.002-.165 0-.331.003-.497.297.161.267.327-.003.497z" fill="#424242"/><path d="M16.623 15.622c.231.155.347.315.199.49-.051.08-.412.12-.34.218.002.05-.063.093-.171.13" fill="#B7B7B7"/><path d="M17.046 13.305l-.04.334c-.035.027-.096.037-.184.027-.053-.021-.057-.045-.007-.069a2.467 2.467 0 01-.012-.17l.016-.586c-.082-.133-.636-.241-.162-.405.066-.02.127-.04.193-.062-.004-.02-.011-.039-.015-.058l.077.008c.272-.01.294.05.328.108.044.112-.046.227-.002.338.003.056.01.112.013.168-.06.125.092.253-.205.367z" fill="#7E7E7E"/><path d="M17.07 12.438l-.163-.112c-.002-.095 0-.191-.003-.286.079-.12-.256-.247.132-.362.346-.023.295.054.313.116-.02.077.097.158-.096.231.053.061.11.121.162.18-.235.063.185.207-.345.233z" fill="#606060"/><path d="M17.07 12.438c.113-.077.229-.154.341-.232-.003.19.148.38-.181.567-.367-.092-.13-.222-.16-.335z" fill="#333"/><path d="M17.045 13.305c.03-.122-.126-.252.201-.364.302.106.142.238.16.36l-.36.004z" fill="#545454"/><path d="M17.25 12.025c.004-.075.013-.151.018-.227a.127.127 0 01.1-.024c.035.006.054.013.053.02l.163.12c-.066.048-.116.102-.335.111z" fill="#272727"/><path d="M16.43 15.457c.172.052.167.109.02.17-.054.067.079.148-.194.202" fill="#9D9D9D"/><path d="M16.983 11.673c-.082.1.1.208-.135.304l.135-.304z" fill="#C5C5C5"/><path d="M17.006 9.458c-.038.184.312.37-.131.55l.13-.55z" fill="#A6A6A6"/><path d="M16.87 10.008l.01-.627c-.148-.04-.201-.094-.22-.154a.505.505 0 01-.009-.128.26.26 0 01.033-.127c.05-.068.079-.14.21-.201a1.06 1.06 0 01.189-.063 1.02 1.02 0 01.379.01l.02.178c-.666.216-.295.468-.371.703.117.111.111.226-.005.341-.013.041-.029.083-.04.124a.23.23 0 01-.12.01c-.026-.006-.042-.011-.041-.018.004-.017-.011-.034-.034-.048z" fill="#595959"/><path d="M16.912 10.057c.05.006.104.008.161.008l.016-.005c.236.32-.049.658.16.98-.04.103-.083.205-.307.292a.76.76 0 01-.306.005c-.187-.079-.14-.154.05-.231.415-.348.087-.7.226-1.05z" fill="#9C9C9C"/><path d="M16.693 11.34l.195-.004c.252.065.24.148.15.239a.487.487 0 01-.2.063" fill="#ACACAC"/><path d="M16.882 9.081l.01.11-.01-.11z" fill="#9E9E9E"/><path d="M16.69 11.106c.002.077 0 .155.003.232l-.004-.232z" fill="#A4A4A4"/><path d="M16.528 8.913c.08.02.126.048.137.082l-.137-.082z" fill="#9E9E9E"/><path d="M16.535 8.97a.536.536 0 01.165-.037.56.56 0 01.176.026c.003.041.002.081.006.122" fill="#A4A4A4"/><path d="M16.937 7.747c.244.052.259.137.296.217-.001.06-.086.108-.248.145a1.793 1.793 0 01-.265.018" fill="#A3A3A3"/><path d="M17.113 7.98c-.271-.06-.15-.153-.176-.233l.202-.18a.288.288 0 01.237-.002c.199.05.125.119.097.184-.116.054-.151.114-.194.175a.45.45 0 01-.166.056z" fill="#7B7B7B"/><path d="M16.543 8.447s-.004 0 0 0c.238-.031-.112-.229.489-.16.212.126.218.253-.037.382a.949.949 0 01-.452.01" fill="#9E9E9E"/><path d="M16.547 8.68l.364-.005c.077.017.092.04.064.067-.112.072-.094.155-.245.223l-.191.003a.287.287 0 00-.007-.056c.001-.077.006-.154.015-.232z" fill="#B5B5B5"/><path d="M16.74 8.098l.18-.003c.175.056.174.114-.007.173l-.37.18" fill="#A7A7A7"/><path d="M16.653 12.438c-.07.14.384.254.163.405l-.163-.405z" fill="#A4A4A4"/><path d="M16.872 13.66c.046-.006.092-.013.134-.021l-.008 1.29-.183-.06c.001-.348.007-.695.008-1.043-.099-.057-.136-.113.049-.167z" fill="#3B3B3B"/><path d="M16.445 13.78c.103.008.118.024.034.049l-.034-.05z" fill="#838383"/><path d="M16.478 13.828a.17.17 0 00-.034-.05l.371-.18.057.061-.049.166-.345.003z" fill="#BBB"/><path d="M16.45 15.627l-.02-.17c.12-.041.239-.082.358-.125.102.132-.13.284.185.404.13.026.164.066.167.11-.12.122.03.265-.385.36-.046 0-.092-.002-.138-.004-.08-.19.175-.396-.167-.575z" fill="#C5C5C5"/><path d="M16.994 15.85l-.021-.114c.01-.116.023-.233.032-.35a.189.189 0 01.12-.02c.037.006.056.012.056.02.011.057.018.115.028.173.328.15.072.317.07.478.003.032-.013.065-.048.097a.65.65 0 01-.291 0c-.037-.095-.105-.189.054-.284z" fill="#4A4A4A"/><path d="M17.186 15.385c-.058 0-.12 0-.177.002-.005-.153-.014-.307-.02-.46.416.133.122.306.197.458z" fill="#424242"/><path d="M16.852 11.977c-.006-.113-.008-.227-.014-.34l.07-.02a.516.516 0 01.202.003c.034.023.023.043-.039.06-.048.12.065.245-.167.36a.734.734 0 01-.052-.063z" fill="#ACACAC"/><path d="M16.913 8.268c.001-.058.006-.115.007-.173l.193-.114.012-.063a.68.68 0 01.361-.009l.008.238c-.425.176.036.388-.339.566l-.07.084c-.15 0-.26-.01-.16-.066l.004-.028-.014-.028a7.19 7.19 0 01-.002-.407z" fill="#6B6B6B"/><path d="M17.155 8.715c.095-.19-.419-.403.339-.567-.007.19-.014.38-.025.571-.107-.002-.21-.004-.314-.004z" fill="#2C2C2C"/><path d="M17.482 7.91l-.36.008c-.007-.078.097-.136.347-.167.007.052.01.105.013.159z" fill="#545454"/><path d="M17.07 11.68c-.026-.011-.033-.025-.03-.04a.49.49 0 01.017-.547c.013-.344.022-.688.035-1.032.404.173.113.379.198.568.045.097-.13.209.16.29-.008.292-.012.584-.02.874-.055 0-.104.001-.154.004a4.73 4.73 0 01-.205-.116z" fill="#414141"/><path d="M17.113 9.941l.006-.342c.255.11.253.224-.006.342z" fill="#101010"/><path d="M17.205 16.076c.003-.173.002-.345.005-.516l.172-.004.148.068c.105.154-.188.3-.175.451a.14.14 0 01-.104.024c-.027-.01-.046-.016-.046-.023z" fill="#191919"/><path d="M17.331 16.6h-.157c-.189-.149-.417-.297-.015-.458.015-.022.03-.045.047-.066.053 0 .103 0 .153-.002-.007.175-.017.351-.028.526z" fill="#2A2A2A"/><path d="M16.824 16.484a.16.16 0 00-.04.057c-.187-.03-.27-.113-.546-.103l.186-.115.108-.026c.295-.015.398.034.408.113-.016.028-.054.052-.116.074z" fill="#CCC"/><path d="M16.618 16.202c.114.064-.09.086-.194.12l.194-.12z" fill="#A7A7A7"/><path d="M16.824 16.483l-.008-.02.004-.022c.19-.096-.146-.213.19-.303.049 0 .099 0 .148.003l.016.459-.18.061c-.057-.059.044-.135-.17-.178z" fill="#626262"/><path d="M16.45 11.766c.064 0 .167.03.175.05l-.176-.05z" fill="#AAA"/><path d="M16.892 9.191c-.001.064-.006.126-.007.19l.007-.19z" fill="#7B7B7B"/><path d="M16.922 8.73l.16.067c-.07.054-.136.108-.206.161-.05.004-.1.007-.15.007.024-.08-.074-.168.196-.234z" fill="#C4C4C4"/><path d="M17.053 11.092c-.006.182-.009.365-.016.546l-.133-.02-.02-.283c.037-.081-.05-.17.17-.243z" fill="#515151"/><path d="M17.01 16.138c-.12.098.123.212-.19.303-.021-.073-.131-.12-.396-.118l.194-.121c.38-.096-.016-.257.377-.35.006.094.012.19.014.286z" fill="#B7B7B7"/><path d="M6.796 4.937c2.03 2.13 4.057 4.26 6.09 6.387.157-.049.258-.045.055.262a1.29 1.29 0 01-.371.26c-.677-.073-.84-.737-1.302-1.058-.634-.612-1.148-1.36-1.88-1.862-.073-.003-.126-.031-.158-.084-.04-.255-.171-.413-.325-.546C8.18 7.53 7.451 6.77 6.736 5.998c-.143-.15-.36-.23-.255-.641a.956.956 0 01.315-.42z" fill="#C5C5C5"/><path d="M15.083 13.697c1.142 1.372 2.983 1.965 3.65 3.868-.117.157-.229.261-.344.317-.703.058-.82-.55-1.062-1.01-.126-.243-.229-.5-.584-.476-.383-.079-.444-.533-.866-.569a.225.225 0 01-.175-.147c-.028-.365-.202-.567-.535-.593-.077-.025-.126-.086-.151-.168.032-.394-.384-.34-.212-.875a.95.95 0 01.279-.347z" fill="#D4D4D4"/><path d="M12.993 11.51c-.034-.064-.073-.123-.107-.187.817-.328.398.774.993.722.182-.013.061.38.542.013.25-.191.332-.104.194.159-.408.77-.067.822.075 1.065-.379.4-.56.404-.662.324-.473-.368-.916-.77-1.218-1.33-.069-.138 0-.41.183-.766z" fill="#E5E5E5"/><path d="M12.993 11.51c.4.776.742 1.62 1.698 1.774.365-.127.15.399.395.406a4.135 4.135 0 01-.202.234c-.426.295-.48.06-.746.125a.414.414 0 01-.23-.075c-.151-.123-.263-.297-.548-.263a.295.295 0 01-.233-.19c.006-.43-.244-.592-.45-.8-.072-.094-.211-.111-.267-.225-.022-.117.048-.303.176-.531.07-.111.161-.23.26-.34.048-.033.097-.074.147-.115z" fill="#909090"/><path d="M9.943 10.107a.302.302 0 01.186.03c.305.246.562.545.824.84.12.135.232.282.004.74a2.646 2.646 0 01-.486.631" fill="#B2B2B2"/><path d="M6.243 7.48c.185-.076.34-.09.62-.362.1-.089.192-.15.275-.193.071-.018.125-.017.165.006.08.093.024.296-.13.58" fill="#BABABA"/><path d="M7.952 9.03c.18-.007.236.109.092.422l-.092-.422zm-.496-.199c.12-.013.166.064.098.234l-.098-.234z" fill="#A7A7A7"/><path d="M7.535 8.72l-.072.156.072-.157z" fill="#BBB"/><path d="M13.237 13.655c.325.12.617.279.536.836l-.536-.836zm-.873-.362c.2-.142.223-.071.18.08l-.18-.08z" fill="#AEAEAE"/><path d="M13.854 15.293c.19-.218.362-.363.519-.42.606.155 1 .544 1.143 1.215" fill="#A1A1A1"/><path d="M13.65 14.585c.271-.217.351-.16.413-.077.024.185.043.372-.218.775" fill="#C5C5C5"/><path d="M15.372 16.318c.121-.123.24-.221.347-.285a.574.574 0 01.256-.075c.26.061.378.288.559.441.107.16.324.212.131.669-.81.857-.696.28-.954.287" fill="#B4B4B4"/><path d="M11.319 13.28c.259-.202.54-.51.783-.644.077-.03.138-.04.185-.028.152.03.27.098.244.322a.98.98 0 01-.13.292c-.22.25-.379.325-.533.386" fill="#D6D6D6"/><path d="M12.06 13.27l.312-.062c.097-.065.124-.046.086.053" fill="#C5C5C5"/><path d="M15.333 17.327c.279-.385.448-.522.557-.417-.05.19-.023.33-.28.653" fill="#CBCBCB"/><path d="M5.481 4.507l.224-.248c.305.284.61.57.911.859.884.98 1.773 1.954 2.656 2.932l-.149.187a.812.812 0 01-.294.164c-.156.031-.239-.029-.319-.095-.205-.198-.397-.41-.598-.612a7.667 7.667 0 01-.26-.283c-.067-.071-.136-.144-.19-.23-.048-.124-.066-.283-.247-.26-.084-.126-.228-.185-.317-.306-.193-.203-.39-.402-.583-.606-.04-.032-.07-.074-.104-.11-.135-.151-.243-.33-.527-.305-.113-.026-.18-.105-.211-.222.039-.322-.258-.337.008-.865z" fill="#A2A2A2"/><path d="M9.44 8.59a.085.085 0 01.053.057c.785.446 1.25 1.253 1.905 1.842a.299.299 0 01.093.154c-.54.704-.578.432-.685.347-.265-.205-.462-.487-.714-.707a.319.319 0 00-.174-.034c-.077-.026-.17-.032-.228-.083-.035-.297-.275-.355-.566-.355-.21-.102-.384-.248-.476-.483-.075-.2-.147-.425.42-1.074.292-.073.368.09.371.336z" fill="#121212"/><path d="M11.386 10.661c-.753-.534-1.328-1.27-1.892-2.014.58-.244.535.258.752.44.48.405.883.903 1.311 1.365a.233.233 0 01-.082.154c-.05.04-.081.064-.09.055z" fill="#595959"/><path d="M11.386 10.662l.171-.21c.427.394.858.784 1.288 1.172-.029.053-.064.11-.093.163-.348.348-.488.322-.627.296-.266-.41-.954-.374-.711-1.327a.516.516 0 00-.028-.094z" fill="#909090"/><path d="M9.44 8.59c-.233.015-.307-.156-.37-.334.065-.07.132-.14.2-.207.075.163.259.216.17.541z" fill="#595959"/><path d="M14.186 13.69c.058.024.11.05.168.074.43.176.724.504.91.952.033.034.066.069.095.109.313.07.493.288.584.606.028.04.057.08.09.114.424.085.553.51.855.735.01.084-.055.203-.197.359-.3.213-.269-.005-.372-.048-.243-.118-.226-.545-.68-.42l.012-.006c-.713-.25-.91-1.09-1.626-1.333-.016-.287-.216-.377-.31-.58a1.2 1.2 0 01.471-.562z" fill="#232323"/><path d="M18.543 17.71c.017.286.401.2.21.695-.598.401-.578.004-.79-.098l-.234-.248c-.187-.207-.388-.4-.565-.614-.176-.214-.14-.641-.27-.899.022-.135.02-.25.086-.42.71-.052.686.723 1.058 1.05.182.164.338.357.505.533z" fill="#4A4A4A"/><path d="M15.265 14.717c-.302-.32-.609-.634-.912-.953.376-.19.304.171.533.162.184.203.522.244.38.79zm1.715 1.409c.035.073.067.145.106.213-.158.16-.276.25-.25.1-.266-.3-.532-.599-.795-.904.646-.193.657.358.94.59zm-1.033-.699c-.193-.204-.39-.403-.583-.607.527-.17.69.068.583.607z" fill="#424242"/><path d="M16.045 17.464c.446-.097.768-.046.806.349.038.16-.324.653-.128.683.062.056.038.19-.04.367" fill="#B7B7B7"/><path d="M13.783 14.138l.35.454c-.007.075-.065.163-.177.26-.085.04-.117.015-.088-.075a4.212 4.212 0 01-.217-.192c-.222-.244-.449-.483-.673-.729-.25-.06-1.008.49-.663-.29.05-.106.095-.207.145-.312-.028-.02-.059-.034-.086-.054l.096-.084c.297-.347.395-.3.5-.272.183.08.217.33.399.411.07.064.144.124.213.187.08.225.404.194.201.696z" fill="#7E7E7E"/><path d="M12.786 13.06c-.104.02-.213.045-.318.065-.115-.112-.227-.23-.342-.343-.053-.242-.584.017-.278-.6.365-.453.398-.297.491-.245.07.12.298.072.166.398.132.009.268.012.398.02-.193.364.453.021-.117.705z" fill="#606060"/><path d="M12.786 13.06c.036-.232.077-.468.112-.701.221.233.618.28.465.909-.525.34-.41-.107-.577-.209z" fill="#333"/><path d="M13.783 14.139c-.112-.183-.442-.15-.202-.688.467-.242.442.113.607.24-.134.147-.268.294-.405.448z" fill="#545454"/><path d="M12.5 12.34c-.083-.098-.163-.201-.247-.299a.22.22 0 01.084-.153c.047-.034.077-.05.086-.04.107-.017.219-.039.326-.056-.018.14-.011.268-.248.548z" fill="#272727"/><path d="M15.63 17.502c.256-.149.318-.074.225.18.017.149.264.084.018.485" fill="#9D9D9D"/><path d="M11.781 12.24c.026.224.36.13.207.535l-.207-.534z" fill="#C5C5C5"/><path d="M9.186 9.53c.175.27.792.064.502.828l-.502-.827z" fill="#A6A6A6"/><path d="M9.683 10.362l-.73-.77c-.217.134-.34.134-.432.084-.063-.038-.113-.091-.163-.144a.463.463 0 01-.113-.193c-.022-.145-.075-.265 0-.502.03-.09.08-.196.14-.309a1.7 1.7 0 01.443-.454l.233.191c-.5 1.081.22.929.41 1.307.266-.009.395.137.399.42.034.064.066.135.1.199a.388.388 0 01-.122.16c-.038.025-.062.037-.07.028-.014-.025-.052-.027-.095-.017z" fill="#595959"/><path d="M9.788 10.37a1.91 1.91 0 00.192-.187l.012-.025c.648.097.724.857 1.343.989.076.173.148.35-.003.73a1.26 1.26 0 01-.343.384c-.304.135-.34-.015-.217-.341.06-.932-.729-.954-.984-1.55z" fill="#9C9C9C"/><path d="M11.057 12.193l.218-.244c.363-.232.447-.115.452.105-.01.082-.064.193-.152.323" fill="#ACACAC"/><path d="M8.599 9.228l.14.12-.14-.12z" fill="#9E9E9E"/><path d="M10.776 11.915c.094.091.185.187.28.277l-.28-.277z" fill="#A4A4A4"/><path d="M7.998 9.46c.116-.074.2-.097.251-.07L8 9.46z" fill="#9E9E9E"/><path d="M8.073 9.52a.92.92 0 01.145-.247.881.881 0 01.23-.185c.052.045.1.095.15.14" fill="#A4A4A4"/><path d="M7.083 7.546c.34-.238.455-.153.592-.101.07.074.03.236-.109.48-.08.12-.175.234-.28.347" fill="#A3A3A3"/><path d="M7.559 7.61c-.378.262-.352.001-.477-.065.004-.154.014-.311.018-.466a.479.479 0 01.266-.295c.285-.183.282-.01.328.104-.068.207-.036.324-.013.451a.784.784 0 01-.122.272z" fill="#7B7B7B"/><path d="M7.464 8.878s-.005.005 0 0c.233-.331-.398-.14.366-.795.39-.11.547.037.41.507-.12.226-.286.424-.5.57" fill="#9E9E9E"/><path d="M7.744 9.154l.408-.453c.106-.074.15-.065.151.001-.041.226.077.305-.013.572l-.214.24a.48.48 0 00-.075-.06 4.113 4.113 0 01-.257-.3z" fill="#B5B5B5"/><path d="M7.275 8.212l.2-.225c.265-.149.333-.077.198.218l-.209.673" fill="#A7A7A7"/><path d="M12.311 13.572c.087.259.737-.163.664.291l-.664-.29z" fill="#A4A4A4"/><path d="M14.005 14.782a2.88 2.88 0 00.128-.19l1.518 1.573c-.093.05-.185.102-.278.153-.41-.424-.816-.851-1.226-1.275-.18.053-.288.031-.142-.261z" fill="#3B3B3B"/><path d="M13.661 15.453c.129-.117.165-.116.098.019l-.098-.019z" fill="#838383"/><path d="M13.758 15.471a.267.267 0 00-.096-.018l.206-.676.137.005.142.26c-.13.143-.26.285-.389.429z" fill="#BBB"/><path d="M15.855 17.683l-.224-.18c.087-.198.174-.395.259-.593.27.035.187.504.688.26.178-.128.264-.121.32-.07.007.295.349.283-.01.91l-.162.163c-.318-.13-.27-.694-.87-.49z" fill="#C5C5C5"/><path d="M16.737 17.283l-.16-.112c-.126-.152-.25-.31-.376-.462a.32.32 0 01.11-.173c.05-.04.08-.055.088-.046.08.057.156.118.237.175.55-.22.457.296.645.494.042.035.062.094.06.176a1.08 1.08 0 01-.33.36c-.154-.07-.342-.102-.274-.412z" fill="#4A4A4A"/><path d="M16.404 16.485c-.065.07-.134.147-.198.219-.187-.179-.38-.354-.566-.532.628-.351.5.22.764.313z" fill="#424242"/><path d="M11.992 12.77c-.14-.13-.278-.264-.418-.394l.055-.11a.856.856 0 01.234-.246c.065-.014.075.024.027.122.088.204.364.216.236.64a1.176 1.176 0 01-.134-.011z" fill="#ACACAC"/><path d="M7.672 8.205c-.067-.07-.129-.146-.197-.217.03-.127.055-.249.085-.376l-.06-.091c.09-.185.225-.34.398-.455l.29.278c-.272.736.5.426.287 1.103l.019.187c-.17.184-.306.31-.26.117l-.028-.039-.05-.015a12.39 12.39 0 01-.484-.492z" fill="#6B6B6B"/><path d="M8.476 8.448c-.118-.347-.952.029-.287-1.103.217.239.436.479.649.722-.124.13-.244.255-.362.381z" fill="#2C2C2C"/><path d="M7.894 7.071l-.398.454c-.1-.087-.051-.286.196-.63.07.055.136.115.202.176z" fill="#545454"/><path d="M11.89 12.142c-.045.018-.07.01-.083-.013-.328-.096-.549-.31-.628-.682-.393-.432-.79-.86-1.182-1.292.663-.287.577.32.897.443.166.064.1.413.526.155.335.363.676.722 1.01 1.084a3.775 3.775 0 00-.17.193 7.431 7.431 0 01-.37.112z" fill="#414141"/><path d="M9.88 9.984l-.399-.42c.42-.181.552-.041.399.42z" fill="#101010"/><path d="M17.244 17.297c-.2-.212-.406-.42-.606-.63.063-.074.127-.146.191-.218l.25-.1c.3.058.14.595.334.763a.239.239 0 01-.09.156c-.041.022-.07.037-.079.029z" fill="#191919"/><path d="M18.007 17.776c-.061.066-.118.126-.178.193-.391.053-.825.154-.56-.535a5.8 5.8 0 01-.025-.137 5.57 5.57 0 00.171-.192c.2.22.397.446.592.671z" fill="#2A2A2A"/><path d="M17.293 18.26c0 .046.009.084.023.117-.249.194-.44.197-.742.548l.075-.368.091-.164c.318-.381.493-.448.598-.365.015.053-.001.13-.045.232z" fill="#CCC"/><path d="M16.726 18.173c.205-.063 0 .214-.077.384l.076-.384z" fill="#A7A7A7"/><path d="M17.293 18.26l-.033-.016-.022-.032c.102-.348-.418-.078-.144-.599.057-.06.114-.121.174-.18l.56.536c-.045.101-.086.197-.132.298-.134-.002-.11-.218-.403-.007z" fill="#626262"/><path d="M11.285 13.01c.074-.08.226-.171.257-.156l-.257.156z" fill="#AAA"/><path d="M8.74 9.349c.074.078.143.16.218.238l-.218-.238z" fill="#7B7B7B"/><path d="M8.23 8.755c.087-.038.172-.078.26-.117-.016.152-.027.299-.043.45-.053.064-.106.13-.161.192-.068-.127-.283-.113-.056-.525z" fill="#C4C4C4"/><path d="M11.173 11.45c.208.229.421.454.63.683-.062.047-.121.096-.178.139l-.355-.32c-.056-.142-.258-.142-.097-.501z" fill="#515151"/><path d="M17.095 17.614c-.021.266.39.105.144.598-.111-.06-.292.018-.59.346.027-.13.05-.255.076-.385.319-.585-.321-.292.013-.889.12.108.24.216.357.33z" fill="#B7B7B7"/><path d="M6.804 17.91c1.768-.024 3.535-.046 5.304-.065.049.093.095.137.13-.092a.865.865 0 00-.057-.285c-.33-.277-.672-.055-1.009-.123-.53-.017-1.063.081-1.592-.03-.033-.032-.068-.043-.104-.035a.483.483 0 01-.367.096c-.633.01-1.266.015-1.898.033-.125.002-.254-.061-.375.169a.63.63 0 00-.032.331z" fill="#C5C5C5"/><path d="M14.049 17.79c1.066-.089 2.122.487 3.195-.056a.674.674 0 00-.023-.298c-.287-.347-.587-.13-.882-.035-.155.051-.306.119-.453-.055-.202-.14-.414.035-.615-.141a.13.13 0 00-.138-.015c-.161.15-.32.16-.479.02-.044-.024-.09-.02-.135.006-.147.19-.309-.024-.452.293a.631.631 0 00-.018.282z" fill="#D4D4D4"/><path d="M12.23 17.81c-.04.013-.082.022-.124.035.228.52.493-.163.735.132.075.088.183-.142.245.24.032.2.104.2.15.019.135-.529.307-.397.47-.44-.005-.351-.083-.436-.161-.447-.36-.052-.72-.075-1.083.037-.086.03-.168.182-.231.424z" fill="#E5E5E5"/><path d="M12.23 17.81c.495-.163.991-.383 1.477-.014.11.223.229-.11.34-.002.005-.065.007-.13.007-.196-.068-.325-.188-.246-.279-.395a.259.259 0 00-.132-.072c-.118-.015-.238.012-.35-.134a.172.172 0 00-.18-.021c-.174.194-.35.152-.526.15-.071.01-.14-.046-.21-.02-.058.041-.103.156-.14.316a1.772 1.772 0 00-.024.27c.007.037.013.077.018.118z" fill="#909090"/><path d="M10.308 17.043a.2.2 0 00.095.072c.235.03.471.014.707.002.108-.006.218-.02.304-.328.038-.147.051-.315.044-.502" fill="#B2B2B2"/><path d="M7.598 16.525c.052.118.114.194.127.443a.936.936 0 00.042.212c.025.04.049.065.076.072.073-.005.132-.12.18-.317" fill="#BABABA"/><path d="M8.988 16.614c.076.085.149.06.213-.146l-.213.146zm-.301-.138c.048.06.1.047.14-.06l-.14.06z" fill="#A7A7A7"/><path d="M8.676 16.562l.033-.103-.033.103z" fill="#BBB"/><path d="M13.216 16.966c.193.095.387.158.579-.127l-.58.127zm-.535-.237c.03.155.07.134.113.047l-.113-.047z" fill="#AEAEAE"/><path d="M14.158 16.519c-.005.184.011.326.057.424.332.207.665.214 1.002-.02" fill="#A1A1A1"/><path d="M13.778 16.741c.031.22.09.232.152.223.086-.071.17-.146.22-.445" fill="#C5C5C5"/><path d="M15.248 16.756c.003.11.016.208.037.285a.4.4 0 00.083.15c.14.091.285.044.427.059.113-.023.23.053.332-.238-.008-.752-.194-.442-.305-.563" fill="#B4B4B4"/><path d="M12.213 16.259c.033.207.03.473.084.644.021.048.044.08.07.097.08.055.16.079.24-.033a.619.619 0 00.062-.188.856.856 0 00-.078-.416" fill="#D6D6D6"/><path d="M12.537 16.6l.113.17c.017.074.037.078.06.016" fill="#C5C5C5"/><path d="M15.643 16.288c-.034.299-.015.437.076.44.056-.107.125-.157.143-.419" fill="#CBCBCB"/><path d="M6.046 17.5c0 .07 0 .139-.002.212.251.013.503.026.754.034.792-.032 1.583-.06 2.373-.093.003-.05.008-.103.01-.152a.564.564 0 00-.062-.207c-.056-.085-.118-.096-.18-.103-.172-.006-.343 0-.515 0a4.207 4.207 0 00-.23.007.823.823 0 00-.178.015c-.073.034-.145.096-.216.003-.089.018-.176-.022-.265-.008-.169.003-.337.001-.506.004-.03-.004-.061 0-.09 0-.122.007-.243.037-.358-.104-.061-.04-.122-.035-.184.003-.115.16-.252.032-.35.39z" fill="#A2A2A2"/><path d="M9.466 17.489a.048.048 0 00.047-.001c.529.16 1.064.012 1.595.05a.166.166 0 00.104-.027c.049-.56-.079-.456-.161-.467-.201-.03-.403.006-.605-.011a.205.205 0 01-.09-.064c-.045-.024-.09-.064-.135-.068-.137.117-.267.033-.396-.1a.506.506 0 00-.408-.002c-.115.055-.238.122-.253.67.099.166.2.127.302.02z" fill="#121212"/><path d="M11.173 17.455c-.55-.106-1.106-.04-1.66.033.157.373.342.13.513.148.378.039.76 0 1.138-.01a.15.15 0 00.026-.106c-.005-.041-.01-.065-.017-.065z" fill="#595959"/><path d="M11.173 17.455l-.01.171c.35.02.7.043 1.048.066.01-.037.017-.078.026-.115-.012-.314-.084-.366-.156-.418-.285.062-.575-.269-.857.266a.29.29 0 01-.05.03z" fill="#909090"/><path d="M9.466 17.489c-.097-.113-.2-.07-.3-.02 0 .061.001.122.004.184.1-.038.203.021.296-.164z" fill="#595959"/><path d="M13.65 17.384c.034.016.068.028.104.044a.942.942 0 00.792-.008.512.512 0 00.086-.006c.167.112.335.097.505-.003a.603.603 0 01.087-.01c.222.156.453.026.679.063.038-.033.058-.115.06-.25-.047-.232-.122-.12-.185-.148-.156-.059-.323.14-.472-.123l.003.008c-.418-.215-.848.07-1.264-.149-.124.12-.25.07-.374.117a.798.798 0 00-.022.465z" fill="#232323"/><path d="M17.219 17.583c.124-.12.259.094.377-.214-.1-.452-.254-.266-.389-.317l-.205.003c-.167.007-.335.001-.501.016-.165.015-.324.221-.486.277-.046.07-.094.12-.135.227.293.347.599-.01.898.015.147.01.295-.005.441-.007z" fill="#4A4A4A"/><path d="M14.547 17.42c-.265.004-.529.003-.793.007.088.256.204.063.301.172.165-.007.331.13.492-.18zm1.333.155c.046-.017.09-.034.135-.047-.005-.143-.02-.237-.07-.158-.24.012-.48.023-.721.04.206.38.437.14.657.165zm-.741-.16c-.17.002-.338 0-.507.003.164.316.333.285.507-.003z" fill="#424242"/><path d="M16.014 16.552c.158.247.32.37.5.213.081-.055.123-.44.222-.363.05.003.094-.067.133-.182" fill="#B7B7B7"/><path d="M13.655 17l.34-.041c.027-.038.038-.103.028-.197-.022-.057-.046-.06-.07-.007a2.43 2.43 0 00-.174-.014c-.198.007-.396.01-.596.018-.135-.088-.245-.679-.412-.174l-.063.205c-.02-.003-.04-.011-.06-.015l.008.081c-.01.29.052.314.11.35.114.047.23-.049.344-.001.057.003.115.01.171.014.127-.064.258.098.374-.219z" fill="#7E7E7E"/><path d="M12.773 17.026l-.114-.174c-.097-.003-.195-.001-.291-.004-.123.084-.252-.274-.37.14-.023.369.056.314.118.334.08-.022.161.103.236-.102.062.056.124.117.184.173.064-.25.21.197.237-.367z" fill="#606060"/><path d="M12.772 17.026l-.236.363c.193-.003.388.158.577-.192-.093-.391-.225-.14-.34-.17z" fill="#333"/><path d="M13.655 17c-.125.03-.257-.135-.37.214.107.321.241.152.366.17 0-.127.002-.253.004-.384z" fill="#545454"/><path d="M12.352 17.216c-.077.005-.155.015-.231.02a.141.141 0 00-.026.107c.007.036.014.056.022.056.04.057.08.118.121.174.05-.07.105-.124.114-.357z" fill="#272727"/><path d="M15.846 16.346c.053.183.11.178.173.022.068-.058.151.083.206-.207" fill="#9D9D9D"/><path d="M11.993 16.932c.103-.087.212.107.31-.144l-.31.144z" fill="#C5C5C5"/><path d="M9.738 16.954c.187-.04.376.333.56-.14l-.56.14z" fill="#A6A6A6"/><path d="M10.298 16.81l-.638.01c-.04-.158-.095-.215-.156-.234a.469.469 0 00-.13-.01.256.256 0 00-.13.034c-.07.054-.142.084-.205.224a1.166 1.166 0 00-.064.2 1.11 1.11 0 00.01.405l.181.022c.22-.71.476-.314.716-.395.113.125.23.119.348-.005.04-.013.084-.03.125-.043a.258.258 0 00.011-.127c-.006-.028-.012-.044-.019-.044-.016.004-.034-.012-.049-.036z" fill="#595959"/><path d="M10.348 16.855c.006.053.009.11.008.171l-.005.017c.326.252.67-.051.998.172.104-.042.209-.089.297-.327a.848.848 0 00.005-.327c-.079-.198-.156-.148-.235.053-.355.442-.712.093-1.068.24z" fill="#9C9C9C"/><path d="M11.654 16.622l-.003.209c.065.268.15.255.243.16a.535.535 0 00.064-.214" fill="#ACACAC"/><path d="M9.355 16.82l.112.011-.112-.01z" fill="#9E9E9E"/><path d="M11.416 16.618c.079.003.158.002.237.005l-.237-.005z" fill="#A4A4A4"/><path d="M9.184 16.443c.02.086.048.135.083.146l-.083-.146z" fill="#9E9E9E"/><path d="M9.242 16.45a.594.594 0 00-.037.177c0 .078.01.139.026.188.042.003.083.002.124.006" fill="#A4A4A4"/><path d="M7.997 16.878c.053.261.139.276.22.316.062-.001.11-.092.149-.264.013-.09.018-.184.018-.282" fill="#A3A3A3"/><path d="M8.234 17.067c-.06-.29-.155-.161-.238-.189-.06.07-.121.145-.182.215a.32.32 0 00-.003.254c.05.211.12.133.187.103.055-.123.117-.161.18-.207a.495.495 0 00.056-.176z" fill="#7B7B7B"/><path d="M8.71 16.459s0-.004 0 0c-.032.253-.233-.12-.163.521.128.227.258.233.39-.039.038-.155.045-.319.01-.482" fill="#9E9E9E"/><path d="M8.947 16.464l-.005.388c.016.081.04.097.067.068.074-.12.159-.1.228-.26l.003-.205a.277.277 0 01-.057-.007 2.31 2.31 0 00-.236.016z" fill="#B5B5B5"/><path d="M8.354 16.669l-.003.192c.056.187.115.186.176-.007l.183-.395" fill="#A7A7A7"/><path d="M12.772 16.58c.144-.075.26.41.413.174l-.413-.173z" fill="#A4A4A4"/><path d="M14.016 16.815c-.006.05-.012.098-.021.143l1.314-.007-.06-.195c-.356 0-.71.006-1.064.008-.057-.106-.114-.146-.17.051z" fill="#3B3B3B"/><path d="M14.138 16.36c.01.11.025.126.05.036l-.05-.036z" fill="#838383"/><path d="M14.188 16.396a.172.172 0 01-.05-.036l-.185.395.062.06.17-.052c0-.122.001-.245.003-.367z" fill="#BBB"/><path d="M16.02 16.368l-.174-.021-.127.381c.134.108.289-.139.41.198.027.139.068.175.114.178.123-.128.27.033.367-.41l-.005-.147c-.194-.087-.404.186-.586-.179z" fill="#C5C5C5"/><path d="M16.246 16.948l-.116-.022c-.118.01-.238.024-.356.034a.208.208 0 00-.022.127c.006.04.013.06.02.06.06.012.118.02.177.03.153.35.323.077.487.075.033.003.066-.014.099-.05a.724.724 0 00.001-.311c-.097-.04-.193-.112-.29.057z" fill="#4A4A4A"/><path d="M15.773 17.152c0-.062 0-.127.002-.188-.156-.006-.313-.016-.468-.022.134.443.311.13.466.21z" fill="#424242"/><path d="M12.304 16.792c-.116-.006-.232-.009-.347-.015l-.02.074a.574.574 0 00.003.216c.023.037.043.024.062-.041.122-.051.248.07.366-.177a.769.769 0 00-.064-.057z" fill="#ACACAC"/><path d="M8.527 16.854c-.059 0-.116.006-.175.007l-.117.206-.064.013a.756.756 0 00-.01.384l.242.008c.18-.452.396.04.578-.36l.085-.074c0-.16-.008-.278-.067-.17l-.028.004-.028-.016a7.099 7.099 0 00-.416-.002z" fill="#6B6B6B"/><path d="M8.982 17.112c-.194.101-.41-.447-.578.36.194-.007.388-.014.582-.025l-.004-.335z" fill="#2C2C2C"/><path d="M8.162 17.46l.01-.384c-.08-.007-.14.104-.172.37.053.007.107.01.162.014z" fill="#545454"/><path d="M12.002 17.025c-.013-.028-.027-.036-.042-.032a.481.481 0 00-.557.017l-1.05.036c.175.43.385.121.577.212.1.047.213-.138.296.171.297-.008.594-.013.89-.022 0-.057 0-.11.004-.163a5.236 5.236 0 00-.118-.219z" fill="#414141"/><path d="M10.23 17.069l-.347.005c.111.272.227.27.348-.005z" fill="#101010"/><path d="M16.476 17.174c-.175.003-.351.001-.526.004a9.408 9.408 0 00-.004.184l.07.158c.156.112.305-.2.459-.187a.154.154 0 00.024-.11c-.009-.029-.016-.05-.023-.049z" fill="#191919"/><path d="M17.01 17.309v-.168c-.152-.202-.303-.444-.467-.017-.023.017-.046.033-.067.05 0 .057 0 .11-.003.163.179-.006.358-.017.537-.028z" fill="#2A2A2A"/><path d="M16.891 16.767a.165.165 0 01.059-.042c-.031-.2-.115-.288-.105-.582l-.117.198-.027.115c-.015.314.035.424.115.435.029-.017.053-.058.075-.124z" fill="#CCC"/><path d="M16.605 16.547c.065.121.087-.096.123-.206l-.123.206z" fill="#A7A7A7"/><path d="M16.891 16.767l-.02-.008-.023.005c-.098.201-.217-.156-.309.2 0 .053 0 .107.003.16l.467.017.064-.193c-.06-.06-.138.047-.182-.18z" fill="#626262"/><path d="M12.088 16.362c0 .07.03.18.05.188l-.05-.188z" fill="#AAA"/><path d="M9.467 16.831c.065 0 .129-.005.194-.006l-.194.006z" fill="#7B7B7B"/><path d="M8.998 16.863l.067.17c.056-.074.111-.144.165-.219.003-.053.007-.106.007-.16-.081.027-.17-.078-.239.209z" fill="#C4C4C4"/><path d="M11.402 17.006c.185-.007.372-.01.557-.017l-.021-.142-.288-.02c-.083.038-.173-.055-.248.179z" fill="#515151"/><path d="M16.54 16.964c.1-.128.216.132.308-.2-.074-.024-.121-.142-.12-.423-.04.07-.082.136-.123.206-.098.405-.262-.017-.358.401.097.007.195.014.293.016z" fill="#B7B7B7"/></svg>