<svg width="23" height="23" viewBox="0 0 23 23" fill="none" xmlns="http://www.w3.org/2000/svg">
<path d="M3.70652 2.1554C6.57726 5.10303 9.44609 8.04869 12.3231 10.9899C12.549 10.9263 12.6941 10.9342 12.3956 11.3483C12.1909 11.524 12.0147 11.6387 11.8569 11.6951C10.8852 11.5826 10.6665 10.6738 10.0078 10.2265C9.11096 9.379 8.38721 8.349 7.3466 7.6497C7.24122 7.64416 7.16518 7.60441 7.12039 7.53244C7.06936 7.18331 6.88326 6.9656 6.6659 6.78012C5.64042 5.72256 4.60868 4.67145 3.5976 3.60297C3.39518 3.39422 3.08511 3.28072 3.24416 2.72281C3.31622 2.5264 3.4697 2.33661 3.70652 2.1554Z" fill="#C5C5C5"/>
<path d="M15.4288 14.27C17.0407 16.1644 19.6734 17.0101 20.5915 19.62C20.4212 19.8311 20.2578 19.972 20.0913 20.0452C19.0802 20.1112 18.924 19.2797 18.586 18.6475C18.4108 18.3122 18.2683 17.9589 17.757 17.986C17.2079 17.8709 17.1304 17.2496 16.5251 17.1925C16.4006 17.1673 16.3199 17.0969 16.2766 16.9879C16.2438 16.49 15.9985 16.2112 15.5201 16.169C15.41 16.1328 15.3418 16.0496 15.3067 15.936C15.3612 15.3993 14.7626 15.4652 15.0205 14.7384C15.0991 14.5746 15.2396 14.4101 15.4288 14.27Z" fill="#D4D4D4"/>
<path d="M12.4714 11.2463C12.4233 11.158 12.369 11.0762 12.3209 10.988C13.5029 10.5568 12.8778 12.0522 13.7332 11.9932C13.9948 11.9794 13.8129 12.5137 14.5111 12.022C14.8747 11.7652 14.9912 11.8854 14.7868 12.2419C14.1849 13.2841 14.6738 13.3628 14.8729 13.6971C14.3201 14.2357 14.059 14.2371 13.9142 14.1265C13.2423 13.6141 12.6142 13.0566 12.1924 12.2864C12.0967 12.0975 12.2 11.727 12.4714 11.2463Z" fill="#E5E5E5"/>
<path d="M12.4711 11.2462C13.0299 12.3123 13.5031 13.4707 14.8745 13.6989C15.4016 13.5335 15.0806 14.2466 15.4326 14.2616C15.3384 14.3707 15.2403 14.4758 15.1383 14.577C14.5199 14.9705 14.4458 14.6491 14.0637 14.7321C13.9305 14.7236 13.8204 14.6875 13.7354 14.6255C13.5194 14.4544 13.3621 14.2148 12.9519 14.2559C12.7857 14.2263 12.6821 14.1323 12.6222 13.9932C12.6391 13.4047 12.2839 13.1802 11.9931 12.8932C11.891 12.7621 11.6908 12.7362 11.6137 12.5794C11.5846 12.4204 11.6889 12.167 11.8773 11.8585C11.9813 11.7079 12.1136 11.5479 12.2574 11.3996C12.327 11.3554 12.399 11.3008 12.4711 11.2462Z" fill="#909090"/>
<path d="M8.11884 9.27145C8.23099 9.25819 8.31381 9.27914 8.38603 9.31494C8.81796 9.65725 9.18114 10.0705 9.55058 10.4772C9.72001 10.6649 9.87886 10.8674 9.54185 11.4867C9.37413 11.7778 9.13505 12.0598 8.83035 12.3386" fill="#B2B2B2"/>
<path d="M2.85872 5.61303C3.12592 5.51473 3.3478 5.4986 3.75581 5.13298C3.90234 5.01337 4.03533 4.93136 4.1553 4.8746C4.25791 4.8515 4.33551 4.85418 4.39194 4.88658C4.50408 5.01513 4.42074 5.29015 4.19329 5.67438" fill="#BABABA"/>
<path d="M5.28129 7.7628C5.53859 7.75742 5.61758 7.91623 5.40436 8.34093L5.28129 7.7628Z" fill="#A7A7A7"/>
<path d="M4.57191 7.48223C4.74396 7.46629 4.80923 7.57228 4.70783 7.80289L4.57191 7.48223Z" fill="#A7A7A7"/>
<path d="M4.6875 7.33105C4.65468 7.40035 4.61562 7.47608 4.58089 7.5434L4.6875 7.33105Z" fill="#BBBBBB"/>
<path d="M12.7768 14.1776C13.2419 14.3479 13.657 14.5697 13.5294 15.3276L12.7768 14.1776Z" fill="#AEAEAE"/>
<path d="M11.5303 13.6664C11.8212 13.4766 11.853 13.5738 11.7886 13.7781L11.5303 13.6664Z" fill="#AEAEAE"/>
<path d="M13.63 16.4245C13.9075 16.1305 14.1568 15.9364 14.3832 15.8605C15.2505 16.0846 15.8097 16.6226 16.0001 17.5409" fill="#A1A1A1"/>
<path d="M13.3523 15.4543C13.7452 15.1633 13.8594 15.2425 13.9462 15.3578C13.9775 15.6092 14.0006 15.865 13.6168 16.4104" fill="#C5C5C5"/>
<path d="M15.7898 17.8525C15.9662 17.6864 16.1391 17.5553 16.2942 17.4702C16.4405 17.402 16.5614 17.3719 16.6629 17.3735C17.0358 17.4616 17.2001 17.7728 17.4561 17.9853C17.6063 18.2046 17.9179 18.2811 17.6308 18.9002C16.4482 20.0528 16.6248 19.268 16.254 19.2723" fill="#B4B4B4"/>
<path d="M10.0294 13.6268C10.4055 13.3571 10.8156 12.9421 11.1678 12.7639C11.2791 12.724 11.3673 12.7118 11.4343 12.7293C11.6517 12.773 11.819 12.8683 11.7782 13.1743C11.7558 13.2801 11.6864 13.4147 11.5862 13.5692C11.2631 13.9064 11.0337 14.005 10.8112 14.0849" fill="#D6D6D6"/>
<path d="M11.0935 13.6282C11.244 13.603 11.3926 13.5758 11.5431 13.5505C11.6843 13.464 11.723 13.4911 11.6655 13.6252" fill="#C5C5C5"/>
<path d="M15.7118 19.2286C16.1203 18.7088 16.3672 18.5251 16.5205 18.6703C16.4458 18.9285 16.4816 19.1201 16.1045 19.5563" fill="#CBCBCB"/>
<path d="M1.82547 1.54317C1.93172 1.43359 2.03989 1.32598 2.15239 1.20996C2.58415 1.60365 3.01782 1.99932 3.44333 2.39946C4.69346 3.75314 5.94984 5.10038 7.19807 6.4521C7.12688 6.53339 7.05135 6.62309 6.98017 6.70438C6.81159 6.82703 6.66905 6.89919 6.55446 6.92283C6.32963 6.9617 6.21158 6.87863 6.09786 6.78714C5.80655 6.5125 5.5359 6.2205 5.25084 5.93941C5.12671 5.8114 5.00258 5.68339 4.88471 5.54894C4.78922 5.45047 4.69183 5.35003 4.6151 5.23222C4.54861 5.06052 4.52588 4.8437 4.26563 4.87182C4.14741 4.69834 3.94168 4.61509 3.81721 4.44805C3.54412 4.16643 3.26479 3.89125 2.99171 3.60963C2.93581 3.56487 2.89241 3.50722 2.84467 3.45799C2.65422 3.2487 2.50319 3.0027 2.09346 3.03136C1.93165 2.99341 1.8386 2.88456 1.79555 2.72414C1.8579 2.28566 1.43255 2.25954 1.82547 1.54317Z" fill="#A2A2A2"/>
<path d="M7.42717 7.19202C7.46449 7.20473 7.49123 7.2323 7.50355 7.2708C8.62107 7.89471 9.27173 9.00403 10.2017 9.82132C10.2634 9.87199 10.3082 9.94396 10.3323 10.0333C9.54092 10.9833 9.49284 10.6115 9.34042 10.4929C8.96386 10.2078 8.68731 9.81942 8.32951 9.51488C8.26736 9.47657 8.1802 9.46404 8.08055 9.46441C7.97048 9.42824 7.83541 9.41787 7.75468 9.34751C7.71008 8.94054 7.36685 8.8573 6.94862 8.85141C6.64775 8.70873 6.40123 8.50607 6.27537 8.1829C6.17139 7.90807 6.07279 7.60012 6.90079 6.72654C7.32129 6.63162 7.42735 6.85703 7.42717 7.19202Z" fill="#121212"/>
<path d="M10.1805 10.0564C9.10985 9.31326 8.29981 8.29741 7.50419 7.27064C8.34275 6.94939 8.26807 7.63298 8.57622 7.88632C9.25798 8.44758 9.8248 9.13526 10.4315 9.77388C10.4222 9.85445 10.3793 9.92625 10.3091 9.98283C10.2371 10.0374 10.1919 10.0682 10.1805 10.0564Z" fill="#595959"/>
<path d="M10.1806 10.0564C10.2643 9.96218 10.3479 9.86799 10.4316 9.77381C11.0363 10.32 11.6472 10.8598 12.2562 11.3976C12.2134 11.4694 12.1623 11.5457 12.1194 11.6175C11.6114 12.0863 11.4118 12.048 11.2121 12.0097C10.8394 11.4448 9.84943 11.481 10.2189 10.1862C10.211 10.1393 10.1967 10.0988 10.1806 10.0564Z" fill="#909090"/>
<path d="M7.42777 7.19194C7.09235 7.20699 6.99062 6.97316 6.9033 6.72842C6.99897 6.6337 7.09654 6.54095 7.19603 6.45017C7.30019 6.67361 7.56199 6.75023 7.42777 7.19194Z" fill="#595959"/>
<path d="M14.1403 14.2437C14.2226 14.277 14.2967 14.3147 14.379 14.348C14.9943 14.5958 15.4095 15.0498 15.6685 15.665C15.7144 15.7123 15.7602 15.7595 15.8017 15.8152C16.2498 15.9164 16.5041 16.2173 16.6272 16.6536C16.6668 16.7074 16.7083 16.763 16.7541 16.8103C17.3626 16.9351 17.5393 17.5169 17.9685 17.8306C17.9796 17.9452 17.8851 18.1056 17.677 18.3164C17.2405 18.6011 17.2908 18.3049 17.144 18.2437C16.7962 18.0785 16.8308 17.4953 16.1763 17.6583L16.1926 17.6493C15.1733 17.2943 14.909 16.1451 13.8853 15.7985C13.868 15.4067 13.5824 15.2798 13.4507 15.0021C13.581 14.6983 13.8109 14.4455 14.1403 14.2437Z" fill="#232323"/>
<path d="M20.3158 19.8132C20.3332 20.205 20.8879 20.0938 20.6024 20.7663C19.7349 21.3025 19.7717 20.7604 19.4708 20.6177C19.3601 20.5035 19.2493 20.3893 19.1385 20.275C18.8736 19.9889 18.5899 19.7222 18.3394 19.4252C18.0908 19.1301 18.1513 18.5479 17.9709 18.1942C18.0046 18.0098 18.0032 17.8537 18.1027 17.6211C19.1234 17.565 19.0728 18.6216 19.6016 19.0767C19.8591 19.3035 20.079 19.569 20.3158 19.8132Z" fill="#4A4A4A"/>
<path d="M15.6685 15.6652C15.2407 15.224 14.8067 14.7893 14.3789 14.3482C14.9217 14.0957 14.8112 14.5877 15.1404 14.5791C15.3996 14.8593 15.8852 14.9218 15.6685 15.6652Z" fill="#424242"/>
<path d="M18.1035 17.6213C18.151 17.7219 18.1967 17.8206 18.2505 17.9148C18.0203 18.1286 17.8498 18.2492 17.8903 18.046C17.5132 17.6314 17.138 17.2187 16.7672 16.7976C17.6985 16.5462 17.7026 17.2982 18.1035 17.6213Z" fill="#424242"/>
<path d="M16.6335 16.6473C16.3605 16.3657 16.0811 16.0905 15.808 15.8089C16.5686 15.5877 16.798 15.9145 16.6335 16.6473Z" fill="#424242"/>
<path d="M16.7314 19.4297C17.3743 19.3063 17.8354 19.3822 17.8825 19.9206C17.933 20.1403 17.4027 20.8053 17.6838 20.8502C17.7722 20.9284 17.7347 21.1089 17.6189 21.3504" fill="#B7B7B7"/>
<path d="M13.5518 14.8477C13.7164 15.0561 13.8809 15.2644 14.0455 15.4728C14.0332 15.5762 13.9485 15.695 13.7856 15.8236C13.6618 15.8764 13.6174 15.8435 13.6604 15.7203C13.5544 15.6367 13.4545 15.5466 13.3528 15.4546C13.0382 15.1173 12.7174 14.7865 12.4009 14.4472C12.0419 14.3605 10.9427 15.0963 11.4537 14.0376C11.5275 13.8945 11.595 13.7579 11.6688 13.6148C11.6301 13.5878 11.5852 13.5672 11.5464 13.5402L11.6867 13.427C12.121 12.9595 12.2597 13.0252 12.4114 13.0657C12.6716 13.1794 12.715 13.5206 12.9753 13.6343C13.0732 13.7224 13.1793 13.806 13.2772 13.8941C13.3878 14.2015 13.8536 14.1662 13.5518 14.8477Z" fill="#7E7E7E"/>
<path d="M12.1415 13.3553C11.9909 13.3806 11.8342 13.4123 11.6836 13.4375C11.5208 13.2825 11.3623 13.119 11.1995 12.964C11.1278 12.6322 10.36 12.975 10.8118 12.1388C11.3457 11.5291 11.3905 11.7429 11.5229 11.8151C11.6196 11.9792 11.949 11.9193 11.753 12.3617C11.9417 12.3758 12.1366 12.3835 12.3235 12.3957C12.0396 12.8893 12.9735 12.4343 12.1415 13.3553Z" fill="#606060"/>
<path d="M12.141 13.3553C12.1981 13.0403 12.2615 12.7189 12.3167 12.402C12.6299 12.725 13.1988 12.7961 12.9655 13.6512C12.205 14.1046 12.3781 13.4967 12.141 13.3553Z" fill="#333333"/>
<path d="M13.5508 14.8477C13.394 14.5958 12.92 14.6356 13.2756 13.9065C13.9508 13.5844 13.9084 14.0692 14.1421 14.2457C13.9465 14.4436 13.7508 14.6414 13.5508 14.8477Z" fill="#545454"/>
<path d="M11.7467 12.3679C11.6288 12.2334 11.5153 12.0905 11.3974 11.9561C11.4111 11.8671 11.454 11.7953 11.5217 11.7491C11.5895 11.7029 11.6322 11.6825 11.6455 11.6963C11.7999 11.675 11.9605 11.6472 12.1148 11.6259C12.0869 11.8162 12.0934 11.9906 11.7467 12.3679Z" fill="#272727"/>
<path d="M16.1357 19.4727C16.5067 19.2752 16.594 19.3782 16.4539 19.7235C16.4752 19.926 16.8315 19.8422 16.4698 20.3846" fill="#9D9D9D"/>
<path d="M10.7148 12.219C10.7478 12.5237 11.2293 12.4014 11.0008 12.9522L10.7148 12.219Z" fill="#C5C5C5"/>
<path d="M7.0432 8.47111C7.28868 8.84028 8.1788 8.57221 7.74646 9.60889L7.0432 8.47111Z" fill="#A6A6A6"/>
<path d="M7.74017 9.6152C7.39643 9.26071 7.05078 8.90425 6.70704 8.54976C6.39262 8.72828 6.21536 8.72596 6.0848 8.65578C5.99539 8.60225 5.92474 8.52939 5.85408 8.45652C5.78533 8.38562 5.72718 8.29986 5.69593 8.19029C5.66642 7.99227 5.59369 7.82702 5.7069 7.50545C5.74996 7.38227 5.82375 7.23921 5.91386 7.0872C6.11214 6.82758 6.32222 6.6188 6.55938 6.47663C6.66928 6.56418 6.78108 6.65369 6.89097 6.74124C6.14958 8.20692 7.18606 8.01243 7.45306 8.53272C7.83396 8.5259 8.01677 8.72731 8.01641 9.11369C8.06449 9.20195 8.10824 9.29863 8.15633 9.3869C8.10424 9.48788 8.04121 9.5647 7.97784 9.60248C7.92263 9.63578 7.88808 9.65172 7.87662 9.6399C7.85614 9.60588 7.80249 9.60213 7.74017 9.6152Z" fill="#595959"/>
<path d="M7.89128 9.62891C7.98399 9.55693 8.07722 9.47259 8.17098 9.3759L8.18834 9.34224C9.11682 9.48758 9.21052 10.5253 10.0972 10.7177C10.2027 10.9555 10.302 11.1997 10.077 11.7154C9.94259 11.9249 9.78008 12.0924 9.57695 12.231C9.137 12.409 9.08788 12.2037 9.27193 11.7618C9.37737 10.4911 8.24541 10.4453 7.89128 9.62891Z" fill="#9C9C9C"/>
<path d="M9.67563 12.1405C9.78189 12.0309 9.88814 11.9213 9.9944 11.8117C10.5196 11.5025 10.6383 11.6636 10.6416 11.9635C10.625 12.0753 10.5449 12.2248 10.4159 12.4011" fill="#ACACAC"/>
<path d="M6.20561 8.04645C6.27305 8.10294 6.33859 8.15746 6.40603 8.21395L6.20561 8.04645Z" fill="#9E9E9E"/>
<path d="M9.2777 11.7554C9.41182 11.881 9.53977 12.0129 9.67388 12.1385L9.2777 11.7554Z" fill="#A4A4A4"/>
<path d="M5.33749 8.35021C5.50503 8.25227 5.62586 8.22219 5.7 8.25996L5.33749 8.35021Z" fill="#9E9E9E"/>
<path d="M5.44412 8.43372C5.48423 8.33328 5.55263 8.22334 5.6575 8.09944C5.78008 7.98091 5.88911 7.89997 5.99276 7.85217C6.06585 7.91465 6.13269 7.98358 6.20577 8.04606" fill="#A4A4A4"/>
<path d="M4.06423 5.72116C4.55592 5.40316 4.72032 5.52114 4.9165 5.59454C5.01581 5.69694 4.95468 5.91753 4.74946 6.24733C4.63105 6.40884 4.49302 6.563 4.3411 6.71573" fill="#A3A3A3"/>
<path d="M4.74541 5.81826C4.1966 6.1676 4.2395 5.8122 4.06207 5.71946C4.07093 5.50944 4.08795 5.29495 4.09682 5.08493C4.1727 4.89246 4.30395 4.75709 4.48625 4.68726C4.89911 4.44267 4.89112 4.67936 4.95431 4.83477C4.85273 5.11677 4.89578 5.27719 4.92633 5.4505C4.90393 5.55631 4.84507 5.6761 4.74541 5.81826Z" fill="#7B7B7B"/>
<path d="M4.58244 7.54555C4.58244 7.54555 4.57619 7.552 4.58244 7.54555C4.92413 7.09865 4.01491 7.34702 5.12607 6.46894C5.68806 6.32658 5.91063 6.53032 5.70435 7.16844C5.52603 7.47443 5.28366 7.74014 4.97253 7.93495" fill="#9E9E9E"/>
<path d="M4.9797 7.92844C5.17971 7.72217 5.37538 7.52432 5.57539 7.31806C5.72904 7.21868 5.79224 7.23229 5.79241 7.3227C5.72764 7.62976 5.89638 7.73933 5.76147 8.10297C5.65521 8.21255 5.55521 8.31568 5.44895 8.42526C5.4184 8.39375 5.37968 8.36672 5.34288 8.34166C5.21684 8.21168 5.09514 8.07328 4.9797 7.92844Z" fill="#B5B5B5"/>
<path d="M4.32487 6.6344C4.41862 6.53771 4.51863 6.43458 4.61863 6.33145C5.00163 6.13341 5.09712 6.23188 4.89692 6.63133C4.79239 6.93606 4.68787 7.2408 4.58334 7.54554" fill="#A7A7A7"/>
<path d="M11.4488 14.0461C11.5674 14.4004 12.5098 13.8382 12.3961 14.4557L11.4488 14.0461Z" fill="#A4A4A4"/>
<path d="M13.857 15.7299C13.9244 15.6447 13.9898 15.5575 14.0452 15.4728C14.7619 16.199 15.4785 16.9252 16.1932 17.6494C16.0589 17.717 15.9245 17.7847 15.7901 17.8524C15.209 17.2661 14.6361 16.6753 14.0551 16.0889C13.7971 16.158 13.641 16.126 13.857 15.7299Z" fill="#3B3B3B"/>
<path d="M13.3501 16.6383C13.5361 16.482 13.5878 16.4838 13.4885 16.665L13.3501 16.6383Z" fill="#838383"/>
<path d="M13.4883 16.665C13.4471 16.6484 13.4016 16.6402 13.3499 16.6384C13.4525 16.3317 13.557 16.0269 13.6597 15.7202C13.7253 15.7234 13.7909 15.7267 13.8565 15.7299C13.9232 15.8502 13.9899 15.9705 14.0546 16.0889C13.8652 16.2803 13.6758 16.4717 13.4883 16.665Z" fill="#BBBBBB"/>
<path d="M16.4545 19.7236C16.3484 19.64 16.2424 19.5564 16.1363 19.4728C16.2651 19.206 16.3939 18.9392 16.5209 18.6705C16.9092 18.7229 16.7787 19.3618 17.5037 19.0394C17.762 18.8676 17.8851 18.8785 17.9658 18.9488C17.9688 19.3515 18.4594 19.3418 17.9314 20.1896C17.8526 20.263 17.7738 20.3364 17.6949 20.4098C17.2404 20.2247 17.3207 19.4566 16.4545 19.7236Z" fill="#C5C5C5"/>
<path d="M17.7293 19.1956C17.6537 19.1435 17.5782 19.0914 17.5027 19.0393C17.3242 18.8295 17.1501 18.6113 16.9716 18.4014C17.006 18.2951 17.059 18.2208 17.1329 18.1681C17.2069 18.1155 17.2496 18.0951 17.2611 18.1069C17.3753 18.186 17.4833 18.2716 17.5975 18.3507C18.3909 18.0603 18.2477 18.7634 18.5131 19.0371C18.5728 19.0858 18.6013 19.1668 18.5966 19.2779C18.4685 19.481 18.3103 19.6402 18.1159 19.7619C17.8949 19.6629 17.6258 19.6175 17.7293 19.1956Z" fill="#4A4A4A"/>
<path d="M17.2677 18.1004C17.172 18.1951 17.072 18.2982 16.9782 18.3949C16.7137 18.1479 16.4409 17.9053 16.1764 17.6582C17.0868 17.1919 16.8906 17.9693 17.2677 18.1004Z" fill="#424242"/>
<path d="M11.0064 12.9458C10.8068 12.7657 10.6134 12.5791 10.4137 12.399L10.4957 12.2515C10.5953 12.1093 10.7054 12.0037 10.8365 11.9197C10.9309 11.9011 10.9447 11.9539 10.8733 12.0866C10.995 12.3668 11.3907 12.3881 11.199 12.9639C11.1333 12.9607 11.0658 12.9555 11.0064 12.9458Z" fill="#ACACAC"/>
<path d="M4.89677 6.63143C4.80128 6.53296 4.71396 6.43002 4.61848 6.33155C4.66362 6.15895 4.70252 5.9928 4.74767 5.8202C4.71954 5.7783 4.69142 5.73641 4.6633 5.69451C4.79543 5.44402 4.99353 5.23579 5.2451 5.0827C5.38121 5.21017 5.51923 5.33961 5.65533 5.46708C5.24851 6.46562 6.36573 6.05789 6.04399 6.97657C6.05232 7.06251 6.05874 7.14649 6.06707 7.23243C5.81948 7.47987 5.62104 7.64908 5.69188 7.38696L5.6523 7.33325L5.58147 7.31176C5.34554 7.09424 5.1202 6.86185 4.89677 6.63143Z" fill="#6B6B6B"/>
<path d="M6.04539 6.97861C5.88413 6.5029 4.67749 6.9989 5.65674 5.46912C5.96367 5.79854 6.27252 6.12993 6.5732 6.46581C6.39246 6.64038 6.21797 6.80851 6.04539 6.97861Z" fill="#2C2C2C"/>
<path d="M5.23867 5.0889C5.04682 5.29069 4.85497 5.49248 4.65687 5.70071C4.51451 5.57969 4.5897 5.30915 4.95205 4.84488C5.05048 4.92061 5.14458 5.00475 5.23867 5.0889Z" fill="#545454"/>
<path d="M10.8738 12.0869C10.8091 12.1103 10.7737 12.0996 10.7551 12.0675C10.2846 11.9304 9.97227 11.6341 9.86622 11.1251C9.31155 10.5273 8.75063 9.93593 8.19596 9.33814C9.1545 8.96013 9.018 9.78624 9.47494 9.96097C9.71227 10.051 9.61051 10.5262 10.2269 10.1821C10.7018 10.6848 11.1831 11.1811 11.6561 11.6818C11.5667 11.7701 11.4855 11.8539 11.408 11.9416C11.2244 11.9971 11.045 12.0442 10.8738 12.0869Z" fill="#414141"/>
<path d="M8.03052 9.10275C7.84337 8.90975 7.65432 8.71478 7.46717 8.52178C8.07309 8.28291 8.26024 8.47591 8.03052 9.10275Z" fill="#101010"/>
<path d="M18.4581 19.2245C18.1736 18.9311 17.8828 18.6441 17.6002 18.3526C17.692 18.254 17.7858 18.1573 17.8795 18.0606C17.999 18.0162 18.1184 17.9718 18.2398 17.9293C18.6707 18.0127 18.4286 18.7429 18.7038 18.9751C18.6838 19.0705 18.639 19.1404 18.5713 19.1865C18.5123 19.2159 18.4696 19.2363 18.4581 19.2245Z" fill="#191919"/>
<path d="M19.5437 19.8931C19.4543 19.9814 19.3712 20.0632 19.2837 20.1535C18.721 20.2178 18.0958 20.3465 18.4899 19.4123C18.4786 19.3491 18.4674 19.2859 18.458 19.2246C18.5474 19.1364 18.6287 19.0526 18.708 18.9668C18.9901 19.2706 19.2679 19.5829 19.5437 19.8931Z" fill="#2A2A2A"/>
<path d="M18.5077 20.5397C18.507 20.6034 18.5188 20.6542 18.5388 20.7006C18.1772 20.9594 17.9022 20.9594 17.4617 21.4333C17.5006 21.2672 17.5376 21.099 17.5765 20.9329C17.6193 20.8611 17.6685 20.7828 17.7114 20.711C18.1755 20.197 18.4282 20.1096 18.5768 20.2242C18.5977 20.2972 18.5734 20.4011 18.5077 20.5397Z" fill="#CCCCCC"/>
<path d="M17.6942 20.4098C17.9906 20.3287 17.6898 20.7019 17.5765 20.933L17.6942 20.4098Z" fill="#A7A7A7"/>
<path d="M18.5078 20.5397L18.4609 20.5172L18.4309 20.4733C18.5844 19.9999 17.8319 20.3584 18.2363 19.6538C18.3195 19.572 18.4026 19.4902 18.4896 19.4123C18.7542 19.6594 19.0188 19.9064 19.2834 20.1535C19.2158 20.2901 19.1545 20.4203 19.087 20.5569C18.8939 20.5512 18.9342 20.2575 18.5078 20.5397Z" fill="#626262"/>
<path d="M9.98543 13.2585C10.0936 13.1509 10.3139 13.0301 10.3589 13.0507L9.98543 13.2585Z" fill="#AAAAAA"/>
<path d="M6.40625 8.21375C6.51128 8.32206 6.60864 8.43435 6.71367 8.54266L6.40625 8.21375Z" fill="#7B7B7B"/>
<path d="M5.68524 7.39365C5.81094 7.3428 5.93473 7.28997 6.06042 7.23912C6.03576 7.44574 6.01735 7.64591 5.99078 7.85055C5.91334 7.93829 5.83591 8.02602 5.75465 8.10982C5.66039 7.93526 5.35084 7.9512 5.68524 7.39365Z" fill="#C4C4C4"/>
<path d="M9.85791 11.1293C10.1515 11.4449 10.4532 11.7561 10.7468 12.0717C10.6584 12.1353 10.5719 12.2008 10.4898 12.2579C10.3226 12.1113 10.1535 11.9627 9.98635 11.8161C9.90893 11.6202 9.61813 11.6168 9.85791 11.1293Z" fill="#515151"/>
<path d="M18.2363 19.6539C18.201 20.0172 18.7958 19.8056 18.4309 20.4734C18.2731 20.388 18.0116 20.4922 17.5765 20.933C17.6178 20.7565 17.6529 20.5864 17.6942 20.4099C18.1641 19.6181 17.239 20.0049 17.7314 19.1978C17.9005 19.3464 18.0715 19.4969 18.2363 19.6539Z" fill="#B7B7B7"/>
<path d="M4.61704 20.7836C7.48822 17.8364 10.3575 14.8912 13.2353 11.9509C13.4712 12.0248 13.6211 12.0219 13.2983 11.5826C13.0806 11.3936 12.8944 11.2685 12.7292 11.2045C11.7275 11.2861 11.5318 12.2187 10.8654 12.6578C9.9659 13.5027 9.2517 14.5426 8.1985 15.2289C8.08964 15.2308 8.0123 15.2692 7.96838 15.3421C7.92734 15.7015 7.7421 15.9201 7.52344 16.1043C6.49796 17.1618 5.46578 18.2125 4.45557 19.2819C4.25315 19.4906 3.93613 19.5969 4.11951 20.1799C4.20068 20.3857 4.36589 20.5876 4.61704 20.7836Z" fill="#C5C5C5"/>
<path d="M16.3389 8.66809C17.943 6.76565 20.6386 5.98491 21.5007 3.31727C21.3173 3.09274 21.1435 2.94107 20.9688 2.85933C19.9203 2.75488 19.7867 3.60964 19.4582 4.25167C19.2883 4.59239 19.1527 4.9528 18.6227 4.90648C18.0584 5.0059 17.9992 5.64599 17.3747 5.68337C17.2468 5.70503 17.1656 5.77494 17.1246 5.88621C17.1074 6.40025 16.863 6.67991 16.3693 6.70646C16.2566 6.73994 16.1888 6.82364 16.1564 6.93984C16.2309 7.49721 15.6092 7.40756 15.9005 8.16879C15.9874 8.34113 16.1383 8.51642 16.3389 8.66809Z" fill="#D4D4D4"/>
<path d="M13.3806 11.6908C13.3339 11.7804 13.2804 11.8631 13.2336 11.9528C14.4712 12.4413 13.774 10.8715 14.6611 10.9632C14.9323 10.9868 14.726 10.4275 15.4651 10.9612C15.85 11.24 15.9664 11.1198 15.743 10.7436C15.085 9.64363 15.5882 9.57965 15.783 9.24091C15.1928 8.66381 14.9226 8.65296 14.7765 8.76225C14.0986 9.26837 13.4674 9.82275 13.0569 10.6046C12.9643 10.7966 13.0836 11.1837 13.3806 11.6908Z" fill="#E5E5E5"/>
<path d="M13.3802 11.6911C13.9225 10.6079 14.3731 9.42619 15.7844 9.23918C16.3354 9.42927 15.9792 8.67985 16.343 8.67692C16.2418 8.56071 16.1367 8.44844 16.0279 8.34011C15.3747 7.91072 15.3088 8.24061 14.9106 8.14112C14.7731 8.14505 14.6605 8.17853 14.5745 8.23958C14.3568 8.40894 14.2021 8.65118 13.7763 8.59404C13.6053 8.61864 13.5013 8.71219 13.444 8.85399C13.4813 9.46355 13.1213 9.68313 12.8301 9.96967C12.7288 10.1016 12.5226 10.1213 12.4481 10.2808C12.4233 10.4443 12.5398 10.7102 12.7451 11.0362C12.8578 11.1957 13.0001 11.3661 13.1539 11.5246C13.2274 11.5729 13.3038 11.632 13.3802 11.6911Z" fill="#909090"/>
<path d="M8.94322 13.5784C9.05971 13.5961 9.1447 13.5774 9.21822 13.5429C9.65363 13.2042 10.0155 12.7897 10.3841 12.382C10.5531 12.1939 10.7106 11.9901 10.341 11.3372C10.1577 11.0299 9.9008 10.7295 9.57612 10.4302" fill="#B2B2B2"/>
<path d="M3.62376 17.1755C3.90355 17.2867 4.13368 17.3114 4.56818 17.7043C4.72383 17.8333 4.86421 17.923 4.99026 17.986C5.09721 18.0136 5.17742 18.0136 5.23471 17.9821C5.34642 17.8531 5.25092 17.5655 5.00262 17.1598" fill="#BABABA"/>
<path d="M6.05808 15.0379C6.3245 15.0527 6.40088 14.8912 6.16595 14.4441L6.05808 15.0379Z" fill="#A7A7A7"/>
<path d="M5.33312 15.3027C5.51168 15.3253 5.57565 15.218 5.46296 14.9757L5.33312 15.3027Z" fill="#A7A7A7"/>
<path d="M5.45801 15.4633C5.42172 15.3904 5.37874 15.3106 5.34054 15.2397L5.45801 15.4633Z" fill="#BBBBBB"/>
<path d="M13.5975 8.66865C14.073 8.50915 14.4951 8.2945 14.3375 7.5057L13.5975 8.66865Z" fill="#AEAEAE"/>
<path d="M12.3251 9.15299C12.6326 9.3598 12.6622 9.26034 12.5887 9.04665L12.3251 9.15299Z" fill="#AEAEAE"/>
<path d="M14.4049 6.37427C14.7019 6.68842 14.9664 6.89819 15.2032 6.98487C16.0932 6.78403 16.6537 6.24738 16.8197 5.304" fill="#A1A1A1"/>
<path d="M14.15 7.36828C14.5664 7.68342 14.6819 7.60564 14.7678 7.48944C14.7917 7.23045 14.8069 6.96654 14.3915 6.38846" fill="#C5C5C5"/>
<path d="M16.5914 4.9741C16.7795 5.15235 16.9628 5.29417 17.1261 5.38773C17.2799 5.46356 17.4059 5.49902 17.511 5.501C17.8939 5.42323 18.0533 5.10713 18.3111 4.89641C18.4591 4.67485 18.779 4.60692 18.461 3.95598C17.1985 2.72102 17.4077 3.53937 17.0238 3.52162" fill="#B4B4B4"/>
<path d="M10.7733 9.14028C11.1715 9.43277 11.6099 9.87692 11.9804 10.0739C12.0969 10.1192 12.1885 10.135 12.2573 10.1192C12.4807 10.0818 12.6507 9.98925 12.5982 9.67117C12.5714 9.56088 12.495 9.41907 12.3862 9.25559C12.0405 8.89515 11.7998 8.78485 11.5668 8.69423" fill="#D6D6D6"/>
<path d="M11.8741 9.1768C12.0307 9.20832 12.1854 9.24181 12.342 9.27333C12.491 9.36788 12.5302 9.34129 12.4662 9.20047" fill="#C5C5C5"/>
<path d="M16.4642 3.54735C16.9044 4.09983 17.1661 4.29876 17.3198 4.15401C17.2339 3.88419 17.2644 3.68724 16.8595 3.22241" fill="#CBCBCB"/>
<path d="M2.69117 21.3498C2.80481 21.4669 2.92036 21.5822 3.04068 21.7063C3.47418 21.3144 3.90959 20.9205 4.3364 20.5217C5.58436 19.1658 6.839 17.8167 8.08505 16.4628C8.00866 16.3761 7.92748 16.2806 7.85109 16.1939C7.67252 16.061 7.52259 15.9812 7.40323 15.9526C7.16928 15.9044 7.04992 15.9861 6.93534 16.0767C6.64316 16.3504 6.37295 16.6429 6.08745 16.9235C5.96332 17.0515 5.83919 17.1795 5.72175 17.3144C5.62627 17.4129 5.52888 17.5133 5.45345 17.6325C5.39043 17.8078 5.37421 18.0313 5.10398 17.9929C4.98749 18.1682 4.77742 18.2469 4.65425 18.4153C4.38117 18.6969 4.1014 18.9717 3.82832 19.2533C3.77199 19.2976 3.72902 19.3557 3.68128 19.4049C3.49127 19.6147 3.34327 19.8638 2.91835 19.8195C2.7522 19.8529 2.65958 19.9622 2.62044 20.1267C2.69972 20.5826 2.26047 20.5944 2.69117 21.3498Z" fill="#A2A2A2"/>
<path d="M8.29743 15.7053C8.33563 15.6935 8.36236 15.6659 8.37382 15.6265C9.50915 15.021 10.145 13.8964 11.0798 13.0841C11.1419 13.0338 11.1858 12.961 11.2078 12.8694C10.3569 11.858 10.3197 12.2411 10.166 12.3582C9.78593 12.6398 9.51285 13.0318 9.15288 13.3341C9.08985 13.3715 9.0001 13.3813 8.89697 13.3774C8.78429 13.4108 8.64488 13.4167 8.56372 13.4867C8.53128 13.9062 8.17893 13.98 7.74636 13.9711C7.43985 14.108 7.19159 14.3088 7.07225 14.6387C6.97391 14.9194 6.88226 15.2345 7.76845 16.1681C8.20675 16.2814 8.30891 16.0519 8.29743 15.7053Z" fill="#121212"/>
<path d="M11.0501 12.84C9.96728 13.5706 9.16332 14.5928 8.37465 15.6267C9.25317 15.9891 9.15286 15.2791 9.46318 15.028C10.1497 14.4717 10.7131 13.7804 11.3194 13.1414C11.307 13.0577 11.2602 12.9818 11.1857 12.9208C11.1093 12.8617 11.0615 12.8282 11.0501 12.84Z" fill="#595959"/>
<path d="M11.0496 12.8402C11.1394 12.9406 11.2292 13.0411 11.3189 13.1415C11.9262 12.598 12.5402 12.0613 13.1522 11.5267C13.1054 11.4508 13.0501 11.3701 13.0033 11.2943C12.4618 10.791 12.2565 10.8235 12.0512 10.856C11.6846 11.4271 10.659 11.3542 11.085 12.7073C11.0783 12.7555 11.0649 12.7969 11.0496 12.8402Z" fill="#909090"/>
<path d="M8.29804 15.7055C7.95046 15.6779 7.85307 15.9162 7.77097 16.1663C7.87315 16.2678 7.97724 16.3672 8.08324 16.4647C8.18349 16.2373 8.45181 16.1674 8.29804 15.7055Z" fill="#595959"/>
<path d="M15.0064 8.64933C15.0904 8.61782 15.1658 8.58139 15.2499 8.54988C15.8782 8.31555 16.2926 7.86062 16.5398 7.23335C16.5857 7.18609 16.6315 7.13882 16.6726 7.08269C17.1328 6.99409 17.3858 6.69179 17.4985 6.24472C17.5376 6.19056 17.5787 6.13443 17.6245 6.08717C18.25 5.97987 18.4132 5.3841 18.8467 5.07492C18.8544 4.95675 18.7512 4.78737 18.5287 4.56185C18.0675 4.25162 18.1296 4.55985 17.9797 4.61794C17.6254 4.77646 17.6808 5.3811 16.9981 5.18904L17.0153 5.19888C15.9725 5.52969 15.7377 6.70941 14.6902 7.03136C14.6855 7.43609 14.3942 7.5572 14.2672 7.83981C14.4124 8.15888 14.6588 8.42872 15.0064 8.64933Z" fill="#232323"/>
<path d="M21.2089 3.10736C21.2136 2.70263 21.7914 2.83758 21.4733 2.13149C20.5576 1.54551 20.6139 2.1078 20.3074 2.24466C20.1967 2.35889 20.0859 2.47311 19.9751 2.58734C19.7107 2.87388 19.4261 3.13975 19.1769 3.43811C18.9296 3.73451 19.0118 4.33915 18.837 4.69857C18.8781 4.8906 18.8819 5.0521 18.9927 5.29633C20.0508 5.39093 19.9628 4.29588 20.4947 3.84391C20.7534 3.61842 20.9721 3.35157 21.2089 3.10736Z" fill="#4A4A4A"/>
<path d="M16.5399 7.23312C16.1121 7.67426 15.6776 8.10851 15.2499 8.54965C15.82 8.83034 15.6891 8.31727 16.03 8.33797C16.2888 8.05734 16.7891 8.0101 16.5399 7.23312Z" fill="#424242"/>
<path d="M18.9931 5.2962C19.0389 5.19379 19.0828 5.09334 19.1353 4.99783C18.8899 4.76836 18.7094 4.63738 18.7582 4.8491C18.3819 5.26465 18.0077 5.67822 17.6381 6.10065C18.6102 6.39417 18.5892 5.61622 18.9931 5.2962Z" fill="#424242"/>
<path d="M17.5051 6.25141C17.2321 6.53303 16.9523 6.80776 16.6792 7.08938C17.4737 7.34547 17.7 7.01559 17.5051 6.25141Z" fill="#424242"/>
<path d="M17.5128 3.37582C18.1822 3.52653 18.6567 3.46452 18.6873 2.90912C18.7321 2.68362 18.1611 1.97653 18.4504 1.94011C18.5392 1.86232 18.4943 1.67423 18.3663 1.42016" fill="#B7B7B7"/>
<path d="M14.3769 8.00308C14.5401 7.79334 14.7034 7.5836 14.8667 7.37386C14.8505 7.26652 14.7588 7.14046 14.5859 7.0016C14.4561 6.94251 14.4112 6.975 14.4599 7.10401C14.3529 7.18672 14.2527 7.27633 14.1505 7.3679C13.8364 7.70565 13.5156 8.03651 13.1995 8.37623C12.8309 8.45302 11.6688 7.65234 12.2332 8.76613C12.3144 8.9168 12.3889 9.06058 12.47 9.21125C12.4309 9.23784 12.385 9.25753 12.3459 9.28412L12.4949 9.40624C12.9599 9.90553 13.1012 9.84252 13.2569 9.80609C13.5223 9.69779 13.5557 9.34623 13.8212 9.23793C13.9195 9.15029 14.0265 9.06758 14.1248 8.97994C14.2289 8.66581 14.7121 8.71902 14.3769 8.00308Z" fill="#7E7E7E"/>
<path d="M12.968 9.49676C12.8114 9.46524 12.6482 9.42682 12.4916 9.3953C12.3283 9.5499 12.1698 9.71335 12.0065 9.86795C11.9435 10.2087 11.1375 9.82654 11.6332 10.7079C12.2062 11.3579 12.2453 11.1383 12.3799 11.0684C12.4745 10.902 12.8173 10.9758 12.5995 10.511C12.7943 10.5032 12.9958 10.5022 13.1887 10.4963C12.8783 9.97534 13.86 10.4796 12.968 9.49676Z" fill="#606060"/>
<path d="M12.9678 9.49686C13.0375 9.82478 13.114 10.1596 13.1818 10.4895C13.495 10.1665 14.0813 10.1134 13.811 9.22019C13.0088 8.72383 13.2084 9.35901 12.9678 9.49686Z" fill="#333333"/>
<path d="M14.3764 8.00316C14.2227 8.2582 13.7309 8.20007 14.1234 8.96721C14.8329 9.32472 14.7727 8.82151 15.0085 8.64723C14.7994 8.43549 14.5903 8.22375 14.3764 8.00316Z" fill="#545454"/>
<path d="M12.5927 10.5044C12.4753 10.6393 12.3626 10.7831 12.2452 10.918C12.2624 11.0106 12.3092 11.0864 12.3808 11.1366C12.4524 11.1869 12.4973 11.2095 12.5106 11.1957C12.6711 11.2233 12.8382 11.2578 12.9986 11.2854C12.9633 11.0874 12.9642 10.9072 12.5927 10.5044Z" fill="#272727"/>
<path d="M16.8947 3.31009C17.2853 3.52775 17.3722 3.42435 17.2156 3.06195C17.2308 2.85319 17.6023 2.95267 17.2098 2.37853" fill="#9D9D9D"/>
<path d="M11.5303 10.6216C11.5541 10.3074 12.0564 10.4513 11.8014 9.87319L11.5303 10.6216Z" fill="#C5C5C5"/>
<path d="M7.85695 14.368C8.09851 13.9948 9.02859 14.3041 8.54631 13.2159L7.85695 14.368Z" fill="#A6A6A6"/>
<path d="M8.53955 13.2092C8.19581 13.5637 7.85016 13.9201 7.50642 14.2746C7.17507 14.0786 6.99173 14.0747 6.859 14.1426C6.76829 14.1948 6.69763 14.2677 6.62698 14.3405C6.55823 14.4114 6.50094 14.4981 6.4723 14.6104C6.44844 14.8142 6.37874 14.9826 6.50672 15.3194C6.55542 15.4484 6.6366 15.5991 6.73496 15.7596C6.94887 16.0353 7.17329 16.2589 7.42348 16.4145C7.53424 16.3278 7.64691 16.2392 7.75767 16.1526C6.94115 14.6094 8.02019 14.8478 8.27893 14.319C8.6733 14.3397 8.85568 14.1378 8.84228 13.738C8.88907 13.6484 8.93108 13.5499 8.97786 13.4603C8.92056 13.354 8.85276 13.2722 8.78591 13.2309C8.72766 13.1944 8.69138 13.1767 8.67992 13.1885C8.65987 13.223 8.60448 13.2249 8.53955 13.2092Z" fill="#595959"/>
<path d="M8.69556 13.2004C8.79392 13.2782 8.89323 13.3688 8.9935 13.4722L9.0126 13.5076C9.96844 13.3905 10.0304 12.3201 10.9414 12.1527C11.0426 11.9105 11.1371 11.6614 10.8869 11.1197C10.7408 10.8982 10.567 10.7189 10.3521 10.5682C9.89091 10.3683 9.847 10.579 10.0523 11.0429C10.2042 12.3615 9.0345 12.3683 8.69556 13.2004Z" fill="#9C9C9C"/>
<path d="M10.4573 10.6655C10.5709 10.7827 10.6846 10.8999 10.7982 11.0171C11.3521 11.3559 11.4695 11.1934 11.4628 10.8832C11.4418 10.767 11.3539 10.6094 11.2145 10.4223" fill="#ACACAC"/>
<path d="M7.0046 14.7777C7.07248 14.7216 7.13845 14.6675 7.20632 14.6115L7.0046 14.7777Z" fill="#9E9E9E"/>
<path d="M10.0586 11.0497C10.1931 10.9246 10.3211 10.7926 10.4556 10.6675L10.0586 11.0497Z" fill="#A4A4A4"/>
<path d="M6.09627 14.432C6.27293 14.5394 6.39898 14.5748 6.47441 14.5384L6.09627 14.432Z" fill="#9E9E9E"/>
<path d="M6.20343 14.3494C6.24831 14.4547 6.3228 14.571 6.43549 14.7029C6.56631 14.83 6.68186 14.9176 6.79072 14.9708C6.86424 14.9088 6.93108 14.8398 7.0046 14.7778" fill="#A4A4A4"/>
<path d="M4.86727 17.1068C5.38675 17.4535 5.55289 17.3373 5.75342 17.2684C5.85272 17.166 5.78204 16.9355 5.55858 16.5869C5.43061 16.4156 5.2826 16.2511 5.12026 16.0876" fill="#A3A3A3"/>
<path d="M5.56918 17.0307C4.98954 16.6496 5.0459 17.0189 4.86544 17.1085C4.88168 17.3261 4.90652 17.5487 4.92277 17.7663C5.00777 17.9682 5.14814 18.113 5.33913 18.1917C5.77457 18.4596 5.75832 18.2144 5.81847 18.0559C5.70387 17.7605 5.74301 17.596 5.76878 17.4178C5.74204 17.3075 5.6771 17.1814 5.56918 17.0307Z" fill="#7B7B7B"/>
<path d="M5.34215 15.2376C5.34215 15.2376 5.33547 15.2307 5.34215 15.2376C5.71077 15.7123 4.76159 15.4227 5.94094 16.3711C6.52725 16.5386 6.75068 16.3357 6.51574 15.668C6.32092 15.345 6.06117 15.0614 5.73268 14.8487" fill="#9E9E9E"/>
<path d="M5.74022 14.8555C5.95412 15.0761 6.16326 15.2879 6.37717 15.5085C6.5395 15.6168 6.60444 15.605 6.60157 15.5114C6.5242 15.1914 6.69512 15.0841 6.54327 14.703C6.42963 14.5858 6.32268 14.4755 6.20904 14.3583C6.17848 14.3898 6.13933 14.4164 6.1021 14.441C5.97606 14.571 5.85479 14.7098 5.74022 14.8555Z" fill="#B5B5B5"/>
<path d="M5.10593 16.1712C5.2062 16.2746 5.31316 16.3849 5.42011 16.4952C5.82309 16.7138 5.91857 16.6154 5.69797 16.1949C5.57954 15.8758 5.46112 15.5567 5.34269 15.2377" fill="#A7A7A7"/>
<path d="M12.2281 8.75718C12.3389 8.3948 13.333 9.01033 13.1945 8.36728L12.2281 8.75718Z" fill="#A4A4A4"/>
<path d="M14.6628 7.10118C14.7353 7.19179 14.806 7.28436 14.8662 7.37397C15.5833 6.64826 16.3003 5.92254 17.0155 5.19879C16.8742 5.12394 16.7328 5.04909 16.5915 4.97424C16.01 5.56013 15.4371 6.15095 14.8556 6.73684C14.5864 6.65607 14.4259 6.68363 14.6628 7.10118Z" fill="#3B3B3B"/>
<path d="M14.1081 6.14318C14.3058 6.31159 14.3593 6.31159 14.2504 6.12055L14.1081 6.14318Z" fill="#838383"/>
<path d="M14.2496 6.12033C14.2076 6.13609 14.1608 6.14298 14.1074 6.14297C14.2239 6.46401 14.3423 6.78308 14.4588 7.10411C14.5266 7.10313 14.5944 7.10215 14.6622 7.10117C14.7271 6.97907 14.7921 6.85696 14.8551 6.73683C14.6526 6.53199 14.4502 6.32714 14.2496 6.12033Z" fill="#BBBBBB"/>
<path d="M17.2162 3.06178C17.1093 3.14449 17.0023 3.2272 16.8954 3.30991C17.0377 3.59058 17.18 3.87124 17.3204 4.15387C17.7205 4.11352 17.5638 3.44782 18.3249 3.8073C18.598 3.99442 18.725 3.98754 18.8062 3.91763C18.7956 3.50108 19.3036 3.52868 18.7287 2.63252C18.6447 2.55373 18.5607 2.47495 18.4766 2.39616C18.0126 2.57142 18.1215 3.36908 17.2162 3.06178Z" fill="#C5C5C5"/>
<path d="M18.5534 3.65375C18.477 3.70495 18.4006 3.75615 18.3242 3.80735C18.1466 4.01808 17.9738 4.23767 17.7962 4.44839C17.8353 4.55967 17.8926 4.63846 17.9709 4.69558C18.0493 4.7527 18.0941 4.77535 18.1056 4.76353C18.2211 4.68574 18.33 4.60106 18.4455 4.52327C19.2763 4.85223 19.1044 4.11957 19.3698 3.84582C19.43 3.79757 19.4567 3.71486 19.4481 3.59964C19.3087 3.38495 19.1396 3.21458 18.9343 3.08163C18.709 3.17615 18.4321 3.21355 18.5534 3.65375Z" fill="#4A4A4A"/>
<path d="M18.1121 4.77046C18.0099 4.66902 17.903 4.55873 17.8027 4.45532C17.5373 4.70149 17.2632 4.94274 16.9978 5.18891C17.9556 5.70399 17.7264 4.89254 18.1121 4.77046Z" fill="#424242"/>
<path d="M11.8076 9.87994C11.6071 10.0592 11.4133 10.2453 11.2127 10.4245L11.3025 10.5801C11.4104 10.7307 11.5279 10.844 11.6664 10.9356C11.7647 10.9582 11.7771 10.9041 11.6988 10.7642C11.8153 10.4787 12.224 10.4708 12.0062 9.86814C11.9384 9.86912 11.8687 9.87207 11.8076 9.87994Z" fill="#ACACAC"/>
<path d="M5.69789 16.1947C5.60241 16.2932 5.51552 16.3966 5.42003 16.4951C5.47256 16.6753 5.51841 16.8486 5.57094 17.0288C5.54325 17.0712 5.51556 17.1135 5.48787 17.1558C5.63303 17.4198 5.84503 17.6423 6.1105 17.8098C6.24704 17.6827 6.38549 17.5537 6.52203 17.4267C6.06744 16.3789 7.23721 16.8408 6.87334 15.8787C6.87906 15.7901 6.88288 15.7034 6.8886 15.6148C6.62408 15.3499 6.41304 15.1677 6.49518 15.4415L6.45603 15.4956L6.38346 15.5153C6.14666 15.7319 5.92132 15.9643 5.69789 16.1947Z" fill="#6B6B6B"/>
<path d="M6.87474 15.8767C6.7239 16.3631 5.45864 15.8067 6.52344 17.4247C6.82994 17.0948 7.13835 16.763 7.43816 16.4262C7.24526 16.2391 7.05905 16.0589 6.87474 15.8767Z" fill="#2C2C2C"/>
<path d="M6.10391 17.8031C5.89859 17.5874 5.69328 17.3717 5.48128 17.1492C5.33806 17.2693 5.42497 17.5519 5.81555 18.0453C5.91485 17.9705 6.00938 17.8868 6.10391 17.8031Z" fill="#545454"/>
<path d="M11.6988 10.7639C11.631 10.7374 11.5948 10.7472 11.5766 10.7797C11.0944 10.9047 10.7812 11.2001 10.6886 11.723C10.1348 12.3217 9.57434 12.9135 9.02054 13.5122C10.0251 13.9377 9.85604 13.078 10.323 12.9136C10.5655 12.8289 10.4442 12.3336 11.0936 12.7117C11.5681 12.2086 12.0493 11.7123 12.522 11.2111C12.4265 11.1165 12.3396 11.0269 12.2565 10.9334C12.0646 10.8693 11.8774 10.8142 11.6988 10.7639Z" fill="#414141"/>
<path d="M8.85733 13.7499C8.67018 13.9429 8.48113 14.1378 8.29398 14.3308C8.929 14.5997 9.11614 14.4067 8.85733 13.7499Z" fill="#101010"/>
<path d="M19.3061 3.65009C19.0216 3.94353 18.7303 4.23007 18.4477 4.52154C18.5461 4.62691 18.6463 4.73032 18.7466 4.83372C18.8717 4.88395 18.9968 4.93418 19.1238 4.98245C19.5669 4.91157 19.2918 4.14739 19.5687 3.91697C19.5448 3.81751 19.4961 3.74365 19.4245 3.69343C19.3625 3.66092 19.3176 3.63827 19.3061 3.65009Z" fill="#191919"/>
<path d="M20.4073 2.99709C20.3118 2.90255 20.223 2.8149 20.1294 2.71839C19.545 2.63169 18.8938 2.47606 19.3331 3.4569C19.3235 3.5219 19.314 3.58689 19.3063 3.64991C19.4018 3.74445 19.4887 3.83407 19.5737 3.92566C19.8554 3.62139 20.1323 3.30825 20.4073 2.99709Z" fill="#2A2A2A"/>
<path d="M19.3131 2.2909C19.3102 2.22492 19.3207 2.17273 19.3398 2.12546C18.9569 1.84478 18.6723 1.83492 18.2006 1.32873C18.2464 1.50205 18.2903 1.67733 18.3362 1.85065C18.383 1.92648 18.4365 2.0092 18.4833 2.08503C18.9808 2.63357 19.2453 2.73305 19.3952 2.61981C19.4143 2.54497 19.3856 2.43665 19.3131 2.2909Z" fill="#CCCCCC"/>
<path d="M18.476 2.39621C18.7854 2.49077 18.4616 2.09389 18.3365 1.85065L18.476 2.39621Z" fill="#A7A7A7"/>
<path d="M19.3131 2.2909L19.2653 2.31256L19.2357 2.35687C19.4105 2.85221 18.6198 2.45433 19.062 3.19784C19.1508 3.28549 19.2396 3.37314 19.3322 3.45685C19.5977 3.21068 19.8631 2.9645 20.1286 2.71833C20.0541 2.57456 19.9863 2.43767 19.9118 2.29389C19.7122 2.29289 19.7638 2.59817 19.3131 2.2909Z" fill="#626262"/>
<path d="M10.7404 9.51968C10.8559 9.63491 11.088 9.76786 11.1338 9.74817L10.7404 9.51968Z" fill="#AAAAAA"/>
<path d="M7.20703 14.6116C7.31206 14.5033 7.40874 14.3903 7.51378 14.282L7.20703 14.6116Z" fill="#7B7B7B"/>
<path d="M6.48829 15.4345C6.62007 15.4916 6.74993 15.5507 6.88171 15.6078C6.84923 15.3931 6.82344 15.1853 6.78905 14.9726C6.70597 14.8791 6.62289 14.7855 6.53599 14.6959C6.44433 14.8732 6.12349 14.8456 6.48829 15.4345Z" fill="#C4C4C4"/>
<path d="M10.6802 11.7184C10.9733 11.4023 11.275 11.0911 11.5682 10.775C11.4746 10.7061 11.3829 10.6352 11.296 10.5732C11.128 10.7189 10.958 10.8666 10.7899 11.0123C10.7164 11.2122 10.4156 11.2053 10.6802 11.7184Z" fill="#515151"/>
<path d="M19.0625 3.19775C19.0137 2.82059 19.6363 3.06091 19.2362 2.35678C19.0758 2.43949 18.8017 2.32229 18.3367 1.85056C18.3854 2.03472 18.4274 2.21197 18.4761 2.39613C18.9889 3.23221 18.0187 2.79886 18.5554 3.65169C18.7254 3.50399 18.8973 3.35432 19.0625 3.19775Z" fill="#B7B7B7"/>
</svg>
