<svg width="23" height="23" fill="none" xmlns="http://www.w3.org/2000/svg"><path d="M3.707 2.155c2.87 2.948 5.74 5.894 8.616 8.835.226-.064.371-.056.073.358-.205.176-.381.29-.54.347-.97-.112-1.19-1.021-1.848-1.469C9.11 9.38 8.388 8.35 7.347 7.65c-.106-.006-.182-.046-.227-.118-.05-.349-.237-.566-.454-.752C5.64 5.723 4.609 4.671 3.598 3.603c-.203-.209-.513-.322-.354-.88.072-.197.226-.386.463-.568z" fill="#C5C5C5"/><path d="M15.429 14.27c1.612 1.894 4.244 2.74 5.162 5.35-.17.211-.333.352-.5.425-1.01.066-1.167-.765-1.505-1.398-.175-.335-.318-.688-.829-.661-.55-.115-.627-.736-1.232-.794a.319.319 0 01-.248-.204c-.033-.498-.279-.777-.757-.819a.33.33 0 01-.213-.233c.054-.537-.544-.47-.287-1.198.08-.163.22-.328.409-.468z" fill="#D4D4D4"/><path d="M12.471 11.246c-.048-.088-.102-.17-.15-.258 1.182-.431.557 1.064 1.412 1.005.262-.014.08.52.778.029.364-.257.48-.137.276.22-.602 1.042-.113 1.12.086 1.455-.553.539-.814.54-.959.43-.672-.513-1.3-1.07-1.722-1.84-.095-.19.008-.56.28-1.04z" fill="#E5E5E5"/><path d="M12.471 11.246c.559 1.066 1.032 2.225 2.403 2.453.528-.165.207.548.559.563a5.871 5.871 0 01-.295.315c-.618.393-.692.072-1.074.155a.614.614 0 01-.329-.106c-.216-.172-.373-.411-.783-.37a.418.418 0 01-.33-.263c.017-.588-.338-.813-.629-1.1-.102-.13-.302-.157-.38-.314-.028-.159.076-.412.264-.72.104-.151.237-.311.38-.46.07-.044.142-.098.214-.153z" fill="#909090"/><path d="M8.119 9.271a.452.452 0 01.267.044c.432.342.795.755 1.165 1.162.169.188.328.39-.01 1.01a3.645 3.645 0 01-.71.852" fill="#B2B2B2"/><path d="M2.859 5.613c.267-.098.489-.114.897-.48.146-.12.28-.202.4-.258.102-.024.18-.02.236.012.112.128.029.403-.199.787" fill="#BABABA"/><path d="M5.281 7.763c.258-.006.337.153.123.578l-.123-.578zm-.709-.281c.172-.016.237.09.136.32l-.136-.32z" fill="#A7A7A7"/><path d="M4.688 7.331c-.033.07-.072.145-.107.212l.106-.212z" fill="#BBB"/><path d="M12.777 14.178c.465.17.88.392.752 1.15l-.752-1.15zm-1.247-.512c.291-.19.323-.092.259.112l-.259-.112z" fill="#AEAEAE"/><path d="M13.63 16.424c.277-.293.527-.488.753-.563.868.224 1.427.762 1.617 1.68" fill="#A1A1A1"/><path d="M13.352 15.454c.393-.29.507-.212.594-.096.031.251.055.507-.33 1.052" fill="#C5C5C5"/><path d="M15.79 17.852c.176-.166.35-.297.504-.382a.86.86 0 01.369-.096c.373.088.537.399.793.611.15.22.462.296.175.915-1.183 1.153-1.006.368-1.377.372" fill="#B4B4B4"/><path d="M10.03 13.627c.376-.27.786-.685 1.138-.863a.47.47 0 01.266-.035c.218.044.385.14.344.445-.022.106-.092.24-.192.395-.323.337-.552.436-.775.516" fill="#D6D6D6"/><path d="M11.094 13.628l.45-.078c.14-.086.179-.059.121.075" fill="#C5C5C5"/><path d="M15.712 19.229c.408-.52.655-.704.808-.559-.074.258-.038.45-.415.886" fill="#CBCBCB"/><path d="M1.825 1.543c.107-.11.215-.217.327-.333.432.394.866.79 1.291 1.19 1.25 1.353 2.507 2.7 3.755 4.052l-.218.252c-.168.123-.311.195-.426.219-.224.039-.342-.044-.456-.136-.291-.274-.562-.566-.847-.848-.124-.128-.248-.256-.366-.39a2.155 2.155 0 01-.27-.317c-.066-.171-.09-.388-.35-.36-.118-.174-.323-.257-.448-.424-.273-.282-.552-.557-.825-.838-.056-.045-.1-.103-.147-.152-.19-.21-.342-.455-.752-.427-.161-.038-.254-.146-.297-.307.062-.438-.363-.464.03-1.18z" fill="#A2A2A2"/><path d="M7.427 7.192c.037.013.064.04.077.079 1.117.624 1.768 1.733 2.698 2.55a.41.41 0 01.13.212c-.791.95-.84.579-.992.46-.376-.285-.653-.674-1.01-.978a.48.48 0 00-.25-.05c-.11-.037-.245-.047-.325-.117-.045-.407-.388-.49-.806-.497-.301-.142-.548-.345-.674-.668-.104-.275-.202-.583.626-1.456.42-.095.526.13.526.465z" fill="#121212"/><path d="M10.18 10.056C9.11 9.313 8.3 8.297 7.505 7.271c.839-.322.764.362 1.072.615.682.562 1.249 1.25 1.855 1.888a.314.314 0 01-.122.209c-.072.054-.117.085-.128.073z" fill="#595959"/><path d="M10.18 10.056l.252-.282c.604.546 1.215 1.086 1.824 1.624-.043.071-.094.148-.137.22-.508.468-.707.43-.907.392-.373-.565-1.363-.529-.993-1.824a.67.67 0 00-.038-.13z" fill="#909090"/><path d="M7.428 7.192c-.336.015-.437-.219-.525-.464a9.91 9.91 0 01.293-.278c.104.224.366.3.232.742z" fill="#595959"/><path d="M14.14 14.244c.083.033.157.07.239.104.615.248 1.03.702 1.29 1.317.045.047.091.095.133.15.448.101.702.402.825.839.04.053.081.109.127.156.609.125.785.707 1.214 1.02.012.115-.083.276-.291.486-.436.285-.386-.011-.533-.072-.348-.166-.313-.749-.968-.586l.017-.009c-1.02-.355-1.284-1.504-2.308-1.85-.017-.392-.303-.52-.434-.797.13-.304.36-.557.69-.758z" fill="#232323"/><path d="M20.316 19.813c.017.392.572.28.286.953-.867.537-.83-.006-1.131-.148l-.332-.343c-.265-.286-.55-.553-.8-.85-.248-.295-.188-.877-.368-1.23.034-.185.032-.341.132-.574 1.02-.056.97 1 1.499 1.456.257.226.477.492.714.736z" fill="#4A4A4A"/><path d="M15.668 15.665c-.427-.441-.861-.876-1.29-1.317.544-.252.433.24.762.231.26.28.745.343.528 1.086zm2.436 1.956c.047.1.093.2.146.294-.23.214-.4.334-.36.131-.377-.415-.752-.827-1.123-1.248.931-.252.936.5 1.337.823zm-1.47-.974c-.274-.281-.553-.556-.826-.838.76-.221.99.106.826.838z" fill="#424242"/><path d="M16.731 19.43c.643-.124 1.104-.048 1.151.49.051.22-.48.885-.198.93.088.078.05.259-.065.5" fill="#B7B7B7"/><path d="M13.552 14.848l.494.625c-.013.103-.098.222-.26.35-.124.053-.169.02-.126-.103a6.009 6.009 0 01-.307-.265c-.315-.338-.636-.668-.952-1.008-.36-.086-1.458.65-.947-.41.073-.143.141-.28.215-.422-.039-.027-.084-.048-.123-.075l.14-.113c.435-.467.574-.402.725-.361.26.113.304.455.564.568.098.088.204.172.302.26.11.307.577.272.275.954z" fill="#7E7E7E"/><path d="M12.142 13.355c-.151.026-.308.057-.458.082-.163-.154-.322-.318-.484-.473-.072-.332-.84.011-.388-.825.534-.61.579-.396.71-.324.098.164.427.104.231.547.189.014.384.021.57.034-.283.493.65.038-.181.96z" fill="#606060"/><path d="M12.141 13.355c.057-.315.12-.636.176-.953.313.323.882.394.649 1.25-.761.453-.588-.155-.825-.297z" fill="#333"/><path d="M13.55 14.848c-.156-.252-.63-.212-.274-.942.675-.322.632.163.866.34-.195.198-.391.395-.591.602z" fill="#545454"/><path d="M11.747 12.368c-.118-.135-.232-.277-.35-.412a.297.297 0 01.125-.207c.067-.046.11-.067.123-.053.155-.021.316-.049.47-.07-.028.19-.022.365-.368.742z" fill="#272727"/><path d="M16.136 19.473c.37-.198.458-.095.318.25.021.203.377.12.016.662" fill="#9D9D9D"/><path d="M10.715 12.219c.033.305.514.182.286.733l-.286-.733z" fill="#C5C5C5"/><path d="M7.043 8.471c.246.37 1.136.101.703 1.138L7.043 8.47z" fill="#A6A6A6"/><path d="M7.74 9.615L6.707 8.55c-.314.178-.492.176-.622.106a1.133 1.133 0 01-.23-.2.624.624 0 01-.16-.266c-.029-.198-.101-.363.012-.685.043-.123.117-.266.207-.418.198-.26.408-.468.645-.61l.332.264c-.741 1.466.295 1.271.562 1.792.381-.007.564.194.563.58.048.089.092.186.14.274a.536.536 0 01-.178.215c-.055.034-.09.05-.101.038-.02-.034-.075-.038-.137-.025z" fill="#595959"/><path d="M7.891 9.629c.093-.072.186-.156.28-.253l.017-.034c.929.146 1.023 1.183 1.91 1.376.105.238.204.482-.021.997a1.76 1.76 0 01-.5.516c-.44.178-.49-.027-.305-.47.105-1.27-1.027-1.316-1.38-2.132z" fill="#9C9C9C"/><path d="M9.676 12.14l.318-.328c.526-.31.644-.148.648.152-.017.111-.097.26-.226.437" fill="#ACACAC"/><path d="M6.206 8.046l.2.168-.2-.168z" fill="#9E9E9E"/><path d="M9.278 11.755c.134.126.262.258.396.383l-.396-.383z" fill="#A4A4A4"/><path d="M5.337 8.35c.168-.098.289-.128.363-.09l-.363.09z" fill="#9E9E9E"/><path d="M5.444 8.434c.04-.1.109-.21.213-.335a1.28 1.28 0 01.336-.247c.073.063.14.132.213.194" fill="#A4A4A4"/><path d="M4.064 5.721c.492-.318.656-.2.853-.126.099.102.038.323-.168.652a4.153 4.153 0 01-.408.469" fill="#A3A3A3"/><path d="M4.745 5.818c-.548.35-.506-.006-.683-.099.009-.21.026-.424.035-.634a.668.668 0 01.39-.398c.412-.244.404-.008.467.148-.101.282-.058.442-.028.615a1.046 1.046 0 01-.18.368z" fill="#7B7B7B"/><path d="M4.582 7.546s-.006.006 0 0c.342-.447-.567-.199.544-1.077.562-.142.785.061.578.7-.178.305-.42.571-.731.766" fill="#9E9E9E"/><path d="M4.98 7.928l.595-.61c.154-.1.217-.086.217.005-.064.307.104.416-.03.78l-.313.322a.682.682 0 00-.106-.083 5.68 5.68 0 01-.363-.414z" fill="#B5B5B5"/><path d="M4.325 6.634l.294-.303c.383-.198.478-.1.278.3l-.314.915" fill="#A7A7A7"/><path d="M11.449 14.046c.118.354 1.06-.208.947.41l-.947-.41z" fill="#A4A4A4"/><path d="M13.857 15.73c.067-.085.133-.173.188-.257l2.148 2.176-.403.203c-.581-.586-1.154-1.177-1.735-1.763-.258.069-.414.037-.198-.36z" fill="#3B3B3B"/><path d="M13.35 16.638c.186-.156.238-.154.139.027l-.139-.027z" fill="#838383"/><path d="M13.488 16.665a.403.403 0 00-.138-.027l.31-.918.197.01.198.359c-.19.191-.38.383-.567.576z" fill="#BBB"/><path d="M16.454 19.724l-.318-.251c.13-.267.258-.534.385-.802.388.052.258.69.983.368.258-.171.381-.16.462-.09.003.402.493.393-.035 1.24l-.236.22c-.455-.184-.374-.952-1.24-.685z" fill="#C5C5C5"/><path d="M17.73 19.196l-.227-.157c-.179-.21-.353-.428-.531-.638a.436.436 0 01.16-.233c.075-.052.118-.073.13-.061.113.079.221.165.335.244.794-.29.65.412.916.686.06.049.088.13.084.24a1.505 1.505 0 01-.481.485c-.221-.1-.49-.145-.387-.566z" fill="#4A4A4A"/><path d="M17.268 18.1c-.096.095-.196.198-.29.295-.264-.247-.537-.49-.802-.737.91-.466.715.311 1.092.442z" fill="#424242"/><path d="M11.006 12.946c-.2-.18-.393-.367-.592-.547l.082-.147c.1-.143.21-.248.34-.332.095-.019.109.034.037.167.122.28.518.301.326.877a1.767 1.767 0 01-.193-.018z" fill="#ACACAC"/><path d="M4.897 6.631c-.096-.098-.183-.201-.279-.3.046-.172.085-.338.13-.51l-.085-.126c.132-.251.33-.46.582-.612l.41.384c-.406.999.71.59.389 1.51l.023.255c-.248.248-.446.417-.375.155l-.04-.054-.07-.021c-.236-.218-.462-.45-.685-.68z" fill="#6B6B6B"/><path d="M6.045 6.979c-.16-.476-1.368.02-.388-1.51.307.33.616.66.916.997-.18.174-.355.343-.528.513z" fill="#2C2C2C"/><path d="M5.239 5.089l-.582.612c-.142-.121-.067-.392.295-.856.098.076.193.16.287.244z" fill="#545454"/><path d="M10.874 12.087c-.065.023-.1.013-.119-.02-.47-.137-.783-.433-.889-.942-.554-.598-1.115-1.19-1.67-1.787.959-.378.822.448 1.279.623.237.09.136.565.752.221.475.503.956 1 1.43 1.5-.09.088-.171.172-.249.26-.184.055-.363.102-.534.145z" fill="#414141"/><path d="M8.03 9.103l-.563-.581c.606-.24.793-.046.564.58z" fill="#101010"/><path d="M18.458 19.224c-.284-.293-.575-.58-.858-.871a15.5 15.5 0 01.28-.292c.119-.045.238-.09.36-.132.43.084.189.814.464 1.046a.323.323 0 01-.133.211c-.059.03-.101.05-.113.038z" fill="#191919"/><path d="M19.544 19.893c-.09.088-.173.17-.26.26-.563.065-1.188.194-.794-.74a7.771 7.771 0 01-.032-.188c.09-.089.17-.172.25-.258.282.304.56.616.836.926z" fill="#2A2A2A"/><path d="M18.508 20.54a.375.375 0 00.03.16c-.36.26-.636.26-1.076.733.039-.166.076-.334.114-.5.043-.072.093-.15.135-.222.465-.514.717-.601.866-.487.02.073-.004.177-.07.316z" fill="#CCC"/><path d="M17.694 20.41c.297-.081-.004.292-.117.523l.117-.523z" fill="#A7A7A7"/><path d="M18.508 20.54l-.047-.023-.03-.044c.153-.473-.6-.115-.195-.82.084-.081.167-.163.254-.24l.793.74-.196.404c-.193-.006-.153-.3-.58-.017z" fill="#626262"/><path d="M9.985 13.258c.109-.107.329-.228.374-.207l-.374.207z" fill="#AAA"/><path d="M6.406 8.214c.105.108.203.22.308.329l-.308-.33z" fill="#7B7B7B"/><path d="M5.685 7.394l.375-.155c-.024.207-.043.407-.07.612-.077.087-.154.175-.235.259-.095-.175-.404-.159-.07-.716z" fill="#C4C4C4"/><path d="M9.858 11.13c.293.315.595.626.889.942-.089.063-.175.129-.257.186l-.504-.442c-.077-.196-.368-.2-.128-.687z" fill="#515151"/><path d="M18.236 19.654c-.035.363.56.152.195.82-.158-.086-.42.018-.855.459.042-.177.077-.347.118-.523.47-.792-.455-.405.037-1.212.17.148.34.299.505.456z" fill="#B7B7B7"/><path d="M4.617 20.784a4790.37 4790.37 0 018.618-8.833c.236.074.386.07.063-.368-.217-.19-.404-.315-.569-.379-1.002.082-1.197 1.015-1.864 1.454-.9.845-1.613 1.885-2.667 2.57-.108.003-.186.041-.23.114-.04.36-.226.578-.445.762-1.025 1.058-2.057 2.108-3.067 3.178-.203.209-.52.315-.336.898.08.206.246.408.497.604z" fill="#C5C5C5"/><path d="M16.339 8.668c1.604-1.902 4.3-2.683 5.162-5.35-.184-.225-.358-.377-.532-.459-1.049-.104-1.182.75-1.51 1.393-.17.34-.306.7-.836.654-.565.1-.624.74-1.248.777a.301.301 0 00-.25.203c-.018.514-.262.794-.756.82-.112.034-.18.118-.213.234.075.557-.547.468-.255 1.229.086.172.237.347.438.5z" fill="#D4D4D4"/><path d="M13.38 11.69c-.046.09-.1.173-.146.263 1.237.488.54-1.082 1.427-.99.271.024.065-.535.804-.002.385.279.501.159.278-.217-.658-1.1-.155-1.164.04-1.503-.59-.577-.86-.588-1.006-.479-.678.506-1.31 1.06-1.72 1.843-.093.192.027.579.324 1.086z" fill="#E5E5E5"/><path d="M13.38 11.691c.542-1.083.993-2.265 2.404-2.452.551.19.195-.56.559-.562a6.488 6.488 0 00-.315-.337c-.653-.43-.72-.1-1.117-.199a.6.6 0 00-.336.099c-.218.169-.373.411-.799.354a.396.396 0 00-.332.26c.037.61-.323.83-.614 1.116-.101.132-.307.151-.382.31-.025.164.092.43.297.756.113.16.255.33.409.489.073.048.15.107.226.166z" fill="#909090"/><path d="M8.943 13.578a.454.454 0 00.275-.035c.436-.339.797-.753 1.166-1.161.17-.188.327-.392-.043-1.045a4.153 4.153 0 00-.765-.907" fill="#B2B2B2"/><path d="M3.624 17.175c.28.112.51.136.944.53.156.128.296.218.422.281.107.028.187.028.245-.004.111-.129.016-.416-.232-.822" fill="#BABABA"/><path d="M6.058 15.038c.266.015.343-.147.108-.594l-.108.594zm-.725.265c.179.022.243-.085.13-.327l-.13.327z" fill="#A7A7A7"/><path d="M5.458 15.463a8.114 8.114 0 00-.117-.223l.117.223z" fill="#BBB"/><path d="M13.598 8.669c.475-.16.897-.375.74-1.163l-.74 1.163zm-1.273.484c.308.207.337.107.264-.106l-.264.106z" fill="#AEAEAE"/><path d="M14.405 6.374c.297.314.561.524.798.61.89-.2 1.45-.737 1.617-1.68" fill="#A1A1A1"/><path d="M14.15 7.368c.416.315.532.238.618.121.024-.259.039-.522-.377-1.1" fill="#C5C5C5"/><path d="M16.591 4.974c.188.178.372.32.535.414.154.076.28.111.385.113.383-.078.542-.394.8-.605.148-.221.468-.29.15-.94-1.262-1.235-1.053-.417-1.437-.434" fill="#B4B4B4"/><path d="M10.773 9.14c.399.293.837.737 1.207.934.117.045.208.061.277.045.224-.037.394-.13.341-.448a1.466 1.466 0 00-.212-.415c-.345-.36-.586-.471-.82-.562" fill="#D6D6D6"/><path d="M11.874 9.177c.157.031.311.065.468.096.149.095.188.068.124-.073" fill="#C5C5C5"/><path d="M16.464 3.547c.44.553.702.752.856.607-.086-.27-.056-.467-.46-.932" fill="#CBCBCB"/><path d="M2.691 21.35c.114.117.23.232.35.356.433-.392.869-.785 1.295-1.184 1.248-1.356 2.503-2.705 3.75-4.06-.077-.086-.159-.181-.235-.268-.178-.133-.328-.213-.448-.241-.234-.049-.353.033-.468.124-.292.273-.562.566-.848.846-.124.129-.248.257-.365.391-.096.099-.193.2-.269.319-.063.175-.079.398-.349.36-.117.175-.327.254-.45.422-.273.282-.553.557-.826.838-.056.045-.099.103-.147.152-.19.21-.338.459-.763.415-.166.033-.258.142-.298.307.08.456-.36.467.071 1.223z" fill="#A2A2A2"/><path d="M8.297 15.705a.112.112 0 00.077-.079c1.135-.605 1.771-1.73 2.706-2.542a.384.384 0 00.128-.215c-.851-1.011-.888-.628-1.042-.51-.38.28-.653.673-1.013.975a.478.478 0 01-.256.043c-.113.034-.252.04-.333.11-.033.42-.385.493-.818.484-.306.137-.554.338-.674.668-.098.28-.19.596.696 1.53.439.112.54-.117.53-.464z" fill="#121212"/><path d="M11.05 12.84c-1.083.73-1.887 1.753-2.675 2.787.878.362.778-.348 1.088-.599.687-.556 1.25-1.248 1.856-1.887a.354.354 0 00-.133-.22c-.077-.06-.124-.093-.136-.081z" fill="#595959"/><path d="M11.05 12.84l.269.302a203.32 203.32 0 011.833-1.615c-.047-.076-.102-.157-.149-.233-.541-.503-.746-.47-.952-.438-.366.571-1.392.498-.966 1.851a.66.66 0 01-.035.133z" fill="#909090"/><path d="M8.298 15.706c-.348-.028-.445.21-.527.46.102.102.206.201.312.299.1-.228.369-.298.215-.76z" fill="#595959"/><path d="M15.006 8.65c.084-.032.16-.069.244-.1.628-.234 1.043-.69 1.29-1.317.046-.047.091-.094.133-.15.46-.089.713-.391.826-.838.039-.054.08-.11.126-.158.625-.107.788-.703 1.222-1.012.007-.118-.096-.288-.318-.513-.462-.31-.4-.002-.55.056-.354.158-.298.763-.98.571l.016.01c-1.043.33-1.277 1.51-2.325 1.832-.005.405-.296.526-.423.809.145.319.392.589.74.81z" fill="#232323"/><path d="M21.209 3.107c.005-.404.582-.27.264-.976-.915-.585-.86-.023-1.166.114l-.332.342c-.264.287-.549.553-.798.851-.247.297-.165.901-.34 1.26.041.193.045.354.156.598 1.058.095.97-1 1.502-1.452.258-.226.477-.492.714-.737z" fill="#4A4A4A"/><path d="M16.54 7.233c-.428.441-.862.876-1.29 1.317.57.28.44-.233.78-.212.259-.28.76-.328.51-1.105zm2.453-1.937c.046-.102.09-.203.142-.298-.245-.23-.426-.36-.377-.149-.376.416-.75.83-1.12 1.252.972.293.951-.485 1.355-.805zm-1.488.955c-.273.282-.553.557-.826.838.795.256 1.021-.073.826-.838z" fill="#424242"/><path d="M17.513 3.376c.67.15 1.144.089 1.174-.467.045-.225-.526-.932-.237-.969.09-.078.044-.266-.084-.52" fill="#B7B7B7"/><path d="M14.377 8.003l.49-.63c-.017-.106-.108-.233-.281-.371-.13-.06-.175-.027-.126.102a5.595 5.595 0 00-.31.264c-.314.338-.634.669-.95 1.008-.37.077-1.531-.724-.967.39l.237.445c-.04.027-.085.047-.124.073l.149.122c.465.5.606.437.762.4.265-.108.299-.46.564-.568.098-.088.206-.17.304-.258.104-.314.587-.261.252-.977z" fill="#7E7E7E"/><path d="M12.968 9.497c-.157-.032-.32-.07-.476-.102-.164.155-.322.318-.486.473-.063.34-.869-.041-.373.84.573.65.612.43.747.36.095-.166.437-.092.22-.557.194-.008.396-.009.589-.015-.31-.52.671-.016-.221-1z" fill="#606060"/><path d="M12.968 9.497c.07.328.146.663.214.992.313-.323.9-.376.629-1.269-.802-.496-.603.139-.843.277z" fill="#333"/><path d="M14.376 8.003c-.153.255-.645.197-.253.964.71.358.65-.145.886-.32a78.64 78.64 0 01-.633-.644z" fill="#545454"/><path d="M12.593 10.504c-.118.135-.23.28-.348.414a.334.334 0 00.136.219c.071.05.116.072.13.059.16.027.327.062.488.09-.036-.199-.035-.379-.406-.782z" fill="#272727"/><path d="M16.895 3.31c.39.218.477.114.32-.248.016-.209.387-.11-.005-.683" fill="#9D9D9D"/><path d="M11.53 10.622c.024-.315.526-.17.271-.749l-.27.749z" fill="#C5C5C5"/><path d="M7.857 14.368c.242-.373 1.172-.064.69-1.152l-.69 1.152z" fill="#A6A6A6"/><path d="M8.54 13.21l-1.034 1.065c-.33-.196-.514-.2-.647-.132-.09.052-.161.125-.232.197a.592.592 0 00-.155.27c-.024.204-.093.373.035.71.048.128.13.28.228.44.214.275.438.499.688.655l.335-.262c-.817-1.544.262-1.305.52-1.834.395.02.578-.181.564-.581.047-.09.09-.188.136-.278a.61.61 0 00-.192-.23c-.058-.036-.095-.053-.106-.042-.02.035-.076.037-.14.021z" fill="#595959"/><path d="M8.696 13.2c.098.078.197.169.297.272l.02.036c.955-.117 1.017-1.188 1.928-1.355.102-.242.196-.492-.054-1.033a2.009 2.009 0 00-.535-.552c-.461-.2-.505.011-.3.475.152 1.319-1.018 1.325-1.356 2.157z" fill="#9C9C9C"/><path d="M10.457 10.665l.341.352c.554.339.671.176.665-.134-.021-.116-.11-.274-.248-.46" fill="#ACACAC"/><path d="M7.005 14.778l.201-.167-.201.167z" fill="#9E9E9E"/><path d="M10.059 11.05c.134-.125.262-.257.397-.383l-.397.383z" fill="#A4A4A4"/><path d="M6.096 14.432c.177.107.303.143.378.106l-.378-.106z" fill="#9E9E9E"/><path d="M6.203 14.35c.045.105.12.221.232.353.131.127.247.215.356.268.073-.062.14-.131.214-.193" fill="#A4A4A4"/><path d="M4.867 17.107c.52.346.686.23.886.161.1-.102.029-.332-.194-.681a4.754 4.754 0 00-.439-.5" fill="#A3A3A3"/><path d="M5.57 17.03c-.58-.38-.524-.011-.705.078.017.218.042.44.058.658a.76.76 0 00.416.426c.436.268.42.022.48-.136-.115-.296-.076-.46-.05-.638a1.17 1.17 0 00-.2-.387z" fill="#7B7B7B"/><path d="M5.342 15.238s-.007-.007 0 0c.369.474-.58.185.599 1.133.586.168.81-.035.575-.703a2.51 2.51 0 00-.783-.82" fill="#9E9E9E"/><path d="M5.74 14.855c.214.221.423.433.637.653.163.109.227.097.225.003-.078-.32.093-.427-.059-.808l-.334-.345a.64.64 0 01-.107.083c-.126.13-.247.269-.362.414z" fill="#B5B5B5"/><path d="M5.106 16.171l.314.324c.403.219.499.12.278-.3l-.355-.957" fill="#A7A7A7"/><path d="M12.228 8.757c.11-.362 1.105.253.966-.39l-.966.39z" fill="#A4A4A4"/><path d="M14.663 7.101c.072.09.143.183.203.273l2.15-2.175-.424-.225c-.582.586-1.155 1.177-1.736 1.763-.27-.08-.43-.053-.193.364z" fill="#3B3B3B"/><path d="M14.108 6.143c.198.169.251.169.142-.022l-.142.022z" fill="#838383"/><path d="M14.25 6.12a.4.4 0 01-.143.023l.352.961c.068 0 .135-.002.203-.003l.193-.364c-.202-.205-.405-.41-.605-.617z" fill="#BBB"/><path d="M17.216 3.062l-.32.248c.142.28.284.561.424.844.4-.04.244-.706 1.005-.347.273.187.4.18.481.11-.01-.416.498-.388-.077-1.284a582 582 0 00-.252-.237c-.464.175-.355.973-1.26.666z" fill="#C5C5C5"/><path d="M18.553 3.654l-.229.153c-.177.211-.35.43-.528.641.04.112.097.19.175.248.078.057.123.08.135.068.115-.078.224-.163.34-.24.83.328.658-.404.924-.678.06-.048.087-.131.078-.246a1.72 1.72 0 00-.514-.518c-.225.094-.502.132-.38.572z" fill="#4A4A4A"/><path d="M18.112 4.77a23.113 23.113 0 01-.31-.315c-.265.246-.539.488-.804.734.958.515.728-.296 1.114-.419z" fill="#424242"/><path d="M11.808 9.88c-.2.18-.395.365-.595.544l.09.156c.107.15.225.264.363.356.099.022.111-.032.033-.172.116-.285.525-.293.307-.896a1.814 1.814 0 00-.198.012z" fill="#ACACAC"/><path d="M5.698 16.195c-.096.098-.182.202-.278.3.053.18.098.354.15.534l-.082.127c.145.264.357.486.622.654l.412-.383c-.455-1.048.715-.586.351-1.548l.016-.264c-.265-.265-.476-.447-.394-.174l-.039.055-.073.02a15.66 15.66 0 00-.685.679z" fill="#6B6B6B"/><path d="M6.875 15.877c-.151.486-1.416-.07-.352 1.548.307-.33.615-.662.915-.999-.193-.187-.379-.367-.563-.55z" fill="#2C2C2C"/><path d="M6.104 17.803l-.623-.654c-.143.12-.056.403.335.896.099-.075.193-.158.288-.242z" fill="#545454"/><path d="M11.699 10.764c-.068-.027-.104-.017-.122.016-.483.125-.796.42-.888.943-.554.599-1.115 1.19-1.668 1.79 1.004.425.835-.435 1.302-.6.242-.084.121-.58.77-.201.475-.503.956-1 1.429-1.5a5.998 5.998 0 01-.265-.279 13.57 13.57 0 00-.558-.17z" fill="#414141"/><path d="M8.857 13.75l-.563.58c.635.27.822.077.563-.58z" fill="#101010"/><path d="M19.306 3.65c-.284.294-.576.58-.858.872.098.105.198.208.299.312.125.05.25.1.377.148.443-.07.168-.835.445-1.065a.365.365 0 00-.145-.224c-.061-.032-.106-.055-.118-.043z" fill="#191919"/><path d="M20.407 2.997c-.095-.094-.184-.182-.278-.279-.584-.086-1.235-.242-.796.739l-.027.193c.096.094.183.184.268.276.281-.305.558-.618.833-.929z" fill="#2A2A2A"/><path d="M19.313 2.29a.382.382 0 01.027-.165c-.383-.28-.668-.29-1.14-.796l.136.522.147.234c.498.549.762.648.912.535.02-.075-.01-.183-.082-.33z" fill="#CCC"/><path d="M18.476 2.396c.31.095-.014-.302-.14-.545l.14.545z" fill="#A7A7A7"/><path d="M19.313 2.29l-.048.023-.03.044c.175.495-.615.097-.173.84.089.088.178.176.27.26l.797-.739c-.075-.143-.143-.28-.217-.424-.2-.001-.148.304-.599-.003z" fill="#626262"/><path d="M10.74 9.52c.116.115.348.248.394.228l-.394-.228z" fill="#AAA"/><path d="M7.207 14.612c.105-.109.202-.222.307-.33l-.307.33z" fill="#7B7B7B"/><path d="M6.488 15.434c.132.058.262.117.394.174-.033-.215-.059-.423-.093-.635a7.418 7.418 0 00-.253-.277c-.092.177-.413.15-.048.739z" fill="#C4C4C4"/><path d="M10.68 11.718c.293-.316.595-.627.888-.943-.093-.069-.185-.14-.272-.202l-.506.44c-.074.2-.374.192-.11.705z" fill="#515151"/><path d="M19.063 3.198c-.05-.377.573-.137.173-.841-.16.082-.434-.035-.9-.506.05.184.091.361.14.545.513.836-.457.403.08 1.256.17-.148.341-.298.506-.454z" fill="#B7B7B7"/></svg>