<svg width="192" height="5" fill="none" xmlns="http://www.w3.org/2000/svg" preserveAspectRatio="none"><path d="M31.227 1.078c-.7-.405-1.403-.284-2.106-.002-.145.19-.12.367.073.527 1.86.676 3.816.304 5.73.302 1.135 0 2.258-.227 3.42-.216 1.017.01 1.971-.311 2.165-1.314-2.464-.306-4.924-.178-7.385.023-.797-.072-1.266.453-1.897.68z" fill="#BABABA"/><path d="M29.121 1.429v-.353c-1.77-.92-3.734-.817-5.7-.71-.32.322-.404.67-.18 1.051.138.155.317.27.532.35.423.14.867.18 1.319.177.942.014 1.889-.055 2.829.085.212.017.422.003.63-.036.317-.104.515-.288.57-.564z" fill="#AAA"/><path d="M49.171.432c-2.33-.01-4.662-.02-6.99-.028-.303-.22-.624-.186-.953-.049-.347.492-.123.88.341 1.225.797.419 1.689.184 2.539.235 1.57-.437 3.244-.24 4.846-.5a.984.984 0 00.389-.403.536.536 0 00-.172-.48z" fill="#C4C4C4"/><path d="M67.463.402l-.88-.348-6.942.317c-.02.102-.036.202-.056.304 1.013.926 2.375.444 3.585.585 1.385-.097 2.817.234 4.15-.315.232-.149.278-.331.143-.543z" fill="#D5D5D5"/><path d="M49.171.432c.003.117.005.233.013.348.587.508 1.512.48 2.16.898.55.149 1.064.076 1.552-.16.416-.277 1.003-.414 1.153-.912-.355-.556-.88-.42-1.418-.225-1.145.311-2.324-.839-3.46.05z" fill="#B4B4B4"/><path d="M59.641.369c-1.31-.58-2.613.337-3.923.002l-.101.247c.601.791 1.534.86 2.546.766.642-.15 1.176-.408 1.432-.943l.046-.072zM52.633.38c.479.04.988-.003 1.353.336a.714.714 0 00.474.182c.47-.035.896-.153 1.205-.462l.05-.063c-1.028-.48-2.055-.511-3.082.008z" fill="#D5D5D5"/><path d="M33.056.734C32.711.373 32.218.41 31.737.42c-.169.22-.34.439-.51.658.61-.113 1.22-.229 1.83-.344z" fill="#C2C2C2"/><path d="M190.777 1.501c-.003-.117-.003-.235-.005-.352-3.242-.758-6.537-.506-9.844-.421-4.539.117-9.083.047-13.627.056-.155.165-.14.322.041.469.179.111.379.192.599.24.561.104 1.131.09 1.701.106.476.008.952.01 1.428.014 1.263 0 2.524 0 3.785.006 2.396-.004 4.793-.002 7.189.002 2.445.074 4.904-.196 7.334.214.51.082 1.01-.018 1.399-.334z" fill="#787878"/><path d="M100.15.76C96.519.707 92.89.65 89.26.595c.326 1.26 1.785 1.186 2.848 1.581.676.134 1.37.122 2.058.13 2-.073 3.817-.815 5.778-1.027.198-.137.266-.311.206-.517z" fill="#9B9B9B"/><path d="M100.15.76c.007.11.012.222.017.332l.166.186c.563.276 1.158.513 1.713.801 1.45.616 2.561-.54 3.906-.482.421.002.841.004 1.261.004.667-.002 1.334-.002 1.998-.002.459-.002.921.012 1.375-.06.352-.063.657-.194.891-.42.737-.094 1.575.2 2.191-.364-4.505.004-9.013.006-13.518.006z" fill="#B5B5B5"/><path d="M84.506.712c-1.585-.61-3.3-.45-4.885-.243-2.164.286-4.312.231-6.469.265a.51.51 0 00-.626.011c-.623 1.372-.437 1.58 1.433 1.6 1.087-.689 2.345-.824 3.676-.728a9.406 9.406 0 001.71-.153c1.501-.448 3.11.004 4.62-.368.227-.082.408-.212.54-.384z" fill="#A8A8A8"/><path d="M84.506.712c-.194.035-.39.07-.582.106a.992.992 0 00-.298.513c.435 2.028 2.138.815 3.353.858.595-.18.996-.503 1.145-1.01.025-.203-.06-.367-.253-.498-.266.03-.534.062-.8.096-.88.337-1.732-.01-2.597-.063 0-.002.032-.002.032-.002z" fill="#9E9E9E"/><path d="M87.87.68l.061.404c.307.455.877.65 1.37.927.7.253 1.415.302 2.145.086a.867.867 0 00.427-.362c-.828-.445-1.92-.496-2.613-1.14-.474-.089-.96-.304-1.39.086z" fill="#797979"/><path d="M72.652.792c.167-.02.334-.037.498-.057-1.836-.781-3.793-.2-5.687-.333-.005.112-.01.224-.017.337.348.386.865.467 1.404.5 1.285-.059 2.64.288 3.802-.447z" fill="#C1C1C1"/><path d="M84.474.712c.843.597 1.713.543 2.597.063-.867-.004-1.715-.486-2.597-.063z" fill="#A8A8A8"/><path d="M145.934 4.926c2.254-.617 4.573-.18 6.861-.266 2.384-.089 4.773-.053 7.16-.073-.821-1.29-2.353-.917-3.626-.919-5.039-.006-10.078.141-15.117.084-6.061-.068-12.122-.003-18.183.004-2.515-.088-5.049.23-7.549-.219-1.868-.235-3.682.394-5.549.215-5.96.012-11.92.002-17.876.002-1.737.004-3.477.01-5.213-.002-.899.008-1.795-.127-2.694-.007-.993.033-1.986.02-2.978.017a30.81 30.81 0 00-.737-.002c-.979.008-1.96.006-2.938.002-.739 0-1.478 0-2.217-.002-1.744.083-3.506-.17-5.235.184a.935.935 0 00-.512.437c3.73.586 7.496.22 11.242.235 16.016.069 32.032.055 48.049.071 3.166.245 6.341.035 9.51.114.785.02 1.59-.122 2.355.127 1.747-.002 3.496-.002 5.247-.002z" fill="#A3A3A3"/><path d="M44.316 4.236c2.478.333 5.037-.405 7.484.359 4.036-.478 8.075-.425 12.112-.024 1.894.188 3.727-.507 5.619-.188.063-.06.125-.121.19-.18.056-.217-.03-.386-.26-.507-1.167-.455-2.416-.202-3.629-.279a617.898 617.898 0 01-3.022-.006c-3.311.003-6.623 0-9.935-.001-.399-.002-.795-.002-1.194 0-2.367.137-4.768-.277-7.111.278-.254.13-.339.313-.254.548z" fill="#A3A3A3"/><path d="M140.685 4.928c-3.937-.627-7.911-.172-11.866-.241 3.938.586 7.909.153 11.866.24z" fill="#B4B4B4"/><path d="M44.417 3.964l7.353-.045c.046-.83-.867-.807-1.461-1.07a9.746 9.746 0 00-3.218-.035c-1.44.337-2.88.406-4.324.012-.961-.272-1.93-.523-2.971-.396-.928.18-1.872.21-2.822.153a2.738 2.738 0 00-.618.12c-.959.64-2.314.13-3.285.732-.109.096-.15.198-.128.302.024.106.053.16.084.16 3.02.255 6.044.096 9.066.083.778.164 1.551.19 2.324-.016zM.23 3.255c2.258 1.095 4.775.466 7.152.603 3.59.208 7.211.047 10.82.043.145-.176.121-.339-.067-.487a2.054 2.054 0 00-.619-.25c-.577-.103-1.169-.08-1.754-.12-2.321-.551-4.638.207-6.96.013-2.091.169-4.106-.507-6.195-.349-.836.063-1.75-.104-2.378.547z" fill="#2D2D2D"/><path d="M33.027 3.896l-.007-.304c-.792-.367-1.59-.137-2.186-.176.645-.414 2.29.585 2.732-.794-.179-.282-.498-.36-.855-.386-1.36.414-3.022-.568-4.223.592-.22.38-.178.729.184 1.042 1.452.008 2.904.016 4.355.026z" fill="#323232"/><path d="M28.672 3.868c0-.323 0-.644.002-.968a1.037 1.037 0 00-.505-.3c-.671-.11-1.256.122-1.855.302-.534.321-1.6.106-1.57 1.001 1.311.157 2.62.128 3.928-.035zm-10.451-.274a12.63 12.63 0 00-.016.307h5.234c.102-.72-.676-.719-1.183-.942-.812-.178-1.614-.045-2.42.037-.58.126-1.238.116-1.614.598z" fill="#3B3B3B"/><path d="M22.198 3.25c.413.218.828.436 1.241.651l1.305.004c.43-.52 1.428-.135 1.807-.738l-.292-.21c-1.397-.278-2.793-.568-4.061.294z" fill="#1A1A1A"/><path d="M44.417 3.964l-2.321.014c.68.411 1.44.394 2.22.258.024-.094.058-.184.101-.272z" fill="#5D5D5D"/><path d="M16.023 2.167C15 .218 13.098 1.782 11.668 1.458c-.507.557-.174.988.324 1.393 1.343.01 2.703.169 4.007-.243.111-.094.152-.19.12-.29-.028-.102-.06-.15-.096-.15z" fill="#4E4E4E"/><path d="M22.045 1.149c-.391-.435-.814-.823-1.584-.69-.911.298-1.822.596-2.732.892l.178.248c1.073.557 2.327.253 3.47.482.603-.13 1.28-.233.668-.932z" fill="#6B6B6B"/><path d="M16.023 2.168l-.053.419c-.072.194-.005.349.198.466.198.086.41.135.636.147.874-.03 1.768.157 2.613-.17.396-.334.181-.623-.099-.91-.41-.368-1.198-.121-1.541-.61l-.046-.157c-.715.072-.906.86-1.708.815z" fill="#595959"/><path d="M36.943 2.832c.86.507 1.737.558 2.633.062.462-.485 1.056-.834 1.73-1.1.166-.083.297-.193.4-.326-.14-.35-.277-.703-.417-1.054L40.44.408c-1.783 1.356-4.114.617-6.16.996-1.638.301-3.435.039-5.16.027l-.466.36c-.104.094-.143.192-.116.292.026.102.055.153.084.153 1.339-.168 2.621.768 3.984.127 1.486-.08 2.819.749 4.336.469z" fill="#929292"/><path d="M22.046 1.149c.024.48-.273.676-.848.627-.66-.122-1.38-.465-1.793.317.785.801 1.967.435 2.95.656.237.028.468.018.7-.029.64-.263 1.343-.502.824-1.258l-.444-.012-1.39-.301z" fill="#969696"/><path d="M28.278 1.79c-.942-.647-2.05-.228-3.08-.316-.302.496-.036.862.416 1.187.311.13.642.159.985.114.551-.335 1.689-.026 1.68-.986z" fill="#7E7E7E"/><path d="M25.609 2.505c-.138-.343-.276-.688-.41-1.031-.44-.004-.88-.008-1.32-.01.039.531-.592.69-.886 1.035.87.511 1.741.505 2.616.006z" fill="#898989"/><path d="M28.278 1.79l-1.78.72a.483.483 0 00-.249.35c.036.144.135.248.304.307l-.002.004 1.689-.363c.304-.143.712-.243.43-.642l-.013-.373-.188.004-.19-.008z" fill="#959595"/><path d="M49.116 1.068c-1.747-.076-3.505-.266-5.177.351-.157.174-.15.343.024.506.77.44 1.568.229 2.365.072.978-.17 2.152.212 2.884-.658-.033-.088-.065-.18-.096-.27z" fill="#929292"/><path d="M43.925 1.805c.004-.127.007-.257.012-.384l-2.23.047c-.143.004-.285.01-.428.022-.118.975.72 1.271 1.645 1.508.517-.121.85-.417 1.129-.768.065-.162.026-.305-.128-.425z" fill="#8F8F8F"/><path d="M51.367 1.44c-.34-1.05-1.382-.596-2.184-.66-.029.095-.053.19-.067.288l.058.061c.403.482.964.67 1.671.598.21-.053.385-.147.522-.286z" fill="#929292"/><path d="M68.78.759l-1.331-.02-4.346.008c-.147.184-.126.35.068.506 1.642.435 3.348.601 5.06.754.568-.308.817-.703.549-1.248z" fill="#AEAEAE"/><path d="M63.093 1.072c.003-.11.007-.217.007-.327-1.171-.084-2.403.29-3.507-.305l-1.322.629c.06.066.121.13.18.2.93.456 1.944.395 2.963.323.208-.004.413-.02.619-.04.422-.062.823-.156 1.06-.48z" fill="#B4B4B4"/><path d="M51.367 1.44c-.156.009-.316.014-.473.022.135 1.105.85 1.519 2.184 1.193.575-.433.78-.95.54-1.565-.323-.172-.644-.198-.958.018-.326.372-.817.337-1.292.333z" fill="#8D8D8D"/><path d="M52.66 1.108l.889.011c.393.306.814.292 1.251.067.143-.327.082-.53-.428-.46h-.193l-.193-.008c-.469.07-1.015-.03-1.326.39z" fill="#929292"/><path d="M54.373.726c.142.133.287.266.43.401.154.384.517.576.966.696.22.055.444.084.674.092.751-.069 1.679.139 1.891-.778l-.06-.065a5.003 5.003 0 01-2.607-.636c-.468-.012-.949-.06-1.294.29z" fill="#B4B4B4"/><path d="M122.826 4.229c11.6.035 23.2.068 34.8.115.78.004 1.604-.155 2.329.243 5.752-.262 11.501-.141 17.258-.037 4.377.08 8.764-.192 13.146-.31.251-.64-.44-.778-.86-1.056-.145-.105-.382-.227-.189-.395.201-.177.527-.114.81-.118.219.006.422-.03.62-.106-.28-1.495-1.922-1.091-2.976-1.228-1.555-.204-3.184-.053-4.776-.053-1.261.257-2.55.14-3.828.184-.534.02-1.302-.106-1.348.53-.037.49.666.493 1.125.61.242.061.587-.023.691.294-.679.288-1.246.14-1.77-.237a3.387 3.387 0 01-.435-.374c-1.203-1.514-3.056-.574-4.597-.801-2.15.501-4.353.693-6.583.666-.734-.01-1.5-.116-2.097.258-.746.469-1.184-.062-1.739-.233-1.819-.158-3.665.341-5.472-.15-1.655-.12-3.039 1.379-4.817.515-.2-.045-.403-.07-.611-.087-1.845.12-3.698.01-5.546.1-2.863.355-5.733.616-8.627.31-.734-.643-1.563-.988-2.64-.553-.575.792-1.094.424-1.609-.056-.488-.19-1.007-.237-1.536-.235a10.8 10.8 0 00-.942.02c-1.457 1.384-3.385.9-5.206.838-1.029.327-2.184.027-3.201.41-.203.093-.331.232-.387.414.061.523.723.284 1.013.522z" fill="#020202"/><path d="M182.544 1.468c2.404.035 4.829-.217 7.189.36.503.124.5.132.193.702-.089.127-.079.249.034.364 1.599.041 1.64-.511.817-1.395-2.858-.415-5.73-.587-8.629-.338-.121.064-.177.14-.164.227.012.094.033.139.067.139a.462.462 0 00.493-.059z" fill="#111"/><path d="M189.96 2.896l-.034-.366.012-.002c-.466-.276-1.017-.308-1.34.051-.372.413.029.746.478.987.577.04 1.041.216 1.28.674 1.201-.703-.132-.92-.396-1.344z" fill="#363636"/><path d="M121.958 3.915c0-.114.005-.225.013-.337-.203-.337-.638-.468-.96-.703a1.987 1.987 0 00-.466-.214 1.692 1.692 0 00-.804.026 3.27 3.27 0 00-.498.217c-.642.288-1.333.18-2.012.167-1.056-.045-1.556-.766-2.273-1.219l-1.324-.053c-.159.17-.413.214-.626.316-.381.148-.705.372-1.092.515-.606.182-1.215.14-1.823.008a4.126 4.126 0 00-.556-.098 4.481 4.481 0 00-1.157.037c-.739.282-1.901-.208-2.252.793.15.508.699.58 1.191.712.95.1 1.928-.155 2.858.154 1.732.288 3.404-.154 5.102-.278 2.23.206 4.455.259 6.679-.043z" fill="#1A1A1A"/><path d="M148.536 1.143c-3.191.356-6.38-.075-9.571.002-.154.5-.671.81-.976 1.236.21.37.607.478 1.066.502 1.814.211 3.65-.106 5.459.152.94.034 1.329-.69 2.041-.965.754-.179 1.851.113 1.981-.927z" fill="#6F7070"/><path d="M138.984 2.532l-.915-.366c-.085-1.213-1.672-.404-2.174-1.053l-3.489.002c-.188 1.538 1.114 1.295 2.262 1.227 1.135-.067 2.275-.151 2.693 1.019.768.013 1.614.123 1.623-.83z" fill="#5D5D5D"/><path d="M126.314 1.108c-2.319.196-4.694-.392-6.979.315.196 1.268 1.488.696 2.317.901 1.331.233 2.647.094 3.961-.111.597-.22 1.165-.451.701-1.105z" fill="#999"/><path d="M137.25 3.198c.514-1.232-.698-.92-1.433-1.056-1.193-.22-2.775.4-3.413-1.025-.423.028-.846.053-1.266.08-.266.138-.312.346-.278.577.085.311.392.49.64.703l1.766.041c.452.292.909.325 1.368.012.794.05 1.797-.304 2.101.701.186.134.358.122.515-.033z" fill="#282828"/><path d="M119.77 3.222c.019-.1.029-.202.031-.304.215-.216.254-.45.119-.703-.256-.208-.541-.157-.829-.057-1.063.542-1.886-.169-2.812-.355-.439.016-.881.031-1.321.045-.065 1.223 1.002 1.507 2.172 1.707.821-.424 1.821.09 2.64-.333z" fill="#3C3C3C"/><path d="M148.536 1.143c-.604.684-1.454.376-2.232.357-.321.86.396 1.048 1.157 1.024.932-.027 1.855.106 2.78.022.24-.032.471-.085.696-.157.86-.79-.348-.878-.664-1.27l-1.737.024z" fill="#606060"/><path d="M126.314 1.108c-.031.448-.338.677-.884.715.174.98.174.98 2.36.787.225-.031.44-.09.648-.168.584-.306 1.137-.63.939-1.303-1.021-.012-2.041-.022-3.063-.031z" fill="#6F6F6F"/><path d="M116.282 1.803c.746 1.03 1.671 1.55 3.072.696-.282-.2-.072-.633-.538-.747-.469-.045-1.02.26-1.394-.188-.674-.807-.824-.031-1.14.24z" fill="#7A7A7A"/><path d="M113.24 2.175c.131-.125.264-.25.394-.378-.831.004-1.696.086-2.157-.676-.285 0-.57 0-.855.002-.334.226-.464.578-.785.811a.961.961 0 00-.305.343c-.051.224-.019.423.264.54l-.037.02c.459.351 1.022.151 1.539.189.691-.22 1.271-.604 1.942-.85z" fill="#A0A0A0"/><path d="M135.893 1.115c.345.862 1.606.49 2.176 1.052 1.145.142 1.056-.419.896-1.022l-3.072-.03z" fill="#7C7C7C"/><path d="M129.377 1.137l-.908 1.009c.555.47 1.205-.008 1.797.118.345-.096.727-.151.879-.479l-.007-.587-1.761-.061z" fill="#464646"/><path d="M118.813 1.752c.092.29.143.6.539.747.14-.11.278-.22.418-.328.319.308.824.34 1.225.526.191.04.381.048.577.025.534-.194.819-.456.377-.911-.862-.174-1.882.349-2.614-.388l-.522.33z" fill="#525252"/><path d="M150.275 1.12c-.021.526.602.683.902 1.024 1.343.266 1.207-.3.852-.987l-.002-.147c-.582.035-1.167.072-1.752.11z" fill="#777"/><path d="M167.263 1.08l-9.122-.006c-.452.447-.237.8.239 1.115 1.128.464 2.182-.262 3.336-.15.539.052.848.338 1.317.38 1.565-.277 3.259.381 4.749-.428.205-.284.23-.562-.034-.83l-.485-.08z" fill="#4A4A4A"/><path d="M167.688 1.77c-1.652.819-3.457.27-5.189.37-.114.082-.155.165-.121.249.034.086.07.127.109.127.367.555.541 1.603 1.633.504.638-.643 1.379-.367 2.16-.39 2.113-.063 4.275.01 6.244-.815.106-.082.147-.17.131-.263-.02-.096-.046-.143-.075-.143-.599-.121-1.329.294-1.819-.284l-1.266.014c-.503.396-1.442-.022-1.807.63z" fill="#161616"/><path d="M182.056 1.437a1.85 1.85 0 01.092-.275c-2.488.01-4.979.02-7.467.032-.07.253.055.394.374.423 2.336.033 4.68.198 7.001-.18z" fill="#404040"/><path d="M174.703 1.417a1.752 1.752 0 00-.024-.227c-1.307-.024-2.614-.045-3.923-.069.208 1.395 1.048.645 1.758.34.74.238 1.472.305 2.189-.044zm-7.015.353c.398-.051.78-.38 1.198-.07.219.162.471.37.676.084.109-.153-.041-.428-.072-.647l-1.747.024c-.017.203-.036.405-.055.609z" fill="#373737"/><path d="M100.166 1.092c-2.164-.335-4.08.633-6.155.762-.014.2.075.364.268.492 1.11.497 2.235.26 3.36.05 1.583-.183 2.726 1.211 4.373.802.829-.386 2.198.135 2.582-.997-.872-.521-1.961.06-2.853-.365-.367-.464-1.193-.293-1.575-.744z" fill="#7A7A7A"/><path d="M94.098 2.12a2.164 2.164 0 00-.087-.266l-2.137-.12.029.151c-.051.465.381.54.787.637.435.047.846.004 1.22-.196l.188-.205z" fill="#575757"/><path d="M101.459 1.811c.932.684 2.111.155 3.128.417.372.31.829.3 1.302.22.177-.05.331-.13.462-.235a.677.677 0 00.092-.425c-.09-.298-.377-.48-.619-.69-1.403-.153-2.399 1.191-3.896.69-.167-.118-.322-.104-.469.023z" fill="#8D8D8D"/><path d="M109.752 2.15c.322.068.788.28.938.18.558-.374-.184-.79-.068-1.209-.437-.002-.877-.006-1.314-.01-.435.51-.174.825.444 1.039z" fill="#A3A3A3"/><path d="M109.752 2.15l-.444-1.036h-2.182c-.217.4.061.656.394.899.674.278 1.351.568 2.126.223l.106-.086z" fill="#A0A0A0"/><path d="M101.459 1.811l.469-.024c-.201-.865-1.056-.652-1.759-.693.039.697.669.703 1.29.717z" fill="#9B9B9B"/><path d="M107.576 1.748l-.45-.634-1.302-.014c.015.296.114.556.457.717.454.266.891.304 1.295-.069z" fill="#959595"/><path d="M79.227 1.104c-.582.004-1.164.01-1.749.013-1.534.79-1.51.911.409 1.944.227.05.459.065.695.049 1.22-.278 3.078.19 2.97-1.646-.67-.558-1.537-.284-2.325-.36z" fill="#909090"/><path d="M68.78.759l-.45 1.04c-.403.402-1.71-.115-1.47.943.405.468.941.248 1.446.184.193-.05.38-.12.55-.206.482-.259.692-.72 1.144-1 .497-.148.843.1 1.21.297.867.603 1.705 1.367 2.867.345a7.511 7.511 0 00-.118-.238c-1.394.17-1.612-.413-1.31-1.33C71.362.781 70.07.77 68.78.76z" fill="#8C8C8C"/><path d="M77.928 2.8c-.31-.533-1.925-.84-.447-1.683-1.29.069-2.814-.395-3.517 1.005l.063.063c1.058.26 1.993.792 3.111.921.321 0 .609-.063.79-.306z" fill="#8D8D8D"/><path d="M79.228 1.104c.613.554 1.444.264 2.174.36.447.335.963.427 1.548.304.466-.09.732-.386 1.032-.649a.577.577 0 00-.06-.301c-1.566.07-3.18-.365-4.694.286z" fill="#757575"/><path d="M158.556 2.17c-.14-.365-.277-.73-.417-1.094-.43.018-.86.036-1.293.051-1.007.729-2.493.543-3.541 1.2-.5.1-1.022.166-1.326.565 1.166.441 2.302 1.01 3.386-.194.206-.227.947-.137 1.44-.194.51-.374 1.244.028 1.751-.335z" fill="#393939"/><path d="M153.776 2.86c.538-1.14 2.886-.187 3.072-1.733-.299-.004-.596-.008-.896-.01-.432.379-.872.37-1.316.016l-1.735-.031c-.831.95.056 1.342.875 1.757z" fill="#707070"/><path d="M153.776 2.86c-.462-.532-.969-1.047-.875-1.758-.29.017-.579.035-.872.055-.043.466-.029.964-.855.989-.157.008-.311.018-.469.027-.229.67.674.388.885.686.128.02.258.031.389.033l1.797-.033z" fill="#515151"/><path d="M154.636 1.133c.072.272.137.562.57.602.558.049.674-.275.749-.617l-1.319.015z" fill="#787878"/><path d="M83.984 1.12c-.273.111-.546.22-.821.333-.338.675-2.232.278-1.672 1.577.549.313 1.181.301 1.81.311.207.004.415-.004.623-.018.309-.021.608-.076.9-.154.38-.104.742-.24 1.105-.374.464-.247 1.193-.283 1.16-.931-.643-.057-1.266-.059-1.892.15-1.124.375-1.138-.303-1.213-.895z" fill="#676767"/><path d="M87.09 1.864l-1.328.642c.135.4.461.674.889.884.28.092.567.106.862.053.831-.186 1.155-.778 1.582-1.29a.993.993 0 00.21-.417c-.137-.656-.79-.607-1.374-.652l-.84.78z" fill="#484848"/><path d="M92.787 2.2c-.295-.105-.59-.21-.882-.317-.868-.049-1.732-.097-2.6-.148l-.074.123c-.095.165-.06.312.084.447.334.213.73.301 1.133.374.819.188 1.394 1.171 2.479.494.217-.35.164-.672-.14-.972z" fill="#3F3F3F"/><path d="M92.72 3.202c-1.054.137-1.158-1.074-2.172-.995-.392.339-.89.491-1.445.546-.52.2-1.102.247-1.623.437-.266 0-.532 0-.798.002-.558-.298-1.094-.674-1.838-.354l-.819.04c-1.077.585-2.208.36-3.338.146a1.466 1.466 0 00-.585.09c-.237.19-.295.417-.227.674.126.258.42.33.705.417.121.014.242.016.363.008 1.036-.176 2.072-.227 3.104.025l2.604-.011c1.795-.304 3.612-.055 5.416-.136 4.435-.004 8.868.008 13.301-.005 1.225-.5.142-.741-.181-1.068a2.108 2.108 0 00-.718-.153c-1.065-.049-2.123.049-3.174.182-1.017.273-1.978-.008-2.95-.204-.567-.11-1.147-.111-1.724-.133-.481-.023-.96-.013-1.44-.004-.865.016-1.756-.043-2.462.496z" fill="#1B1B1B"/><path d="M105.769 3.856c-4.629.03-9.26.057-13.888.087-.155.058-.208.119-.16.182.049.064.1.096.15.096l18.306.013c-.93-.607-2.056-.18-3.063-.378-.449-.133-.898-.203-1.345 0z" fill="#2C2C2C"/><path d="M121.959 3.915l-6.677.04c2.485.614 5.034.083 7.544.274l-.867-.314z" fill="#1F1F1F"/><path d="M75.326 4.252l2.152.004c.273-.237.778-.078 1.01-.386.049-.37-.162-.613-.57-.76a1.385 1.385 0 00-.601.025c-.887.092-1.935-.272-2.554.582-.038.331.312.4.563.535z" fill="#161616"/><path d="M75.326 4.252l-.454-.331a1.895 1.895 0 00-.606-.359 12.798 12.798 0 00-4.12.008c-.238.084-.424.22-.56.4.027.082.07.16.13.231l5.61.051z" fill="#5A5A5A"/><path d="M91.871 4.22c.003-.093.005-.185.01-.28-1.74.136-3.534-.378-5.228.286l5.218-.005z" fill="#282828"/><path d="M84.049 4.238c-1.03-.464-2.065-.344-3.104-.025 1.034.01 2.07.018 3.104.025zm-5.703-.342l-.87.36 3.107-.049-.474-.315c-.59-.347-1.176-.424-1.763.004z" fill="#5B5B5B"/><path d="M52.645 3.935l10.46-.018c-.828-1.526-2.524-.57-3.783-.86-.768.002-1.539.002-2.307.002-1.145.023-2.292-.043-3.435.07-.493.132-1.046.22-.935.806z" fill="#2D2D2D"/><path d="M59.167 3.55c1.305.179 2.706-.328 3.936.367.58-.023 1.16-.049 1.739-.072.123-.445-.164-.712-.606-.915-.556-.204-1.153-.196-1.745-.212-1.07.057-2.181-.172-3.186.314-.215.145-.26.317-.138.519z" fill="#1E1E1E"/><path d="M69.586 3.972l.51-.114c.092-.168.058-.317-.101-.448-.63-.353-1.392-.314-2.095-.457-.415.03-.828.096-1.251.051-.515.147-1.024.298-.93.87l3.867.098z" fill="#242424"/><path d="M52.645 3.935c.188-.28.512-.353.87-.377.142-.186.113-.35-.09-.495-.9-.259-1.811-.357-2.734-.069l-.252.202 1.331.723.875.016z" fill="#131313"/><path d="M65.721 3.874l.822-.605c-.699-.582-1.397-.578-2.102-.008l.4.584c.293.011.586.02.88.029z" fill="#111"/><path d="M43.925 1.805c-.003.12-.003.24-.005.359-.095.384-.611.425-.855.69-.776-.303-1.305-.816-1.786-1.366-1.304-.112-1.782.427-1.703 1.404 1.051-.082 2.054.098 3.044.359.708.268 1.46.08 2.184.137 1.196-.069 1.688-.835 2.278-1.503-.186-.35-.725-.166-.976-.419-.679.31-1.413.394-2.181.34z" fill="#818181"/><path d="M46.968 1.805l-1.77 1.381c.58.326 1.181.241 1.787.063 1.153-.018 2.303-.035 3.455-.055l-.005-.006c.164-.156.188-.327.077-.511-.845-1.18-2.114-1.242-3.544-.872z" fill="#5D5D5D"/><path d="M33.464 2.516c-.642 1.07-1.973.564-2.978.982.845.031 1.688.06 2.534.092 1.14-.29 2.62.59 3.478-.662-1.007-.15-1.898-.868-3.034-.412z" fill="#1B1B1B"/><path d="M33.465 2.516c1.012.137 2.022.274 3.034.414.147-.034.297-.065.444-.098-1.403-.424-2.775-.982-4.353-.668-.125.098-.164.192-.116.284.049.09.097.133.14.133l.85-.065z" fill="#868686"/><path d="M46.985 3.25l-1.787-.062-2.578.065c1.454.503 2.911.495 4.365-.002z" fill="#414141"/><path d="M16.038 2.843a3.419 3.419 0 00-.068-.258c-1.362-.564-2.611.031-3.899.245l.04.049c-.815.423-1.813-.104-2.622.335l-.34.296c2.285.172 4.572-.451 6.858.007.28-.215.277-.44.031-.674z" fill="#0D0D0D"/><path d="M16.038 2.843l-.032.674 1.773.03c.1-.084.138-.173.116-.265-.021-.094-.048-.14-.077-.14-.418-.203-.961.03-1.353-.255a3.122 3.122 0 00-.427-.044z" fill="#161616"/><path d="M17.78 3.23a3.542 3.542 0 000 .319c.147.015.294.031.442.045.596-.086 1.297.135 1.748-.384-.089-.053-.178-.106-.265-.16-.643.058-1.326-.18-1.925.18z" fill="#0F0F0F"/><path d="M32.617 2.58c-.01-.138-.017-.277-.027-.416-1.307.223-2.616-.524-3.923 0l-.43.642.435.096c1.236-.744 2.724.531 3.945-.321z" fill="#8A8A8A"/><path d="M26.553 3.165a1.137 1.137 0 00-.058-.308c-1.357-.41-2.794.037-4.162-.26-.763-.092-1.526-.169-2.266.098-.236.146-.282.325-.133.532l.037-.015c.732.392 1.488-.128 2.227.039 1.452-.03 2.904-.059 4.355-.086z" fill="#3F3F3F"/><path d="M19.494 2.154c.42-.564 1.131-.273 1.706-.376-1.078-.614-2.273-.25-3.423-.269-.93 2.016 1.123.186 1.365.69.142.117.26.102.352-.045z" fill="#333"/><path d="M19.495 2.154a1.602 1.602 0 00-.353.045l.428.619c.067.194.193.212.37.078l2.207-.01c.119-.142.392-.176.416-.383-.93-.663-2.051-.21-3.068-.35z" fill="#9D9D9D"/><path d="M19.94 2.894l-.37-.078c-1.037.024-2.07.047-3.107.069.336.37.84.317 1.316.342l2.153-.002c.014-.107.017-.219.007-.33z" fill="#262626"/><path d="M22.563 2.5l-.416.385c1.45-.01 2.899-.02 4.348-.028.008-.115.01-.231.003-.347-.297-.002-.592-.004-.89-.004l-2.618-.005-.215.007-.212-.007z" fill="#777"/><path d="M46.968 1.805c1.479-.337 2.394.547 3.484 1.05.8.359 1.65.13 2.478.145.235-.131.278-.296.126-.494-1.065.118-1.517-.593-2.165-1.044l-1.72-.333c-.937.623-2.048.198-3.068.335.201.263.513.333.865.341z" fill="#848484"/><path d="M43.067 2.853c.459-.07 1.027.235 1.348-.22.043-.06-.319-.307-.493-.47-.541.026-.848.236-.855.69z" fill="#A0A0A0"/><path d="M67.023 2.845c-.045-.74 1.017-.58 1.307-1.046-1.654-.67-3.425-.787-5.234-.727l-1.312.085c-.078.413.314.568.642.756.696.329 1.017 1.09 1.974 1.12.87-.088 1.785.204 2.623-.188z" fill="#989898"/><path d="M62.719 1.517l-.938-.358a2.336 2.336 0 00-.405-.02c-.602.212-.928.79-1.899.492-.993-.304-2.135-.077-3.143.327-.321 1.626 1.442.715 2.114 1.134.208.028.415.022.62-.017.283-.038.578-.065.86-.032 1.51.173 2.697-.021 2.79-1.526z" fill="#848484"/><path d="M56.57 2.158c.798-.355 1.863-.65 2.48-.237 1.618 1.091 1.852.035 2.328-.784l-3.042-.002c-.64.513-1.444.267-2.188.304-.312.413.087.554.423.719z" fill="#989898"/><path d="M53.058 2.506a1.55 1.55 0 010 .335c.302.251.689.267 1.087.253.189-.049.353-.133.498-.243.312-.4.802-.662 1.19-1 .07-.16.04-.3-.113-.422l-.915-.306-1.254-.006c-.348.424-.495.89-.493 1.39z" fill="#5C5C5C"/><path d="M55.718 1.43l-.007.357c-.38.39-.43.788-.036 1.192 1.04.307 2.072.419 3.068-.114-.467-.752-1.752.133-2.175-.707-.14-.24-.282-.478-.422-.72l-.213-.011-.215.004z" fill="gray"/><path d="M174.703 1.417c-.73.014-1.457.03-2.186.043l.004.353c1.643.231 3.68-.73 4.81 1.04.355-.264.792-.13 1.196-.16-.404.05-.843-.096-1.208.154.251.482.713.7 1.35.715.88.02 2.044.063 2.15-.742.126-.96-1.108-.543-1.782-.662-.257-.045-.525-.04-1.191-.083 1.785-.591 3.379.169 4.696-.607l-.488-.031c-2.447-.006-4.899-.012-7.351-.02z" fill="#0B0B0B"/><path d="M137.25 3.198l-.515.033c3.1.478 6.163.36 9.19-.368-.295-.227-.602-.194-.914-.025-1.988-.383-4.002-.408-6.027-.306-.381.556-1.005.703-1.734.666z" fill="#232323"/><path d="M130.273 2.117c-.608-.267-1.203.025-1.804.029a2.49 2.49 0 01-.382.031c-1.341.78-2.99.047-4.382.59-.145.18-.14.359.012.535.592.104 1.181.182 1.754-.063 1.046.108 2.092.288 3.138.292.618.002 2.085.437 1.246-.938.276-.032.551-.065.829-.096.097-.294-.024-.43-.411-.38z" fill="#282828"/><path d="M145.012 2.838c.304.007.608.017.913.025 1.889.253 3.778.17 5.667-.006l-.884-.688c-1.425-.4-3.218.759-4.401-.671-.766.239-.882.883-1.295 1.34z" fill="#393939"/><path d="M158.557 2.17c-.609.017-1.269-.132-1.747.333.778.125 1.764-.29 2.242.613.191.362.565.345.773 0 .618-1.025 1.761-.45 2.662-.602.005-.125.007-.25.012-.376-.809-.82-1.838-.605-2.807-.311-.374.113-.688.362-1.135.342z" fill="#151515"/><path d="M134.634 2.53l-1.368-.012c-.273.5-.251.939.556.988.882.054 1.123-.335.812-.976z" fill="#202020"/><path d="M125.471 3.24l-1.824-.048c-.983-.648-1.978-.421-2.976-.023.28.452.814.382 1.3.41 1.166-.124 2.41.283 3.5-.34z" fill="#1F1F1F"/><path d="M189.079 3.568c-.626-.838-.198-1.109.862-1.04-.507-.46-1.152-.552-1.556-.04-.388.493-.159.978.694 1.08z" fill="#111"/><path d="M130.273 2.117l.411.378.817-.018c.012-.274-.037-.529-.355-.692l-.873.332z" fill="#525252"/><path d="M107.576 1.748c-.433.024-.865.045-1.297.069-.029.1-.051.202-.063.305.657.424 1.208 1.049 2.234.768l1.346-.074-.15-.582c-.688-.16-1.379-.323-2.07-.486z" fill="#4F4F4F"/><path d="M108.45 2.89c-.838-.076-1.258-.95-2.234-.768l.017.006c-.423.288-.865.572-.537 1.1a.517.517 0 00.573.003c.64-.484 1.587.33 2.181-.34z" fill="#333"/><path d="M120.671 3.169c.993.007 1.986.015 2.976.025a2.74 2.74 0 00.104-.296c-.727-.85-1.829.032-2.652-.376l-.037-.014c-.43-.101-.541.04-.425.359.01.1.02.2.034.302z" fill="#525252"/><path d="M111.499 2.869l-1.74-.033c.86.597 1.735.55 2.624.043-.29-.237-.585-.212-.884-.01z" fill="#3C3C3C"/><path d="M119.77 3.222c-.877.121-1.848-.228-2.64.333.886-.083 1.858.276 2.64-.333z" fill="#1F1F1F"/><path d="M111.499 2.869l.884.01.857-.704c-.773-.086-1.391.085-1.741.694z" fill="#4F4F4F"/><path d="M106.269 3.23l-.459-.024c-.3-.204-.587-.175-.865.03l.821.62c.449 0 .896 0 1.346-.002-.281-.207-.561-.417-.843-.625z" fill="#1F1F1F"/><path d="M120.637 2.865l.425-.359c-.321-.39-.818-.333-1.292-.335.01.25.022.498.031.747l.836-.053z" fill="#3C3C3C"/><path d="M121.099 2.522c.775.62 1.775.214 2.652.376 1.476-.12 3.095.322 4.334-.719-.812-.47-2.01.929-2.655-.354-1.16-.128-2.324.448-3.481-.012-.027.433-.302.676-.85.71z" fill="#606060"/><path d="M101.034 3.237l3.51-.053c-.725-.952-1.737-.397-2.657-.33-1.708.422-2.551-1.548-4.3-1.014-.314.447-1.025.706-.981 1.327l1.797.058c.877.261 1.754.243 2.631.012z" fill="#2C2C2C"/><path d="M96.609 3.167c.565-.328 1.019-.71.98-1.327-1.123.424-2.311.312-3.488.28l-.135.116c-.382 1.168 1.027.576 1.444.958.399-.01.798-.02 1.199-.027z" fill="#575757"/><path d="M101.889 2.853c.884.122 1.858-.235 2.657.331.136.01.269.028.401.05l.865-.03.423-1.08-1.645.102c-.773.574-1.959-.025-2.701.627z" fill="#4B4B4B"/><path d="M95.41 3.192c-.422-.376-1.362-.247-1.444-.958-.394-.012-.788-.021-1.18-.033-.02.333-.043.668-.064 1.001.894-.004 1.79-.008 2.688-.01z" fill="#252525"/><path d="M80.107 3.26l.459.026c.145.07.297.079.456.034.232-.096.363-.25.38-.46.173-.806 2.21-.095 1.76-1.407-.587.003-1.174.007-1.76.013-.191 1.671-2.235.621-3.061 1.356.164.337.498.511.906.615a1.27 1.27 0 00.86-.176z" fill="#818181"/><path d="M79.266 3.173c-.307-.118-.616-.234-.923-.351l-.207.008-.206-.03-.821.024c-.99-.082-1.962-.592-2.979-.086-.215.172-.224.352-.026.54 1.135.2 2.266.204 3.387-.057.145.004.29.008.434.01.462.224.916.31 1.341-.058z" fill="#5A5A5A"/><path d="M74.01 3.18a2.79 2.79 0 00-.073-.278c-.606-.423-1.435-.07-2.072-.386-1.194-.356-2.37.04-3.556.047-.428.094-.858.188-1.285.28l-3.05.02c-.586-.272-1.13-.425-1.347.321.604.026 1.208.05 1.814.075.7.002 1.401.004 2.102.008.47-.008.94-.016 1.41-.022.691.286 1.448.055 2.158.178 1.217.196 2.432.25 3.647-.023l.252-.22z" fill="#303030"/><path d="M71.82 2.873l2.117.031c1.056-.025 2.111-.053 3.17-.08-1.03-.208-1.769-1.325-3.083-.639-1.363.943-1.882-.198-2.662-.7-1.372.79-.285 1.053.459 1.388z" fill="#686868"/><path d="M71.821 2.873c-.486-.392-1.05-.766-.459-1.387-.512-.28-1.046-.488-1.691-.353-.111.543-.114 1.134-.937 1.358l-.425.074c1.108.564 2.348.167 3.512.308z" fill="#5C5C5C"/><path d="M68.734 2.49c1.203-.052 1.464-.528.937-1.357-.312.453-.626.905-.937 1.358z" fill="#686868"/><path d="M80.965 3.198c-.136.02-.269.049-.4.088 1.228.263 2.513.866 3.463-.407l-.21-.014-.213.006c-.817.43-1.817-.077-2.64.327z" fill="#212121"/><path d="M84.846 2.838l1.836.354c-.072-.433-.384-.658-.918-.686-.307.11-.613.22-.918.332z" fill="#282828"/><path d="M80.964 3.198c.89-.059 1.848.237 2.64-.327l-2.202-.012-.438.339z" fill="#5B5B5B"/><path d="M87.48 3.19l2.248.016c.235-.462-.345-.7-.454-1.068a1.847 1.847 0 00-.043-.28c-1.471-.313-.768 1.23-1.751 1.332z" fill="#282828"/><path d="M89.274 2.138c-.833.629.322.707.454 1.068.522-.2.827-.517.822-1-.428-.023-.85-.044-1.276-.068z" fill="#111"/><path d="M79.266 3.173l-1.34.058.422.665 1.764-.004v-.63l-.846-.09z" fill="#212121"/><path d="M101.034 3.237l-2.628-.014c.872.518 1.749.508 2.628.014z" fill="#252525"/><path d="M77.488 3.22l-3.48-.04-.003.09c-.22.367.195.459.42.631.147.006.297.012.445.02.676-.717 1.942.006 2.618-.701z" fill="#212121"/><path d="M74.427 3.901c-.14-.21-.28-.42-.422-.63l-3.926-.05c-.162.077-.215.155-.164.234.053.078.106.12.16.12.002.095.01.19.021.283 1.445.014 2.887.03 4.331.043z" fill="#161616"/><path d="M58.745 2.865l-3.015-.016c-.198-.111-.382-.096-.55.043.19.96 1.357.177 1.813.663l2.174-.006c.008-.11.01-.22.013-.331-.046-.216-.297-.23-.474-.316l.039-.037z" fill="#141414"/><path d="M56.993 3.557l-1.737-.686c.27-.243.28-.584-.04-.68-.71-.214-.486.504-.854.666l-.021-.031c-.16.29-.652.137-.829.405v.33c1.162-.003 2.322-.004 3.481-.004z" fill="#131313"/><path d="M58.706 2.904l.473.316c1.15-.012 2.298-.024 3.448-.034.357-.356.87-.288 1.348-.321-.474-.417-.116-1.338-1.257-1.35-.712 1.642-2.49 1.274-4.012 1.39z" fill="#606060"/><path d="M70.075 3.574l.004-.352-2.125.023c.604.537 1.408.241 2.12.33z" fill="#151515"/><path d="M53.515 3.23c.347-.04.688-.089.828-.406l-1.285.018-2.604.011a5.146 5.146 0 01-.017.335l3.078.041z" fill="#323232"/><path d="M66.226 2.25c-.075-.263-.316-.37-.608-.376-.28-.006-.614.037-.512.356.036.112.297.216.475.249.257.049.551.065.645-.23z" fill="#B8B8B8"/><path d="M54.363 2.857c.292.216.623-1.091.893.014l.471-.02-.019-1.064c-1.01-.105-1.391.306-1.345 1.07z" fill="#1E1E1E"/><path d="M177.321 2.85c.735-.075 1.452.444 2.781-.118-1.302-.276-2.027-.465-2.769.123l-.012-.006z" fill="#404040"/></svg>