<svg width="22" height="6" fill="none" xmlns="http://www.w3.org/2000/svg"><path d="M21.836 4.163c0 .162 0 .316-.003.478-1.027 1.024-2.07.69-3.117.565-1.438-.163-2.876-.067-4.314-.077a1.25 1.25 0 01.014-.631.888.888 0 01.19-.326c.177-.143.359-.124.538-.143.152-.01.301-.01.453-.02.4 0 .8 0 1.198-.009.76.01 1.518 0 2.277 0 .773-.105 1.552.268 2.322-.287.16-.105.318.029.442.45z" fill="#787878"/><path d="M.32.478C3.994.431 7.666.383 11.34.325c.246 0 .508.21.737-.325 1.822.354 3.641.191 5.463.048 1.386-.105 2.775.258 4.163.42.08.872-.14 1.054-.273 1.427-.047.143-.122.306-.06.536.063.239.165.153.256.162.069-.01.135.039.196.144-.088 2.029-.607 1.474-.941 1.665-.492.277-1.008.067-1.513.067-.4-.345-.806-.191-1.212-.249-.168-.029-.411.144-.428-.718-.011-.67.21-.67.356-.823.077-.086.185.03.218-.401-.215-.393-.395-.192-.56.325-.05.153-.097.325-.138.507-.381 2.048-.97.775-1.455 1.081-.682-.679-1.378-.937-2.084-.9-.232.01-.475.154-.665-.353-.238-.632-.376.086-.55.316-.577.21-1.16-.46-1.73.2-.525.163-.964-1.865-1.524-.698a.495.495 0 01-.194.115c-.585-.163-1.17-.01-1.755-.134-.906-.479-1.814-.833-2.733-.421-.232.87-.494 1.34-.837.746-.182-1.072-.348-.574-.51.077-.155.258-.318.325-.486.316-.1.01-.199 0-.298-.03-.461-1.875-1.071-1.224-1.648-1.138-.326-.44-.69-.038-1.014-.555C.058 1.608.017 1.416 0 1.167.02.47.23.794.32.478z" fill="#020202"/><path d="M19.227 4.21c.762-.047 1.53.297 2.275-.488.16-.162.157-.181.06-.947a1.308 1.308 0 01.011-.497c.508-.058.52.688.26 1.885-.905.564-1.814.794-2.733.459a.711.711 0 01-.052-.306c.002-.125.01-.192.022-.192.06-.095.113-.067.157.087z" fill="#111"/><path d="M21.576 2.278c-.003.162-.008.325-.01.497h.002c-.15.373-.323.421-.425-.067a2.144 2.144 0 01.151-1.34c.183-.057.33-.287.406-.909.381.948-.041 1.244-.124 1.819z" fill="#363636"/><path d="M8.461 4.65c-.19-.928-.46-.507-.707-.487-.102-1.168.125-1.417.368-1.388.295.038.588-.143.88-.029.075.039.15.115.221.21.274 1.073-.11 1.187-.21 1.723l-.552-.028z" fill="#606060"/><path d="M9.01 4.69c-.008-.71.19-.93.285-1.388.425-.364.383.401.27 1.34v.2c-.185-.057-.37-.105-.555-.153z" fill="#777"/><path d="M14.388 4.737c-.964 0-1.927 0-2.888.01a2.582 2.582 0 01.075-1.513c.356-.631.69.355 1.057.201.171-.067.268-.459.417-.516.497.373 1.032-.517 1.504.574.064.383.072.756-.01 1.129-.053.038-.103.077-.155.115z" fill="#4A4A4A"/><path d="M14.523 3.8c-.524-1.111-1.093-.365-1.643-.499a.822.822 0 01-.038-.334c.01-.115.022-.173.033-.173.116-.746.171-2.172.516-.68.202.872.436.498.685.527.668.086 1.352-.01 1.976 1.1.034.115.047.23.042.355-.006.134-.014.191-.025.191-.19.163-.42-.402-.577.383-.133-.01-.268-.01-.4-.02-.155-.526-.453.039-.569-.85z" fill="#161616"/><path d="M19.072 4.258c.009.125.017.25.03.374-.789-.01-1.576-.03-2.365-.039-.022-.344.017-.536.119-.574.74-.057 1.482-.277 2.216.24z" fill="#404040"/><path d="M16.745 4.278c0 .105-.002.2-.008.306-.414.028-.828.057-1.242.095.066-1.885.33-.87.557-.459.235-.325.467-.411.693.058zM14.523 3.8c.127.066.246.516.381.095.069-.22.15-.498.215-.115.036.21-.014.574-.022.87l-.552-.028-.022-.823z" fill="#373737"/><path d="M11.633 3.263L11.5 4.746c-.135-.019-.273-.047-.408-.067-.32-.985-.79-.736-1.121-1.617-.157-.134-.323-.23-.42-.765.37-.594.729-1.369 1.074.258.064.306.301.191.456.268.16.498.392-.048.552.44z" fill="#393939"/><path d="M10.12 2.325c.171 1.541.914.25.972 2.345-.094 0-.188.01-.285.01-.138-.517-.276-.498-.416-.02-.183.02-.368.03-.55.048-.262-1.282.02-1.818.279-2.383z" fill="#707070"/><path d="M10.12 2.325c-.146.718-.306 1.417-.276 2.383-.091-.029-.185-.048-.276-.076-.014-.632-.008-1.302-.27-1.34-.05-.01-.1-.029-.15-.038-.072-.91.213-.527.28-.929a.334.334 0 01.123-.047c.188.019.379.038.57.047z" fill="#515151"/><path d="M10.39 4.66c.023-.373.045-.765.18-.813.177-.067.213.373.237.832-.138 0-.276-.01-.416-.019z" fill="#787878"/><path d="M16.745 4.278l-.693-.058c0-.162 0-.316.003-.478.52-.316 1.165.985 1.524-1.407.113.354.251.172.378.22-.127-.067-.268.134-.38-.21.08-.651.226-.948.427-.967.279-.029.646-.086.682 1.005.041 1.301-.35.737-.563.9-.08.057-.166.057-.378.114.566.804 1.07-.23 1.488.823-.053.01-.103.029-.155.039-.781 0-1.557.01-2.333.019z" fill="#0B0B0B"/><path d="M11.633 3.263c-.193-.028-.4.182-.552-.45.245-.172.558.393.71-.832.06-.488.179-.469.245 0 .196 1.388.558.612.842.813 0 .173.003.335.003.508-.257 1.11-.583.823-.89.42-.118-.153-.217-.487-.358-.459z" fill="#151515"/><path d="M21.297 1.368c-.198 1.14-.063 1.503.274 1.407-.16.622-.365.747-.492.048-.124-.66-.052-1.32.218-1.455z" fill="#111"/><path d="M17.573 2.345c.232.105.462-.603.881.162-.411.373-.64.632-.878-.172.003 0-.003.01-.003.01z" fill="#404040"/></svg>