<svg width="192" height="5" viewBox="0 0 192 5" fill="none" xmlns="http://www.w3.org/2000/svg" preserveAspectRatio="none">
<path d="M31.2275 1.07822C30.5269 0.672687 29.824 0.79415 29.121 1.07626C28.9761 1.26629 29.0002 1.44261 29.1935 1.60326C31.0536 2.27915 33.0103 1.90692 34.9235 1.90497C36.0589 1.90497 37.1822 1.67771 38.3441 1.68946C39.3611 1.69926 40.3153 1.37797 40.5086 0.374903C38.0446 0.0692828 35.5854 0.196624 33.1238 0.398412C32.3266 0.325925 31.858 0.850966 31.2275 1.07822Z" fill="#BABABA"/>
<path d="M29.1213 1.42901C29.1213 1.31146 29.1213 1.19391 29.1213 1.07637C27.3506 0.155584 25.3866 0.259419 23.4203 0.365211C23.1014 0.688465 23.0168 1.03523 23.2415 1.41725C23.3792 1.57202 23.558 1.68761 23.773 1.76794C24.1957 1.90703 24.6402 1.94622 25.0919 1.94426C26.034 1.95797 26.981 1.8894 27.9207 2.0285C28.1333 2.04613 28.3435 2.03242 28.5512 1.99323C28.8677 1.8894 29.0657 1.70524 29.1213 1.42901Z" fill="#AAAAAA"/>
<path d="M49.1713 0.431751C46.8401 0.421956 44.509 0.412161 42.1802 0.404324C41.8783 0.184904 41.557 0.218209 41.2285 0.355347C40.8806 0.847082 41.1053 1.23498 41.5691 1.57979C42.3663 1.99903 43.2576 1.76394 44.108 1.81488C45.6782 1.378 47.3522 1.57587 48.9539 1.31531C49.1302 1.20951 49.2606 1.0763 49.3428 0.911731C49.3669 0.733453 49.3162 0.572807 49.1713 0.431751Z" fill="#C4C4C4"/>
<path d="M67.463 0.402385C67.1707 0.286797 66.876 0.16925 66.5837 0.0536628C64.2695 0.159455 61.9552 0.265246 59.641 0.371038C59.6217 0.472912 59.6048 0.572828 59.5854 0.674701C60.5976 1.60136 61.9601 1.11942 63.1703 1.26047C64.5545 1.16252 65.987 1.49361 67.3205 0.945057C67.5524 0.796164 67.5983 0.613969 67.463 0.402385Z" fill="#D5D5D5"/>
<path d="M49.1714 0.431719C49.1738 0.549265 49.1762 0.664852 49.1835 0.780439C49.7705 1.28785 50.6957 1.26042 51.3431 1.67771C51.8939 1.8266 52.4084 1.75411 52.8964 1.51706C53.3119 1.24083 53.8989 1.10369 54.0487 0.606079C53.6936 0.0496932 53.1694 0.186832 52.6307 0.380783C51.4856 0.692281 50.3068 -0.457715 49.1714 0.431719Z" fill="#B4B4B4"/>
<path d="M59.6412 0.369013C58.3319 -0.210888 57.0275 0.705981 55.7182 0.370971C55.6843 0.453254 55.6505 0.535536 55.6167 0.617819C56.2182 1.40931 57.1507 1.47788 58.1628 1.38384C58.8054 1.23494 59.3393 0.97634 59.5953 0.441499L59.6412 0.369013Z" fill="#D5D5D5"/>
<path d="M52.6333 0.380803C53.1116 0.419985 53.6213 0.376883 53.9861 0.715811C54.1117 0.829439 54.2687 0.892133 54.4596 0.89801C54.9306 0.862746 55.3558 0.745199 55.665 0.435658L55.7157 0.372965C54.6866 -0.10702 53.66 -0.138364 52.6333 0.380803Z" fill="#D5D5D5"/>
<path d="M33.0562 0.733502C32.7108 0.373024 32.218 0.410249 31.7372 0.420044C31.5682 0.639466 31.3966 0.858887 31.2275 1.07831C31.8363 0.964679 32.4475 0.849089 33.0562 0.733502Z" fill="#C2C2C2"/>
<path d="M190.777 1.50145C190.774 1.38391 190.774 1.26636 190.772 1.14881C187.53 0.390635 184.235 0.643359 180.928 0.727601C176.389 0.845148 171.845 0.774621 167.301 0.784417C167.146 0.948982 167.161 1.10571 167.342 1.25264C167.521 1.36431 167.721 1.44464 167.941 1.49361C168.502 1.59745 169.072 1.58374 169.642 1.59941C170.118 1.60725 170.594 1.6092 171.07 1.61312C172.333 1.61312 173.594 1.61312 174.855 1.619C177.251 1.61508 179.648 1.61704 182.044 1.62096C184.489 1.69541 186.948 1.42505 189.378 1.8345C189.888 1.91678 190.388 1.81687 190.777 1.50145Z" fill="#787878"/>
<path d="M100.15 0.760906C96.5189 0.706051 92.8906 0.649236 89.2598 0.59438C89.5859 1.85409 91.045 1.77964 92.1079 2.17539C92.7843 2.30861 93.4776 2.29685 94.166 2.30469C96.1662 2.2322 97.9828 1.4897 99.9444 1.27811C100.142 1.14097 100.21 0.966614 100.15 0.760906Z" fill="#9B9B9B"/>
<path d="M100.15 0.760873C100.157 0.870583 100.162 0.98225 100.167 1.09196C100.222 1.15465 100.278 1.21539 100.333 1.27808C100.896 1.55431 101.491 1.79137 102.046 2.07935C103.496 2.69452 104.607 1.53864 105.952 1.59741C106.373 1.59937 106.793 1.60133 107.213 1.60133C107.88 1.59937 108.547 1.59937 109.211 1.59937C109.67 1.59741 110.132 1.61112 110.586 1.53864C110.938 1.47595 111.243 1.34469 111.477 1.11939C112.214 1.02535 113.052 1.31922 113.668 0.754993C109.163 0.758911 104.655 0.760873 100.15 0.760873Z" fill="#B5B5B5"/>
<path d="M84.5057 0.711989C82.921 0.102706 81.2059 0.261393 79.6212 0.469058C77.4567 0.755088 75.3092 0.700232 73.152 0.733536C72.9394 0.59444 72.7316 0.59836 72.5263 0.745293C71.9031 2.11667 72.0891 2.32434 73.9588 2.34589C75.0459 1.65628 76.3044 1.5211 77.6355 1.6171C78.2128 1.61514 78.783 1.57008 79.3458 1.46429C80.846 1.01565 82.4548 1.4682 83.9646 1.09597C84.1917 1.01369 84.3729 0.884391 84.5057 0.711989Z" fill="#A8A8A8"/>
<path d="M84.5058 0.711896C84.3125 0.74716 84.1168 0.782422 83.9236 0.817686C83.7666 0.966579 83.6699 1.13702 83.6265 1.33097C84.0613 3.35865 85.7644 2.14596 86.9794 2.18906C87.5737 2.00883 87.9747 1.68557 88.1245 1.17816C88.1486 0.976374 88.0641 0.81181 87.8708 0.680549C87.6051 0.711895 87.337 0.743239 87.0712 0.776544C86.1919 1.11351 85.3392 0.76675 84.4744 0.713854C84.4744 0.711895 84.5058 0.711896 84.5058 0.711896Z" fill="#9E9E9E"/>
<path d="M87.8706 0.680597C87.8899 0.815776 87.9093 0.948995 87.931 1.08417C88.2378 1.53869 88.8079 1.7346 89.3007 2.01083C90.0012 2.26356 90.7163 2.31254 91.4458 2.09703C91.6391 2.01475 91.7816 1.89328 91.8734 1.7346C91.0448 1.28988 89.9529 1.23894 89.2596 0.594396C88.7862 0.506236 88.3006 0.290734 87.8706 0.680597Z" fill="#797979"/>
<path d="M72.6521 0.792178C72.8188 0.772587 72.9855 0.754956 73.1497 0.735365C71.3138 -0.0463194 69.3571 0.535537 67.4632 0.402317C67.4584 0.513986 67.4535 0.625656 67.4463 0.739284C67.7941 1.12523 68.3111 1.20555 68.8498 1.23885C70.135 1.18008 71.4902 1.52684 72.6521 0.792178Z" fill="#C1C1C1"/>
<path d="M84.4741 0.711864C85.3172 1.30939 86.1869 1.25453 87.071 0.774554C86.2038 0.770635 85.3559 0.288699 84.4741 0.711864Z" fill="#A8A8A8"/>
<path d="M145.934 4.92596C148.188 4.30884 150.507 4.74572 152.795 4.65952C155.179 4.57136 157.568 4.60663 159.955 4.58703C159.134 3.29794 157.602 3.67017 156.329 3.66821C151.29 3.66233 146.251 3.80926 141.212 3.75245C135.151 3.68388 129.09 3.74853 123.029 3.75637C120.514 3.66821 117.98 3.98559 115.48 3.53695C113.612 3.30186 111.798 3.93073 109.931 3.75245C103.971 3.76421 98.0118 3.75441 92.0547 3.75441C90.3178 3.75833 88.5785 3.76421 86.8416 3.75245C85.943 3.76029 85.0468 3.62511 84.1481 3.74462C83.1553 3.77792 82.1624 3.76421 81.1696 3.76225C80.9232 3.75833 80.6768 3.75833 80.4328 3.76029C79.4544 3.76813 78.4737 3.76617 77.4953 3.76225C76.7561 3.76225 76.0169 3.76225 75.2777 3.76029C73.5336 3.84257 71.7725 3.58985 70.0429 3.94445C69.8037 4.03848 69.6346 4.18346 69.5308 4.38133C73.2606 4.9671 77.0267 4.60075 80.7734 4.61642C96.7894 4.68499 112.805 4.67127 128.822 4.68695C131.988 4.93184 135.163 4.72221 138.332 4.80058C139.117 4.82017 139.922 4.67911 140.687 4.92792C142.434 4.92596 144.183 4.92596 145.934 4.92596Z" fill="#A3A3A3"/>
<path d="M44.3159 4.23641C46.7944 4.56946 49.3526 3.83087 51.7997 4.59493C55.8363 4.1169 59.8754 4.1698 63.912 4.57142C65.8059 4.75949 67.6394 4.064 69.5309 4.38334C69.5937 4.32261 69.6565 4.26188 69.7217 4.2031C69.7773 3.98564 69.6903 3.81716 69.4608 3.69569C68.2941 3.24117 67.0451 3.4939 65.8325 3.41749C65.4605 3.41358 65.0884 3.41357 64.7164 3.41553C64.0811 3.41553 63.4458 3.41358 62.8104 3.41162C59.4985 3.41358 56.1866 3.41162 52.8747 3.40966C52.4761 3.4077 52.0799 3.4077 51.6813 3.40966C49.314 3.54679 46.9128 3.13342 44.5695 3.68785C44.3159 3.81715 44.2313 4.00131 44.3159 4.23641Z" fill="#A3A3A3"/>
<path d="M140.685 4.92792C136.748 4.30101 132.774 4.75552 128.819 4.68695C132.757 5.27272 136.728 4.83976 140.685 4.92792Z" fill="#B4B4B4"/>
<path d="M44.4172 3.96407C46.8691 3.94839 49.321 3.93468 51.7705 3.91901C51.8164 3.08834 50.9033 3.11185 50.309 2.84933C49.2389 2.66126 48.1663 2.64558 47.0913 2.81407C45.6516 3.15104 44.2118 3.2196 42.7673 2.82582C41.8058 2.55351 40.8371 2.30274 39.796 2.43008C38.8683 2.61032 37.9238 2.63971 36.9744 2.58289C36.7618 2.59856 36.5565 2.63971 36.356 2.7024C35.397 3.34303 34.0418 2.83366 33.0707 3.43511C32.962 3.5311 32.9209 3.63298 32.9426 3.73681C32.9668 3.8426 32.9958 3.89746 33.0272 3.89746C36.0468 4.15214 39.0712 3.99345 42.0933 3.97974C42.8711 4.1443 43.6441 4.16977 44.4172 3.96407Z" fill="#2D2D2D"/>
<path d="M0.229492 3.2549C2.48816 4.35004 5.00532 3.72117 7.38236 3.8583C10.9721 4.06597 14.5932 3.90532 18.2022 3.9014C18.3472 3.72508 18.323 3.56248 18.1346 3.41359C17.9486 3.298 17.7408 3.21767 17.5162 3.16478C16.9388 3.06095 16.347 3.08446 15.7624 3.04331C13.4409 2.49281 11.1243 3.25098 8.80279 3.05703C6.7108 3.22551 4.69611 2.54962 2.60653 2.70831C1.7707 2.771 0.857572 2.60448 0.229492 3.2549Z" fill="#2D2D2D"/>
<path d="M33.0273 3.89551C33.0249 3.79363 33.0225 3.69372 33.0201 3.59185C32.2277 3.22549 31.4305 3.45471 30.8339 3.41552C31.4788 3.00215 33.1239 4.0013 33.566 2.62209C33.3872 2.33997 33.0684 2.26161 32.7108 2.23614C31.3508 2.64951 29.6888 1.668 28.4882 2.82779C28.2684 3.20786 28.3095 3.55658 28.6718 3.87004C30.1236 3.87787 31.5755 3.88571 33.0273 3.89551Z" fill="#323232"/>
<path d="M28.6717 3.86805C28.6717 3.54479 28.6717 3.2235 28.6741 2.90025C28.546 2.75723 28.3769 2.65928 28.1692 2.6005C27.4976 2.49079 26.913 2.72197 26.3139 2.90221C25.7801 3.2235 24.7148 3.008 24.7437 3.90331C26.0555 4.06004 27.3648 4.03066 28.6717 3.86805Z" fill="#3B3B3B"/>
<path d="M18.2215 3.59373C18.2143 3.6956 18.2094 3.79747 18.2046 3.90131C19.9487 3.90131 21.6953 3.90131 23.4394 3.90131C23.5409 3.18036 22.763 3.18231 22.2557 2.95898C21.444 2.7807 20.642 2.91392 19.8352 2.9962C19.2554 3.12158 18.5983 3.11179 18.2215 3.59373Z" fill="#3B3B3B"/>
<path d="M22.1978 3.25087C22.6108 3.46833 23.0263 3.68579 23.4394 3.9013C23.8742 3.90326 24.3091 3.90325 24.7439 3.90521C25.1739 3.38409 26.1716 3.77004 26.5508 3.16663C26.4542 3.0961 26.3552 3.02753 26.2585 2.957C24.8623 2.67881 23.466 2.38886 22.1978 3.25087Z" fill="#1A1A1A"/>
<path d="M44.4172 3.96403C43.6442 3.96795 42.8711 3.97383 42.0957 3.97775C42.7769 4.38917 43.5355 4.37154 44.3157 4.23635C44.3399 4.14232 44.3737 4.0522 44.4172 3.96403Z" fill="#5D5D5D"/>
<path d="M16.0233 2.1675C14.999 0.218195 13.0978 1.78156 11.6678 1.45831C11.1605 2.0147 11.4938 2.4457 11.9915 2.85123C13.3346 2.86103 14.6946 3.01971 15.9991 2.6083C16.1102 2.51427 16.1513 2.41827 16.1199 2.31836C16.0909 2.21648 16.0595 2.1675 16.0233 2.1675Z" fill="#4E4E4E"/>
<path d="M22.0454 1.14882C21.654 0.713896 21.2313 0.325989 20.4607 0.45921C19.55 0.756996 18.6392 1.05478 17.7285 1.35061C17.7889 1.43289 17.8493 1.51714 17.9073 1.59942C18.9798 2.15581 20.2336 1.85214 21.3762 2.08136C21.9801 1.9501 22.6565 1.84823 22.0454 1.14882Z" fill="#6B6B6B"/>
<path d="M16.0232 2.16752C16.0063 2.30662 15.987 2.44768 15.9701 2.58677C15.8976 2.78073 15.9653 2.9355 16.1682 3.05305C16.3663 3.13925 16.5788 3.18822 16.8035 3.19998C17.678 3.17059 18.5718 3.35671 19.4173 3.02953C19.8135 2.69648 19.5985 2.40654 19.3182 2.1205C18.9076 1.75219 18.1201 1.99904 17.777 1.50926L17.7311 1.35253C17.0161 1.42502 16.8252 2.21258 16.0232 2.16752Z" fill="#595959"/>
<path d="M36.9431 2.83172C37.8031 3.33913 38.68 3.39006 39.5762 2.89441C40.0376 2.40855 40.6318 2.05983 41.3058 1.79339C41.4725 1.71111 41.603 1.60139 41.7068 1.46818C41.5667 1.11749 41.429 0.764857 41.2889 0.414176C41.0063 0.412217 40.7236 0.410258 40.441 0.408299C38.6582 1.764 36.3271 1.02542 34.281 1.40353C32.6431 1.70523 30.8459 1.44271 29.1211 1.43095C28.9665 1.55046 28.8094 1.67192 28.6548 1.79143C28.551 1.88547 28.5123 1.98342 28.5389 2.08334C28.5655 2.18521 28.5944 2.23615 28.6234 2.23615C29.9617 2.06767 31.2445 3.00412 32.6069 2.36349C34.0926 2.28317 35.426 3.11187 36.9431 2.83172Z" fill="#929292"/>
<path d="M22.0456 1.14877C22.0698 1.62876 21.7727 1.82467 21.1977 1.77569C20.5382 1.65422 19.8184 1.31138 19.4053 2.09306C20.1904 2.89434 21.3716 2.52799 22.3548 2.74937C22.5916 2.7768 22.8235 2.767 23.0554 2.71998C23.6955 2.45746 24.3985 2.21845 23.8791 1.46223C23.7318 1.45831 23.582 1.45439 23.4346 1.45048C22.9708 1.35056 22.5094 1.25065 22.0456 1.14877Z" fill="#969696"/>
<path d="M28.2782 1.78939C27.336 1.14288 26.2272 1.56213 25.1982 1.47397C24.8962 1.96962 25.1619 2.33598 25.6137 2.66119C25.9253 2.79049 26.2562 2.81988 26.5993 2.77482C27.15 2.43981 28.2878 2.74935 28.2782 1.78939Z" fill="#7E7E7E"/>
<path d="M25.6089 2.50453C25.4712 2.16168 25.3335 1.81688 25.1982 1.47403C24.7585 1.47012 24.3189 1.4662 23.8792 1.46424C23.9179 1.99516 23.2874 2.15385 22.9927 2.49865C23.8623 3.00998 24.7344 3.0041 25.6089 2.50453Z" fill="#898989"/>
<path d="M28.2782 1.78942C27.6839 2.03039 27.0921 2.2694 26.4978 2.51037C26.3529 2.59853 26.2708 2.71412 26.249 2.8591C26.2853 3.00407 26.3843 3.1079 26.5534 3.16668L26.551 3.17059C27.1138 3.04913 27.6767 2.92962 28.2396 2.80816C28.5439 2.66514 28.9522 2.56523 28.6695 2.16557C28.6647 2.04215 28.6623 1.91676 28.6575 1.79334L28.469 1.79726L28.2782 1.78942Z" fill="#959595"/>
<path d="M49.1158 1.06845C47.3693 0.992044 45.6106 0.802009 43.939 1.41913C43.7819 1.59349 43.7892 1.76197 43.9631 1.92458C44.7337 2.36538 45.5309 2.1538 46.3281 1.99707C47.3064 1.82663 48.4805 2.20865 49.2124 1.33881C49.1786 1.25065 49.1472 1.15857 49.1158 1.06845Z" fill="#929292"/>
<path d="M43.9245 1.80507C43.9293 1.67773 43.9317 1.54843 43.9365 1.42108C43.1925 1.43676 42.4509 1.45243 41.7068 1.4681C41.5643 1.47202 41.4218 1.4779 41.2793 1.48965C41.1609 2.46529 41.9991 2.76112 42.9244 2.99817C43.4413 2.8767 43.7747 2.58088 44.0525 2.2302C44.1177 2.06759 44.0791 1.92457 43.9245 1.80507Z" fill="#8F8F8F"/>
<path d="M51.3672 1.44069C51.0265 0.388654 49.9854 0.843168 49.1834 0.780476C49.1544 0.874513 49.1302 0.97051 49.1157 1.06847L49.1737 1.1292C49.5771 1.61114 50.1376 1.79921 50.8454 1.72672C51.0555 1.67383 51.2295 1.57979 51.3672 1.44069Z" fill="#929292"/>
<path d="M68.7798 0.758945C68.3353 0.753067 67.8908 0.745233 67.4488 0.739355C65.9994 0.741314 64.5524 0.745231 63.1029 0.74719C62.9556 0.931347 62.9773 1.09787 63.1706 1.25264C64.8133 1.68756 66.5187 1.85409 68.2315 2.0069C68.7991 1.69932 69.048 1.30358 68.7798 0.758945Z" fill="#AEAEAE"/>
<path d="M63.0932 1.07242C63.0956 0.962704 63.1004 0.854953 63.1004 0.745242C61.9288 0.661 60.6968 1.03519 59.5929 0.439617C59.1532 0.649243 58.7111 0.85887 58.2715 1.0685C58.3319 1.13511 58.3923 1.19976 58.4502 1.26833C59.3803 1.7248 60.3949 1.66407 61.4143 1.59158C61.622 1.58766 61.8274 1.57199 62.0327 1.5524C62.4555 1.48971 62.8565 1.39567 63.0932 1.07242Z" fill="#B4B4B4"/>
<path d="M51.3675 1.44069C51.2105 1.44853 51.0511 1.45441 50.894 1.46224C51.0293 2.56718 51.7444 2.98055 53.0778 2.65534C53.6527 2.22238 53.8581 1.70517 53.6189 1.09001C53.2952 0.917612 52.9739 0.892143 52.6599 1.10764C52.3338 1.47987 51.8434 1.44461 51.3675 1.44069Z" fill="#8D8D8D"/>
<path d="M52.6597 1.10765C52.9568 1.11156 53.2539 1.11548 53.5486 1.1194C53.9424 1.42502 54.3627 1.41131 54.8 1.18601C54.9425 0.858841 54.8821 0.655093 54.3724 0.725621H54.1791L53.9859 0.717786C53.5172 0.788314 52.9713 0.688397 52.6597 1.10765Z" fill="#929292"/>
<path d="M54.3726 0.725619C54.5151 0.858837 54.66 0.992057 54.8026 1.12724C54.9572 1.51122 55.3195 1.70321 55.7688 1.82272C55.9887 1.87757 56.2133 1.90696 56.4428 1.91479C57.1941 1.84623 58.1217 2.05389 58.3343 1.13703L58.2739 1.07238C57.3149 1.09785 56.4525 0.870593 55.6674 0.435672C55.1987 0.423918 54.718 0.376898 54.3726 0.725619Z" fill="#B4B4B4"/>
<path d="M122.826 4.22852C134.426 4.26378 146.026 4.29709 157.626 4.3441C158.406 4.34802 159.23 4.18934 159.955 4.58704C165.707 4.32451 171.456 4.44598 177.213 4.54981C181.59 4.63014 185.977 4.35782 190.359 4.24027C190.61 3.59964 189.919 3.4625 189.499 3.18431C189.354 3.07852 189.117 2.95705 189.31 2.78857C189.511 2.61225 189.837 2.67494 190.12 2.67102C190.339 2.6769 190.542 2.64163 190.74 2.56523C190.46 1.07042 188.818 1.474 187.764 1.33686C186.209 1.13311 184.58 1.28397 182.988 1.28397C181.727 1.54061 180.438 1.42306 179.16 1.46812C178.626 1.48771 177.858 1.36233 177.812 1.99708C177.775 2.48882 178.478 2.49078 178.937 2.60833C179.179 2.66906 179.524 2.58482 179.628 2.9022C178.949 3.19019 178.382 3.04129 177.858 2.66514C177.698 2.54955 177.556 2.42613 177.423 2.29095C176.22 0.776556 174.367 1.71693 172.826 1.48967C170.676 1.99121 168.473 2.1832 166.243 2.15577C165.509 2.14598 164.743 2.04018 164.146 2.41437C163.4 2.8826 162.962 2.35169 162.407 2.18124C160.588 2.02255 158.742 2.52213 156.935 2.03039C155.28 1.91088 153.896 3.4096 152.118 2.54563C151.918 2.50058 151.715 2.47511 151.507 2.45944C149.662 2.57894 147.809 2.46923 145.961 2.55935C143.098 2.91395 140.228 3.17451 137.334 2.86889C136.6 2.2263 135.771 1.88149 134.694 2.31642C134.119 3.1079 133.6 2.73959 133.085 2.25961C132.597 2.06957 132.078 2.02255 131.549 2.02451C131.235 2.01864 130.921 2.02255 130.607 2.0441C129.15 3.4292 127.222 2.94529 125.401 2.8826C124.372 3.20978 123.217 2.91003 122.2 3.29206C121.997 3.3861 121.869 3.52519 121.813 3.70739C121.874 4.23048 122.536 3.99146 122.826 4.22852Z" fill="#020202"/>
<path d="M182.544 1.4681C184.948 1.50337 187.373 1.25064 189.733 1.82858C190.236 1.952 190.233 1.95984 189.926 2.52994C189.837 2.65728 189.847 2.77875 189.96 2.89433C191.559 2.93548 191.6 2.38301 190.777 1.49945C187.919 1.08412 185.047 0.911717 182.148 1.16052C182.027 1.22517 181.971 1.30158 181.984 1.38778C181.996 1.48182 182.017 1.52688 182.051 1.52688C182.235 1.60524 182.397 1.57977 182.544 1.4681Z" fill="#111111"/>
<path d="M189.96 2.89634C189.948 2.77488 189.938 2.65341 189.926 2.52999L189.938 2.52803C189.472 2.25179 188.921 2.22045 188.598 2.57897C188.226 2.99234 188.627 3.32539 189.076 3.56636C189.653 3.60554 190.117 3.78186 190.356 4.2403C191.557 3.53697 190.224 3.31951 189.96 2.89634Z" fill="#363636"/>
<path d="M121.958 3.91501C121.958 3.80138 121.963 3.68971 121.971 3.57804C121.768 3.24108 121.333 3.10982 121.011 2.87472C120.869 2.7846 120.712 2.71408 120.545 2.66118C120.275 2.60437 120.007 2.61416 119.741 2.68665C119.564 2.74542 119.403 2.81987 119.243 2.90411C118.601 3.1921 117.91 3.08435 117.231 3.07064C116.175 3.02558 115.675 2.30462 114.958 1.85207C114.516 1.83444 114.076 1.8168 113.634 1.79917C113.475 1.96961 113.221 2.01271 113.008 2.11459C112.627 2.26348 112.303 2.48682 111.916 2.62984C111.31 2.81203 110.701 2.77089 110.093 2.63767C109.909 2.59065 109.725 2.56126 109.537 2.53971C109.148 2.49661 108.762 2.52012 108.38 2.57694C107.641 2.85905 106.479 2.36927 106.128 3.37038C106.278 3.87779 106.827 3.95028 107.319 4.08154C108.269 4.18145 109.247 3.92677 110.177 4.23631C111.909 4.52429 113.581 4.08154 115.279 3.95811C117.509 4.16382 119.734 4.21671 121.958 3.91501Z" fill="#1A1A1A"/>
<path d="M148.536 1.14288C145.345 1.49944 142.156 1.06843 138.965 1.14484C138.811 1.64441 138.294 1.95591 137.989 2.38104C138.199 2.75131 138.596 2.85907 139.055 2.88257C140.869 3.09416 142.705 2.77678 144.514 3.03539C145.454 3.06869 145.843 2.34578 146.555 2.06954C147.309 1.89126 148.406 2.18317 148.536 1.14288Z" fill="#6F7070"/>
<path d="M138.984 2.53185C138.68 2.41039 138.373 2.28697 138.069 2.1655C137.984 0.952813 136.397 1.76192 135.895 1.11346C134.73 1.11346 133.568 1.11542 132.406 1.11542C132.218 2.65332 133.52 2.41039 134.668 2.34182C135.803 2.27521 136.943 2.19097 137.361 3.36055C138.129 3.37427 138.975 3.48398 138.984 2.53185Z" fill="#5D5D5D"/>
<path d="M126.314 1.10768C123.995 1.30359 121.62 0.715856 119.335 1.4231C119.531 2.69065 120.823 2.11859 121.652 2.32429C122.983 2.55743 124.299 2.41833 125.613 2.21262C126.21 1.9932 126.778 1.76203 126.314 1.10768Z" fill="#999999"/>
<path d="M137.25 3.19806C137.764 1.96577 136.552 2.27727 135.817 2.14209C134.624 1.92267 133.042 2.54175 132.404 1.11748C131.981 1.14491 131.558 1.17038 131.138 1.1978C130.872 1.33494 130.826 1.54261 130.86 1.77378C130.945 2.08528 131.252 2.26356 131.5 2.4771C132.09 2.49082 132.677 2.50453 133.266 2.51824C133.718 2.81015 134.175 2.84346 134.634 2.53C135.428 2.58094 136.431 2.22633 136.735 3.23136C136.921 3.36458 137.093 3.35282 137.25 3.19806Z" fill="#282828"/>
<path d="M119.77 3.22152C119.789 3.1216 119.799 3.01973 119.801 2.91785C120.016 2.70235 120.055 2.46726 119.92 2.21453C119.664 2.00687 119.379 2.0578 119.091 2.15772C118.028 2.70039 117.205 1.98923 116.279 1.80312C115.84 1.81879 115.398 1.83446 114.958 1.84818C114.893 3.07066 115.96 3.35474 117.13 3.55457C117.951 3.1314 118.951 3.64469 119.77 3.22152Z" fill="#3C3C3C"/>
<path d="M148.536 1.143C147.932 1.82673 147.082 1.51914 146.304 1.49955C145.983 2.3596 146.7 2.54768 147.461 2.52417C148.393 2.49674 149.316 2.62996 150.241 2.54572C150.481 2.51437 150.712 2.46148 150.937 2.38899C151.797 1.59947 150.589 1.51131 150.273 1.11949C149.695 1.12732 149.116 1.13516 148.536 1.143Z" fill="#606060"/>
<path d="M126.314 1.10763C126.283 1.55626 125.976 1.78548 125.43 1.82271C125.604 2.80226 125.604 2.80226 127.79 2.61027C128.015 2.57892 128.23 2.52015 128.438 2.44178C129.022 2.13616 129.575 1.81291 129.377 1.13897C128.356 1.12722 127.336 1.11742 126.314 1.10763Z" fill="#6F6F6F"/>
<path d="M116.282 1.80311C117.028 2.8336 117.953 3.35277 119.354 2.49859C119.072 2.29876 119.282 1.8658 118.816 1.75217C118.347 1.70711 117.796 2.01273 117.422 1.5641C116.748 0.756943 116.598 1.53275 116.282 1.80311Z" fill="#7A7A7A"/>
<path d="M113.24 2.17533C113.371 2.04994 113.504 1.92456 113.634 1.79722C112.803 1.80114 111.938 1.88342 111.477 1.12133C111.192 1.12133 110.907 1.12133 110.622 1.12329C110.288 1.34858 110.158 1.70122 109.837 1.93436C109.701 2.03035 109.602 2.14398 109.532 2.2772C109.481 2.50054 109.513 2.70037 109.796 2.81792L109.759 2.83751C110.218 3.18819 110.781 2.98836 111.298 3.02558C111.989 2.80616 112.569 2.42218 113.24 2.17533Z" fill="#A0A0A0"/>
<path d="M135.893 1.11542C136.238 1.97742 137.499 1.60519 138.069 2.16745C139.214 2.30851 139.125 1.74821 138.965 1.1448C137.941 1.13501 136.917 1.12521 135.893 1.11542Z" fill="#7C7C7C"/>
<path d="M129.377 1.13701C129.075 1.47398 128.771 1.80898 128.469 2.14595C129.024 2.61614 129.674 2.13812 130.266 2.2635C130.611 2.1675 130.993 2.11265 131.145 1.78548C131.143 1.58957 131.141 1.39366 131.138 1.19775C130.551 1.17815 129.964 1.1566 129.377 1.13701Z" fill="#464646"/>
<path d="M118.813 1.75223C118.905 2.04218 118.956 2.35171 119.352 2.49865C119.492 2.38894 119.63 2.27923 119.77 2.17148C120.089 2.47906 120.594 2.5104 120.995 2.69652C121.186 2.73766 121.376 2.74549 121.572 2.72199C122.106 2.52803 122.391 2.26551 121.949 1.811C121.087 1.63664 120.067 2.15972 119.335 1.4231C119.161 1.53281 118.987 1.64252 118.813 1.75223Z" fill="#525252"/>
<path d="M150.275 1.11943C150.254 1.64642 150.877 1.80315 151.177 2.14404C152.52 2.41048 152.384 1.84429 152.029 1.15665L152.027 1.00972C151.445 1.04498 150.86 1.0822 150.275 1.11943Z" fill="#777777"/>
<path d="M167.263 1.0802C164.221 1.07824 161.182 1.07628 158.141 1.07432C157.689 1.521 157.904 1.87364 158.38 2.18906C159.508 2.65337 160.562 1.92654 161.716 2.03821C162.255 2.0911 162.564 2.37713 163.033 2.41827C164.598 2.14204 166.292 2.8003 167.782 1.99119C167.987 1.70712 168.012 1.42892 167.748 1.16052C167.584 1.1331 167.422 1.10763 167.263 1.0802Z" fill="#4A4A4A"/>
<path d="M167.688 1.76989C166.036 2.58879 164.231 2.04024 162.499 2.14016C162.385 2.22244 162.344 2.30472 162.378 2.38897C162.412 2.47517 162.448 2.51631 162.487 2.51631C162.854 3.07073 163.028 4.11886 164.12 3.0198C164.758 2.37721 165.499 2.65345 166.28 2.62994C168.393 2.56724 170.555 2.63973 172.524 1.81495C172.63 1.73266 172.671 1.6445 172.655 1.55243C172.635 1.45643 172.609 1.40941 172.58 1.40941C171.981 1.28795 171.251 1.70328 170.761 1.12534C170.338 1.12926 169.918 1.13514 169.495 1.13905C168.992 1.53479 168.053 1.1175 167.688 1.76989Z" fill="#161616"/>
<path d="M182.056 1.43676C182.08 1.34272 182.109 1.2526 182.148 1.16248C179.66 1.17228 177.169 1.18207 174.681 1.19383C174.611 1.44655 174.736 1.58761 175.055 1.617C177.391 1.6503 179.735 1.81487 182.056 1.43676Z" fill="#404040"/>
<path d="M174.703 1.41717C174.701 1.34076 174.691 1.26632 174.679 1.18991C173.372 1.1664 172.065 1.14485 170.756 1.12134C170.964 2.51622 171.804 1.76589 172.514 1.46027C173.254 1.69928 173.986 1.76589 174.703 1.41717Z" fill="#373737"/>
<path d="M167.688 1.76985C168.086 1.71891 168.468 1.38978 168.886 1.69932C169.105 1.86192 169.357 2.06959 169.562 1.78356C169.671 1.63075 169.521 1.35647 169.49 1.13705C168.907 1.14489 168.325 1.15273 167.743 1.16056C167.726 1.36431 167.707 1.5661 167.688 1.76985Z" fill="#373737"/>
<path d="M100.166 1.09194C98.002 0.756933 96.0864 1.72473 94.0113 1.85403C93.9968 2.05386 94.0862 2.21843 94.2794 2.34577C95.3882 2.84338 96.5139 2.60633 97.6396 2.3967C99.2219 2.21255 100.365 3.60743 102.012 3.19798C102.841 2.81203 104.21 3.33316 104.594 2.20079C103.722 1.67967 102.633 2.26153 101.741 1.8364C101.374 1.37209 100.548 1.54253 100.166 1.09194Z" fill="#7A7A7A"/>
<path d="M94.0984 2.12057C94.0767 2.03045 94.0452 1.94229 94.0114 1.85413C93.2988 1.81495 92.5862 1.77381 91.8735 1.73463L91.9025 1.88548C91.8518 2.34979 92.2842 2.42424 92.69 2.52219C93.1249 2.56921 93.5355 2.52611 93.91 2.32628C93.9728 2.25771 94.0356 2.18914 94.0984 2.12057Z" fill="#575757"/>
<path d="M101.459 1.81102C102.391 2.49475 103.57 1.96579 104.587 2.22831C104.959 2.53785 105.416 2.52805 105.889 2.44773C106.066 2.39875 106.22 2.31843 106.351 2.21264C106.43 2.07746 106.459 1.9364 106.443 1.78751C106.353 1.48973 106.066 1.30753 105.824 1.0979C104.421 0.945092 103.425 2.28904 101.928 1.78751C101.761 1.66996 101.606 1.68368 101.459 1.81102Z" fill="#8D8D8D"/>
<path d="M109.752 2.14986C110.074 2.21843 110.54 2.43001 110.69 2.3301C111.248 1.95591 110.506 1.54058 110.622 1.12133C110.185 1.11937 109.745 1.11545 109.308 1.11153C108.873 1.6209 109.134 1.93632 109.752 2.14986Z" fill="#A3A3A3"/>
<path d="M109.752 2.14993C109.605 1.80513 109.455 1.45836 109.308 1.11356C108.581 1.11356 107.854 1.11356 107.126 1.11356C106.909 1.51322 107.187 1.76986 107.52 2.01279C108.194 2.29099 108.871 2.58093 109.646 2.23613L109.752 2.14993Z" fill="#A0A0A0"/>
<path d="M101.459 1.81097C101.616 1.80314 101.771 1.7953 101.928 1.78747C101.727 0.92154 100.872 1.13508 100.169 1.09394C100.208 1.79139 100.838 1.79726 101.459 1.81097Z" fill="#9B9B9B"/>
<path d="M107.576 1.74835C107.426 1.53676 107.276 1.32518 107.126 1.11359C106.691 1.10967 106.259 1.1038 105.824 1.09988C105.839 1.39571 105.938 1.65627 106.281 1.81692C106.735 2.08336 107.172 2.12058 107.576 1.74835Z" fill="#959595"/>
<path d="M79.2272 1.10371C78.6451 1.10762 78.0629 1.1135 77.4783 1.11742C75.9443 1.90694 75.9685 2.02841 77.8865 3.06086C78.1136 3.1118 78.3455 3.12551 78.5823 3.10984C79.8022 2.83164 81.6598 3.29987 81.5511 1.46418C80.882 0.905834 80.0148 1.18011 79.2272 1.10371Z" fill="#909090"/>
<path d="M68.7796 0.758955C68.6298 1.10572 68.48 1.45248 68.3302 1.79924C67.9268 2.20086 66.6199 1.68365 66.8591 2.74157C67.2649 3.2098 67.8012 2.99038 68.3061 2.92573C68.4993 2.87675 68.6853 2.80622 68.8568 2.72002C69.3376 2.46142 69.5477 1.99907 69.9995 1.72088C70.4971 1.57198 70.8425 1.82079 71.2097 2.0167C72.077 2.62011 72.9152 3.38416 74.0772 2.36151C74.0385 2.28314 73.9998 2.20282 73.9588 2.12445C72.5649 2.29489 72.3475 1.71108 72.6495 0.79422C71.3619 0.780506 70.0695 0.76875 68.7796 0.758955Z" fill="#8C8C8C"/>
<path d="M77.928 2.80034C77.6188 2.26746 76.0027 1.95988 77.4811 1.11747C76.1911 1.18604 74.6668 0.721734 73.9639 2.12249L74.0267 2.18518C75.0847 2.44574 76.0196 2.97666 77.1381 3.10596C77.4594 3.10596 77.7468 3.04327 77.928 2.80034Z" fill="#8D8D8D"/>
<path d="M79.2275 1.10373C79.8411 1.65815 80.6721 1.36821 81.4017 1.4642C81.8486 1.79921 82.3655 1.89129 82.9501 1.76786C83.4163 1.67774 83.6821 1.38192 83.9816 1.1194C83.9889 1.01557 83.9695 0.915652 83.9212 0.817697C82.3559 0.888225 80.7422 0.453306 79.2275 1.10373Z" fill="#757575"/>
<path d="M158.556 2.16944C158.416 1.80505 158.279 1.44065 158.139 1.07626C157.709 1.09389 157.279 1.11152 156.846 1.1272C155.839 1.85599 154.353 1.66987 153.305 2.32617C152.805 2.42609 152.283 2.4927 151.979 2.89236C153.145 3.33316 154.281 3.9013 155.365 2.69841C155.571 2.47115 156.312 2.56127 156.805 2.50445C157.315 2.13026 158.049 2.53188 158.556 2.16944Z" fill="#393939"/>
<path d="M153.776 2.85907C154.314 1.72083 156.662 2.67295 156.848 1.12721C156.549 1.1233 156.252 1.11938 155.952 1.11742C155.52 1.49553 155.08 1.48769 154.636 1.13309C154.058 1.1233 153.479 1.11154 152.901 1.10175C152.07 2.05191 152.957 2.44374 153.776 2.85907Z" fill="#707070"/>
<path d="M153.776 2.85915C153.314 2.32823 152.807 1.81299 152.901 1.10183C152.611 1.11946 152.322 1.13709 152.029 1.15668C151.986 1.62295 152 2.12057 151.174 2.14604C151.017 2.15387 150.863 2.16367 150.705 2.17346C150.476 2.84348 151.379 2.56137 151.59 2.85915C151.718 2.87874 151.848 2.8905 151.979 2.89246C152.58 2.8807 153.177 2.86895 153.776 2.85915Z" fill="#515151"/>
<path d="M154.636 1.13318C154.708 1.4055 154.773 1.69544 155.206 1.73462C155.764 1.7836 155.88 1.46035 155.955 1.11751C155.513 1.12339 155.075 1.1273 154.636 1.13318Z" fill="#787878"/>
<path d="M83.9842 1.11945C83.7112 1.23112 83.4382 1.34084 83.1628 1.45251C82.8246 2.1284 80.9307 1.7307 81.4912 3.02959C82.0395 3.34305 82.6724 3.3313 83.3005 3.34109C83.5083 3.34501 83.716 3.33717 83.9238 3.32346C84.233 3.30191 84.5325 3.24706 84.8248 3.16869C85.2041 3.06486 85.5664 2.92968 85.9288 2.7945C86.3926 2.54765 87.1221 2.51239 87.0883 1.86392C86.4457 1.8071 85.8225 1.80515 85.1968 2.01477C84.0735 2.38896 84.059 1.71111 83.9842 1.11945Z" fill="#676767"/>
<path d="M87.0903 1.86384C86.6483 2.07739 86.2062 2.29093 85.7617 2.50643C85.897 2.90609 86.2231 3.18037 86.6507 3.38999C86.9309 3.48207 87.2184 3.49578 87.5131 3.44289C88.3441 3.25677 88.6678 2.66512 89.0954 2.15379C89.2017 2.02645 89.2693 1.88736 89.3055 1.7365C89.1678 1.0802 88.5156 1.12918 87.931 1.08412C87.6508 1.34272 87.3706 1.60328 87.0903 1.86384Z" fill="#484848"/>
<path d="M92.7865 2.20084C92.4918 2.09505 92.1971 1.98926 91.9048 1.88347C91.0375 1.83449 90.1727 1.78551 89.3055 1.73458L89.2306 1.858C89.1364 2.02257 89.1702 2.1695 89.3152 2.30468C89.6485 2.51822 90.0447 2.60638 90.4481 2.67887C91.267 2.86694 91.842 3.85041 92.9266 3.17256C93.144 2.82384 93.0909 2.50059 92.7865 2.20084Z" fill="#3F3F3F"/>
<path d="M92.7192 3.20197C91.666 3.33911 91.5621 2.12838 90.5475 2.20674C90.1562 2.54567 89.6585 2.69848 89.1029 2.75334C88.5836 2.95317 88.0014 3.00018 87.4796 3.19022C87.2139 3.19022 86.9481 3.19022 86.6824 3.19218C86.1244 2.89439 85.5881 2.51824 84.8441 2.83758C84.5711 2.85129 84.2981 2.86501 84.0251 2.87872C82.9477 3.46253 81.8172 3.23723 80.6867 3.02369C80.4813 3.0139 80.2881 3.04524 80.1021 3.11381C79.8653 3.30385 79.8074 3.5311 79.875 3.78775C80.0006 4.04635 80.2953 4.11883 80.5804 4.20503C80.7012 4.21875 80.8219 4.22071 80.9427 4.21287C81.9791 4.03655 83.0154 3.98562 84.0469 4.23834C84.9141 4.23442 85.7814 4.2305 86.651 4.22659C88.4459 3.92292 90.2625 4.17173 92.067 4.09141C96.5022 4.08749 100.935 4.09924 105.368 4.08553C106.593 3.58596 105.51 3.34499 105.187 3.01781C104.962 2.92574 104.72 2.8748 104.469 2.865C103.404 2.81603 102.346 2.91398 101.295 3.0472C100.278 3.31952 99.3165 3.03936 98.3454 2.84345C97.7777 2.73374 97.1979 2.73179 96.6206 2.71024C96.1398 2.68673 95.6615 2.69652 95.1808 2.70632C94.316 2.72199 93.4246 2.66322 92.7192 3.20197Z" fill="#1B1B1B"/>
<path d="M105.769 3.85633C101.14 3.88571 96.5093 3.91314 91.8808 3.94253C91.7262 4.0013 91.673 4.06204 91.7214 4.12473C91.7697 4.18938 91.8204 4.22072 91.8711 4.22072C97.9732 4.22464 104.075 4.22856 110.177 4.23444C109.247 3.62711 108.121 4.0542 107.114 3.85633C106.665 3.72311 106.216 3.65258 105.769 3.85633Z" fill="#2C2C2C"/>
<path d="M121.959 3.91508C119.734 3.92879 117.507 3.94054 115.282 3.95426C117.767 4.56942 120.316 4.0385 122.826 4.22854C122.536 4.1247 122.246 4.01891 121.959 3.91508Z" fill="#1F1F1F"/>
<path d="M75.3261 4.25206C76.0435 4.25402 76.761 4.25402 77.4784 4.25598C77.7514 4.01893 78.2563 4.17762 78.4882 3.87004C78.5365 3.49977 78.3263 3.25684 77.9181 3.10991C77.7152 3.07464 77.5147 3.08248 77.3166 3.13538C76.43 3.22745 75.3816 2.86306 74.7632 3.71723C74.7245 4.04832 75.0748 4.11688 75.3261 4.25206Z" fill="#161616"/>
<path d="M75.3261 4.25201C75.1739 4.1423 75.0241 4.03063 74.872 3.92092C74.7004 3.76811 74.4975 3.64861 74.2656 3.56241C72.8935 3.34886 71.5214 3.33907 70.1469 3.57024C69.9077 3.65449 69.7217 3.78966 69.5864 3.9699C69.613 4.05218 69.6565 4.13055 69.7169 4.20108C71.5866 4.21871 73.4564 4.23438 75.3261 4.25201Z" fill="#5A5A5A"/>
<path d="M91.8712 4.22062C91.8736 4.12659 91.876 4.03451 91.8809 3.94047C90.1416 4.07565 88.3467 3.56236 86.6533 4.2265C88.3926 4.22454 90.1319 4.22258 91.8712 4.22062Z" fill="#282828"/>
<path d="M84.049 4.23834C83.0199 3.77403 81.9836 3.89353 80.9448 4.21287C81.9787 4.22267 83.0151 4.23051 84.049 4.23834Z" fill="#5B5B5B"/>
<path d="M78.3457 3.89551C78.0558 4.01501 77.766 4.13648 77.4761 4.25598C78.5124 4.24031 79.5463 4.22268 80.5826 4.207C80.4232 4.10121 80.2662 3.99738 80.1092 3.89159C79.5197 3.54482 78.9327 3.46842 78.3457 3.89551Z" fill="#5B5B5B"/>
<path d="M52.6453 3.93463C56.1311 3.92875 59.6193 3.92287 63.1052 3.917C62.2766 2.39084 60.5808 3.34689 59.3222 3.05694C58.554 3.0589 57.7834 3.0589 57.0152 3.0589C55.8702 3.08241 54.7227 3.0158 53.5801 3.12943C53.0873 3.26069 52.5341 3.34885 52.6453 3.93463Z" fill="#2D2D2D"/>
<path d="M59.1674 3.5507C60.4719 3.72898 61.873 3.22157 63.1026 3.91705C63.6823 3.89354 64.2621 3.86808 64.8419 3.84457C64.9651 3.39985 64.6776 3.13341 64.2355 2.92966C63.6799 2.72592 63.0832 2.73375 62.4914 2.71808C61.4213 2.77489 60.31 2.54568 59.3051 3.03154C59.0901 3.17651 59.0442 3.34891 59.1674 3.5507Z" fill="#1E1E1E"/>
<path d="M69.5864 3.97192C69.7555 3.9347 69.927 3.89552 70.0961 3.85829C70.1879 3.68981 70.1541 3.54092 69.9946 3.40966C69.3641 3.05702 68.6032 3.0962 67.9002 2.95318C67.4847 2.98257 67.0716 3.04918 66.6489 3.00412C66.1343 3.15105 65.6246 3.30191 65.7188 3.87397C67.0088 3.90727 68.2964 3.93862 69.5864 3.97192Z" fill="#242424"/>
<path d="M52.645 3.93463C52.8334 3.65448 53.1571 3.58199 53.5146 3.55848C53.6571 3.37237 53.6282 3.20781 53.4252 3.06283C52.5242 2.80423 51.6135 2.70627 50.6907 2.99426C50.6061 3.06087 50.524 3.12944 50.4395 3.19605C50.8839 3.43702 51.326 3.67799 51.7705 3.91896C52.0628 3.92484 52.3527 3.92875 52.645 3.93463Z" fill="#131313"/>
<path d="M65.7212 3.8739C65.9942 3.67211 66.2696 3.47032 66.5426 3.26853C65.8444 2.68668 65.1463 2.6906 64.4409 3.2607C64.5738 3.45465 64.7091 3.65056 64.8419 3.84451C65.1342 3.85627 65.4265 3.86411 65.7212 3.8739Z" fill="#111111"/>
<path d="M43.9246 1.80507C43.9221 1.92458 43.9221 2.04408 43.9197 2.16359C43.8255 2.54758 43.3086 2.58872 43.0646 2.8532C42.2891 2.55149 41.7601 2.03821 41.2794 1.4877C39.9749 1.37603 39.4966 1.91478 39.5763 2.89238C40.6271 2.8101 41.6297 2.99034 42.6201 3.2509C43.3279 3.5193 44.0792 3.33122 44.8039 3.38804C45.9996 3.31947 46.4924 2.55345 47.0819 1.8854C46.8959 1.53471 46.3572 1.71887 46.1059 1.46614C45.4271 1.77568 44.6928 1.85993 43.9246 1.80507Z" fill="#818181"/>
<path d="M46.9685 1.80514C46.379 2.26553 45.7896 2.72592 45.1978 3.18631C45.7775 3.51153 46.379 3.42729 46.9854 3.24901C48.1376 3.23137 49.2875 3.21374 50.4398 3.19415L50.435 3.18827C50.5992 3.03155 50.6234 2.8611 50.5123 2.67695C49.6668 1.49756 48.3985 1.43487 46.9685 1.80514Z" fill="#5D5D5D"/>
<path d="M33.4644 2.51623C32.8218 3.58591 31.4908 3.08045 30.4858 3.49775C31.3313 3.52909 32.1744 3.55848 33.0199 3.58982C34.1601 3.29987 35.6409 4.17952 36.4985 2.92765C35.4912 2.77875 34.5998 2.05976 33.4644 2.51623Z" fill="#1B1B1B"/>
<path d="M33.4647 2.51619C34.4768 2.65333 35.4866 2.79047 36.4988 2.92957C36.6461 2.89626 36.7959 2.86492 36.9433 2.83161C35.5397 2.40844 34.1676 1.8501 32.5902 2.16356C32.4646 2.26151 32.4259 2.35555 32.4742 2.44763C32.5225 2.53774 32.5709 2.58085 32.6143 2.58085C32.8994 2.5593 33.182 2.53775 33.4647 2.51619Z" fill="#868686"/>
<path d="M46.9853 3.25085C46.3886 3.2293 45.7943 3.20776 45.1977 3.18816C44.3377 3.20972 43.4777 3.23126 42.6201 3.25281C44.0744 3.75631 45.531 3.74847 46.9853 3.25085Z" fill="#414141"/>
<path d="M16.038 2.84345C16.0187 2.75724 15.9969 2.67104 15.9704 2.58484C14.6079 2.02062 13.359 2.61619 12.0714 2.82973L12.1101 2.87871C11.296 3.30188 10.2983 2.77488 9.48905 3.21372C9.37551 3.31167 9.26198 3.41159 9.14844 3.50955C11.4337 3.68195 13.7213 3.05895 16.0066 3.51738C16.2868 3.30188 16.2844 3.07658 16.038 2.84345Z" fill="#0D0D0D"/>
<path d="M16.0378 2.84343C16.0281 3.06873 16.016 3.29403 16.0063 3.51737C16.5982 3.52716 17.1876 3.53696 17.7795 3.54675C17.8785 3.46251 17.9172 3.37435 17.8954 3.28227C17.8737 3.18824 17.8471 3.14122 17.8181 3.14122C17.4002 2.93943 16.8567 3.17256 16.4653 2.88653C16.3228 2.86302 16.1827 2.84735 16.0378 2.84343Z" fill="#161616"/>
<path d="M17.7795 3.22936C17.7747 3.33515 17.7747 3.4429 17.7795 3.54869C17.9269 3.56436 18.0742 3.58004 18.2216 3.59375C18.8183 3.50755 19.5188 3.72893 19.9705 3.20977C19.8812 3.15687 19.7918 3.10397 19.7048 3.04912C19.0622 3.10789 18.3786 2.87084 17.7795 3.22936Z" fill="#0F0F0F"/>
<path d="M32.6165 2.58087C32.6068 2.44177 32.5996 2.30267 32.5899 2.16357C31.283 2.38691 29.9737 1.64049 28.6668 2.16357C28.5243 2.37712 28.3793 2.59262 28.2368 2.80616C28.3818 2.83751 28.5267 2.87081 28.6716 2.90216C29.9085 2.1577 31.3965 3.43308 32.6165 2.58087Z" fill="#8A8A8A"/>
<path d="M26.5534 3.16474C26.5486 3.06091 26.5292 2.95904 26.4954 2.85716C25.1378 2.44771 23.7005 2.89439 22.3332 2.5966C21.5698 2.50452 20.8065 2.42812 20.0673 2.69456C19.8305 2.84149 19.7846 3.01977 19.9344 3.22744L19.9706 3.21176C20.7026 3.60358 21.4587 3.08442 22.1979 3.25094C23.6497 3.22156 25.1016 3.19217 26.5534 3.16474Z" fill="#3F3F3F"/>
<path d="M19.4944 2.15379C19.9148 1.58957 20.625 1.88148 21.1999 1.77765C20.1225 1.16444 18.9267 1.52884 17.7769 1.50925C16.8468 3.52517 18.9002 1.69536 19.1417 2.19885C19.2843 2.3164 19.4026 2.30073 19.4944 2.15379Z" fill="#333333"/>
<path d="M19.4948 2.15383C19.374 2.15579 19.258 2.17146 19.1421 2.19889C19.2846 2.40459 19.4271 2.61226 19.5697 2.81796C19.6373 3.01191 19.7629 3.02954 19.9393 2.89633C20.6761 2.89241 21.4104 2.89045 22.1472 2.88653C22.2656 2.74352 22.5386 2.71021 22.5627 2.50255C21.6327 1.84038 20.5118 2.29292 19.4948 2.15383Z" fill="#9D9D9D"/>
<path d="M19.9391 2.89437C19.8159 2.86695 19.6927 2.84148 19.5695 2.81601C18.5331 2.83952 17.4992 2.86303 16.4629 2.88458C16.7987 3.25484 17.3036 3.20195 17.7794 3.22742C18.4969 3.22742 19.2144 3.22546 19.9318 3.22546C19.9463 3.11771 19.9487 3.00604 19.9391 2.89437Z" fill="#262626"/>
<path d="M22.5625 2.50059C22.4248 2.62794 22.2847 2.75724 22.147 2.88458C23.5964 2.87479 25.0458 2.86499 26.4952 2.85715C26.5025 2.74157 26.5049 2.62598 26.4976 2.51039C26.2005 2.50843 25.9058 2.50647 25.6087 2.50647C24.7366 2.50451 23.8645 2.50255 22.99 2.50059L22.7751 2.50843L22.5625 2.50059Z" fill="#777777"/>
<path d="M46.9683 1.80506C48.4467 1.46809 49.3623 2.35165 50.4518 2.85515C51.2514 3.21367 52.1017 2.98445 52.9303 3.00012C53.1646 2.86886 53.2081 2.7043 53.0559 2.50642C51.9906 2.62397 51.5388 1.91281 50.8914 1.46221C50.3189 1.35054 49.744 1.23887 49.1714 1.12916C48.2342 1.75216 47.1229 1.32704 46.1035 1.46417C46.304 1.7267 46.6156 1.79722 46.9683 1.80506Z" fill="#848484"/>
<path d="M43.0669 2.85322C43.5259 2.7827 44.0936 3.08832 44.4148 2.6338C44.4583 2.57307 44.096 2.32622 43.922 2.16361C43.3809 2.18908 43.0741 2.39871 43.0669 2.85322Z" fill="#A0A0A0"/>
<path d="M67.0235 2.84539C66.9776 2.10484 68.0405 2.26549 68.3304 1.79922C66.6756 1.1292 64.9049 1.01165 63.0955 1.07239C62.6583 1.09981 62.2211 1.1292 61.7838 1.15663C61.7065 1.57 62.0979 1.72477 62.4264 1.91285C63.1221 2.24198 63.4434 3.00211 64.4 3.03346C65.2697 2.9453 66.1852 3.23721 67.0235 2.84539Z" fill="#989898"/>
<path d="M62.7188 1.51713C62.4072 1.39762 62.0931 1.27812 61.7815 1.15862C61.6462 1.14098 61.5134 1.13315 61.3757 1.13902C60.7742 1.35061 60.4481 1.92854 59.477 1.63076C58.4841 1.3271 57.3415 1.55435 56.3341 1.95793C56.0129 3.58398 57.7763 2.673 58.4479 3.09225C58.6556 3.11968 58.8634 3.1138 59.0687 3.07462C59.3513 3.0374 59.646 3.00997 59.9287 3.04327C61.4385 3.21567 62.6246 3.02172 62.7188 1.51713Z" fill="#848484"/>
<path d="M56.5706 2.15779C57.3677 1.80319 58.4331 1.50737 59.0491 1.92074C60.6676 3.01196 60.9019 1.956 61.3778 1.1371C60.3632 1.1371 59.3486 1.13513 58.3364 1.13513C57.6963 1.64842 56.8919 1.40157 56.1478 1.4388C55.8362 1.85217 56.2348 1.99322 56.5706 2.15779Z" fill="#989898"/>
<path d="M53.0581 2.50643C53.0702 2.6181 53.0702 2.72977 53.0581 2.84144C53.3601 3.0922 53.7466 3.10788 54.1452 3.09416C54.3336 3.04518 54.4979 2.96094 54.6428 2.85123C54.9545 2.45158 55.4448 2.18906 55.8338 1.85013C55.9038 1.69144 55.8724 1.55038 55.7202 1.42892C55.4159 1.32705 55.1091 1.22517 54.8047 1.1233C54.3868 1.12134 53.9689 1.11938 53.5509 1.11742C53.2031 1.54059 53.0557 2.00686 53.0581 2.50643Z" fill="#5C5C5C"/>
<path d="M55.718 1.43089C55.7156 1.55039 55.7132 1.66794 55.7108 1.78744C55.3315 2.17731 55.2808 2.575 55.6745 2.97858C56.7157 3.28616 57.7472 3.39783 58.7425 2.86495C58.2762 2.11265 56.9911 2.99817 56.5683 2.15771C56.4282 1.9187 56.2857 1.67969 56.1456 1.43872L55.933 1.42697L55.718 1.43089Z" fill="#808080"/>
<path d="M174.703 1.41719C173.973 1.4309 173.246 1.44657 172.517 1.46029C172.519 1.57783 172.519 1.69538 172.521 1.81293C174.164 2.0441 176.201 1.08218 177.331 2.85321C177.686 2.58873 178.123 2.72391 178.527 2.69257C178.123 2.7435 177.684 2.59657 177.319 2.84734C177.57 3.32928 178.032 3.54674 178.669 3.56241C179.549 3.582 180.713 3.6251 180.819 2.81991C180.945 1.85995 179.711 2.27724 179.037 2.15773C178.78 2.11267 178.512 2.11855 177.846 2.07545C179.631 1.4838 181.225 2.24393 182.542 1.46812C182.38 1.45833 182.218 1.44658 182.054 1.43678C179.607 1.4309 177.155 1.42502 174.703 1.41719Z" fill="#0B0B0B"/>
<path d="M137.25 3.19801C137.078 3.20976 136.907 3.21956 136.735 3.23131C139.835 3.70934 142.898 3.59179 145.925 2.863C145.63 2.63574 145.323 2.66905 145.011 2.83753C143.023 2.4555 141.009 2.43003 138.984 2.53191C138.603 3.0883 137.979 3.23523 137.25 3.19801Z" fill="#232323"/>
<path d="M130.273 2.11663C129.665 1.85019 129.07 2.1421 128.469 2.14601C128.343 2.16561 128.215 2.17736 128.087 2.17736C126.746 2.95709 125.097 2.22438 123.705 2.76705C123.56 2.94729 123.565 3.12557 123.717 3.30189C124.309 3.40572 124.898 3.48409 125.471 3.2392C126.517 3.34695 127.563 3.52719 128.609 3.53111C129.227 3.53307 130.694 3.96799 129.855 2.59269C130.131 2.56135 130.406 2.52804 130.684 2.49669C130.781 2.20283 130.66 2.06765 130.273 2.11663Z" fill="#282828"/>
<path d="M145.012 2.83755C145.316 2.84539 145.62 2.85519 145.925 2.86302C147.814 3.11575 149.703 3.03347 151.592 2.85715C151.297 2.62793 151.003 2.39871 150.708 2.1695C149.283 1.76984 147.49 2.92767 146.307 1.49752C145.541 1.73654 145.425 2.38108 145.012 2.83755Z" fill="#393939"/>
<path d="M158.557 2.16947C157.948 2.18711 157.288 2.03822 156.81 2.50253C157.588 2.62791 158.574 2.21257 159.052 3.11573C159.243 3.47816 159.617 3.46053 159.825 3.11573C160.443 2.09111 161.586 2.66513 162.487 2.51428C162.492 2.3889 162.494 2.26351 162.499 2.13813C161.69 1.31726 160.661 1.53276 159.692 1.82663C159.318 1.94026 159.004 2.18906 158.557 2.16947Z" fill="#151515"/>
<path d="M134.634 2.52999C134.177 2.52607 133.723 2.52215 133.266 2.51823C132.993 3.0178 133.015 3.45664 133.822 3.50562C134.704 3.56048 134.945 3.17061 134.634 2.52999Z" fill="#202020"/>
<path d="M125.471 3.23923C124.862 3.22356 124.253 3.20788 123.647 3.19221C122.664 2.54374 121.669 2.771 120.671 3.1687C120.951 3.62126 121.485 3.55073 121.971 3.57816C123.137 3.45473 124.381 3.86223 125.471 3.23923Z" fill="#1F1F1F"/>
<path d="M189.079 3.56836C188.453 2.72986 188.881 2.4595 189.941 2.52807C189.434 2.06768 188.789 1.9756 188.385 2.48889C187.997 2.98063 188.226 3.46649 189.079 3.56836Z" fill="#111111"/>
<path d="M130.273 2.11658C130.409 2.24197 130.546 2.36931 130.684 2.49469C130.957 2.48881 131.23 2.48294 131.501 2.47706C131.513 2.20278 131.464 1.9481 131.146 1.78549C130.856 1.8952 130.563 2.00687 130.273 2.11658Z" fill="#525252"/>
<path d="M107.576 1.7483C107.143 1.77181 106.711 1.79337 106.279 1.81687C106.25 1.91679 106.228 2.01866 106.216 2.12249C106.873 2.54566 107.424 3.17062 108.45 2.89046C108.9 2.865 109.347 2.84149 109.796 2.81602C109.745 2.62207 109.697 2.42811 109.646 2.23416C108.958 2.07352 108.267 1.91091 107.576 1.7483Z" fill="#4F4F4F"/>
<path d="M108.45 2.89042C107.612 2.81401 107.192 1.94025 106.216 2.12245L106.233 2.12833C105.81 2.41632 105.368 2.70039 105.696 3.22739C105.887 3.34493 106.078 3.34493 106.269 3.2313C106.909 2.7474 107.856 3.56043 108.45 2.89042Z" fill="#333333"/>
<path d="M120.671 3.16862C121.664 3.17646 122.657 3.1843 123.647 3.19409C123.688 3.09614 123.722 2.99818 123.751 2.89827C123.024 2.04802 121.922 2.92961 121.099 2.52212L121.062 2.50841C120.632 2.40653 120.521 2.54759 120.637 2.86692C120.647 2.96684 120.657 3.06675 120.671 3.16862Z" fill="#525252"/>
<path d="M111.499 2.86889C110.919 2.85713 110.339 2.84734 109.759 2.83558C110.619 3.43311 111.494 3.38609 112.383 2.87869C112.093 2.64163 111.798 2.6671 111.499 2.86889Z" fill="#3C3C3C"/>
<path d="M119.77 3.22161C118.893 3.34308 117.922 2.99435 117.13 3.55466C118.016 3.47238 118.988 3.8309 119.77 3.22161Z" fill="#1F1F1F"/>
<path d="M111.499 2.86887C111.793 2.87278 112.088 2.87474 112.383 2.87866C112.668 2.64357 112.955 2.41043 113.24 2.17533C112.467 2.08913 111.849 2.25958 111.499 2.86887Z" fill="#4F4F4F"/>
<path d="M106.269 3.22935C106.116 3.22151 105.962 3.21368 105.81 3.20584C105.51 3.00209 105.223 3.03148 104.945 3.23522C105.22 3.44289 105.493 3.65056 105.766 3.85626C106.215 3.85626 106.662 3.85626 107.112 3.8543C106.831 3.64664 106.551 3.43701 106.269 3.22935Z" fill="#1F1F1F"/>
<path d="M120.637 2.86495C120.78 2.74544 120.92 2.62594 121.062 2.50643C120.741 2.11656 120.244 2.17338 119.77 2.17142C119.78 2.42023 119.792 2.66904 119.801 2.91785C120.082 2.90021 120.359 2.88258 120.637 2.86495Z" fill="#3C3C3C"/>
<path d="M121.099 2.52211C121.874 3.14118 122.874 2.73565 123.751 2.89825C125.227 2.77875 126.846 3.21955 128.085 2.17926C127.273 1.70908 126.075 3.10788 125.43 1.82466C124.27 1.69732 123.106 2.2733 121.949 1.81291C121.922 2.24587 121.647 2.4888 121.099 2.52211Z" fill="#606060"/>
<path d="M101.034 3.23724C102.203 3.21961 103.375 3.20198 104.544 3.18434C103.819 2.23221 102.807 2.78664 101.887 2.85325C100.179 3.27642 99.3357 1.30555 97.5867 1.84039C97.2727 2.28707 96.5624 2.54567 96.6059 3.16671C97.205 3.1863 97.8041 3.20589 98.4032 3.22548C99.2801 3.48605 100.157 3.46842 101.034 3.23724Z" fill="#2C2C2C"/>
<path d="M96.6086 3.16666C97.1738 2.83949 97.628 2.45746 97.5893 1.84034C96.466 2.26351 95.2775 2.15184 94.1011 2.12049L93.9658 2.23608C93.5841 3.40372 94.9925 2.81206 95.4104 3.19409C95.809 3.1843 96.2076 3.1745 96.6086 3.16666Z" fill="#575757"/>
<path d="M101.889 2.85327C102.773 2.97473 103.747 2.61817 104.546 3.18436C104.682 3.19415 104.815 3.21179 104.947 3.23334C105.235 3.22354 105.525 3.21374 105.812 3.20395C105.952 2.84347 106.095 2.48495 106.235 2.12447C105.687 2.15778 105.138 2.19304 104.59 2.22635C103.817 2.80037 102.631 2.20088 101.889 2.85327Z" fill="#4B4B4B"/>
<path d="M95.4103 3.19217C94.9876 2.81602 94.0479 2.94532 93.9658 2.23416C93.572 2.22241 93.1782 2.21261 92.7869 2.20086C92.7652 2.53391 92.7434 2.86892 92.7217 3.20197C93.6155 3.19805 94.5117 3.19413 95.4103 3.19217Z" fill="#252525"/>
<path d="M80.1067 3.26077C80.2589 3.26861 80.4135 3.27841 80.5657 3.28624C80.7106 3.35677 80.8628 3.36461 81.0222 3.31955C81.2542 3.22355 81.3846 3.07074 81.4015 2.85915C81.5754 2.05396 83.6119 2.76512 83.1626 1.45251C82.5755 1.45643 81.9885 1.46034 81.4015 1.46622C81.2107 3.13735 79.167 2.08726 78.3408 2.82193C78.5051 3.1589 78.8385 3.33326 79.2467 3.43709C79.5656 3.48215 79.8506 3.41554 80.1067 3.26077Z" fill="#818181"/>
<path d="M79.2662 3.17251C78.9594 3.05497 78.6502 2.93938 78.3434 2.82183L78.1356 2.82967L77.9303 2.80028C77.6573 2.80812 77.3819 2.81596 77.109 2.82379C76.1185 2.74151 75.1474 2.23214 74.1304 2.73759C73.9154 2.90999 73.9057 3.09023 74.1038 3.27831C75.2392 3.47814 76.3698 3.48206 77.4906 3.22149C77.6356 3.22541 77.7805 3.22933 77.9255 3.23129C78.3869 3.45463 78.841 3.54083 79.2662 3.17251Z" fill="#5A5A5A"/>
<path d="M74.0097 3.18047C73.9904 3.08643 73.9662 2.99436 73.9372 2.90228C73.3309 2.47911 72.5023 2.83175 71.8646 2.51633C70.6712 2.15978 69.4948 2.55552 68.3087 2.56335C67.8811 2.65739 67.4511 2.75143 67.0235 2.8435C66.0065 2.84938 64.9919 2.85722 63.9749 2.8631C63.3879 2.59078 62.8444 2.43797 62.627 3.18439C63.2309 3.20986 63.8348 3.23337 64.4411 3.25884C65.1417 3.2608 65.8422 3.26275 66.5428 3.26667C67.0139 3.25884 67.4825 3.251 67.9536 3.24512C68.6444 3.53115 69.4006 3.29998 70.1108 3.4234C71.3283 3.61931 72.5434 3.67221 73.7585 3.39989C73.8406 3.3274 73.9252 3.25492 74.0097 3.18047Z" fill="#303030"/>
<path d="M71.8207 2.87283C72.5261 2.88263 73.2315 2.89438 73.9369 2.90417C74.9925 2.87871 76.0482 2.85128 77.1062 2.82385C76.0772 2.61619 75.338 1.49949 74.0238 2.18518C72.6614 3.12751 72.142 1.98731 71.3617 1.48578C69.9896 2.2753 71.0767 2.53782 71.8207 2.87283Z" fill="#686868"/>
<path d="M71.821 2.87282C71.3355 2.48099 70.7702 2.1068 71.362 1.48576C70.8499 1.20561 70.316 0.997944 69.671 1.13312C69.5599 1.6758 69.5575 2.26745 68.7338 2.49079C68.5912 2.51626 68.4511 2.53977 68.3086 2.56523C69.4174 3.12946 70.6567 2.73176 71.821 2.87282Z" fill="#5C5C5C"/>
<path d="M68.7339 2.49078C69.9369 2.43789 70.1978 1.96182 69.6712 1.13312C69.3595 1.58567 69.0455 2.03823 68.7339 2.49078Z" fill="#686868"/>
<path d="M80.9645 3.19797C80.8292 3.21756 80.6964 3.24695 80.5659 3.28614C81.7931 3.54866 83.0782 4.15207 84.0276 2.87864L83.8174 2.86492L83.6049 2.8708C82.7884 3.30181 81.7883 2.79439 80.9645 3.19797Z" fill="#212121"/>
<path d="M84.8462 2.83754C85.4574 2.95509 86.0709 3.07459 86.6821 3.19214C86.6096 2.75918 86.298 2.53388 85.7642 2.50645C85.4574 2.61616 85.1506 2.72587 84.8462 2.83754Z" fill="#282828"/>
<path d="M80.9644 3.19804C81.8533 3.13926 82.8124 3.43509 83.6047 2.87086C82.8703 2.86694 82.136 2.86303 81.4016 2.85911C81.2567 2.97078 81.1117 3.08441 80.9644 3.19804Z" fill="#5B5B5B"/>
<path d="M87.4795 3.1902C88.2284 3.19608 88.9772 3.19999 89.7285 3.20587C89.9628 2.74352 89.3831 2.50647 89.2744 2.13815C89.2671 2.04412 89.2526 1.95008 89.2309 1.858C87.7597 1.54454 88.4627 3.08832 87.4795 3.1902Z" fill="#282828"/>
<path d="M89.2744 2.13816C88.441 2.76703 89.5957 2.8454 89.7285 3.20587C90.2503 3.00604 90.5547 2.68867 90.5499 2.20673C90.1223 2.18322 89.6996 2.16167 89.2744 2.13816Z" fill="#111111"/>
<path d="M79.266 3.17259C78.8191 3.19218 78.3722 3.21177 77.9253 3.23136C78.0654 3.45274 78.2079 3.67413 78.348 3.89551C78.9351 3.89355 79.5245 3.89355 80.1115 3.89159C80.1115 3.68196 80.1115 3.47234 80.1115 3.26271C79.8264 3.23137 79.5462 3.20198 79.266 3.17259Z" fill="#212121"/>
<path d="M101.034 3.23721C100.157 3.23329 99.2827 3.22741 98.4058 3.22349C99.2778 3.74069 100.155 3.7309 101.034 3.23721Z" fill="#252525"/>
<path d="M77.4881 3.2196C76.3286 3.20589 75.169 3.19413 74.0071 3.18042L74.0047 3.27054C73.7848 3.63689 74.2003 3.72897 74.425 3.90137C74.5723 3.90725 74.7221 3.91312 74.8695 3.92096C75.5459 3.20393 76.8117 3.92684 77.4881 3.2196Z" fill="#212121"/>
<path d="M74.4275 3.90131C74.2874 3.69168 74.1473 3.4801 74.0048 3.27047C72.6955 3.2548 71.3862 3.23717 70.0793 3.22149C69.9174 3.2979 69.8643 3.37626 69.915 3.45463C69.9681 3.53299 70.0213 3.57413 70.0744 3.57413C70.0768 3.67013 70.0841 3.76417 70.0962 3.85821C71.5408 3.87192 72.9829 3.88759 74.4275 3.90131Z" fill="#161616"/>
<path d="M58.7448 2.86495C57.7398 2.85908 56.7349 2.85516 55.73 2.84928C55.5319 2.73761 55.3483 2.75328 55.1792 2.89238C55.37 3.85235 56.5368 3.0687 56.9934 3.55457C57.7181 3.55261 58.4428 3.55065 59.1675 3.54869C59.1748 3.43898 59.1772 3.32927 59.1796 3.2176C59.1337 3.00209 58.8825 2.98838 58.7061 2.90218L58.7448 2.86495Z" fill="#141414"/>
<path d="M56.9932 3.55651C56.4135 3.32729 55.8361 3.10003 55.2563 2.87082C55.5269 2.62789 55.5366 2.287 55.2153 2.19101C54.5051 1.97746 54.7297 2.6945 54.3625 2.85711L54.3408 2.82576C54.1814 3.11571 53.6886 2.96289 53.5122 3.23129C53.5122 3.341 53.5122 3.45071 53.5122 3.56042C54.6742 3.55847 55.8337 3.55651 56.9932 3.55651Z" fill="#131313"/>
<path d="M58.7061 2.90413C58.8631 3.00992 59.0225 3.11571 59.1795 3.21954C60.3294 3.20779 61.4769 3.19603 62.6267 3.18624C62.9842 2.82968 63.4964 2.89825 63.9747 2.86494C63.5012 2.44765 63.8587 1.52687 62.7185 1.51512C62.0059 3.15685 60.2279 2.78854 58.7061 2.90413Z" fill="#606060"/>
<path d="M70.0746 3.57415C70.077 3.4566 70.077 3.33905 70.0794 3.22151C69.3692 3.22934 68.6614 3.23718 67.9536 3.24502C68.5575 3.78182 69.362 3.48599 70.0746 3.57415Z" fill="#151515"/>
<path d="M53.5146 3.22943C53.8625 3.19025 54.2031 3.14127 54.3432 2.8239C53.9132 2.82977 53.4856 2.83565 53.058 2.84153C52.1908 2.84545 51.3212 2.84936 50.4539 2.85328C50.4515 2.96495 50.4467 3.07662 50.437 3.18829C51.4613 3.20201 52.4879 3.21572 53.5146 3.22943Z" fill="#323232"/>
<path d="M66.2264 2.24982C66.1515 1.9873 65.91 1.87955 65.6177 1.87367C65.3374 1.86779 65.0041 1.91089 65.1055 2.23023C65.1418 2.3419 65.4027 2.44573 65.5814 2.47904C65.8375 2.52801 66.1322 2.54369 66.2264 2.24982Z" fill="#B8B8B8"/>
<path d="M54.3626 2.85708C54.6548 3.07258 54.9858 1.76585 55.2564 2.87079C55.4134 2.86491 55.5704 2.85708 55.7274 2.8512C55.7202 2.4966 55.7153 2.142 55.7081 1.7874C54.6983 1.6816 54.3167 2.09302 54.3626 2.85708Z" fill="#1E1E1E"/>
<path d="M177.321 2.84931C178.056 2.77486 178.773 3.29403 180.102 2.73176C178.8 2.45553 178.075 2.26745 177.333 2.85519L177.321 2.84931Z" fill="#404040"/>
</svg>
