<svg width="277" height="3" viewBox="0 0 277 3" fill="none" xmlns="http://www.w3.org/2000/svg" preserveAspectRatio="none">
<path d="M256.629 0.0214281C258.705 0.167223 260.799 0.248351 262.929 0.203672C263.114 0.283624 263.16 0.371807 263.086 0.468219C262.911 0.544644 262.701 0.609312 262.459 0.661045C261.678 0.775095 260.992 0.95146 260.19 1.0514C258.194 1.25481 255.858 0.815071 254.072 1.41824C252.836 1.50877 252.062 1.18779 251.078 1.05022C250.129 0.902077 249.061 0.833883 248.241 0.604608C247.786 0.477626 247.205 0.313018 248.168 0.142532C250.983 0.0684589 253.834 0.269515 256.629 0.0214281Z" fill="#9F9F9F"/>
<path d="M232.062 0.645752C233.078 0.402368 234.097 0.475265 235.116 0.644576C235.326 0.758625 235.291 0.864444 235.011 0.960857C232.314 1.3665 229.478 1.1431 226.704 1.14193C225.058 1.14193 223.43 1.00554 221.745 1.01259C220.271 1.01847 218.888 0.825644 218.608 0.223651C222.18 0.0402319 225.745 0.116657 229.313 0.237761C230.469 0.194257 231.148 0.509363 232.062 0.645752Z" fill="#BABABA"/>
<path d="M235.116 0.856373C235.116 0.785827 235.116 0.715281 235.116 0.644735C237.683 0.0921253 240.53 0.154441 243.381 0.217932C243.843 0.411934 243.966 0.620044 243.64 0.849318C243.44 0.942204 243.181 1.01157 242.87 1.05978C242.257 1.14326 241.612 1.16677 240.958 1.1656C239.592 1.17383 238.219 1.13268 236.857 1.21616C236.549 1.22674 236.244 1.21851 235.943 1.19499C235.484 1.13268 235.197 1.02216 235.116 0.856373Z" fill="#AAAAAA"/>
<path d="M206.05 0.259126C209.429 0.253247 212.809 0.247368 216.185 0.242665C216.622 0.110979 217.088 0.130967 217.564 0.213271C218.069 0.508388 217.743 0.74119 217.071 0.948125C215.915 1.19974 214.623 1.05865 213.39 1.08922C211.114 0.827021 208.687 0.945774 206.365 0.789397C206.109 0.725905 205.92 0.645953 205.801 0.547189C205.766 0.439018 205.84 0.342605 206.05 0.259126Z" fill="#C4C4C4"/>
<path d="M243.36 0.86921C243.367 0.652869 243.374 0.435352 243.381 0.219011C247.769 -0.0572942 252.209 0.0579309 256.629 0.0226579C253.736 0.484734 250.637 0.112016 247.667 0.275448C247.065 0.543522 246.207 0.703427 245.405 0.889198C244.715 0.995017 244.025 1.0785 243.36 0.86921Z" fill="#AFAFAF"/>
<path d="M179.533 0.240187C179.957 0.170816 180.384 0.10027 180.808 0.0309001C184.162 0.0943915 187.517 0.157883 190.872 0.221374C190.9 0.282514 190.925 0.342478 190.953 0.403618C189.486 0.959755 187.51 0.670517 185.756 0.755172C183.749 0.696384 181.673 0.895088 179.739 0.565874C179.407 0.476515 179.337 0.367169 179.533 0.240187Z" fill="#D5D5D5"/>
<path d="M206.05 0.258973C206.046 0.329519 206.043 0.398889 206.032 0.468259C205.181 0.772782 203.84 0.756321 202.901 1.00676C202.103 1.09612 201.357 1.05261 200.65 0.910347C200.047 0.744564 199.196 0.66226 198.979 0.363616C199.494 0.0296982 200.254 0.112002 201.035 0.228403C202.695 0.414174 204.407 -0.276001 206.05 0.258973Z" fill="#B4B4B4"/>
<path d="M190.872 0.220054C192.77 -0.127972 194.661 0.422286 196.559 0.22123C196.608 0.270612 196.657 0.319994 196.706 0.369376C195.834 0.844386 194.483 0.885538 193.015 0.829101C192.084 0.739743 191.31 0.584542 190.939 0.263558L190.872 0.220054Z" fill="#D5D5D5"/>
<path d="M201.032 0.227195C200.338 0.250711 199.599 0.224844 199.07 0.428251C198.888 0.496446 198.661 0.53407 198.384 0.537598C197.701 0.516434 197.085 0.445888 196.637 0.260117L196.563 0.222492C198.055 -0.0655705 199.547 -0.0843827 201.032 0.227195Z" fill="#D5D5D5"/>
<path d="M229.411 0.440038C229.912 0.223697 230.626 0.246036 231.323 0.251915C231.568 0.383601 231.817 0.515287 232.062 0.646973C231.18 0.577602 230.297 0.508232 229.411 0.440038Z" fill="#C2C2C2"/>
<path d="M0.767334 0.899828C0.770836 0.829282 0.770836 0.758736 0.774338 0.68819C5.47399 0.233169 10.2507 0.384842 15.0449 0.4354C21.6251 0.505946 28.2123 0.463619 34.7995 0.469497C35.0237 0.568262 35.0027 0.662323 34.74 0.750506C34.4809 0.817524 34.1902 0.865731 33.8715 0.895125C33.0591 0.95744 32.2326 0.94921 31.4061 0.958616C30.7162 0.963319 30.0264 0.964495 29.3365 0.966846C27.5049 0.966846 25.6769 0.966846 23.8489 0.970374C20.3749 0.968022 16.9009 0.969198 13.427 0.97155C9.88298 1.01623 6.31797 0.853973 2.79498 1.09971C2.05606 1.14909 1.33465 1.08913 0.767334 0.899828Z" fill="#787878"/>
<path d="M132.148 0.456553C137.411 0.423631 142.671 0.389534 147.935 0.356612C147.462 1.11263 145.347 1.06795 143.806 1.30546C142.825 1.38541 141.82 1.37835 140.822 1.38306C137.922 1.33955 135.289 0.893938 132.445 0.766955C132.158 0.683476 132.06 0.580008 132.148 0.456553Z" fill="#9B9B9B"/>
<path d="M132.147 0.456587C132.137 0.52243 132.13 0.589449 132.123 0.655292C132.042 0.692916 131.962 0.729365 131.881 0.766989C131.065 0.932773 130.204 1.07504 129.398 1.24788C127.297 1.61707 125.686 0.923366 123.736 0.958639C123.126 0.959815 122.517 0.960991 121.908 0.960991C120.941 0.959815 119.974 0.959815 119.011 0.959815C118.346 0.958639 117.677 0.96687 117.019 0.923366C116.508 0.885742 116.066 0.806966 115.727 0.671752C114.658 0.615316 113.443 0.791681 112.55 0.45306C119.085 0.454236 125.616 0.455411 132.147 0.456587Z" fill="#B5B5B5"/>
<path d="M154.826 0.426149C157.123 0.0604856 159.61 0.155723 161.907 0.280354C165.045 0.452016 168.158 0.419094 171.285 0.439082C171.594 0.355603 171.895 0.357955 172.193 0.446137C173.096 1.26917 172.826 1.3938 170.116 1.40674C168.54 0.992868 166.715 0.91174 164.786 0.969353C163.949 0.968177 163.122 0.941135 162.306 0.877643C160.132 0.608393 157.799 0.879995 155.611 0.656599C155.281 0.608393 155.019 0.530792 154.826 0.426149Z" fill="#A8A8A8"/>
<path d="M154.826 0.425849C155.106 0.447013 155.39 0.468177 155.67 0.48934C155.898 0.578699 156.038 0.68099 156.101 0.797391C155.471 2.01431 153.002 1.28651 151.24 1.31238C150.379 1.20421 149.797 1.0102 149.58 0.705681C149.545 0.584577 149.668 0.485813 149.948 0.407037C150.333 0.425849 150.722 0.444661 151.107 0.464649C152.382 0.666881 153.618 0.458771 154.872 0.427025C154.872 0.425849 154.826 0.425849 154.826 0.425849Z" fill="#9E9E9E"/>
<path d="M149.948 0.407095C149.92 0.488223 149.892 0.568175 149.861 0.649302C149.416 0.92208 148.59 1.03966 147.875 1.20544C146.86 1.35711 145.823 1.38651 144.765 1.25717C144.485 1.20779 144.279 1.13489 144.146 1.03966C145.347 0.772758 146.93 0.742188 147.935 0.355361C148.621 0.303627 149.328 0.173117 149.948 0.407095Z" fill="#797979"/>
<path d="M172.01 0.474196C171.769 0.462438 171.527 0.451856 171.289 0.440099C173.951 -0.0290321 176.787 0.320171 179.533 0.240218C179.54 0.307237 179.547 0.374256 179.557 0.44245C179.053 0.674076 178.304 0.722282 177.523 0.74227C175.663 0.706997 173.695 0.915108 172.01 0.474196Z" fill="#C1C1C1"/>
<path d="M154.872 0.425938C153.65 0.784547 152.389 0.751626 151.107 0.463563C152.365 0.461211 153.594 0.171972 154.872 0.425938Z" fill="#A8A8A8"/>
<path d="M65.7779 2.95488C62.5105 2.58451 59.1486 2.84671 55.8323 2.79497C52.3758 2.74207 48.9123 2.76323 45.4524 2.75147C46.6431 1.97782 48.8633 2.20121 50.7089 2.20004C58.014 2.19651 65.3191 2.28469 72.6242 2.25059C81.4107 2.20944 90.1971 2.24824 98.9836 2.25295C102.629 2.20004 106.303 2.39051 109.927 2.12126C112.634 1.98017 115.264 2.35759 117.971 2.25059C126.611 2.25765 135.25 2.25177 143.886 2.25177C146.404 2.25412 148.925 2.25765 151.443 2.25059C152.746 2.2553 154.045 2.17417 155.348 2.24589C156.787 2.26588 158.227 2.25765 159.666 2.25647C160.023 2.25412 160.38 2.25412 160.734 2.2553C162.152 2.26 163.574 2.25883 164.992 2.25647C166.064 2.25647 167.136 2.25647 168.207 2.2553C170.736 2.30468 173.289 2.15301 175.796 2.36582C176.143 2.42226 176.388 2.50926 176.538 2.62802C171.131 2.97957 165.672 2.7597 160.24 2.76911C137.022 2.81026 113.804 2.80203 90.5859 2.81144C85.9948 2.95841 81.3932 2.8326 76.7986 2.87963C75.6604 2.89139 74.4943 2.80673 73.3842 2.95605C70.8487 2.95488 68.3133 2.95488 65.7779 2.95488Z" fill="#A3A3A3"/>
<path d="M213.089 2.5412C209.496 2.74108 205.787 2.29782 202.24 2.75637C196.388 2.46948 190.532 2.50123 184.681 2.74226C181.935 2.85513 179.277 2.43774 176.535 2.62939C176.444 2.59294 176.353 2.55649 176.258 2.52122C176.178 2.39071 176.304 2.28959 176.637 2.21669C178.328 1.94391 180.139 2.09559 181.897 2.04973C182.436 2.04738 182.975 2.04738 183.515 2.04856C184.436 2.04856 185.357 2.04738 186.278 2.04621C191.079 2.04738 195.88 2.04621 200.681 2.04503C201.259 2.04385 201.833 2.04385 202.411 2.04503C205.843 2.12733 209.324 1.87925 212.721 2.21199C213.092 2.28959 213.211 2.40011 213.089 2.5412Z" fill="#A3A3A3"/>
<path d="M73.3843 2.95625C79.0925 2.58001 84.8533 2.85279 90.586 2.81163C84.8778 3.16319 79.1205 2.90334 73.3843 2.95625Z" fill="#B4B4B4"/>
<path d="M212.945 2.37777C209.391 2.36836 205.836 2.36013 202.282 2.35073C202.215 1.8522 203.539 1.86631 204.4 1.70876C205.952 1.59589 207.507 1.58648 209.065 1.6876C211.152 1.88983 213.239 1.93098 215.334 1.69465C216.727 1.53122 218.132 1.38072 219.641 1.45715C220.986 1.56532 222.355 1.58295 223.731 1.54886C224.039 1.55826 224.337 1.58295 224.628 1.62058C226.018 2.00505 227.983 1.69935 229.39 2.06031C229.548 2.11793 229.608 2.17907 229.576 2.24138C229.541 2.30487 229.499 2.33779 229.454 2.33779C225.076 2.49064 220.692 2.39541 216.311 2.38718C215.183 2.48594 214.062 2.50123 212.945 2.37777Z" fill="#2D2D2D"/>
<path d="M277 1.95215C273.726 2.6094 270.077 2.23198 266.631 2.31428C261.427 2.43891 256.177 2.3425 250.945 2.34015C250.735 2.23433 250.77 2.13674 251.043 2.04738C251.313 1.97801 251.614 1.92981 251.94 1.89806C252.777 1.83574 253.635 1.84985 254.482 1.82516C257.848 1.49477 261.206 1.94979 264.572 1.83339C267.604 1.93451 270.525 1.52887 273.554 1.62411C274.769 1.66173 276.09 1.56179 277 1.95215Z" fill="#2D2D2D"/>
<path d="M229.453 2.33643C229.457 2.27529 229.46 2.21532 229.464 2.15418C230.612 1.93431 231.768 2.07188 232.633 2.04836C231.698 1.80028 229.313 2.39992 228.672 1.57218C228.932 1.40287 229.394 1.35584 229.912 1.34055C231.884 1.58864 234.293 0.999579 236.034 1.69563C236.352 1.92373 236.293 2.13302 235.767 2.32114C233.663 2.32584 231.558 2.33172 229.453 2.33643Z" fill="#323232"/>
<path d="M235.767 2.32125C235.767 2.12725 235.767 1.93443 235.764 1.74043C235.95 1.65459 236.195 1.59581 236.496 1.56053C237.469 1.49469 238.317 1.63343 239.185 1.7416C239.959 1.93443 241.504 1.80509 241.462 2.34242C239.56 2.4353 237.662 2.41767 235.767 2.32125Z" fill="#3B3B3B"/>
<path d="M250.917 2.15549C250.928 2.21663 250.935 2.27777 250.942 2.34009C248.413 2.34009 245.881 2.34009 243.353 2.34009C243.206 1.90741 244.333 1.90858 245.069 1.77454C246.246 1.66755 247.408 1.7475 248.578 1.79688C249.418 1.87213 250.371 1.86625 250.917 2.15549Z" fill="#3B3B3B"/>
<path d="M245.157 1.94982C244.558 2.08033 243.955 2.21084 243.356 2.34018C242.726 2.34135 242.096 2.34135 241.465 2.34253C240.842 2.02978 239.396 2.2614 238.846 1.89927C238.986 1.85694 239.13 1.81579 239.27 1.77346C241.29 1.6065 243.314 1.43366 245.157 1.94982Z" fill="#1A1A1A"/>
<path d="M212.945 2.37767C214.066 2.38002 215.186 2.38355 216.31 2.3859C215.323 2.63281 214.223 2.62223 213.092 2.5411C213.054 2.48584 213.005 2.43058 212.945 2.37767Z" fill="#5D5D5D"/>
<path d="M253.784 1.3317C257.878 0.000456986 265.477 1.06813 271.193 0.847368C273.221 1.22734 271.888 1.52169 269.899 1.79864C264.531 1.80533 259.095 1.9137 253.881 1.63273C253.437 1.56851 253.273 1.50296 253.398 1.43472C253.514 1.36515 253.649 1.3317 253.784 1.3317Z" fill="#4E4E4E"/>
<path d="M245.373 0.689359C245.941 0.428339 246.554 0.195537 247.671 0.275489C248.991 0.454206 250.311 0.632922 251.631 0.810463C251.544 0.859845 251.456 0.910403 251.372 0.959785C249.817 1.2937 248 1.11146 246.343 1.24902C245.468 1.16907 244.487 1.10793 245.373 0.689359Z" fill="#6B6B6B"/>
<path d="M254.104 1.29951C254.129 1.38299 254.157 1.46765 254.181 1.55113C254.286 1.66753 254.188 1.76041 253.894 1.83096C253.607 1.88269 253.299 1.91209 252.973 1.91914C251.705 1.9015 250.409 2.0132 249.184 1.81685C248.609 1.61697 248.921 1.44296 249.327 1.27129C249.923 1.05025 251.064 1.1984 251.562 0.904454L251.628 0.810393C252.665 0.853896 252.941 1.32655 254.104 1.29951Z" fill="#595959"/>
<path d="M223.777 1.69808C222.53 2.0026 221.259 2.03317 219.959 1.7357C219.29 1.44411 218.429 1.23482 217.452 1.07492C217.21 1.02554 217.021 0.959696 216.871 0.879744C217.074 0.669281 217.273 0.457644 217.476 0.247181C217.886 0.246006 218.296 0.24483 218.706 0.243654C221.29 1.05728 224.67 0.61402 227.636 0.840943C230.01 1.02201 232.615 0.864459 235.116 0.857404C235.34 0.929126 235.568 1.00202 235.792 1.07375C235.942 1.13018 235.998 1.18897 235.96 1.24893C235.921 1.31007 235.879 1.34064 235.837 1.34064C233.897 1.23953 232.038 1.80154 230.063 1.41707C227.909 1.36886 225.976 1.86621 223.777 1.69808Z" fill="#929292"/>
<path d="M245.373 0.689482C245.338 0.977545 245.769 1.09512 246.603 1.06573C247.559 0.99283 248.602 0.787071 249.201 1.2562C248.063 1.73709 246.35 1.51722 244.925 1.65008C244.582 1.66654 244.246 1.66066 243.909 1.63245C242.981 1.47489 241.962 1.33145 242.715 0.877605C242.929 0.875253 243.146 0.872901 243.36 0.87055C244.032 0.80941 244.701 0.749446 245.373 0.689482Z" fill="#969696"/>
<path d="M236.342 1.07249C237.707 0.684486 239.315 0.9361 240.807 0.883191C241.244 1.18066 240.859 1.40053 240.204 1.5957C239.753 1.67331 239.273 1.69094 238.776 1.6639C237.974 1.46284 236.324 1.64861 236.342 1.07249Z" fill="#7E7E7E"/>
<path d="M240.208 1.50179C240.407 1.29603 240.607 1.0891 240.803 0.883339C241.44 0.880988 242.078 0.878636 242.715 0.877461C242.659 1.19609 243.573 1.29133 244 1.49826C242.74 1.80514 241.475 1.80161 240.208 1.50179Z" fill="#898989"/>
<path d="M236.342 1.07245C237.203 1.21707 238.061 1.36051 238.923 1.50513C239.133 1.55804 239.252 1.62741 239.284 1.71442C239.231 1.80143 239.087 1.86374 238.842 1.89902L238.846 1.90137C238.03 1.82847 237.214 1.75675 236.398 1.68385C235.957 1.59802 235.365 1.53806 235.775 1.2982C235.782 1.22413 235.785 1.14888 235.792 1.0748L236.065 1.07716L236.342 1.07245Z" fill="#959595"/>
<path d="M206.13 0.639982C208.662 0.594127 211.212 0.480078 213.635 0.850444C213.863 0.955087 213.852 1.0562 213.6 1.15379C212.483 1.41834 211.327 1.29136 210.172 1.1973C208.753 1.095 207.051 1.32428 205.99 0.802238C206.039 0.749328 206.085 0.695243 206.13 0.639982Z" fill="#929292"/>
<path d="M213.656 1.08205C213.649 1.00563 213.645 0.928029 213.638 0.851604C214.717 0.86101 215.792 0.870416 216.871 0.879822C217.077 0.882174 217.284 0.885701 217.491 0.892756C217.662 1.47829 216.447 1.65583 215.106 1.7981C214.356 1.7252 213.873 1.54766 213.47 1.3372C213.376 1.23961 213.432 1.15378 213.656 1.08205Z" fill="#8F8F8F"/>
<path d="M202.866 0.86448C203.36 0.233094 204.87 0.505871 206.032 0.468247C206.074 0.524684 206.109 0.582296 206.13 0.641085L206.046 0.677533C205.461 0.966772 204.649 1.07965 203.623 1.03614C203.318 1.0044 203.066 0.946784 202.866 0.86448Z" fill="#929292"/>
<path d="M177.624 0.454162C178.269 0.450634 178.913 0.445931 179.554 0.442404C181.655 0.44358 183.753 0.445931 185.854 0.447107C186.067 0.557629 186.036 0.657569 185.756 0.750455C183.374 1.01148 180.902 1.11142 178.419 1.20312C177.596 1.01971 177.235 0.781025 177.624 0.454162Z" fill="#AEAEAE"/>
<path d="M185.868 0.642216C185.861 0.576373 185.857 0.511706 185.857 0.445863C187.556 0.395305 189.342 0.619876 190.942 0.262443C191.579 0.38825 192.22 0.514057 192.858 0.639864C192.77 0.67984 192.683 0.718641 192.598 0.759792C191.25 1.03375 189.779 0.997297 188.302 0.953794C188 0.951442 187.703 0.942036 187.405 0.930278C186.792 0.892654 186.211 0.836217 185.868 0.642216Z" fill="#B4B4B4"/>
<path d="M202.866 0.864469C203.094 0.869172 203.325 0.872699 203.553 0.877402C203.357 1.54053 202.32 1.78862 200.387 1.59344C199.554 1.3336 199.256 1.0232 199.603 0.654006C200.072 0.550539 200.538 0.535254 200.993 0.664588C201.466 0.886808 202.177 0.865644 202.866 0.864469Z" fill="#8D8D8D"/>
<path d="M200.993 0.663475C200.562 0.665826 200.131 0.668178 199.704 0.67053C199.133 0.85395 198.524 0.845719 197.89 0.710506C197.683 0.514152 197.771 0.391872 198.51 0.4342H198.79L199.07 0.429497C199.75 0.471825 200.541 0.41186 200.993 0.663475Z" fill="#929292"/>
<path d="M198.51 0.434259C198.303 0.514211 198.093 0.594163 197.886 0.675291C197.662 0.905741 197.137 1.02097 196.486 1.09269C196.167 1.12561 195.841 1.14325 195.509 1.14795C194.42 1.1068 193.075 1.23143 192.767 0.68117L192.854 0.64237C194.244 0.657655 195.495 0.521266 196.633 0.260246C197.312 0.253191 198.009 0.224973 198.51 0.434259Z" fill="#B4B4B4"/>
<path d="M99.2743 2.5363C82.4578 2.55746 65.6413 2.57745 48.8248 2.60567C47.6937 2.60802 46.4995 2.51278 45.4489 2.75146C37.1107 2.59391 28.776 2.66681 20.4343 2.72913C14.0887 2.77733 7.72914 2.6139 1.37655 2.54335C1.01235 2.15888 2.01391 2.07657 2.62326 1.90962C2.83338 1.84612 3.17657 1.77323 2.89641 1.67211C2.60575 1.56629 2.13298 1.60392 1.72325 1.60157C1.40457 1.60509 1.1104 1.58393 0.823242 1.53807C1.22947 0.640964 3.61082 0.883172 5.13768 0.800869C7.39295 0.678589 9.75328 0.769123 12.0611 0.769123C13.8891 0.923148 15.7592 0.852602 17.6117 0.879645C18.3857 0.891402 19.4993 0.816153 19.5658 1.1971C19.6183 1.49222 18.5993 1.49339 17.9339 1.56394C17.5837 1.60039 17.0829 1.54983 16.9323 1.74031C17.9164 1.91314 18.7394 1.82379 19.4993 1.59804C19.7304 1.52867 19.937 1.45459 20.1296 1.37347C21.8736 0.464599 24.5596 1.02897 26.7939 0.892578C29.9107 1.19357 33.1045 1.3088 36.3368 1.29234C37.4014 1.28646 38.5115 1.22297 39.3765 1.44754C40.4586 1.72855 41.0925 1.40992 41.8979 1.30762C44.5349 1.21239 47.2104 1.51221 49.8299 1.21709C52.2288 1.14537 54.2354 2.04483 56.8128 1.52632C57.1035 1.49927 57.3977 1.48399 57.6988 1.47458C60.3744 1.5463 63.0604 1.48046 65.7394 1.53455C69.8892 1.74736 74.0496 1.90374 78.2449 1.72032C79.3095 1.33467 80.5107 1.12773 82.0726 1.38875C82.9061 1.86376 83.659 1.64272 84.4049 1.35465C85.1123 1.24061 85.8652 1.21239 86.6322 1.21356C87.0874 1.21004 87.5427 1.21239 87.9979 1.22532C90.1096 2.05659 92.9042 1.76617 95.5447 1.72855C97.0365 1.9249 98.7105 1.74501 100.185 1.97428C100.479 2.03072 100.665 2.1142 100.745 2.22355C100.654 2.53865 99.6945 2.39521 99.2743 2.5363Z" fill="#020202"/>
<path d="M12.7021 0.879812C9.21759 0.900976 5.70161 0.749302 2.28018 1.09615C1.55177 1.17023 1.55527 1.17493 2.00002 1.51708C2.12959 1.5935 2.11558 1.6664 1.95099 1.73577C-0.367318 1.76046 -0.426852 1.4289 0.767323 0.898625C4.91016 0.649362 9.07401 0.545895 13.2764 0.695217C13.4515 0.734018 13.532 0.779872 13.5145 0.831606C13.497 0.888043 13.4655 0.915086 13.4165 0.915086C13.1503 0.962116 12.9157 0.946831 12.7021 0.879812Z" fill="#111111"/>
<path d="M1.95087 1.73688C1.96838 1.66398 1.98239 1.59109 1.9999 1.51701L1.98239 1.51584C2.65827 1.35005 3.45672 1.33124 3.92598 1.54641C4.46529 1.79449 3.88396 1.99437 3.23259 2.13899C2.39562 2.16251 1.72324 2.26833 1.37655 2.54346C-0.363935 2.12136 1.56916 1.99085 1.95087 1.73688Z" fill="#363636"/>
<path d="M100.532 2.34843C100.532 2.28024 100.525 2.21322 100.514 2.1462C100.808 1.94397 101.439 1.86519 101.904 1.7241C102.111 1.67001 102.339 1.62769 102.58 1.59594C102.973 1.56184 103.361 1.56772 103.746 1.61122C104.002 1.6465 104.237 1.69118 104.468 1.74174C105.399 1.91457 106.401 1.84991 107.385 1.84168C108.915 1.81463 109.64 1.38195 110.68 1.11035C111.321 1.09977 111.959 1.08918 112.599 1.0786C112.831 1.18089 113.198 1.20676 113.506 1.2679C114.06 1.35726 114.529 1.4913 115.089 1.57713C115.972 1.68647 116.851 1.66178 117.733 1.58183C118 1.55361 118.266 1.53598 118.539 1.52304C119.103 1.49718 119.663 1.51128 120.216 1.54538C121.288 1.71469 122.972 1.42075 123.48 2.02157C123.263 2.32609 122.468 2.36959 121.754 2.44837C120.377 2.50833 118.959 2.35549 117.611 2.54126C115.1 2.71409 112.677 2.44837 110.215 2.3743C106.982 2.49775 103.757 2.5295 100.532 2.34843Z" fill="#1A1A1A"/>
<path d="M62.0032 0.684586C66.6293 0.898576 71.2519 0.639907 75.878 0.685762C76.1021 0.985582 76.8516 1.17253 77.2928 1.42767C76.9881 1.64989 76.4138 1.71456 75.7484 1.72867C73.1184 1.85565 70.457 1.66518 67.834 1.82038C66.4717 1.84036 65.9079 1.40651 64.8748 1.24072C63.7822 1.13373 62.1923 1.30892 62.0032 0.684586Z" fill="#6F7070"/>
<path d="M75.8496 1.51823C76.2909 1.44533 76.7356 1.37125 77.1769 1.29836C77.2994 0.570558 79.6002 1.05615 80.3286 0.666971C82.0166 0.666971 83.701 0.668147 85.3855 0.668147C85.6586 1.59112 83.7711 1.44533 82.1076 1.40418C80.4617 1.3642 78.8088 1.31364 78.2029 2.01557C77.0928 2.0238 75.8636 2.08965 75.8496 1.51823Z" fill="#5D5D5D"/>
<path d="M94.2175 0.663308C97.5794 0.780885 101.022 0.428155 104.335 0.852606C104.051 1.61333 102.177 1.27 100.976 1.39346C99.0467 1.53338 97.1381 1.4499 95.233 1.32644C94.3715 1.19475 93.5451 1.05601 94.2175 0.663308Z" fill="#999999"/>
<path d="M78.3642 1.91932C77.6182 1.17977 79.3762 1.36671 80.4408 1.28559C82.1708 1.1539 84.4646 1.52544 85.3891 0.670661C86.002 0.687121 86.6148 0.702406 87.2242 0.718867C87.6094 0.801171 87.6759 0.925802 87.6269 1.06454C87.5043 1.25149 87.0596 1.35848 86.6989 1.48664C85.8444 1.49487 84.9934 1.5031 84.1389 1.51133C83.4841 1.68652 82.8222 1.70651 82.1568 1.51839C81.0047 1.54896 79.5513 1.33614 79.1101 1.93931C78.8404 2.01809 78.5918 2.01103 78.3642 1.91932Z" fill="#282828"/>
<path d="M103.704 1.9322C103.676 1.87224 103.662 1.8111 103.659 1.74996C103.347 1.62062 103.291 1.47953 103.487 1.32786C103.858 1.20322 104.272 1.23379 104.688 1.29376C106.229 1.61945 107.423 1.19264 108.765 1.08094C109.402 1.09035 110.043 1.09976 110.68 1.10799C110.775 1.84167 109.227 2.01215 107.532 2.13208C106.341 1.87811 104.892 2.18617 103.704 1.9322Z" fill="#3C3C3C"/>
<path d="M62.0028 0.684612C62.8783 1.09495 64.111 0.910359 65.2387 0.898602C65.7044 1.41476 64.6643 1.52764 63.5612 1.51353C62.2095 1.49707 60.8717 1.57702 59.5304 1.52646C59.1837 1.50765 58.8476 1.4759 58.5219 1.4324C57.2752 0.958566 59.0262 0.905657 59.4849 0.670503C60.3219 0.675206 61.1624 0.679909 62.0028 0.684612Z" fill="#606060"/>
<path d="M94.2177 0.66332C94.2632 0.932571 94.708 1.07014 95.4994 1.09248C95.2473 1.68036 95.2473 1.68036 92.078 1.56513C91.7523 1.54632 91.4407 1.51105 91.1395 1.46402C90.292 1.2806 89.49 1.0866 89.7772 0.682133C91.2585 0.675078 92.7399 0.669199 94.2177 0.66332Z" fill="#6F6F6F"/>
<path d="M108.762 1.08091C107.68 1.69937 106.338 2.01094 104.307 1.49831C104.717 1.37838 104.412 1.11854 105.088 1.05034C105.767 1.0233 106.566 1.20672 107.109 0.937469C108.086 0.453054 108.303 0.918657 108.762 1.08091Z" fill="#7A7A7A"/>
<path d="M113.17 1.3042C112.981 1.22895 112.788 1.1537 112.599 1.07727C113.804 1.07963 115.058 1.12901 115.727 0.671635C116.14 0.671635 116.553 0.671635 116.966 0.672811C117.45 0.808024 117.639 1.01966 118.104 1.15958C118.301 1.21719 118.444 1.28539 118.546 1.36534C118.619 1.49937 118.574 1.6193 118.164 1.68985L118.217 1.70161C117.551 1.91207 116.735 1.79214 115.986 1.81448C114.984 1.68279 114.144 1.45234 113.17 1.3042Z" fill="#A0A0A0"/>
<path d="M80.3324 0.668156C79.8316 1.18549 78.0036 0.962097 77.1771 1.29954C75.5172 1.3842 75.6467 1.04793 75.8779 0.685792C77.3627 0.679913 78.8475 0.674034 80.3324 0.668156Z" fill="#7C7C7C"/>
<path d="M89.7771 0.680956C90.2148 0.883188 90.6561 1.08424 91.0938 1.28648C90.2884 1.56866 89.3463 1.28177 88.4883 1.35702C87.9876 1.29941 87.4342 1.26649 87.2136 1.07013C87.2171 0.952558 87.2206 0.834982 87.2241 0.717405C88.0751 0.705647 88.9261 0.692714 89.7771 0.680956Z" fill="#464646"/>
<path d="M105.091 1.05026C104.958 1.22427 104.885 1.41004 104.31 1.49822C104.107 1.43238 103.908 1.36654 103.704 1.30187C103.242 1.48647 102.51 1.50528 101.929 1.61698C101.652 1.64167 101.376 1.64637 101.092 1.63226C100.318 1.51586 99.9048 1.35831 100.546 1.08553C101.796 0.980886 103.274 1.29482 104.335 0.852728C104.587 0.918571 104.839 0.984414 105.091 1.05026Z" fill="#525252"/>
<path d="M59.4813 0.670424C59.5128 0.986705 58.6093 1.08077 58.175 1.28535C56.2279 1.44525 56.4241 1.10546 56.9388 0.692764L56.9423 0.604581C57.7863 0.625745 58.6338 0.648085 59.4813 0.670424Z" fill="#777777"/>
<path d="M34.8589 0.648123C39.2679 0.646947 43.6734 0.645772 48.0824 0.644596C48.7373 0.912671 48.4256 1.12431 47.7357 1.31361C46.1003 1.59226 44.5734 1.15605 42.8995 1.22307C42.1185 1.25482 41.6703 1.42648 40.9909 1.45117C38.7216 1.28539 36.2667 1.68045 34.106 1.19485C33.8083 1.02437 33.7733 0.85741 34.155 0.69633C34.3897 0.679869 34.6243 0.663408 34.8589 0.648123Z" fill="#4A4A4A"/>
<path d="M34.2393 1.06091C36.6347 1.55238 39.2507 1.22317 41.7616 1.28313C41.9262 1.33251 41.9857 1.38189 41.9367 1.43245C41.8876 1.48419 41.8351 1.50888 41.7791 1.50888C41.2468 1.84162 40.9946 2.47065 39.4117 1.81105C38.4872 1.4254 37.4121 1.59118 36.281 1.57707C33.2168 1.53945 30.0825 1.58295 27.2284 1.08795C27.0743 1.03857 27.0148 0.985661 27.0393 0.9304C27.0673 0.872787 27.1058 0.844569 27.1478 0.844569C28.0163 0.771671 29.0739 1.02093 29.7848 0.674083C30.3977 0.676434 31.007 0.679962 31.6199 0.682313C32.3483 0.919818 33.7105 0.66938 34.2393 1.06091Z" fill="#161616"/>
<path d="M13.4094 0.861102C13.3744 0.804665 13.3324 0.75058 13.2764 0.696495C16.8834 0.702373 20.4939 0.708252 24.101 0.715307C24.2025 0.866981 24.0204 0.951636 23.5582 0.969272C20.1718 0.98926 16.7748 1.08802 13.4094 0.861102Z" fill="#404040"/>
<path d="M24.0696 0.850426C24.0731 0.804571 24.0871 0.759892 24.1046 0.714037C25.9992 0.699928 27.8937 0.686994 29.7918 0.672885C29.4906 1.51003 28.2719 1.05971 27.2424 0.876293C26.1708 1.01856 25.1097 1.05971 24.0696 0.850426Z" fill="#373737"/>
<path d="M34.2392 1.06078C33.6613 1.03021 33.108 0.832686 32.5022 1.01846C32.1835 1.11605 31.8193 1.24068 31.5216 1.06902C31.364 0.977305 31.5812 0.812698 31.6267 0.681012C32.4707 0.685715 33.3146 0.690418 34.1586 0.695121C34.1831 0.817401 34.2111 0.938505 34.2392 1.06078Z" fill="#373737"/>
<path d="M132.123 0.655253C135.261 0.454197 138.038 1.03503 141.046 1.11263C141.067 1.23255 140.937 1.33132 140.657 1.40774C139.05 1.70639 137.418 1.56412 135.786 1.43831C133.492 1.32779 131.836 2.16494 129.447 1.9192C128.246 1.68758 126.261 2.00033 125.704 1.32074C126.968 1.00798 128.547 1.35719 129.84 1.10204C130.372 0.822212 131.573 0.925679 132.123 0.655253Z" fill="#7A7A7A"/>
<path d="M140.92 1.2715C140.951 1.21741 140.997 1.1645 141.046 1.11159C142.079 1.08808 143.112 1.06339 144.145 1.03987L144.103 1.13041C144.177 1.40906 143.55 1.45374 142.962 1.51253C142.331 1.54075 141.736 1.51488 141.193 1.39495C141.102 1.3538 141.011 1.31265 140.92 1.2715Z" fill="#575757"/>
<path d="M130.249 1.08677C128.898 1.49712 127.189 1.17966 125.714 1.33721C125.175 1.52298 124.513 1.51711 123.827 1.4689C123.571 1.4395 123.347 1.3913 123.158 1.32781C123.042 1.24668 123 1.16202 123.025 1.07267C123.154 0.893949 123.571 0.784603 123.921 0.658796C125.956 0.567087 127.399 1.37366 129.57 1.07267C129.812 1.00094 130.039 1.01035 130.249 1.08677Z" fill="#8D8D8D"/>
<path d="M118.231 1.2891C117.765 1.33025 117.089 1.45724 116.872 1.39727C116.063 1.1727 117.138 0.92344 116.97 0.671826C117.604 0.67065 118.241 0.668298 118.875 0.665947C119.502 0.972822 119.124 1.16094 118.231 1.2891Z" fill="#A3A3A3"/>
<path d="M118.23 1.28896C118.444 1.08202 118.661 0.873911 118.875 0.666976C119.929 0.666976 120.983 0.666976 122.037 0.666976C122.352 0.906833 121.95 1.06086 121.466 1.20665C120.489 1.37361 119.509 1.54763 118.385 1.34069C118.381 1.34069 118.23 1.28896 118.23 1.28896Z" fill="#A0A0A0"/>
<path d="M130.249 1.08691C130.022 1.08221 129.798 1.07751 129.57 1.0728C129.861 0.553116 131.1 0.681275 132.12 0.656584C132.063 1.07398 131.153 1.07751 130.249 1.08691Z" fill="#9B9B9B"/>
<path d="M121.382 1.04804C121.599 0.921056 121.817 0.794073 122.034 0.66709C122.664 0.664739 123.291 0.661212 123.921 0.65886C123.9 0.836401 123.757 0.992778 123.259 1.08919C122.601 1.25027 121.967 1.27143 121.382 1.04804Z" fill="#959595"/>
<path d="M162.478 0.66099C163.322 0.663342 164.166 0.666869 165.013 0.66922C167.237 1.14305 167.202 1.21595 164.422 1.83558C164.092 1.86615 163.756 1.87438 163.413 1.86497C161.645 1.69802 158.952 1.97902 159.109 0.877331C160.079 0.542238 161.336 0.706845 162.478 0.66099Z" fill="#909090"/>
<path d="M177.624 0.454143C177.842 0.662253 178.059 0.870364 178.276 1.07847C178.861 1.31951 180.755 1.0091 180.408 1.64402C179.82 1.92503 179.043 1.79334 178.311 1.75454C178.031 1.72515 177.761 1.68282 177.512 1.63108C176.815 1.47588 176.511 1.1984 175.856 1.03144C175.134 0.942086 174.634 1.09141 174.101 1.20898C172.844 1.57112 171.629 2.02967 169.945 1.41592C170.001 1.36889 170.057 1.32068 170.116 1.27365C172.137 1.37594 172.452 1.02557 172.014 0.475307C173.884 0.467076 175.754 0.461198 177.624 0.454143Z" fill="#8C8C8C"/>
<path d="M164.362 1.67935C164.811 1.35954 167.153 1.17494 165.01 0.669365C166.88 0.710517 169.09 0.43186 170.109 1.27253L170.018 1.31016C168.484 1.46653 167.129 1.78517 165.507 1.86277C165.042 1.86394 164.625 1.82514 164.362 1.67935Z" fill="#8D8D8D"/>
<path d="M162.478 0.661038C161.589 0.99378 160.384 0.819767 159.326 0.877379C158.678 1.07844 157.929 1.1337 157.081 1.05962C156.406 1.00554 156.02 0.827997 155.586 0.670444C155.576 0.608129 155.604 0.548164 155.674 0.489376C157.943 0.531704 160.282 0.270684 162.478 0.661038Z" fill="#757575"/>
<path d="M47.4768 1.3006C47.6799 1.0819 47.8795 0.863212 48.0826 0.64452C48.706 0.655101 49.3294 0.665683 49.9562 0.67509C51.4165 1.11247 53.5702 1.00078 55.0901 1.39466C55.815 1.45462 56.5714 1.4946 57.0127 1.73446C55.3212 1.999 53.6753 2.33997 52.1029 1.61805C51.8053 1.48167 50.7301 1.53575 50.0157 1.50165C49.2768 1.27708 48.2122 1.51929 47.4768 1.3006Z" fill="#393939"/>
<path d="M54.4069 1.7146C53.626 1.03148 50.222 1.6029 49.9524 0.675222C50.3866 0.672871 50.8174 0.670519 51.2516 0.669344C51.8785 0.896266 52.5158 0.891563 53.1602 0.67875C53.9972 0.672871 54.8377 0.665816 55.6746 0.659937C56.8793 1.23018 55.5941 1.46534 54.4069 1.7146Z" fill="#707070"/>
<path d="M54.4072 1.71463C55.0761 1.396 55.8115 1.08677 55.6749 0.659969C56.0952 0.670551 56.5154 0.681133 56.9392 0.69289C57.0022 0.972723 56.9812 1.27137 58.1788 1.28665C58.4065 1.29136 58.6306 1.29723 58.8582 1.30311C59.1909 1.70522 57.8812 1.53591 57.5765 1.71463C57.3909 1.72639 57.2018 1.73344 57.0127 1.73462C56.1442 1.72756 55.2757 1.72169 54.4072 1.71463Z" fill="#515151"/>
<path d="M53.1606 0.678801C53.0556 0.842232 52.961 1.01625 52.3342 1.03976C51.5252 1.06915 51.3571 0.875154 51.2485 0.669395C51.8894 0.672922 52.5268 0.676449 53.1606 0.678801Z" fill="#787878"/>
<path d="M155.583 0.670471C155.978 0.737489 156.374 0.803332 156.773 0.870351C157.264 1.27599 160.009 1.03731 159.197 1.81684C158.402 2.00496 157.484 1.99791 156.574 2.00379C156.273 2.00614 155.971 2.00144 155.67 1.99321C155.222 1.98027 154.788 1.94735 154.364 1.90032C153.814 1.83801 153.289 1.75688 152.764 1.67575C152.091 1.5276 151.034 1.50644 151.083 1.11726C152.014 1.08316 152.918 1.08199 153.825 1.2078C155.453 1.43237 155.474 1.02555 155.583 0.670471Z" fill="#676767"/>
<path d="M151.079 1.11734C151.72 1.2455 152.361 1.37366 153.005 1.50299C152.809 1.74285 152.336 1.90746 151.717 2.03326C151.31 2.08852 150.894 2.09675 150.466 2.06501C149.262 1.95331 148.792 1.59823 148.173 1.29135C148.019 1.21493 147.92 1.13145 147.868 1.04092C148.068 0.647034 149.013 0.676429 149.861 0.649386C150.267 0.804587 150.673 0.960964 151.079 1.11734Z" fill="#484848"/>
<path d="M142.825 1.31956C143.252 1.25607 143.68 1.19258 144.103 1.12909C145.361 1.09969 146.614 1.0703 147.871 1.03973L147.98 1.1138C148.117 1.21257 148.068 1.30075 147.857 1.38188C147.374 1.51004 146.8 1.56295 146.215 1.60645C145.028 1.71932 144.194 2.30956 142.622 1.90274C142.307 1.69463 142.384 1.49946 142.825 1.31956Z" fill="#3F3F3F"/>
<path d="M142.92 1.9205C144.446 2.0028 144.597 1.27618 146.068 1.32321C146.635 1.52662 147.357 1.61833 148.162 1.65125C148.915 1.77118 149.759 1.7994 150.515 1.91345C150.901 1.91345 151.286 1.91345 151.671 1.91462C152.48 1.73591 153.257 1.51016 154.336 1.70181C154.732 1.71004 155.128 1.71827 155.523 1.7265C157.085 2.07688 158.724 1.94166 160.363 1.81351C160.661 1.80763 160.941 1.82644 161.21 1.86759C161.554 1.98164 161.638 2.11803 161.54 2.27205C161.358 2.42726 160.93 2.47076 160.517 2.52249C160.342 2.53072 160.167 2.5319 159.992 2.5272C158.489 2.42138 156.987 2.39081 155.492 2.54248C154.235 2.54013 152.977 2.53778 151.717 2.53543C149.115 2.35318 146.481 2.5025 143.865 2.4543C137.436 2.45195 131.009 2.459 124.583 2.45077C122.808 2.15095 124.377 2.00633 124.846 1.80998C125.172 1.75472 125.522 1.72415 125.886 1.71827C127.43 1.68887 128.964 1.74766 130.488 1.82761C131.962 1.99105 133.356 1.82291 134.764 1.70534C135.586 1.63949 136.427 1.63832 137.264 1.62538C137.961 1.61127 138.654 1.61715 139.351 1.62303C140.608 1.63244 141.897 1.59716 142.92 1.9205Z" fill="#1B1B1B"/>
<path d="M124.002 2.31312C130.712 2.33075 137.425 2.34721 144.135 2.36485C144.359 2.40012 144.436 2.43657 144.366 2.4742C144.296 2.513 144.223 2.53181 144.149 2.53181C135.303 2.53416 126.457 2.53651 117.611 2.54004C118.959 2.17555 120.591 2.43187 122.052 2.31312C122.703 2.23316 123.354 2.19084 124.002 2.31312Z" fill="#2C2C2C"/>
<path d="M100.532 2.34829C103.757 2.35652 106.986 2.36357 110.211 2.3718C106.608 2.74099 102.913 2.42236 99.2747 2.53641C99.6949 2.47409 100.115 2.41178 100.532 2.34829Z" fill="#1F1F1F"/>
<path d="M168.137 2.55063C167.097 2.5518 166.057 2.5518 165.017 2.55298C164.621 2.41071 163.889 2.50595 163.553 2.32135C163.483 2.09913 163.788 1.95334 164.38 1.86516C164.674 1.84399 164.964 1.84869 165.252 1.88044C166.537 1.9357 168.057 1.71701 168.953 2.22964C169.006 2.42835 168.498 2.4695 168.137 2.55063Z" fill="#161616"/>
<path d="M168.137 2.55054C168.358 2.48469 168.575 2.41768 168.796 2.35183C169.044 2.26012 169.338 2.1884 169.675 2.13667C171.664 2.00851 173.653 2.00263 175.645 2.14137C175.992 2.19193 176.262 2.27306 176.458 2.38123C176.419 2.43061 176.356 2.47764 176.269 2.51997C173.555 2.53055 170.844 2.54113 168.137 2.55054Z" fill="#5A5A5A"/>
<path d="M144.149 2.53163C144.145 2.47519 144.142 2.41993 144.135 2.36349C146.656 2.44462 149.258 2.13657 151.713 2.53516C149.191 2.53398 146.67 2.5328 144.149 2.53163Z" fill="#282828"/>
<path d="M155.488 2.54248C156.98 2.26382 158.482 2.33555 159.988 2.5272C158.489 2.53307 156.987 2.53778 155.488 2.54248Z" fill="#5B5B5B"/>
<path d="M163.756 2.33664C164.177 2.40836 164.597 2.48126 165.017 2.55298C163.515 2.54357 162.016 2.53299 160.514 2.52358C160.745 2.46009 160.972 2.39778 161.2 2.33429C162.055 2.12618 162.909 2.08032 163.756 2.33664Z" fill="#5B5B5B"/>
<path d="M201.014 2.36011C195.961 2.35658 190.904 2.35305 185.85 2.34953C187.052 1.4336 189.51 2.00738 191.334 1.83336C192.448 1.83454 193.565 1.83454 194.679 1.83454C196.339 1.84865 198.002 1.80867 199.659 1.87687C200.373 1.95564 201.175 2.00855 201.014 2.36011Z" fill="#2D2D2D"/>
<path d="M191.559 2.12974C189.668 2.23674 187.636 1.93221 185.854 2.34961C185.014 2.3355 184.173 2.32022 183.333 2.30611C183.154 2.03921 183.571 1.8793 184.212 1.75702C185.017 1.63474 185.882 1.63945 186.74 1.63004C188.291 1.66414 189.902 1.52657 191.359 1.81816C191.671 1.90517 191.737 2.00864 191.559 2.12974Z" fill="#1E1E1E"/>
<path d="M176.454 2.38232C176.209 2.35998 175.961 2.33647 175.716 2.31413C175.582 2.21301 175.631 2.12366 175.863 2.04488C176.777 1.83324 177.88 1.85676 178.899 1.77093C179.501 1.78856 180.1 1.82854 180.713 1.8015C181.459 1.88968 182.198 1.98021 182.061 2.32354C180.191 2.34352 178.324 2.36234 176.454 2.38232Z" fill="#242424"/>
<path d="M201.014 2.36011C200.741 2.19197 200.271 2.14847 199.753 2.13436C199.546 2.02266 199.588 1.9239 199.883 1.83689C201.189 1.68169 202.509 1.6229 203.847 1.79574C203.969 1.83572 204.088 1.87687 204.211 1.91684C203.567 2.06146 202.926 2.20608 202.281 2.3507C201.861 2.35423 201.437 2.35776 201.014 2.36011Z" fill="#131313"/>
<path d="M182.061 2.32373C181.665 2.20263 181.266 2.08152 180.87 1.96042C181.882 1.61122 182.895 1.61357 183.917 1.95572C183.724 2.07212 183.528 2.18969 183.336 2.30609C182.909 2.31315 182.485 2.31785 182.061 2.32373Z" fill="#111111"/>
<path d="M213.656 1.08196C213.659 1.15368 213.659 1.2254 213.663 1.29712C213.8 1.52757 214.549 1.55227 214.903 1.71099C216.027 1.52993 216.794 1.22187 217.491 0.891485C219.382 0.824466 220.075 1.1478 219.959 1.73451C218.436 1.68513 216.983 1.7933 215.547 1.94967C214.521 2.11075 213.432 1.99788 212.381 2.03198C210.648 1.99083 209.933 1.5311 209.079 1.13017C209.349 0.919703 210.129 1.03023 210.494 0.878551C211.481 1.06432 212.542 1.11488 213.656 1.08196Z" fill="#818181"/>
<path d="M209.247 1.08188C210.101 1.35818 210.956 1.63449 211.814 1.91079C210.973 2.10597 210.101 2.05541 209.222 1.94841C207.552 1.93783 205.885 1.92725 204.215 1.91549L204.222 1.91197C203.983 1.8179 203.948 1.71561 204.11 1.60509C205.332 0.89728 207.17 0.859655 209.247 1.08188Z" fill="#5D5D5D"/>
<path d="M228.819 1.50875C229.751 2.15072 231.681 1.84737 233.137 2.09781C231.912 2.11662 230.689 2.13426 229.464 2.15307C227.811 1.97906 225.664 2.50698 224.421 1.75566C225.885 1.6663 227.173 1.2348 228.819 1.50875Z" fill="#1B1B1B"/>
<path d="M228.82 1.50875C227.352 1.59105 225.889 1.67336 224.421 1.75684C224.208 1.73685 223.99 1.71804 223.777 1.69805C225.812 1.44408 227.801 1.10899 230.087 1.29711C230.27 1.3559 230.326 1.41234 230.256 1.4676C230.185 1.52168 230.115 1.54755 230.052 1.54755C229.639 1.53462 229.229 1.52168 228.82 1.50875Z" fill="#868686"/>
<path d="M209.219 1.94988C210.084 1.93695 210.946 1.92401 211.811 1.91226C213.057 1.92519 214.304 1.93812 215.547 1.95106C213.439 2.25323 211.327 2.24853 209.219 1.94988Z" fill="#414141"/>
<path d="M254.083 1.70514C254.111 1.65341 254.142 1.60168 254.181 1.54994C256.156 1.21132 257.967 1.56875 259.833 1.69691L259.777 1.72631C260.957 1.98027 262.404 1.66399 263.577 1.92736C263.741 1.98615 263.906 2.04612 264.07 2.1049C260.758 2.20837 257.441 1.83448 254.128 2.10961C253.722 1.98027 253.726 1.84506 254.083 1.70514Z" fill="#0D0D0D"/>
<path d="M254.083 1.70534C254.097 1.84055 254.114 1.97577 254.128 2.1098C253.27 2.11568 252.416 2.12156 251.558 2.12744C251.414 2.07688 251.358 2.02397 251.39 1.96871C251.421 1.91228 251.46 1.88406 251.502 1.88406C252.108 1.76295 252.896 1.90287 253.463 1.73121C253.67 1.7171 253.876 1.70887 254.083 1.70534Z" fill="#161616"/>
<path d="M251.558 1.93682C251.565 2.00032 251.565 2.06498 251.558 2.12847C251.344 2.13788 251.131 2.14729 250.917 2.15552C250.052 2.10378 249.036 2.23665 248.382 1.92507C248.511 1.89332 248.641 1.86158 248.767 1.82865C249.698 1.86393 250.689 1.72284 251.558 1.93682Z" fill="#0F0F0F"/>
<path d="M230.049 1.54765C230.063 1.46417 230.073 1.38069 230.087 1.29721C231.982 1.43125 233.88 0.983285 235.775 1.29721C235.981 1.42537 236.191 1.55471 236.398 1.68287C236.188 1.70168 235.978 1.72167 235.768 1.74048C233.975 1.29369 231.821 2.05911 230.049 1.54765Z" fill="#8A8A8A"/>
<path d="M238.839 1.89788C238.846 1.83556 238.874 1.77442 238.923 1.71328C240.891 1.46755 242.974 1.73562 244.957 1.5569C246.063 1.50164 247.17 1.45579 248.241 1.61569C248.585 1.70387 248.651 1.81087 248.434 1.9355L248.382 1.92609C247.32 2.16125 246.224 1.84967 245.153 1.94961C243.048 1.93197 240.943 1.91434 238.839 1.89788Z" fill="#3F3F3F"/>
<path d="M249.071 1.29118C248.462 0.952556 247.432 1.12775 246.599 1.06543C248.161 0.697415 249.894 0.916107 251.561 0.90435C252.909 2.11421 249.933 1.01605 249.583 1.31822C249.376 1.38877 249.204 1.37936 249.071 1.29118Z" fill="#333333"/>
<path d="M249.072 1.29125C249.247 1.29243 249.415 1.30183 249.583 1.31829C249.376 1.44175 249.17 1.56638 248.963 1.68984C248.865 1.80624 248.683 1.81682 248.427 1.73687C247.359 1.73451 246.294 1.73334 245.226 1.73099C245.055 1.64516 244.659 1.62517 244.624 1.50054C245.972 1.1043 247.597 1.37473 249.072 1.29125Z" fill="#9D9D9D"/>
<path d="M248.427 1.73567C248.606 1.71921 248.784 1.70392 248.963 1.68864C250.465 1.70275 251.964 1.71685 253.466 1.72979C252.98 1.95201 252.248 1.92026 251.558 1.93555C250.518 1.93555 249.478 1.93437 248.438 1.93437C248.417 1.8697 248.413 1.80269 248.427 1.73567Z" fill="#262626"/>
<path d="M244.627 1.49953C244.827 1.57595 245.03 1.65356 245.23 1.72998C243.128 1.7241 241.027 1.71822 238.926 1.71352C238.916 1.64415 238.912 1.57478 238.923 1.50541C239.353 1.50423 239.781 1.50306 240.211 1.50306C241.476 1.50188 242.74 1.50071 244.007 1.49953L244.319 1.50423L244.627 1.49953Z" fill="#777777"/>
<path d="M209.247 1.08204C207.104 0.87981 205.777 1.41008 204.197 1.71225C203.038 1.92742 201.805 1.78985 200.604 1.79926C200.264 1.72048 200.201 1.62172 200.422 1.50297C201.966 1.57351 202.621 1.14671 203.56 0.876283C204.39 0.809264 205.223 0.742245 206.053 0.676403C207.412 1.0503 209.023 0.795155 210.501 0.877459C210.21 1.03501 209.755 1.07734 209.247 1.08204Z" fill="#848484"/>
<path d="M214.899 1.7111C214.234 1.66877 213.411 1.85219 212.945 1.57941C212.882 1.54296 213.407 1.39482 213.659 1.29723C214.444 1.31251 214.888 1.43832 214.899 1.7111Z" fill="#A0A0A0"/>
<path d="M180.17 1.7075C180.237 1.26306 178.696 1.35947 178.276 1.07964C180.674 0.677525 183.241 0.606979 185.864 0.643427C186.498 0.659888 187.132 0.677525 187.766 0.693985C187.878 0.942072 187.311 1.03496 186.834 1.14783C185.826 1.34536 185.36 1.80156 183.973 1.82037C182.713 1.76746 181.385 1.94147 180.17 1.7075Z" fill="#989898"/>
<path d="M186.411 0.909263C186.862 0.837541 187.318 0.765819 187.769 0.694097C187.966 0.683515 188.158 0.678813 188.358 0.68234C189.23 0.809323 189.702 1.15617 191.11 0.977457C192.55 0.795213 194.206 0.931602 195.666 1.17381C196.132 2.1497 193.576 1.60297 192.602 1.85458C192.301 1.87104 192 1.86751 191.702 1.844C191.292 1.82166 190.865 1.8052 190.455 1.82519C188.267 1.92865 186.547 1.81225 186.411 0.909263Z" fill="#848484"/>
<path d="M195.327 1.2937C194.171 1.08088 192.627 0.903344 191.734 1.15143C189.387 1.80633 189.048 1.17259 188.358 0.681124C189.828 0.681124 191.299 0.679948 192.767 0.679948C193.695 0.987999 194.861 0.839852 195.939 0.862192C196.388 1.11028 195.81 1.19493 195.327 1.2937Z" fill="#989898"/>
<path d="M200.419 1.50308C200.401 1.5701 200.401 1.63712 200.419 1.70414C199.981 1.85464 199.42 1.86404 198.843 1.85581C198.569 1.82642 198.331 1.77586 198.121 1.71002C197.669 1.47016 196.959 1.31261 196.395 1.1092C196.293 1.01396 196.339 0.92931 196.559 0.856412C197.001 0.795272 197.445 0.734132 197.887 0.672992C198.492 0.671817 199.098 0.670641 199.704 0.669465C200.205 0.923431 200.419 1.20326 200.419 1.50308Z" fill="#5C5C5C"/>
<path d="M196.56 0.857497C196.563 0.929218 196.567 0.999764 196.57 1.07149C197.12 1.30546 197.193 1.54414 196.623 1.78635C195.113 1.97095 193.618 2.03797 192.175 1.71816C192.851 1.26666 194.714 1.79811 195.327 1.29371C195.53 1.15026 195.737 1.00682 195.94 0.8622L196.248 0.855145L196.56 0.857497Z" fill="#808080"/>
<path d="M24.0695 0.850445C25.1271 0.858675 26.1812 0.868081 27.2388 0.876312C27.2353 0.946858 27.2353 1.0174 27.2318 1.08795C24.8504 1.22669 21.8983 0.649389 20.2593 1.71228C19.7445 1.55355 19.1107 1.63468 18.5259 1.61587C19.1107 1.64644 19.748 1.55826 20.2768 1.70875C19.9126 1.99799 19.2438 2.1285 18.3192 2.13791C17.0445 2.14967 15.3566 2.17553 15.2025 1.69229C15.0204 1.11617 16.8099 1.36661 17.7869 1.29488C18.1581 1.26784 18.5469 1.27137 19.5134 1.2455C16.9254 0.890421 14.6141 1.34662 12.7056 0.881015C12.9402 0.875136 13.1748 0.868081 13.413 0.862202C16.964 0.857499 20.515 0.853972 24.0695 0.850445Z" fill="#0B0B0B"/>
<path d="M78.3642 1.91924C78.6128 1.9263 78.8615 1.93218 79.1101 1.93923C74.6171 2.22612 70.1766 2.15557 65.7886 1.71819C66.2158 1.5818 66.6606 1.60179 67.1123 1.7029C69.9944 1.47363 72.9151 1.45834 75.8498 1.51948C76.4031 1.85223 77.3066 1.94041 78.3642 1.91924Z" fill="#232323"/>
<path d="M88.4782 1.27019C89.3607 1.11029 90.2222 1.28547 91.0942 1.28783C91.2763 1.29958 91.4619 1.30664 91.6475 1.30664C93.5911 1.77459 95.9829 1.33486 98.0001 1.66054C98.2102 1.76871 98.2032 1.87571 97.9826 1.98153C97.1246 2.04384 96.2701 2.09087 95.4401 1.9439C93.9238 2.00857 92.4074 2.11674 90.8911 2.11909C89.9946 2.12027 87.8689 2.38129 89.084 1.5559C88.6848 1.53709 88.2856 1.5171 87.8829 1.49829C87.7428 1.32075 87.9179 1.23962 88.4782 1.27019Z" fill="#282828"/>
<path d="M67.1124 1.70166C66.6711 1.70637 66.2299 1.71224 65.7886 1.71695C63.0501 1.86862 60.3115 1.81924 57.573 1.71342C58.0002 1.57586 58.4275 1.43829 58.8547 1.30073C60.9209 1.06087 63.5194 1.75575 65.2353 0.897438C66.3455 1.04088 66.5135 1.42771 67.1124 1.70166Z" fill="#393939"/>
<path d="M47.4767 1.30074C48.3592 1.31132 49.3152 1.22197 50.0086 1.50062C48.881 1.57587 47.4522 1.32661 46.7588 1.86864C46.4821 2.08615 45.9393 2.07557 45.6382 1.86864C44.7417 1.25371 43.0852 1.59821 41.779 1.50768C41.772 1.43243 41.7685 1.35718 41.7615 1.28193C42.9346 0.789284 44.4265 0.918618 45.8308 1.09498C46.3736 1.16318 46.8288 1.3125 47.4767 1.30074Z" fill="#151515"/>
<path d="M82.1568 1.51716C82.8187 1.5148 83.4771 1.51245 84.1389 1.5101C84.5347 1.80992 84.5031 2.07329 83.3335 2.10269C82.0553 2.13678 81.7086 1.90163 82.1568 1.51716Z" fill="#202020"/>
<path d="M95.4397 1.94261C96.3222 1.93321 97.2047 1.9238 98.0837 1.9144C99.509 1.52522 100.952 1.66161 102.398 1.90029C101.992 2.17189 101.218 2.12956 100.514 2.14602C98.8261 2.07195 97.0226 2.31768 95.4397 1.94261Z" fill="#1F1F1F"/>
<path d="M3.23263 2.14014C4.13964 1.63691 3.51979 1.47465 1.98242 1.5158C2.71784 1.2395 3.65286 1.18424 4.23769 1.49229C4.79801 1.78741 4.46532 2.079 3.23263 2.14014Z" fill="#111111"/>
<path d="M88.4779 1.27015C88.2818 1.3454 88.0822 1.42182 87.8826 1.49707C87.4868 1.49354 87.0911 1.49002 86.6989 1.48649C86.6814 1.32188 86.7514 1.16903 87.2137 1.07144C87.6374 1.13611 88.0577 1.20313 88.4779 1.27015Z" fill="#525252"/>
<path d="M121.382 1.04799C122.009 1.0621 122.636 1.07503 123.263 1.08914C123.305 1.14911 123.336 1.21025 123.354 1.27256C122.401 1.52653 121.603 1.9016 120.115 1.73346C119.463 1.71818 118.815 1.70407 118.164 1.68878C118.238 1.57238 118.308 1.45598 118.381 1.33958C119.379 1.24317 120.381 1.14558 121.382 1.04799Z" fill="#4F4F4F"/>
<path d="M120.115 1.73333C121.33 1.68748 121.939 1.16308 123.354 1.27243L123.329 1.27596C123.942 1.4488 124.583 1.61928 124.107 1.93556C123.83 2.00611 123.553 2.00611 123.277 1.93791C122.349 1.6475 120.976 2.13544 120.115 1.73333Z" fill="#333333"/>
<path d="M102.398 1.90024C100.959 1.90495 99.5195 1.90965 98.0837 1.91553C98.0242 1.85674 97.9751 1.79795 97.9331 1.73799C98.9872 1.2277 100.584 1.7568 101.778 1.51224L101.831 1.50401C102.454 1.44287 102.615 1.52752 102.447 1.71917C102.433 1.77914 102.419 1.8391 102.398 1.90024Z" fill="#525252"/>
<path d="M115.695 1.72054C116.536 1.71348 117.376 1.7076 118.216 1.70055C116.97 2.05916 115.702 2.03094 114.413 1.72642C114.834 1.58415 115.264 1.59943 115.695 1.72054Z" fill="#3C3C3C"/>
<path d="M103.705 1.93227C104.976 2.00516 106.384 1.79588 107.532 2.13215C106.247 2.08276 104.839 2.29793 103.705 1.93227Z" fill="#1F1F1F"/>
<path d="M115.695 1.72044C115.268 1.72279 114.841 1.72397 114.414 1.72632C114 1.58523 113.584 1.44531 113.17 1.30422C114.291 1.25366 115.188 1.35595 115.695 1.72044Z" fill="#4F4F4F"/>
<path d="M123.277 1.93674C123.497 1.93204 123.722 1.92734 123.942 1.92263C124.376 1.80035 124.793 1.81799 125.196 1.94027C124.797 2.0649 124.401 2.18953 124.005 2.31299C123.354 2.31299 122.706 2.31299 122.055 2.31181C122.461 2.18718 122.867 2.06255 123.277 1.93674Z" fill="#1F1F1F"/>
<path d="M102.447 1.71923C102.241 1.64751 102.037 1.57579 101.831 1.50407C102.297 1.27009 103.018 1.30419 103.704 1.30301C103.69 1.45233 103.673 1.60165 103.659 1.75098C103.253 1.74039 102.85 1.72981 102.447 1.71923Z" fill="#3C3C3C"/>
<path d="M101.778 1.51253C100.654 1.88408 99.2044 1.64069 97.9332 1.73828C95.7935 1.66656 93.4472 1.93111 91.6506 1.30678C92.8273 1.02459 94.5643 1.86409 95.4993 1.09396C97.1803 1.01754 98.8682 1.36321 100.546 1.08691C100.584 1.34793 100.983 1.49372 101.778 1.51253Z" fill="#606060"/>
<path d="M130.866 1.94256C129.171 1.93198 127.472 1.9214 125.777 1.91082C126.828 1.3394 128.295 1.67214 129.63 1.71211C132.105 1.96608 133.328 0.783258 135.863 1.10424C136.318 1.37232 137.348 1.52752 137.285 1.90024C136.416 1.91199 135.548 1.92375 134.679 1.93551C133.408 2.09071 132.137 2.08013 130.866 1.94256Z" fill="#2C2C2C"/>
<path d="M137.282 1.89907C136.462 1.70271 135.804 1.47344 135.86 1.10307C137.488 1.35704 139.211 1.29002 140.917 1.27121L141.113 1.34058C141.666 2.04133 139.624 1.68625 139.019 1.91553C138.441 1.90965 137.863 1.90377 137.282 1.89907Z" fill="#575757"/>
<path d="M129.63 1.71111C128.348 1.78401 126.937 1.57002 125.777 1.90981C125.581 1.91569 125.389 1.92628 125.196 1.93921C124.779 1.93333 124.359 1.92745 123.942 1.92157C123.739 1.70523 123.533 1.49007 123.33 1.27373C124.125 1.29371 124.919 1.31488 125.714 1.33487C126.832 1.67936 128.551 1.31958 129.63 1.71111Z" fill="#4B4B4B"/>
<path d="M139.022 1.91453C139.635 1.68878 140.997 1.76638 141.116 1.33958C141.687 1.33253 142.258 1.32665 142.825 1.31959C142.856 1.51947 142.888 1.72053 142.919 1.92041C141.62 1.91806 140.321 1.91688 139.022 1.91453Z" fill="#252525"/>
<path d="M161.203 1.9557C160.983 1.9604 160.759 1.96628 160.538 1.97099C160.328 2.01331 160.107 2.01802 159.876 1.99097C159.54 1.93336 159.351 1.84165 159.326 1.71467C159.074 1.23143 156.122 1.65823 156.773 0.870469C157.624 0.872821 158.475 0.875172 159.326 0.8787C159.603 1.88163 162.566 1.25142 163.763 1.69233C163.525 1.89456 163.042 1.9992 162.45 2.06152C161.988 2.08856 161.575 2.04859 161.203 1.9557Z" fill="#818181"/>
<path d="M162.426 1.90285C162.87 1.8323 163.319 1.76293 163.763 1.69239L164.064 1.69709L164.362 1.67945C164.758 1.68416 165.157 1.68886 165.553 1.69356C166.989 1.64418 168.396 1.33848 169.871 1.64183C170.182 1.7453 170.196 1.85347 169.909 1.96634C168.263 2.08627 166.624 2.08862 165 1.93224C164.789 1.93459 164.579 1.93694 164.369 1.93812C163.697 2.07216 163.038 2.12389 162.426 1.90285Z" fill="#5A5A5A"/>
<path d="M170.042 1.90861C170.07 1.85217 170.106 1.79691 170.148 1.74165C171.027 1.48769 172.228 1.69932 173.152 1.51003C174.882 1.29604 176.588 1.53354 178.307 1.53824C178.927 1.59468 179.55 1.65112 180.17 1.70638C181.645 1.70991 183.115 1.71461 184.59 1.71814C185.441 1.5547 186.229 1.46299 186.544 1.91096C185.668 1.92625 184.793 1.94036 183.914 1.95564C182.898 1.95682 181.883 1.95799 180.867 1.96034C180.184 1.95564 179.505 1.95094 178.822 1.94741C177.82 2.11907 176.724 1.98033 175.695 2.05441C173.93 2.17198 172.168 2.20373 170.407 2.0403C170.288 1.99562 170.165 1.95211 170.042 1.90861Z" fill="#303030"/>
<path d="M173.215 1.72289C172.193 1.72877 171.17 1.73582 170.148 1.7417C168.617 1.72641 167.087 1.70995 165.553 1.69349C167.045 1.56886 168.116 0.898675 170.022 1.31019C171.997 1.87574 172.75 1.19144 173.881 0.890445C175.87 1.36545 174.294 1.52183 173.215 1.72289Z" fill="#686868"/>
<path d="M173.215 1.7229C173.919 1.48774 174.738 1.26317 173.88 0.890453C174.623 0.722318 175.397 0.597687 176.332 0.678815C176.493 1.0045 176.496 1.35958 177.691 1.49362C177.897 1.50891 178.1 1.52301 178.307 1.5383C176.7 1.87692 174.907 1.63824 173.215 1.7229Z" fill="#5C5C5C"/>
<path d="M177.691 1.49365C175.947 1.46191 175.569 1.1762 176.332 0.678847C176.784 0.950448 177.239 1.22205 177.691 1.49365Z" fill="#686868"/>
<path d="M159.96 1.91813C160.156 1.92989 160.349 1.94752 160.538 1.97104C158.759 2.12859 156.896 2.49073 155.52 1.72648L155.824 1.71825L156.133 1.72178C157.32 1.98162 158.766 1.67592 159.96 1.91813Z" fill="#212121"/>
<path d="M154.333 1.70174C153.447 1.77228 152.557 1.844 151.671 1.91455C151.776 1.65471 152.228 1.51949 153.002 1.50303C153.447 1.56888 153.891 1.63472 154.333 1.70174Z" fill="#282828"/>
<path d="M159.96 1.9179C158.672 1.88263 157.281 2.06017 156.133 1.72155C157.197 1.7192 158.262 1.71685 159.326 1.71449C159.537 1.78269 159.75 1.84971 159.96 1.9179Z" fill="#5B5B5B"/>
<path d="M150.515 1.91345C149.43 1.91697 148.344 1.91932 147.255 1.92285C146.915 1.64537 147.756 1.5031 147.913 1.28206C147.924 1.22562 147.945 1.16919 147.976 1.11392C150.109 0.925802 149.09 1.85231 150.515 1.91345Z" fill="#282828"/>
<path d="M147.917 1.28206C149.125 1.65948 147.451 1.70651 147.259 1.92285C146.502 1.80292 146.061 1.61245 146.068 1.32321C146.684 1.3091 147.301 1.29617 147.917 1.28206Z" fill="#111111"/>
<path d="M162.426 1.90257C163.074 1.91433 163.721 1.92608 164.369 1.93784C164.166 2.0707 163.96 2.20356 163.756 2.33643C162.905 2.33525 162.051 2.33525 161.2 2.33407C161.2 2.20827 161.2 2.08246 161.2 1.95665C161.61 1.93784 162.016 1.9202 162.426 1.90257Z" fill="#212121"/>
<path d="M130.866 1.94277C132.137 1.94042 133.405 1.93689 134.676 1.93454C133.412 2.24376 132.141 2.23789 130.866 1.94277Z" fill="#252525"/>
<path d="M165 1.93088C166.68 1.92265 168.361 1.9156 170.046 1.90737L170.049 1.96145C170.368 2.18132 169.766 2.23658 169.44 2.34005C169.226 2.34358 169.009 2.3471 168.796 2.35181C167.815 1.92265 165.984 2.35533 165 1.93088Z" fill="#212121"/>
<path d="M169.437 2.34131C169.64 2.2155 169.843 2.08852 170.05 1.96271C171.948 1.95331 173.846 1.94272 175.74 1.93332C175.975 1.97917 176.052 2.0262 175.978 2.07323C175.901 2.12026 175.824 2.14496 175.747 2.14496C175.744 2.20257 175.733 2.259 175.716 2.31544C173.625 2.3225 171.531 2.3319 169.437 2.34131Z" fill="#161616"/>
<path d="M192.175 1.71821C193.632 1.71468 195.088 1.71233 196.545 1.7088C196.832 1.64179 197.099 1.65119 197.344 1.73467C197.067 2.3108 195.376 1.84049 194.714 2.13208C193.663 2.1309 192.613 2.12973 191.562 2.12855C191.551 2.06271 191.548 1.99687 191.544 1.92985C191.611 1.80051 191.975 1.79228 192.231 1.74055L192.175 1.71821Z" fill="#141414"/>
<path d="M194.71 2.13315C195.551 1.99558 196.388 1.85919 197.228 1.72163C196.836 1.57583 196.822 1.37125 197.288 1.31364C198.317 1.18548 197.992 1.61581 198.524 1.7134L198.555 1.69459C198.786 1.8686 199.501 1.77689 199.757 1.93797C199.757 2.00381 199.757 2.06966 199.757 2.1355C198.072 2.13432 196.391 2.13315 194.71 2.13315Z" fill="#131313"/>
<path d="M192.227 1.74161C192 1.8051 191.769 1.86859 191.541 1.93091C189.874 1.92385 188.211 1.9168 186.544 1.91092C186.025 1.69693 185.283 1.73808 184.59 1.71809C185.276 1.46766 184.758 0.915046 186.411 0.907991C187.444 1.89328 190.021 1.67224 192.227 1.74161Z" fill="#606060"/>
<path d="M175.747 2.14365C175.744 2.0731 175.744 2.00256 175.74 1.93201C176.77 1.93671 177.796 1.94142 178.822 1.94612C177.946 2.26828 176.78 2.09074 175.747 2.14365Z" fill="#151515"/>
<path d="M199.753 1.93701C199.249 1.9135 198.755 1.8841 198.552 1.69363C199.175 1.69716 199.795 1.70068 200.415 1.70421C201.672 1.70656 202.933 1.70891 204.19 1.71126C204.193 1.77828 204.2 1.8453 204.214 1.91232C202.733 1.92173 201.241 1.92996 199.753 1.93701Z" fill="#323232"/>
<path d="M181.325 1.34997C181.434 1.19242 181.784 1.12775 182.208 1.12422C182.614 1.12069 183.098 1.14656 182.95 1.33821C182.898 1.40523 182.52 1.46755 182.261 1.48753C181.889 1.51575 181.462 1.52516 181.325 1.34997Z" fill="#B8B8B8"/>
<path d="M198.524 1.71332C198.1 1.84265 197.62 1.05841 197.228 1.72155C197 1.71802 196.773 1.71332 196.545 1.70979C196.556 1.49697 196.563 1.28416 196.573 1.07135C198.037 1.00786 198.59 1.25594 198.524 1.71332Z" fill="#1E1E1E"/>
<path d="M20.2732 1.70891C19.2086 1.66423 18.1685 1.97581 16.2424 1.63836C18.13 1.47258 19.1806 1.3597 20.2557 1.71243C20.2592 1.71243 20.2732 1.70891 20.2732 1.70891Z" fill="#404040"/>
</svg>
