<svg width="277" height="3" fill="none" xmlns="http://www.w3.org/2000/svg" preserveAspectRatio="none"><path d="M256.629.021c2.076.146 4.17.227 6.3.183.185.08.231.168.157.264a3.307 3.307 0 01-.627.193c-.781.114-1.467.29-2.269.39-1.996.204-4.332-.236-6.118.367-1.236.09-2.01-.23-2.994-.368-.949-.148-2.017-.216-2.837-.445-.455-.127-1.036-.292-.073-.462 2.815-.075 5.666.127 8.461-.122z" fill="#9F9F9F"/><path d="M232.062.646c1.016-.244 2.035-.17 3.054-.001.21.114.175.22-.105.316-2.697.406-5.533.182-8.307.18-1.646 0-3.274-.135-4.959-.128-1.474.005-2.857-.187-3.137-.79 3.572-.183 7.137-.106 10.705.015 1.156-.044 1.835.271 2.749.408z" fill="#BABABA"/><path d="M235.116.856V.645c2.567-.553 5.414-.49 8.265-.427.462.194.585.402.259.631-.2.093-.459.163-.77.21-.613.084-1.258.108-1.912.107-1.366.008-2.739-.033-4.101.05a8.14 8.14 0 01-.914-.021c-.459-.062-.746-.173-.827-.339z" fill="#AAA"/><path d="M206.05.26c3.379-.007 6.759-.013 10.135-.017.437-.132.903-.112 1.379-.03.505.295.179.528-.493.735-1.156.252-2.448.11-3.681.141-2.276-.262-4.703-.143-7.025-.3-.256-.063-.445-.143-.564-.242-.035-.108.039-.204.249-.288z" fill="#C4C4C4"/><path d="M243.36.87l.021-.651c4.388-.276 8.828-.161 13.248-.196-2.893.462-5.992.089-8.962.252-.602.269-1.46.428-2.262.614-.69.106-1.38.19-2.045-.02z" fill="#AFAFAF"/><path d="M179.533.24l1.275-.21 10.064.191.081.183c-1.467.556-3.443.267-5.197.351-2.007-.059-4.083.14-6.017-.19-.332-.088-.402-.198-.206-.325z" fill="#D5D5D5"/><path d="M206.05.259c-.004.07-.007.14-.018.21-.851.304-2.192.287-3.131.538A7.23 7.23 0 01200.65.91c-.603-.165-1.454-.248-1.671-.546.515-.334 1.275-.252 2.056-.136 1.66.186 3.372-.504 5.015.031z" fill="#B4B4B4"/><path d="M190.872.22c1.898-.348 3.789.202 5.687.001l.147.148c-.872.475-2.223.517-3.691.46-.931-.09-1.705-.244-2.076-.565l-.067-.044zm10.16.007c-.694.024-1.433-.002-1.962.201a2.04 2.04 0 01-.686.11c-.683-.022-1.299-.092-1.747-.278l-.074-.038c1.492-.288 2.984-.306 4.469.005z" fill="#D5D5D5"/><path d="M229.411.44c.501-.216 1.215-.194 1.912-.188l.739.395c-.882-.07-1.765-.139-2.651-.207z" fill="#C2C2C2"/><path d="M.767.9C.771.83.771.759.774.688c4.7-.455 9.477-.303 14.27-.253C21.626.505 28.213.464 34.8.47c.224.1.203.193-.06.282-.26.067-.55.115-.869.144-.812.062-1.638.054-2.465.064-.69.004-1.38.005-2.07.008-1.831 0-3.66 0-5.487.003-3.474-.002-6.948 0-10.422.002-3.544.044-7.109-.118-10.632.128-.739.05-1.46-.01-2.028-.2z" fill="#787878"/><path d="M132.148.457l15.787-.1c-.473.756-2.588.711-4.129.948-.981.08-1.986.073-2.984.078-2.9-.043-5.533-.49-8.377-.616-.287-.084-.385-.187-.297-.31z" fill="#9B9B9B"/><path d="M132.147.457c-.01.065-.017.132-.024.198l-.242.112c-.816.166-1.677.308-2.483.48-2.101.37-3.712-.324-5.662-.288l-1.828.002-2.897-.001c-.665-.001-1.334.007-1.992-.037-.511-.037-.953-.116-1.292-.251-1.069-.057-2.284.12-3.177-.219l19.597.004z" fill="#B5B5B5"/><path d="M154.826.426c2.297-.366 4.784-.27 7.081-.146 3.138.172 6.251.14 9.378.16a1.63 1.63 0 01.908.006c.903.823.633.948-2.077.96-1.576-.413-3.401-.494-5.33-.437a32.572 32.572 0 01-2.48-.091c-2.174-.27-4.507.002-6.695-.221-.33-.049-.592-.126-.785-.23z" fill="#A8A8A8"/><path d="M154.826.426l.844.063c.228.09.368.192.431.308-.63 1.217-3.099.49-4.861.515-.861-.108-1.443-.302-1.66-.606-.035-.121.088-.22.368-.299l1.159.058c1.275.202 2.511-.006 3.765-.038l-.046-.001z" fill="#9E9E9E"/><path d="M149.948.407a7.82 7.82 0 01-.087.242c-.445.273-1.271.39-1.986.556a11.5 11.5 0 01-3.11.052c-.28-.05-.486-.122-.619-.217 1.201-.267 2.784-.298 3.789-.685.686-.051 1.393-.182 2.013.052z" fill="#797979"/><path d="M172.01.474l-.721-.034c2.662-.469 5.498-.12 8.244-.2.007.067.014.134.024.202-.504.232-1.253.28-2.034.3-1.86-.035-3.828.173-5.513-.268z" fill="#C1C1C1"/><path d="M154.872.426c-1.222.359-2.483.326-3.765.038 1.258-.003 2.487-.292 3.765-.038z" fill="#A8A8A8"/><path d="M65.778 2.955c-3.268-.37-6.63-.108-9.946-.16-3.456-.053-6.92-.032-10.38-.044 1.191-.773 3.411-.55 5.257-.551 7.305-.003 14.61.085 21.915.05 8.787-.04 17.573-.002 26.36.003 3.645-.053 7.319.138 10.943-.132 2.707-.14 5.337.237 8.044.13 8.64.007 17.279 0 25.915 0 2.518.003 5.039.007 7.557 0 1.303.004 2.602-.077 3.905-.005 1.439.02 2.879.012 4.318.01.357-.002.714-.002 1.068 0 1.418.004 2.84.003 4.258 0h3.215c2.529.049 5.082-.103 7.589.11.347.056.592.143.742.262-5.407.352-10.866.132-16.298.141-23.218.041-46.436.033-69.654.042-4.591.147-9.193.022-13.787.069-1.139.011-2.305-.073-3.415.076l-7.606-.001z" fill="#A3A3A3"/><path d="M213.089 2.541c-3.593.2-7.302-.243-10.849.215-5.852-.287-11.708-.255-17.559-.014-2.746.113-5.404-.304-8.146-.113-.091-.036-.182-.073-.277-.108-.08-.13.046-.231.379-.304 1.691-.273 3.502-.121 5.26-.167.539-.003 1.078-.003 1.618-.001l2.763-.003a29425.023 29425.023 0 0016.133-.001c3.432.082 6.913-.166 10.31.167.371.078.49.188.368.33z" fill="#A3A3A3"/><path d="M73.384 2.956c5.709-.376 11.47-.103 17.202-.144-5.708.351-11.465.091-17.202.144z" fill="#B4B4B4"/><path d="M212.945 2.378c-3.554-.01-7.109-.018-10.663-.027-.067-.499 1.257-.485 2.118-.642a33.936 33.936 0 014.665-.021c2.087.202 4.174.243 6.269.007 1.393-.164 2.798-.314 4.307-.238a39.06 39.06 0 004.09.092c.308.01.606.034.897.072 1.39.384 3.355.078 4.762.44.158.057.218.118.186.18-.035.064-.077.097-.122.097-4.378.153-8.762.057-13.143.05-1.128.098-2.249.113-3.366-.01zM277 1.952c-3.274.657-6.923.28-10.369.362-5.204.125-10.454.028-15.686.026-.21-.106-.175-.203.098-.293.27-.069.571-.117.897-.149.837-.062 1.695-.048 2.542-.073 3.366-.33 6.724.125 10.09.008 3.032.102 5.953-.304 8.982-.209 1.215.038 2.536-.062 3.446.328z" fill="#2D2D2D"/><path d="M229.453 2.336l.011-.182c1.148-.22 2.304-.082 3.169-.106-.935-.248-3.32.352-3.961-.476.26-.17.722-.216 1.24-.231 1.972.248 4.381-.341 6.122.355.318.228.259.437-.267.625l-6.314.015z" fill="#323232"/><path d="M235.767 2.321c0-.194 0-.387-.003-.58a2.45 2.45 0 01.732-.18c.973-.066 1.821.072 2.689.18.774.193 2.319.064 2.277.601a57.14 57.14 0 01-5.695-.02zm15.15-.166c.011.062.018.123.025.185h-7.589c-.147-.433.98-.431 1.716-.565 1.177-.107 2.339-.027 3.509.022.84.075 1.793.07 2.339.358z" fill="#3B3B3B"/><path d="M245.157 1.95l-1.801.39-1.891.003c-.623-.313-2.069-.082-2.619-.444.14-.042.284-.083.424-.126 2.02-.166 4.044-.34 5.887.177z" fill="#1A1A1A"/><path d="M212.945 2.378l3.365.008c-.987.247-2.087.236-3.218.155a.9.9 0 00-.147-.163z" fill="#5D5D5D"/><path d="M253.784 1.332c4.094-1.332 11.693-.264 17.409-.485 2.028.38.695.675-1.294.952-5.368.006-10.804.115-16.018-.166-.444-.064-.608-.13-.483-.198a.751.751 0 01.386-.103z" fill="#4E4E4E"/><path d="M245.373.69c.568-.262 1.181-.494 2.298-.415 1.32.18 2.64.358 3.96.535-.087.05-.175.1-.259.15-1.555.334-3.372.151-5.029.289-.875-.08-1.856-.141-.97-.56z" fill="#6B6B6B"/><path d="M254.104 1.3c.025.083.053.168.077.251.105.117.007.21-.287.28a5.925 5.925 0 01-.921.088c-1.268-.018-2.564.094-3.789-.102-.575-.2-.263-.374.143-.546.596-.22 1.737-.073 2.235-.367l.066-.094c1.037.044 1.313.517 2.476.49z" fill="#595959"/><path d="M223.777 1.698a8.178 8.178 0 01-3.818.038c-.669-.292-1.53-.501-2.507-.661a2.14 2.14 0 01-.581-.195c.203-.21.402-.422.605-.633l1.23-.003c2.584.813 5.964.37 8.93.597 2.374.181 4.979.023 7.48.016l.676.217c.15.056.206.115.168.175-.039.061-.081.092-.123.092-1.94-.101-3.799.46-5.774.076-2.154-.048-4.087.45-6.286.281z" fill="#929292"/><path d="M245.373.69c-.035.288.396.405 1.23.376.956-.073 1.999-.279 2.598.19-1.138.481-2.851.261-4.276.394a7.64 7.64 0 01-1.016-.018c-.928-.157-1.947-.3-1.194-.754l.645-.007a683.66 683.66 0 012.013-.182z" fill="#969696"/><path d="M236.342 1.072c1.365-.388 2.973-.136 4.465-.189.437.298.052.518-.603.713a6.4 6.4 0 01-1.428.068c-.802-.201-2.452-.015-2.434-.592z" fill="#7E7E7E"/><path d="M240.208 1.502c.199-.206.399-.413.595-.619l1.912-.006c-.056.32.858.414 1.285.621a8.014 8.014 0 01-3.792.004z" fill="#898989"/><path d="M236.342 1.072l2.581.433c.21.053.329.122.361.21-.053.086-.197.149-.442.184l.004.002-2.448-.217c-.441-.086-1.033-.146-.623-.386.007-.074.01-.15.017-.223l.273.002.277-.005z" fill="#959595"/><path d="M206.13.64c2.532-.046 5.082-.16 7.505.21.228.105.217.206-.035.304-1.117.264-2.273.137-3.428.043-1.419-.102-3.121.127-4.182-.395.049-.053.095-.107.14-.162z" fill="#929292"/><path d="M213.656 1.082c-.007-.076-.011-.154-.018-.23l3.233.028c.206.002.413.006.62.013.171.585-1.044.763-2.385.905-.75-.073-1.233-.25-1.636-.46-.094-.098-.038-.184.186-.256z" fill="#8F8F8F"/><path d="M202.866.864c.494-.63 2.004-.358 3.166-.396a.68.68 0 01.098.173l-.084.037c-.585.289-1.397.402-2.423.358a2.761 2.761 0 01-.757-.172z" fill="#929292"/><path d="M177.624.454c.645-.003 1.289-.008 1.93-.012l6.3.005c.213.11.182.21-.098.303-2.382.261-4.854.361-7.337.453-.823-.183-1.184-.422-.795-.749z" fill="#AEAEAE"/><path d="M185.868.642a1.846 1.846 0 01-.011-.196c1.699-.05 3.485.174 5.085-.184l1.916.378c-.088.04-.175.079-.26.12-1.348.274-2.819.237-4.296.194a28.23 28.23 0 01-.897-.024c-.613-.037-1.194-.094-1.537-.288z" fill="#B4B4B4"/><path d="M202.866.864l.687.013c-.196.664-1.233.912-3.166.716-.833-.26-1.131-.57-.784-.939.469-.103.935-.119 1.39.01.473.223 1.184.202 1.873.2z" fill="#8D8D8D"/><path d="M200.993.663l-1.289.008c-.571.183-1.18.175-1.814.04-.207-.197-.119-.32.62-.277h.28l.28-.005c.68.043 1.471-.017 1.923.234z" fill="#929292"/><path d="M198.51.434l-.624.241c-.224.23-.749.346-1.4.418-.319.033-.645.05-.977.055-1.089-.041-2.434.083-2.742-.467l.087-.039c1.39.016 2.641-.12 3.779-.382.679-.007 1.376-.035 1.877.174z" fill="#B4B4B4"/><path d="M99.274 2.536c-16.816.021-33.633.041-50.45.07-1.13.002-2.325-.093-3.375.145-8.338-.157-16.673-.084-25.015-.022-6.345.048-12.705-.115-19.057-.186-.365-.384.637-.466 1.246-.633.21-.064.554-.137.273-.238-.29-.106-.763-.068-1.173-.07a5.278 5.278 0 01-.9-.064C1.23.641 3.611.883 5.138.801 7.393.679 9.753.769 12.06.769c1.828.154 3.698.084 5.55.11.775.012 1.888-.063 1.955.318.052.295-.967.296-1.632.367-.35.036-.851-.014-1.002.176a5.428 5.428 0 002.567-.142c.231-.07.438-.143.63-.225 1.745-.908 4.43-.344 6.665-.48 3.117.3 6.31.416 9.543.4 1.064-.007 2.174-.07 3.04.155 1.082.28 1.715-.038 2.52-.14 2.638-.096 5.313.204 7.933-.09 2.399-.073 4.405.827 6.983.308.29-.027.585-.042.886-.051 2.675.071 5.361.005 8.04.06 4.15.212 8.31.369 12.506.185 1.064-.385 2.266-.592 3.828-.331.833.475 1.586.254 2.332-.034.707-.114 1.46-.143 2.227-.141.455-.004.91-.002 1.366.011 2.112.832 4.906.541 7.547.504 1.492.196 3.165.016 4.64.245.294.057.48.14.56.25-.091.315-1.05.171-1.47.312z" fill="#020202"/><path d="M12.702.88c-3.484.021-7-.13-10.422.216-.728.074-.725.079-.28.421.13.077.116.15-.049.219C-.367 1.76-.427 1.429.767.899 4.91.649 9.074.546 13.277.695c.175.039.255.085.238.137-.018.056-.05.083-.099.083-.266.047-.5.032-.714-.035z" fill="#111"/><path d="M1.95 1.737c.018-.073.032-.146.05-.22l-.018-.001c.676-.166 1.475-.185 1.944.03.54.248-.042.448-.693.593-.837.024-1.51.13-1.856.404-1.74-.422.192-.552.574-.806z" fill="#363636"/><path d="M100.532 2.348c0-.068-.007-.135-.018-.202.294-.202.925-.28 1.39-.422a5.58 5.58 0 01.676-.128 5.848 5.848 0 011.166.015c.256.036.491.08.722.13.931.174 1.933.109 2.917.1 1.53-.026 2.255-.459 3.295-.73l1.919-.032c.232.102.599.128.907.189.554.09 1.023.223 1.583.31.883.108 1.762.084 2.644.004.267-.028.533-.046.806-.059a15.611 15.611 0 011.677.022c1.072.17 2.756-.124 3.264.477-.217.304-1.012.348-1.726.426-1.377.06-2.795-.093-4.143.093-2.511.173-4.934-.093-7.396-.167-3.233.124-6.458.155-9.683-.026z" fill="#1A1A1A"/><path d="M62.003.685c4.626.214 9.249-.045 13.875 0 .224.3.974.488 1.415.743-.305.222-.88.287-1.545.3-2.63.128-5.291-.063-7.914.092-1.362.02-1.926-.413-2.96-.58-1.092-.106-2.682.069-2.87-.555z" fill="#6F7070"/><path d="M75.85 1.518l1.327-.22c.122-.727 2.423-.242 3.152-.631l5.056.001c.274.923-1.614.777-3.277.736-1.646-.04-3.3-.09-3.905.612-1.11.008-2.34.074-2.353-.498z" fill="#5D5D5D"/><path d="M94.218.663c3.361.118 6.804-.235 10.117.19-.284.76-2.158.417-3.359.54-1.93.14-3.838.057-5.743-.067-.862-.131-1.688-.27-1.016-.663z" fill="#999"/><path d="M78.364 1.92c-.746-.74 1.012-.553 2.077-.634 1.73-.132 4.024.24 4.948-.615.613.016 1.226.031 1.835.048.385.082.452.207.403.346-.123.186-.567.293-.928.422l-2.56.024c-.655.176-1.317.196-1.982.007-1.152.031-2.606-.182-3.047.421-.27.08-.518.072-.746-.02z" fill="#282828"/><path d="M103.704 1.932a.483.483 0 01-.045-.182c-.312-.13-.368-.27-.172-.422.371-.125.785-.094 1.201-.034 1.541.325 2.735-.101 4.077-.213.637.01 1.278.019 1.915.027.095.734-1.453.904-3.148 1.024-1.191-.254-2.64.054-3.828-.2z" fill="#3C3C3C"/><path d="M62.003.685c.875.41 2.108.225 3.236.214.465.516-.575.629-1.678.615-1.352-.017-2.69.063-4.03.012a12.89 12.89 0 01-1.01-.094c-1.246-.473.505-.526.964-.761l2.518.014z" fill="#606060"/><path d="M94.218.663c.045.27.49.407 1.281.43-.252.587-.252.587-3.421.472a9.683 9.683 0 01-.939-.101c-.847-.183-1.649-.377-1.362-.782l4.44-.019z" fill="#6F6F6F"/><path d="M108.762 1.08c-1.082.62-2.424.93-4.455.418.41-.12.105-.38.781-.448.679-.027 1.478.157 2.021-.113.977-.484 1.194-.018 1.653.144z" fill="#7A7A7A"/><path d="M113.17 1.304c-.189-.075-.382-.15-.571-.227 1.205.003 2.459.052 3.128-.405h1.239c.484.136.673.348 1.138.488.197.057.34.125.442.205.073.134.028.254-.382.325l.053.012c-.666.21-1.482.09-2.231.112-1.002-.131-1.842-.362-2.816-.51z" fill="#A0A0A0"/><path d="M80.332.668c-.5.517-2.328.294-3.155.632-1.66.084-1.53-.252-1.3-.614l4.455-.018z" fill="#7C7C7C"/><path d="M89.777.681c.438.202.88.403 1.317.605-.806.283-1.748-.004-2.606.071-.5-.058-1.054-.09-1.274-.287l.01-.353 2.553-.036z" fill="#464646"/><path d="M105.091 1.05c-.133.174-.206.36-.781.448l-.606-.196c-.462.184-1.194.203-1.775.315a5.83 5.83 0 01-.837.015c-.774-.116-1.187-.274-.546-.546 1.25-.105 2.728.209 3.789-.233l.756.197z" fill="#525252"/><path d="M59.481.67c.032.317-.872.41-1.306.615-1.947.16-1.75-.18-1.236-.592l.003-.088c.844.02 1.692.043 2.54.065z" fill="#777"/><path d="M34.859.648L48.082.645c.655.268.344.48-.346.669-1.636.278-3.163-.158-4.836-.09-.782.03-1.23.202-1.91.227-2.268-.166-4.723.23-6.884-.256-.298-.17-.333-.338.049-.499l.704-.048z" fill="#4A4A4A"/><path d="M34.24 1.06c2.395.492 5.01.163 7.522.223.164.05.224.099.175.15a.215.215 0 01-.158.076c-.532.333-.784.962-2.367.302-.925-.386-2-.22-3.131-.234-3.064-.038-6.198.006-9.053-.489-.154-.05-.213-.102-.189-.158.028-.057.067-.085.109-.085.868-.073 1.926.176 2.637-.17.613.001 1.222.005 1.835.007.728.238 2.09-.013 2.62.379z" fill="#161616"/><path d="M13.41.861a.84.84 0 00-.134-.165c3.607.006 7.218.012 10.825.02.102.151-.08.236-.543.253-3.386.02-6.783.119-10.149-.108z" fill="#404040"/><path d="M24.07.85a.49.49 0 01.035-.136l5.687-.041c-.301.837-1.52.387-2.55.203-1.071.143-2.132.184-3.172-.026zm10.17.21c-.579-.03-1.132-.227-1.738-.042-.319.098-.683.223-.98.051-.158-.092.06-.256.105-.388l2.532.014c.024.122.052.244.08.366z" fill="#373737"/><path d="M132.123.655c3.138-.2 5.915.38 8.923.458.021.12-.109.218-.389.295-1.607.298-3.239.156-4.871.03-2.294-.11-3.95.727-6.339.481-1.201-.231-3.186.081-3.743-.598 1.264-.313 2.843.036 4.136-.219.532-.28 1.733-.176 2.283-.447z" fill="#7A7A7A"/><path d="M140.92 1.272a.93.93 0 01.126-.16l3.099-.072-.042.09c.074.28-.553.324-1.141.383-.631.028-1.226.002-1.769-.118l-.273-.123z" fill="#575757"/><path d="M130.249 1.087c-1.351.41-3.06.093-4.535.25-.539.186-1.201.18-1.887.132a3.298 3.298 0 01-.669-.141c-.116-.081-.158-.166-.133-.255.129-.18.546-.288.896-.414 2.035-.092 3.478.715 5.649.414a1.06 1.06 0 01.679.014z" fill="#8D8D8D"/><path d="M118.231 1.29c-.466.04-1.142.167-1.359.107-.809-.224.266-.474.098-.725l1.905-.006c.627.307.249.495-.644.623z" fill="#A3A3A3"/><path d="M118.23 1.289l.645-.622h3.162c.315.24-.087.394-.571.54-.977.167-1.957.34-3.081.134-.004 0-.155-.052-.155-.052z" fill="#A0A0A0"/><path d="M130.249 1.087l-.679-.014c.291-.52 1.53-.392 2.55-.416-.057.417-.967.42-1.871.43z" fill="#9B9B9B"/><path d="M121.382 1.048l.652-.38 1.887-.01c-.021.178-.164.335-.662.431-.658.161-1.292.182-1.877-.041z" fill="#959595"/><path d="M162.478.661l2.535.008c2.224.474 2.189.547-.591 1.167-.33.03-.666.038-1.009.029-1.768-.167-4.461.114-4.304-.988.97-.335 2.227-.17 3.369-.216z" fill="#909090"/><path d="M177.624.454l.652.624c.585.242 2.479-.069 2.132.566-.588.281-1.365.15-2.097.11a7.936 7.936 0 01-.799-.123c-.697-.155-1.001-.433-1.656-.6-.722-.089-1.222.06-1.755.178-1.257.362-2.472.82-4.156.207.056-.047.112-.095.171-.142 2.021.102 2.336-.248 1.898-.799 1.87-.008 3.74-.014 5.61-.02z" fill="#8C8C8C"/><path d="M164.362 1.68c.449-.32 2.791-.505.648-1.01 1.87.04 4.08-.238 5.099.603l-.091.037c-1.534.157-2.889.475-4.511.553-.465 0-.882-.038-1.145-.184z" fill="#8D8D8D"/><path d="M162.478.661c-.889.333-2.094.159-3.152.216-.648.201-1.397.257-2.245.183-.675-.054-1.061-.232-1.495-.39-.01-.062.018-.122.088-.18 2.269.042 4.608-.22 6.804.171z" fill="#757575"/><path d="M47.477 1.3l.606-.655 1.873.03c1.46.437 3.614.326 5.134.72.725.06 1.481.1 1.923.34-1.692.264-3.338.605-4.91-.117-.298-.136-1.373-.082-2.087-.116-.74-.225-1.804.017-2.54-.201z" fill="#393939"/><path d="M54.407 1.715c-.781-.684-4.185-.112-4.455-1.04l1.3-.006c.627.227 1.264.223 1.908.01l2.515-.02c1.204.571-.08.806-1.268 1.056z" fill="#707070"/><path d="M54.407 1.715c.67-.319 1.405-.628 1.268-1.055l1.264.033c.063.28.042.578 1.24.594.227.004.452.01.68.016.332.402-.978.233-1.282.412a9.92 9.92 0 01-.564.02l-2.606-.02z" fill="#515151"/><path d="M53.16.679c-.104.163-.199.337-.826.36-.809.03-.977-.164-1.086-.37l1.913.01z" fill="#787878"/><path d="M155.583.67l1.19.2c.491.406 3.236.167 2.424.947-.795.188-1.713.18-2.623.187-.301.002-.603-.003-.904-.01a16.007 16.007 0 01-1.306-.094 39.351 39.351 0 01-1.6-.224c-.673-.148-1.73-.17-1.681-.559.931-.034 1.835-.035 2.742.09 1.628.225 1.649-.181 1.758-.537z" fill="#676767"/><path d="M151.079 1.117l1.926.386c-.196.24-.669.404-1.288.53a5.981 5.981 0 01-1.251.032c-1.204-.112-1.674-.467-2.293-.774-.154-.076-.253-.16-.305-.25.2-.394 1.145-.365 1.993-.392l1.218.468z" fill="#484848"/><path d="M142.825 1.32l1.278-.19 3.768-.09.109.074c.137.099.088.187-.123.268-.483.128-1.057.181-1.642.224-1.187.113-2.021.704-3.593.297-.315-.208-.238-.404.203-.583z" fill="#3F3F3F"/><path d="M142.92 1.92c1.526.083 1.677-.644 3.148-.597.567.204 1.289.295 2.094.328.753.12 1.597.148 2.353.262.386 0 .771 0 1.156.002.809-.18 1.586-.405 2.665-.213l1.187.024c1.562.35 3.201.216 4.84.088.298-.006.578.012.847.054.344.114.428.25.33.404-.182.155-.61.199-1.023.25-.175.009-.35.01-.525.005-1.503-.106-3.005-.136-4.5.015l-3.775-.007c-2.602-.182-5.236-.033-7.852-.08-6.429-.003-12.856.004-19.282-.004-1.775-.3-.206-.445.263-.641a6.923 6.923 0 011.04-.092c1.544-.03 3.078.03 4.602.11 1.474.163 2.868-.005 4.276-.123.822-.066 1.663-.067 2.5-.08.697-.014 1.39-.008 2.087-.002 1.257.01 2.546-.026 3.569.298z" fill="#1B1B1B"/><path d="M124.002 2.313l20.133.052c.224.035.301.072.231.11a.443.443 0 01-.217.057l-26.538.008c1.348-.364 2.98-.108 4.441-.227.651-.08 1.302-.122 1.95 0z" fill="#2C2C2C"/><path d="M100.532 2.348c3.225.009 6.454.016 9.679.024-3.603.369-7.298.05-10.936.164.42-.062.84-.124 1.257-.188z" fill="#1F1F1F"/><path d="M168.137 2.55l-3.12.003c-.396-.142-1.128-.047-1.464-.232-.07-.222.235-.368.827-.456.294-.021.584-.016.872.015 1.285.056 2.805-.163 3.701.35.053.198-.455.24-.816.32z" fill="#161616"/><path d="M168.137 2.55c.221-.065.438-.132.659-.198a4.47 4.47 0 01.879-.215 44.563 44.563 0 015.97.004c.347.05.617.132.813.24a.538.538 0 01-.189.139l-8.132.03z" fill="#5A5A5A"/><path d="M144.149 2.532c-.004-.057-.007-.112-.014-.169 2.521.082 5.123-.226 7.578.172l-7.564-.003z" fill="#282828"/><path d="M155.488 2.542c1.492-.278 2.994-.206 4.5-.015-1.499.006-3.001.01-4.5.015zm8.268-.205c.421.071.841.144 1.261.216l-4.503-.03c.231-.063.458-.125.686-.189.855-.208 1.709-.254 2.556.003z" fill="#5B5B5B"/><path d="M201.014 2.36l-15.164-.01c1.202-.916 3.66-.343 5.484-.517 1.114.002 2.231.002 3.345.002 1.66.014 3.323-.026 4.98.042.714.079 1.516.132 1.355.483z" fill="#2D2D2D"/><path d="M191.559 2.13c-1.891.107-3.923-.198-5.705.22l-2.521-.044c-.179-.267.238-.427.879-.549.805-.122 1.67-.118 2.528-.127 1.551.034 3.162-.103 4.619.188.312.087.378.19.2.312z" fill="#1E1E1E"/><path d="M176.454 2.382l-.738-.068c-.134-.101-.085-.19.147-.27.914-.21 2.017-.187 3.036-.273.602.018 1.201.058 1.814.03.746.089 1.485.18 1.348.523l-5.607.058z" fill="#242424"/><path d="M201.014 2.36c-.273-.168-.743-.212-1.261-.226-.207-.111-.165-.21.13-.297 1.306-.155 2.626-.214 3.964-.041l.364.12-1.93.435-1.267.01z" fill="#131313"/><path d="M182.061 2.324l-1.191-.364a4.606 4.606 0 013.047-.004l-.581.35-1.275.018z" fill="#111"/><path d="M213.656 1.082c.003.072.003.143.007.215.137.23.886.255 1.24.414a9.017 9.017 0 002.588-.82c1.891-.067 2.584.257 2.468.844-1.523-.05-2.976.058-4.412.215-1.026.16-2.115.048-3.166.082-1.733-.041-2.448-.5-3.302-.902.27-.21 1.05-.1 1.415-.251.987.185 2.048.236 3.162.203z" fill="#818181"/><path d="M209.247 1.082l2.567.829c-.841.195-1.713.144-2.592.037-1.67-.01-3.337-.02-5.007-.033l.007-.003c-.239-.094-.274-.196-.112-.307 1.222-.708 3.06-.745 5.137-.523z" fill="#5D5D5D"/><path d="M228.819 1.509c.932.642 2.862.338 4.318.589l-3.673.055c-1.653-.174-3.8.354-5.043-.397 1.464-.09 2.752-.521 4.398-.247z" fill="#1B1B1B"/><path d="M228.82 1.509c-1.468.082-2.931.164-4.399.248l-.644-.059c2.035-.254 4.024-.589 6.31-.4.183.058.239.114.169.17a.344.344 0 01-.204.08l-1.232-.04z" fill="#868686"/><path d="M209.219 1.95l2.592-.038 3.736.04c-2.108.301-4.22.297-6.328-.002z" fill="#414141"/><path d="M254.083 1.705a1.21 1.21 0 01.098-.155c1.975-.339 3.786.019 5.652.147l-.056.03c1.18.253 2.627-.063 3.8.2.164.06.329.12.493.178-3.312.103-6.629-.27-9.942.005-.406-.13-.402-.265-.045-.405z" fill="#0D0D0D"/><path d="M254.083 1.705c.014.136.031.27.045.405l-2.57.017c-.144-.05-.2-.103-.168-.158.031-.057.07-.085.112-.085.606-.121 1.394.019 1.961-.153.207-.014.413-.022.62-.026z" fill="#161616"/><path d="M251.558 1.937a.877.877 0 010 .191c-.214.01-.427.02-.641.028-.865-.052-1.881.08-2.535-.23.129-.033.259-.064.385-.097.931.035 1.922-.106 2.791.108z" fill="#0F0F0F"/><path d="M230.049 1.548c.014-.084.024-.167.038-.25 1.895.133 3.793-.315 5.688 0l.623.385-.63.057c-1.793-.446-3.947.32-5.719-.192z" fill="#8A8A8A"/><path d="M238.839 1.898a.36.36 0 01.084-.185c1.968-.245 4.051.023 6.034-.156 1.106-.055 2.213-.101 3.284.059.344.088.41.195.193.32l-.052-.01c-1.062.235-2.158-.076-3.229.024-2.105-.018-4.21-.036-6.314-.052z" fill="#3F3F3F"/><path d="M249.071 1.291c-.609-.338-1.639-.163-2.472-.226 1.562-.368 3.295-.149 4.962-.16 1.348 1.21-1.628.111-1.978.413-.207.07-.379.061-.512-.027z" fill="#333"/><path d="M249.072 1.291c.175.001.343.01.511.027l-.62.372c-.098.116-.28.127-.536.047l-3.201-.006c-.171-.086-.567-.106-.602-.23 1.348-.397 2.973-.126 4.448-.21z" fill="#9D9D9D"/><path d="M248.427 1.736c.179-.017.357-.032.536-.047 1.502.014 3.001.028 4.503.04-.486.223-1.218.191-1.908.207l-3.12-.002a.383.383 0 01-.011-.198z" fill="#262626"/><path d="M244.627 1.5l.603.23c-2.102-.006-4.203-.012-6.304-.016a.692.692 0 01-.003-.209l1.288-.002 3.796-.003.312.004.308-.004z" fill="#777"/><path d="M209.247 1.082c-2.143-.202-3.47.328-5.05.63-1.159.215-2.392.078-3.593.087-.34-.079-.403-.177-.182-.296 1.544.07 2.199-.356 3.138-.627l2.493-.2c1.359.374 2.97.12 4.448.201-.291.158-.746.2-1.254.205z" fill="#848484"/><path d="M214.899 1.711c-.665-.042-1.488.141-1.954-.132-.063-.036.462-.184.714-.282.785.016 1.229.141 1.24.414z" fill="#A0A0A0"/><path d="M180.17 1.708c.067-.445-1.474-.349-1.894-.628 2.398-.402 4.965-.473 7.588-.437l1.902.051c.112.248-.455.341-.932.454-1.008.197-1.474.654-2.861.672-1.26-.053-2.588.121-3.803-.113z" fill="#989898"/><path d="M186.411.91l1.358-.216c.197-.01.389-.015.589-.012.872.127 1.344.474 2.752.295 1.44-.182 3.096-.045 4.556.197.466.976-2.09.429-3.064.68a6.758 6.758 0 01-.9-.01c-.41-.022-.837-.039-1.247-.019-2.188.104-3.908-.013-4.044-.916z" fill="#848484"/><path d="M195.327 1.294c-1.156-.213-2.7-.39-3.593-.143-2.347.655-2.686.022-3.376-.47l4.409-.001c.928.308 2.094.16 3.172.182.449.248-.129.333-.612.432z" fill="#989898"/><path d="M200.419 1.503a.381.381 0 000 .201c-.438.15-.999.16-1.576.152a3.734 3.734 0 01-.722-.146c-.452-.24-1.162-.397-1.726-.6-.102-.096-.056-.18.164-.254l1.328-.183 1.817-.004c.501.254.715.534.715.834z" fill="#5C5C5C"/><path d="M196.56.857l.01.214c.55.234.623.473.053.715-1.51.185-3.005.252-4.448-.068.676-.451 2.539.08 3.152-.424.203-.144.41-.287.613-.432l.308-.007.312.002z" fill="gray"/><path d="M24.07.85l3.169.026c-.004.07-.004.141-.007.212-2.382.139-5.334-.439-6.973.624-.515-.158-1.148-.077-1.733-.096.585.03 1.222-.058 1.75.093-.363.289-1.032.42-1.957.429-1.274.012-2.962.038-3.116-.446-.183-.576 1.607-.325 2.584-.397.371-.027.76-.024 1.726-.05-2.588-.355-4.899.102-6.807-.364l.707-.019C16.964.857 20.515.854 24.07.85z" fill="#0B0B0B"/><path d="M78.364 1.92c.249.006.498.012.746.02a81.646 81.646 0 01-13.321-.222c.427-.136.872-.116 1.323-.015 2.882-.23 5.803-.245 8.738-.184.553.333 1.457.421 2.514.4z" fill="#232323"/><path d="M88.478 1.27c.883-.16 1.744.015 2.616.018.182.012.368.019.553.019 1.944.468 4.336.028 6.353.354.21.108.203.215-.017.32-.858.063-1.713.11-2.543-.037-1.516.065-3.033.173-4.549.175-.896.001-3.022.262-1.807-.563l-1.201-.058c-.14-.177.035-.258.595-.228z" fill="#282828"/><path d="M67.112 1.702l-1.323.015c-2.739.152-5.477.102-8.216-.004l1.282-.412c2.066-.24 4.664.455 6.38-.404 1.11.144 1.278.53 1.877.805z" fill="#393939"/><path d="M47.477 1.3c.882.011 1.838-.078 2.532.2-1.128.076-2.557-.173-3.25.369-.277.217-.82.207-1.12 0-.897-.615-2.554-.27-3.86-.361-.007-.076-.01-.15-.018-.226 1.174-.493 2.665-.363 4.07-.187.543.068.998.218 1.646.206z" fill="#151515"/><path d="M82.157 1.517l1.982-.007c.396.3.364.563-.805.593-1.279.034-1.625-.201-1.177-.586z" fill="#202020"/><path d="M95.44 1.943l2.644-.029c1.425-.389 2.868-.252 4.314-.014-.406.272-1.18.23-1.884.246-1.688-.074-3.491.172-5.074-.203z" fill="#1F1F1F"/><path d="M3.233 2.14c.907-.503.287-.665-1.25-.624.735-.276 1.67-.332 2.255-.024.56.295.227.587-1.005.648z" fill="#111"/><path d="M88.478 1.27l-.595.227-1.184-.01c-.018-.165.052-.318.515-.416.423.065.844.132 1.264.2z" fill="#525252"/><path d="M121.382 1.048l1.881.041c.042.06.073.121.091.184-.953.254-1.751.629-3.239.46l-1.951-.044c.074-.117.144-.233.217-.35l3.001-.291z" fill="#4F4F4F"/><path d="M120.115 1.733c1.215-.046 1.824-.57 3.239-.46l-.025.003c.613.173 1.254.343.778.66a1.69 1.69 0 01-.83.002c-.928-.29-2.301.197-3.162-.205z" fill="#333"/><path d="M102.398 1.9l-4.314.016a1.282 1.282 0 01-.15-.178c1.053-.51 2.65.019 3.844-.226l.053-.008c.623-.061.784.024.616.215-.014.06-.028.12-.049.181z" fill="#525252"/><path d="M115.695 1.72c.841-.007 1.681-.012 2.521-.02-1.246.36-2.514.33-3.803.026.421-.142.851-.127 1.282-.005z" fill="#3C3C3C"/><path d="M103.705 1.932c1.271.073 2.679-.136 3.827.2-1.285-.05-2.693.166-3.827-.2z" fill="#1F1F1F"/><path d="M115.695 1.72l-1.281.006c-.414-.14-.83-.28-1.244-.422 1.121-.05 2.018.052 2.525.416z" fill="#4F4F4F"/><path d="M123.277 1.937l.665-.014a2.186 2.186 0 011.254.017l-1.191.373-1.95-.001 1.222-.375z" fill="#1F1F1F"/><path d="M102.447 1.72l-.616-.216c.466-.234 1.187-.2 1.873-.201-.014.15-.031.299-.045.448l-1.212-.032z" fill="#3C3C3C"/><path d="M101.778 1.513c-1.124.371-2.574.128-3.845.225-2.14-.071-4.486.193-6.282-.431 1.176-.282 2.913.557 3.848-.213 1.681-.076 3.37.27 5.047-.007.038.26.437.407 1.232.426z" fill="#606060"/><path d="M130.866 1.943l-5.089-.032c1.051-.572 2.518-.239 3.853-.199 2.475.254 3.698-.929 6.233-.608.455.268 1.485.424 1.422.796l-2.606.036a16.608 16.608 0 01-3.813.007z" fill="#2C2C2C"/><path d="M137.282 1.9c-.82-.197-1.478-.427-1.422-.797 1.628.254 3.351.187 5.057.168l.196.07c.553.7-1.489.345-2.094.575l-1.737-.017z" fill="#575757"/><path d="M129.63 1.711c-1.282.073-2.693-.141-3.853.199-.196.006-.388.016-.581.03-.417-.007-.837-.013-1.254-.018-.203-.217-.409-.432-.612-.648l2.384.06c1.118.345 2.837-.014 3.916.377z" fill="#4B4B4B"/><path d="M139.022 1.915c.613-.226 1.975-.149 2.094-.575l1.709-.02.094.6-3.897-.005z" fill="#252525"/><path d="M161.203 1.956l-.665.015c-.21.042-.431.047-.662.02-.336-.058-.525-.15-.55-.276-.252-.484-3.204-.057-2.553-.845l2.553.009c.277 1.003 3.24.372 4.437.813-.238.203-.721.307-1.313.37a4.122 4.122 0 01-1.247-.106z" fill="#818181"/><path d="M162.426 1.903l1.337-.21.301.004.298-.018 1.191.015c1.436-.05 2.843-.356 4.318-.052.311.103.325.211.038.324A29.11 29.11 0 01165 1.932l-.631.006c-.672.134-1.331.186-1.943-.035z" fill="#5A5A5A"/><path d="M170.042 1.909c.028-.057.064-.112.106-.167.879-.254 2.08-.043 3.004-.232 1.73-.214 3.436.024 5.155.028.62.057 1.243.113 1.863.168 1.475.004 2.945.009 4.42.012.851-.163 1.639-.255 1.954.193l-2.63.045c-1.016 0-2.031.002-3.047.004-.683-.004-1.362-.01-2.045-.013-1.002.172-2.098.033-3.127.107-1.765.118-3.527.15-5.288-.014a20.34 20.34 0 00-.365-.131z" fill="#303030"/><path d="M173.215 1.723l-3.067.019-4.595-.049c1.492-.124 2.563-.794 4.469-.383 1.975.566 2.728-.119 3.859-.42 1.989.475.413.632-.666.833z" fill="#686868"/><path d="M173.215 1.723c.704-.235 1.523-.46.665-.833.743-.168 1.517-.292 2.452-.211.161.325.164.68 1.359.815l.616.044c-1.607.339-3.4.1-5.092.185z" fill="#5C5C5C"/><path d="M177.691 1.494c-1.744-.032-2.122-.318-1.359-.815l1.359.815z" fill="#686868"/><path d="M159.96 1.918c.196.012.389.03.578.053-1.779.158-3.642.52-5.018-.245l.304-.008.309.004c1.187.26 2.633-.046 3.827.196z" fill="#212121"/><path d="M154.333 1.702l-2.662.213c.105-.26.557-.396 1.331-.412l1.331.199z" fill="#282828"/><path d="M159.96 1.918c-1.288-.035-2.679.142-3.827-.196l3.193-.008c.211.069.424.136.634.204z" fill="#5B5B5B"/><path d="M150.515 1.913l-3.26.01c-.34-.278.501-.42.658-.64a.565.565 0 01.063-.17c2.133-.187 1.114.74 2.539.8z" fill="#282828"/><path d="M147.917 1.282c1.208.377-.466.425-.658.64-.757-.12-1.198-.31-1.191-.599l1.849-.04z" fill="#111"/><path d="M162.426 1.903l1.943.035c-.203.133-.409.266-.613.398-.851 0-1.705 0-2.556-.002v-.377c.41-.02.816-.037 1.226-.054z" fill="#212121"/><path d="M130.866 1.943l3.81-.008a8.12 8.12 0 01-3.81.008z" fill="#252525"/><path d="M165 1.93c1.68-.007 3.361-.014 5.046-.023l.003.054c.319.22-.283.276-.609.38l-.644.01c-.981-.428-2.812.004-3.796-.42z" fill="#212121"/><path d="M169.437 2.341c.203-.126.406-.252.613-.378l5.69-.03c.235.046.312.093.238.14a.442.442 0 01-.231.072.718.718 0 01-.031.17c-2.091.007-4.185.017-6.279.026z" fill="#161616"/><path d="M192.175 1.718l4.37-.01a1.43 1.43 0 01.799.027c-.277.576-1.968.105-2.63.397l-3.152-.003c-.011-.066-.014-.132-.018-.2.067-.128.431-.137.687-.188l-.056-.023z" fill="#141414"/><path d="M194.71 2.133l2.518-.411c-.392-.146-.406-.35.06-.408 1.029-.129.704.302 1.236.4l.031-.02c.231.175.946.083 1.202.244v.198l-5.047-.003z" fill="#131313"/><path d="M192.227 1.742l-.686.189-4.997-.02c-.519-.214-1.261-.173-1.954-.193.686-.25.168-.803 1.821-.81 1.033.985 3.61.764 5.816.834z" fill="#606060"/><path d="M175.747 2.144c-.003-.07-.003-.141-.007-.212l3.082.014c-.876.322-2.042.145-3.075.198z" fill="#151515"/><path d="M199.753 1.937c-.504-.024-.998-.053-1.201-.243l1.863.01 3.775.007c.003.067.01.134.024.201-1.481.01-2.973.018-4.461.025z" fill="#323232"/><path d="M181.325 1.35c.109-.158.459-.222.883-.226.406-.003.89.023.742.214-.052.067-.43.13-.689.15-.372.028-.799.037-.936-.138z" fill="#B8B8B8"/><path d="M198.524 1.713c-.424.13-.904-.655-1.296.009-.228-.004-.455-.009-.683-.012.011-.213.018-.426.028-.639 1.464-.063 2.017.185 1.951.642z" fill="#1E1E1E"/><path d="M20.273 1.709c-1.064-.045-2.104.267-4.03-.07 1.887-.166 2.938-.28 4.013.073a.15.15 0 00.017-.003z" fill="#404040"/></svg>