<svg width="6" height="43" fill="none" xmlns="http://www.w3.org/2000/svg" preserveAspectRatio="none"><path d="M.243 27.15c-.715-1.626.416-3.247.003-4.874l.304-.126c.976.747 1.06 1.906.945 3.164-.184.798-.503 1.462-1.162 1.78l-.09.057z" fill="#D5D5D5"/><path d="M.762 40.699c-.024.192-.045.38-.07.573-.964-2.11-.246-4.365-.41-6.541l.415-.018c.476.402.575.993.616 1.615-.072 1.477.356 3.035-.55 4.37z" fill="#C1C1C1"/><path d="M5.01 8.104c.41 2.851-.5 5.793.442 8.606-.59 4.641-.524 9.291-.029 13.932.232 2.176-.625 4.287-.232 6.463-.074.072-.15.144-.222.22-.268.062-.476-.037-.626-.3-.56-1.343-.248-2.78-.343-4.174a75.54 75.54 0 01-.002-1.281c0-.73-.003-1.462-.005-2.192.002-3.81 0-7.619-.002-11.428-.003-.456-.003-.916 0-1.372.169-2.723-.341-5.484.343-8.18.16-.294.389-.39.676-.294z" fill="#A3A3A3"/><path d="M4.914 10.661c-.022 2.237-.042 4.476-.063 6.713-1.153.042-1.117-.793-1.484-1.333a5.923 5.923 0 01-.05-2.936c.468-1.315.56-2.63.016-3.948-.376-.88-.724-1.762-.548-2.713.249-.847.29-1.708.213-2.576.021-.195.08-.381.166-.564.887-.877.182-2.11 1.015-3a.55.55 0 01.418-.116c.147.02.222.048.222.078.355 2.755.136 5.517.114 8.276.23.708.266 1.414-.02 2.12z" fill="#2D2D2D"/><path d="M4.674 8.233l.017-2.885c.508.846.486 1.79.32 2.759a2.314 2.314 0 00-.337.126z" fill="#5D5D5D"/><path d="M1.106 14.072c-.095-2.17-.329-4.356.432-6.434.215-.195.423-.186.623.03.544.958.283 1.949.09 2.94-.21 1.215.26 2.674-.812 3.583a14.828 14.828 0 01-.333-.12z" fill="#929292"/><path d="M2.012 7.623c-.157.006-.317.01-.474.015l.058-2.77a9.77 9.77 0 01.027-.532c1.203-.147 1.568.895 1.86 2.045-.15.642-.515 1.056-.947 1.401-.2.082-.377.033-.524-.159z" fill="#8F8F8F"/><path d="M1.565 16.872C.267 16.45.828 15.155.75 14.16c.116-.036.234-.067.355-.085l.075.073c.594.5.826 1.197.737 2.077a1.405 1.405 0 01-.353.648z" fill="#929292"/><path d="M.721 38.507c-.007-.552-.016-1.105-.024-1.654.003-1.801.008-3.6.01-5.4.227-.183.432-.156.623.084.537 2.041.742 4.16.93 6.289-.376.705-.867 1.017-1.539.681z" fill="#AEAEAE"/><path d="M1.11 31.444c-.135.003-.268.009-.403.009-.104-1.453.358-2.987-.377-4.36l.776-1.641c.082.075.161.15.246.222.563 1.156.488 2.416.399 3.683a10.15 10.15 0 01-.049.769c-.08.525-.193 1.02-.592 1.318z" fill="#B4B4B4"/><path d="M1.565 16.872c.01-.195.017-.393.026-.588 1.363.168 1.873 1.057 1.472 2.714-.534.714-1.172.97-1.93.672-.213-.402-.245-.801.021-1.192.46-.405.413-1.014.41-1.606z" fill="#8D8D8D"/><path d="M1.152 18.478l.014 1.105c.377.49.36 1.012.083 1.555-.404.177-.655.102-.568-.531v-.24l-.01-.24c.087-.583-.034-1.261.48-1.649z" fill="#929292"/><path d="M.68 20.607l.496.534c.473.192.71.642.857 1.2.068.274.104.553.114.838-.085.934.171 2.087-.96 2.35l-.079-.074a6.255 6.255 0 00-.785-3.24c-.015-.585-.073-1.18.357-1.608z" fill="#B4B4B4"/><path d="M.722 36.244c.427-.171.855-.346 1.283-.517.495-.465-.143-1.969 1.162-1.693.577.466.307 1.084.227 1.666-.06.222-.148.436-.254.634-.319.552-.889.792-1.232 1.315-.184.57.123.97.365 1.392.744.997 1.686 1.964.425 3.3-.097-.046-.196-.09-.292-.136.21-1.602-.51-1.852-1.64-1.506-.018-1.483-.03-2.97-.044-4.455z" fill="#8C8C8C"/><path d="M4.64 18.457l-.022 12.999c-1.882-1.03-.703-3.137-1.06-4.701.002-.955.002-1.913.002-2.867.03-1.423-.053-2.85.087-4.269.162-.612.268-1.3.993-1.162z" fill="#2D2D2D"/><path d="M4.164 26.566c.22 1.62-.405 3.362.452 4.89l-.09 2.161c-.548.153-.876-.204-1.127-.753-.252-.69-.242-1.432-.261-2.168.07-1.33-.213-2.71.386-3.96.179-.27.392-.324.64-.17z" fill="#1E1E1E"/><path d="M4.684 37.174l-.14.586c-.208.105-.391.066-.553-.117-.435-.727-.387-1.6-.563-2.408.036-.477.118-.954.063-1.438.18-.591.367-1.177 1.072-1.069.041 1.48.082 2.963.121 4.446z" fill="#242424"/><path d="M4.64 18.457c-.345.235-.434.637-.463 1.081-.23.177-.433.141-.612-.111-.318-1.12-.44-2.252-.084-3.398.082-.105.167-.207.249-.312l.891 1.654c.005.363.012.726.02 1.086z" fill="#131313"/><path d="M4.565 34.707l-.746 1.02c-.718-.867-.713-1.735-.01-2.611l.72.498.036 1.093z" fill="#111"/><path d="M2.012 7.623c.147-.003.294-.003.442-.006.473-.117.524-.76.85-1.062C2.932 5.59 2.3 4.934 1.62 4.336c-.137-1.62.527-2.215 1.733-2.116-.102 1.306.12 2.552.442 3.782.33.88.099 1.813.169 2.714-.085 1.486-1.03 2.098-1.853 2.83-.433-.23-.206-.9-.517-1.212.381-.846.485-1.759.418-2.71z" fill="#818181"/><path d="M2.012 11.403l1.703-2.2c.401.72.297 1.467.077 2.22-.021 1.433-.043 2.862-.067 4.293l-.008-.005c-.193.204-.403.234-.63.096-1.455-1.048-1.532-2.624-1.075-4.404z" fill="#5D5D5D"/><path d="M3.795 11.427c-.027-.742-.054-1.48-.078-2.222l.08-3.203c.62 1.807.611 3.615-.002 5.425z" fill="#414141"/><path d="M2.012 11.403c-.416 1.837.674 2.975 1.295 4.329.442.993.16 2.05.179 3.08-.162.29-.365.345-.61.156.146-1.324-.731-1.886-1.287-2.69-.138-.712-.275-1.426-.41-2.137.768-1.165.243-2.546.412-3.813.324.25.411.64.42 1.075z" fill="#848484"/><path d="M3.305 6.555c-.087.57.29 1.275-.271 1.675-.075.054-.38-.397-.58-.613.032-.67.292-1.053.85-1.062z" fill="#A0A0A0"/><path d="M3.297 36.328c-.913-.057-.715 1.264-1.29 1.624-.829-2.056-.974-4.26-.896-6.508.033-.544.07-1.087.103-1.63.51-.096.701.39.933.798.406.865 1.343 1.264 1.382 2.453-.109 1.083.251 2.218-.232 3.263z" fill="#989898"/><path d="M1.657 30.978c-.148-.387-.295-.777-.442-1.165a2.924 2.924 0 01-.025-.504c.261-.747.974-1.152.607-2.36-.375-1.23-.094-2.653.4-3.905 2.006-.4.883 1.792 1.4 2.627.034.258.026.516-.022.771-.046.352-.08.718-.039 1.07.215 1.875-.021 3.35-1.88 3.466z" fill="#848484"/><path d="M2.45 23.335c-.438.991-.803 2.315-.293 3.08 1.346 2.012.043 2.303-.967 2.894l-.002-3.78c.633-.795.329-1.794.374-2.719.51-.384.684.108.887.526z" fill="#989898"/><path d="M2.879 18.97c.138.016.275.016.413 0 .31.376.329.856.312 1.352-.06.234-.164.438-.3.618-.493.387-.816.996-1.234 1.48-.196.087-.37.048-.52-.141l-.377-1.138c0-.52-.005-1.039-.007-1.558a2.602 2.602 0 011.713-.612z" fill="#5C5C5C"/><path d="M1.55 22.279l.44-.01c.48-.47.971-.534 1.469-.044.38 1.294.517 2.575-.14 3.812-.928-.58.164-2.176-.872-2.701-.295-.175-.59-.352-.887-.526l-.015-.264.005-.267z" fill="gray"/><path d="M3.71 42.26a3.402 3.402 0 01-.343-.084c-.522-.697-.087-1.652-.476-2.384-.44-1.372.049-2.726.058-4.089.116-.492.232-.984.346-1.48l.024-3.506c-.336-.675-.524-1.303.396-1.549.032.697.06 1.39.092 2.087.002.807.005 1.612.01 2.416-.01.54-.02 1.08-.027 1.624.353.796.068 1.663.22 2.48.242 1.401.307 2.8-.029 4.193-.09.1-.181.195-.27.291z" fill="#303030"/><path d="M3.321 26.037c-.007-1.249-.012-2.497-.02-3.746-.137-.246-.117-.474.054-.685 1.184.237.218 1.687.817 2.255l-.008 2.701c-.135.01-.27.012-.408.015-.266-.057-.283-.369-.389-.588l-.046.048z" fill="#141414"/><path d="M4.172 23.864l-.846-2.159c-.3.337-.72.349-.838-.05-.264-.883.62-.604.821-1.06l-.039-.027c.358-.199.17-.81.5-1.03h.406l-.004 4.326z" fill="#131313"/><path d="M3.367 25.992l.39.588c-.015 1.43-.03 2.855-.042 4.284-.44.444-.355 1.08-.396 1.675-.515-.588-1.65-.144-1.665-1.56 2.025-.886 1.57-3.096 1.713-4.987z" fill="#606060"/><path d="M4.194 37.736l-.435.006.029-2.447c.662.697.297 1.621.406 2.44z" fill="#151515"/><path d="M3.77 19.538c-.048.432-.108.855-.5 1.03l.022-1.597.015-3.236c.137-.003.275-.01.413-.021l.05 3.824z" fill="#323232"/><path d="M2.563 35.334c-.324-.093-.457-.393-.464-.756-.008-.349.046-.763.44-.637.137.045.265.37.306.592.06.318.078.687-.282.801z" fill="#B8B8B8"/><path d="M3.309 20.595c.266.363-1.346.774.017 1.11-.007.196-.017.39-.024.586-.438-.01-.875-.015-1.312-.024-.13-1.255.38-1.73 1.319-1.672z" fill="#1E1E1E"/></svg>