<svg width="149" height="22" fill="none" xmlns="http://www.w3.org/2000/svg"><path d="M141.614 13.43c0-.931.358-1.751 1.074-2.46.761-.71 1.679-1.065 2.753-1.065.94 0 1.768.355 2.485 1.064.716.71 1.074 1.53 1.074 2.46 0 1.065-.336 1.973-1.007 2.727-.672.71-1.522 1.064-2.552 1.064-1.074 0-1.992-.354-2.753-1.064-.716-.753-1.074-1.662-1.074-2.726z" fill="#878787"/><path d="M10.588 17.02H0V.264h2.973v14.005h7.615v2.753zm10.084-3.016l.798 1.94c-1.08.893-2.466 1.34-4.158 1.34-1.74 0-3.159-.519-4.255-1.556-1.063-1.021-1.595-2.386-1.595-4.094 0-1.596.524-2.936 1.571-4.021 1.048-1.086 2.442-1.628 4.182-1.628 1.434 0 2.651.47 3.65 1.412 1 .942 1.499 2.139 1.499 3.591 0 .638-.056 1.133-.17 1.484H14.34c.112.782.459 1.397 1.039 1.844.596.446 1.337.67 2.224.67 1.209 0 2.232-.327 3.07-.982zm-3.578-5.721c-1.58 0-2.53.782-2.852 2.346h5.342c.016-.686-.21-1.245-.677-1.676-.451-.447-1.055-.67-1.813-.67zm8.381 7.421c-1.08-1.07-1.62-2.426-1.62-4.07 0-1.643.54-2.992 1.62-4.045 1.08-1.07 2.514-1.604 4.303-1.604 1.773 0 3.199.534 4.279 1.604C35.151 8.642 35.7 9.99 35.7 11.634c0 1.628-.548 2.985-1.644 4.07-1.095 1.053-2.522 1.58-4.278 1.58-1.789 0-3.223-.527-4.303-1.58zm2.2-6.272c-.564.575-.846 1.309-.846 2.202 0 .894.274 1.636.822 2.227.564.574 1.273.861 2.127.861.87 0 1.58-.287 2.127-.861.564-.575.846-1.317.846-2.227 0-.893-.282-1.627-.846-2.202-.564-.575-1.273-.862-2.127-.862-.838 0-1.54.287-2.103.862zm16.899 2.322h-6.091V9.193h6.091v2.561zm10.636.814c0-.51-.194-.958-.58-1.34a4.029 4.029 0 00-1.402-.958c-.564-.255-1.185-.543-1.862-.862a24.13 24.13 0 01-1.837-1.03c-.564-.366-1.04-.87-1.426-1.507-.37-.655-.556-1.405-.556-2.25 0-1.293.475-2.387 1.426-3.28C49.956.447 51.237 0 52.817 0c2.143 0 3.755.598 4.834 1.795l-1.595 2.203c-.854-.83-1.853-1.245-2.997-1.245-.726 0-1.306.168-1.741.503-.419.335-.628.782-.628 1.34 0 .288.056.559.169.814.112.24.233.44.362.599.145.16.371.335.677.526.322.192.572.336.75.431a141.239 141.239 0 011.861.814c.709.32 1.33.655 1.861 1.006.597.35 1.072.853 1.426 1.508.371.654.556 1.404.556 2.25 0 1.404-.54 2.546-1.62 3.423-1.079.878-2.425 1.317-4.036 1.317a8.68 8.68 0 01-3.36-.694c-1.064-.479-1.789-1.125-2.176-1.94l1.692-2.01a4.652 4.652 0 001.74 1.388c.726.335 1.443.503 2.152.503.742 0 1.338-.176 1.789-.527.451-.35.677-.83.677-1.436zm8.55 4.452h-2.78V.264h2.78V7.23c.807-.782 1.846-1.173 3.12-1.173 2.98 0 4.471 1.572 4.471 4.716v6.248h-2.78v-5.89c0-.797-.21-1.412-.628-1.843-.42-.43-1.016-.646-1.79-.646-.934 0-1.732.327-2.392.982v7.397zm13.608 0h-2.78V6.249h2.78v10.773zm-3.07-14.65c0-.479.161-.862.483-1.15.339-.302.758-.454 1.257-.454.435 0 .806.152 1.112.455.323.303.484.686.484 1.149 0 .51-.161.926-.484 1.245a1.485 1.485 0 01-1.112.479c-.5 0-.918-.16-1.257-.48-.322-.318-.483-.733-.483-1.244zm9.363 19.438h-2.78V6.248h2.78v1.03c.355-.384.838-.695 1.45-.934a5.2 5.2 0 011.91-.36c1.499 0 2.692.511 3.578 1.533.902 1.037 1.354 2.354 1.354 3.95 0 1.675-.532 3.064-1.596 4.165s-2.45 1.652-4.158 1.652c-1.096 0-1.942-.176-2.538-.527v5.051zm2.49-13.238c-.967 0-1.797.391-2.49 1.173V14.1c.66.415 1.426.623 2.297.623.918 0 1.651-.296 2.2-.886.563-.59.845-1.357.845-2.298 0-.894-.257-1.612-.773-2.155-.5-.543-1.193-.814-2.079-.814zM97.14 21.808h-2.78V6.248h2.78v1.03c.355-.384.839-.695 1.451-.934a5.2 5.2 0 011.91-.36c1.498 0 2.691.511 3.577 1.533.903 1.037 1.354 2.354 1.354 3.95 0 1.675-.532 3.064-1.595 4.165-1.064 1.101-2.45 1.652-4.158 1.652-1.096 0-1.942-.176-2.538-.527v5.051zM99.63 8.57c-.966 0-1.796.391-2.49 1.173V14.1c.661.415 1.427.623 2.297.623.919 0 1.652-.296 2.2-.886.564-.59.846-1.357.846-2.298 0-.894-.258-1.612-.774-2.155-.499-.543-1.192-.814-2.079-.814zm11.401 8.45h-2.78V6.249h2.78v10.773zm-3.07-14.65c0-.479.161-.862.483-1.15.339-.302.758-.454 1.257-.454.435 0 .806.152 1.112.455.323.303.484.686.484 1.149 0 .51-.161.926-.484 1.245a1.485 1.485 0 01-1.112.479c-.499 0-.918-.16-1.257-.48-.322-.318-.483-.733-.483-1.244zm9.363 14.65h-2.78V6.249h2.78v1.077c.806-.845 1.845-1.268 3.119-1.268 2.981 0 4.472 1.548 4.472 4.644v6.32h-2.78V11.18c0-1.692-.814-2.538-2.442-2.538-.886 0-1.676.343-2.369 1.03v7.349zm8.99 1.461c0-.846.314-1.548.943-2.107.628-.574 1.491-.981 2.587-1.22a1.458 1.458 0 01-.194-.743c0-.303.081-.558.242-.766-.806-.319-1.442-.798-1.91-1.436a3.754 3.754 0 01-.677-2.178c0-1.102.427-2.051 1.282-2.85.854-.797 1.974-1.196 3.36-1.196 1.047 0 1.974.255 2.78.766l3.287-.718.097 2.202-1.813.407a4 4 0 01.266 1.389c0 1.085-.427 2.026-1.282 2.824-.838.766-1.949 1.15-3.335 1.15h-.194a1.668 1.668 0 00-.048.406c0 .208.048.391.145.55h.121c1.692 0 3.054.296 4.085.887 1.048.606 1.571 1.484 1.571 2.633s-.523 2.027-1.571 2.633c-1.031.59-2.393.886-4.085.886-1.741 0-3.119-.303-4.134-.91-1.015-.59-1.523-1.46-1.523-2.609zm2.587 0c0 .415.266.734.797.957.548.24 1.306.36 2.273.36 2.03 0 3.046-.44 3.046-1.317 0-.399-.266-.718-.798-.958-.532-.239-1.281-.359-2.248-.359-.951 0-1.7.12-2.248.36-.548.239-.822.558-.822.957zm3.046-6.703c.596 0 1.079-.16 1.45-.479.387-.319.58-.742.58-1.268 0-.543-.185-.982-.556-1.317-.371-.335-.862-.503-1.474-.503-.613 0-1.104.176-1.475.527-.371.335-.556.766-.556 1.293 0 .51.185.933.556 1.268.371.32.862.479 1.475.479z" fill="#000"/></svg>